<svg xmlns="http://www.w3.org/2000/svg" viewBox="0 0 600 103.63"><defs><style>.cls-1{fill:#4d4d4d;}</style></defs><title>Asset 79</title><g id="Layer_2" data-name="Layer 2"><g id="Layer_1-2" data-name="Layer 1"><path class="cls-1" d="M54.21,0V23.44h-33v5.9h33v24.2h-33L0,103.63,0,0Z"/><path class="cls-1" d="M65.46,71.53V.27H75.55V62.36h33.92v9.17Z"/><path class="cls-1" d="M115.53.27h10.13v40.9a43.65,43.65,0,0,0,.74,9.68,12.51,12.51,0,0,0,2.47,4.94,19.89,19.89,0,0,0,7.49,5.55,25,25,0,0,0,9.83,1.83q9.27,0,14.93-4.79a15.75,15.75,0,0,0,5.65-12.63V.27h10.14V46.06q0,11.92-8.51,19.33T146.2,72.81a35.83,35.83,0,0,1-14.62-2.88,29,29,0,0,1-11-8.43,19.83,19.83,0,0,1-3.9-7.38q-1.15-4.08-1.14-12.53Z"/><path class="cls-1" d="M191.84,71.53V.27h42.84V9.34H201.92v21.6h31.84v9.22H201.92V62.36h33.83v9.17Z"/><path class="cls-1" d="M248.58,71.53V.27h8.86l46.92,55.32V.27h10.14V71.53h-9.07L258.66,16.16V71.53Z"/><path class="cls-1" d="M349,71.53v-62H322.8V.27h62.5V9.54H359.12v62Z"/><path class="cls-1" d="M417.36,71.53V.27h10.09V62.36h33.92v9.17Z"/><path class="cls-1" d="M472.64,71.53V.27h10.19V71.53Z"/><path class="cls-1" d="M501,71.53V.27h40.55V9.34H511.1V30.43h29.55V39.6H511.1V71.53Z"/><path class="cls-1" d="M556.09,71.53V.27h42.84V9.34H566.17v21.6H598v9.22H566.17V62.36H600v9.17Z"/></g></g></svg>