<svg xmlns="http://www.w3.org/2000/svg" xmlns:xlink="http://www.w3.org/1999/xlink" viewBox="0 0 391.99 80.8"><defs><style>.cls-1{fill:none;stroke-miterlimit:10;stroke:url(#linear-gradient);}.cls-2{fill:#404040;}</style><linearGradient id="linear-gradient" y1="40.4" x2="391.99" y2="40.4" gradientUnits="userSpaceOnUse"><stop offset="0" stop-color="#310036"/><stop offset="1" stop-color="#220064"/></linearGradient></defs><title>Asset 83</title><g id="Layer_2" data-name="Layer 2"><g id="Layer_1-2" data-name="Layer 1"><rect class="cls-1" x="0.5" y="0.5" width="390.99" height="79.8" rx="39.9" ry="39.9"/><path class="cls-2" d="M72,37.07h7.93V47.43a22.42,22.42,0,0,1-3.63.88,23.6,23.6,0,0,1-3.48.25q-4.52,0-6.91-2.66t-2.39-7.64a10.07,10.07,0,0,1,2.77-7.55A10.51,10.51,0,0,1,74,28a14.85,14.85,0,0,1,5.93,1.23L78.5,32.64a10.05,10.05,0,0,0-4.55-1.09,5.62,5.62,0,0,0-4.4,1.85,7.16,7.16,0,0,0-1.65,5,8,8,0,0,0,1.33,5A4.61,4.61,0,0,0,73.1,45a13.69,13.69,0,0,0,2.69-.27V40.6H72Z"/><path class="cls-2" d="M103.53,38.27q0,5-2.46,7.63T94,48.57q-4.59,0-7.05-2.67T84.5,38.25q0-5,2.47-7.62T94,28q4.61,0,7,2.65T103.53,38.27Zm-14.59,0a8.35,8.35,0,0,0,1.27,5A4.45,4.45,0,0,0,94,45q5.07,0,5.07-6.74t-5-6.75a4.48,4.48,0,0,0-3.81,1.7A8.32,8.32,0,0,0,88.94,38.27Z"/><path class="cls-2" d="M124.06,48.29h-4.24V31.83h-5.43V28.31h15.09v3.53h-5.43Z"/><path class="cls-2" d="M151.41,38.27q0,5-2.46,7.63t-7.05,2.67q-4.59,0-7.05-2.67t-2.46-7.66q0-5,2.47-7.62T141.92,28q4.61,0,7,2.65T151.41,38.27Zm-14.59,0a8.35,8.35,0,0,0,1.27,5,4.45,4.45,0,0,0,3.8,1.7Q147,45,147,38.27t-5-6.75a4.48,4.48,0,0,0-3.81,1.7A8.32,8.32,0,0,0,136.82,38.27Z"/><path class="cls-2" d="M183.69,48.29h-4.83l-2.71-10.5q-.15-.56-.51-2.32t-.42-2.36q-.08.74-.41,2.37t-.51,2.33l-2.69,10.47h-4.81l-5.1-20h4.17l2.56,10.91q.67,3,1,5.24.08-.78.38-2.41t.55-2.54l2.91-11.2h4l2.91,11.2q.19.75.48,2.3t.44,2.65q.14-1.07.44-2.66t.55-2.58l2.54-10.91h4.17Z"/><path class="cls-2" d="M203.5,48.29H192v-20H203.5v3.47h-7.27v4.39H203v3.47h-6.77v5.15h7.27Z"/><path class="cls-2" d="M208.37,28.31h6.22q4.25,0,6.17,1.21a4.21,4.21,0,0,1,1.92,3.85,4.85,4.85,0,0,1-.84,2.94,3.36,3.36,0,0,1-2.24,1.38v.14a4.4,4.4,0,0,1,2.74,1.59,5.16,5.16,0,0,1,.84,3.09,5.09,5.09,0,0,1-2,4.27,8.55,8.55,0,0,1-5.37,1.53h-7.48Zm4.24,7.92h2.46a4.5,4.5,0,0,0,2.5-.53,2,2,0,0,0,.77-1.76,1.77,1.77,0,0,0-.84-1.65,5.4,5.4,0,0,0-2.66-.5h-2.23Zm0,3.36v5.21h2.76a4.1,4.1,0,0,0,2.58-.67,2.47,2.47,0,0,0,.83-2.05q0-2.49-3.55-2.49Z"/><path class="cls-2" d="M239.68,42.74A5.17,5.17,0,0,1,237.74,47a8.46,8.46,0,0,1-5.42,1.56,12.74,12.74,0,0,1-5.66-1.2V43.43a23.3,23.3,0,0,0,3.42,1.27,10.14,10.14,0,0,0,2.56.37,3.65,3.65,0,0,0,2.14-.53,1.82,1.82,0,0,0,.75-1.59,1.75,1.75,0,0,0-.33-1,3.66,3.66,0,0,0-1-.88,24.89,24.89,0,0,0-2.59-1.35A12.28,12.28,0,0,1,228.9,38a6.2,6.2,0,0,1-1.46-1.85,5.27,5.27,0,0,1-.55-2.46,5.17,5.17,0,0,1,1.8-4.17,7.47,7.47,0,0,1,5-1.52,11.74,11.74,0,0,1,3,.37,20.49,20.49,0,0,1,3,1l-1.37,3.29a20,20,0,0,0-2.65-.92,8.53,8.53,0,0,0-2.06-.26,2.72,2.72,0,0,0-1.85.56,1.85,1.85,0,0,0-.64,1.46,1.81,1.81,0,0,0,.26,1,2.85,2.85,0,0,0,.83.81,25.57,25.57,0,0,0,2.69,1.4,10.7,10.7,0,0,1,3.84,2.69A5.24,5.24,0,0,1,239.68,42.74Z"/><path class="cls-2" d="M244,48.29v-20h4.24v20Z"/><path class="cls-2" d="M261.69,48.29h-4.24V31.83H252V28.31h15.09v3.53h-5.43Z"/><path class="cls-2" d="M282.4,48.29H270.89v-20H282.4v3.47h-7.27v4.39h6.77v3.47h-6.77v5.15h7.27Z"/><path class="cls-2" d="M355.67,41.4H323.92a1,1,0,0,1,0-2h31.75a1,1,0,0,1,0,2Z"/><path class="cls-2" d="M345,52a1,1,0,0,1-.71-1.71l9.93-9.93-9.93-9.93a1,1,0,0,1,1.41-1.41l10.64,10.64a1,1,0,0,1,0,1.41L345.73,51.74A1,1,0,0,1,345,52Z"/></g></g></svg>