<svg xmlns="http://www.w3.org/2000/svg" xmlns:xlink="http://www.w3.org/1999/xlink" viewBox="0 0 1920 1071.03"><defs><style>.cls-1,.cls-9{fill:#3498db;}.cls-2{isolation:isolate;}.cls-3{opacity:0.3;}.cls-4{fill:#e6f7ff;}.cls-5{font-size:45px;letter-spacing:0.03em;}.cls-5,.cls-7,.cls-8{fill:#354b60;}.cls-5,.cls-7{font-family:OpenSans-SemiBold, Open Sans;font-weight:700;}.cls-6{font-family:OpenSans-ExtraBold, Open Sans;}.cls-7{font-size:34px;letter-spacing:0.03em;}.cls-10,.cls-9{fill-rule:evenodd;}.cls-10,.cls-14{fill:#fff;}.cls-11{fill:#d6eaf2;mix-blend-mode:multiply;}.cls-12{fill:#97dfff;}.cls-13{fill:#55c3fe;}.cls-15{fill:#e9eeff;}.cls-16{fill:#fe7386;}.cls-17{fill:#227cc6;}.cls-18{fill:#1f1f8c;}.cls-19{fill:#fdc5b6;}.cls-20{fill:#155a93;}.cls-21{fill:#112f5b;}.cls-22{fill:#ff7382;}.cls-23{clip-path:url(#clip-path);}.cls-24{clip-path:url(#clip-path-2);}.cls-25{clip-path:url(#clip-path-3);}.cls-26{clip-path:url(#clip-path-4);}.cls-27{clip-path:url(#clip-path-5);}.cls-28{clip-path:url(#clip-path-6);}.cls-29{clip-path:url(#clip-path-7);}.cls-30{clip-path:url(#clip-path-8);}</style><clipPath id="clip-path"><path class="cls-1" d="M1357.48,842.6v2.69s0-.09,0-.13c0-2.71-1.91-5.26-5.24-7.18a25.71,25.71,0,0,0-12.66-3,25.2,25.2,0,0,0-12.46,3.06v-2.69a25.19,25.19,0,0,1,12.46-3.06,25.71,25.71,0,0,1,12.66,3c3.32,1.92,5.19,4.47,5.24,7.18C1357.48,842.51,1357.48,842.56,1357.48,842.6Z"/></clipPath><clipPath id="clip-path-2"><path class="cls-1" d="M1364.49,842.62v2.69c0,3.76-2.51,7.29-7.06,10v-2.69C1362,849.91,1364.48,846.37,1364.49,842.62Z"/></clipPath><clipPath id="clip-path-3"><path class="cls-1" d="M1326.68,853.68v2.66A2.89,2.89,0,0,0,1325,854a8.85,8.85,0,0,0-8,0v-2.69a8.85,8.85,0,0,1,8,0,2.89,2.89,0,0,1,1.69,2.31Z"/></clipPath><clipPath id="clip-path-4"><path class="cls-1" d="M1333.68,853.71v2.69c0,1.9-1.32,3.76-3.62,5.12v-2.69C1332.36,857.47,1333.67,855.61,1333.68,853.71Z"/></clipPath><clipPath id="clip-path-5"><path class="cls-1" d="M1284.67,868.11v-2.69a1.78,1.78,0,0,0,1.05,1.46,5.45,5.45,0,0,0,4.95,0v2.69a5.45,5.45,0,0,1-4.95,0A1.78,1.78,0,0,1,1284.67,868.11Z"/></clipPath><clipPath id="clip-path-6"><path class="cls-1" d="M1266.5,876.55v-2.69c0-1.71,1.11-3.42,3.34-4.73v2.69C1267.61,873.13,1266.5,874.84,1266.5,876.55Z"/></clipPath><clipPath id="clip-path-7"><path class="cls-1" d="M1306.33,880.43v-2.69a1.77,1.77,0,0,0,1,1.46,5.46,5.46,0,0,0,5,0v2.69a5.46,5.46,0,0,1-5,0A1.77,1.77,0,0,1,1306.33,880.43Z"/></clipPath><clipPath id="clip-path-8"><path class="cls-1" d="M1259.51,876.51v-2.69c0,2.81,1.86,5.64,5.6,7.8a27.09,27.09,0,0,0,13.3,3.12,26.59,26.59,0,0,0,13.18-3.23v2.69a26.59,26.59,0,0,1-13.18,3.23,27.09,27.09,0,0,1-13.3-3.12C1261.37,882.15,1259.5,879.32,1259.51,876.51Z"/></clipPath></defs><title>Asset 77</title><g class="cls-2"><g id="Layer_2" data-name="Layer 2"><g id="Layer_1-2" data-name="Layer 1"><g class="cls-3"><path class="cls-4" d="M0,597.14S332.28,1071,973.85,1071C1560.28,1071,1920,597.14,1920,597.14V0H0Z"/><text class="cls-5" transform="translate(582.64 314.02)">HOW DO WE ENSURE <tspan class="cls-6" x="486.15" y="0">LEARNING</tspan><tspan x="733.21" y="0">?</tspan></text><text class="cls-7" transform="translate(555.63 423.37)">Our Pedagogy includes the following attributes</text><path class="cls-8" d="M263,141.47a1.1,1.1,0,0,1-1.16-.89l-.34-2.63a10.61,10.61,0,0,1-8.1,3.91c-5.35,0-8.17-3.7-8.17-9.25V117h4.29v15.6c0,3.7,1.69,5.82,5.13,5.82a8.78,8.78,0,0,0,6.6-3.38V117h4.29v24.47Zm21-33c0,.22-.17.34-.46.34s-1-.14-2-.14c-3.18,0-5.42,1.74-5.42,6.55v3h7.78v1.71H276.2v21.57h-2.29V119.94l-3.37-.22c-.46,0-.7-.24-.7-.6v-.94h4.07v-3c0-5.51,3-8.29,7.35-8.29a8.06,8.06,0,0,1,2.84.51l-.07,1.11Zm19.8,33a.82.82,0,0,1-.89-.68l-.34-3.07c-2.65,2.59-5,4.13-9,4.13-3.28,0-6.41-1.86-6.41-6.21,0-4.08,4.43-7.05,15.3-7.32v-2.51c0-4.44-1.93-6.93-5.69-6.93-4.63,0-6.31,3.09-7.28,3.09a.8.8,0,0,1-.72-.43l-.41-.7a11.55,11.55,0,0,1,8.65-3.82c5.13,0,7.69,3.43,7.69,8.79v15.65Zm-1.33-11.6c-9.13.27-13.08,2.3-13.08,5.68s2.26,4.64,4.77,4.64c3.78,0,6-1.74,8.31-4.06v-6.26Zm19.32,11.91a8.35,8.35,0,0,1-7.42-3.86l-.14,2.95a.59.59,0,0,1-.65.6h-1.4V106.32h2.31v15.32c2.12-2.83,4.91-4.59,8.41-4.59,5.88,0,9.35,4.06,9.35,12.25,0,7-3.73,12.49-10.46,12.49Zm.46-22.9c-3.18,0-5.73,1.74-7.76,4.66v12.68a7.46,7.46,0,0,0,6.87,3.74c5.64,0,8.53-4.35,8.53-10.68,0-7.15-2.72-10.41-7.64-10.41Zm33.8,9.61H338.75V129c0,7.22,3.47,11,8.87,11,4.84,0,6.94-2.58,7.56-2.58a.53.53,0,0,1,.48.24l.63.77c-1.54,1.93-5.23,3.41-8.84,3.41-6.58,0-11-4.66-11-12.83,0-6.88,4-11.91,10.82-11.91,5.4,0,9.42,3.79,9.42,10.53,0,.7-.19.92-.65.92Zm-8.75-9.74c-4.91,0-7.9,3.24-8.48,8.26h15.8c0-5.15-3-8.26-7.32-8.26Zm29,.75a.43.43,0,0,1-.48.39,11.54,11.54,0,0,0-3.37-.63c-3.64,0-5.85,2.32-7.3,6.57v15.63h-2.29v-24h1.2c.55,0,.77.19.8.75l.19,5.07c1.54-3.89,4.07-6.23,7.83-6.23a7.7,7.7,0,0,1,3.73.89l-.31,1.59Z"/><path class="cls-9" d="M189.73,101.62a27.17,27.17,0,1,1-27.1,27.17,27.13,27.13,0,0,1,27.1-27.17Z"/><path class="cls-10" d="M198.76,129.39a1.21,1.21,0,0,0,0,2.42h4.82a12.06,12.06,0,0,1-12,12.08h-.19V125.77a6,6,0,0,1,6-6h6.21v9.66Zm-22.88,2.42V117.31h.19a12.06,12.06,0,0,1,12,12.08v14.49h-.19a12.06,12.06,0,0,1-12-12.08Z"/><polygon class="cls-11" points="903.79 1016.05 688.6 891.81 594.68 841.06 930.61 654.47 1312.8 820.43 974.43 1016.08 903.79 1016.05"/><path class="cls-11" d="M1115.63,1008c-53-30.74,89.15-52.34,146.66-48.33C1507.37,976.78,1165.5,1037,1115.63,1008Z"/><polygon class="cls-1" points="1249.04 851.34 1272.33 834.38 1270.81 790.41 904.68 652.47 636.85 807.1 981.2 1005.9 1249.04 851.34"/><polygon class="cls-12" points="981.69 1026.9 637.34 828.1 637.34 806.02 981.69 1004.81 981.69 1026.9"/><polygon class="cls-12" points="637.33 717.1 981.69 915.88 1249.53 761.33 905.17 562.46 637.33 717.1"/><path class="cls-13" d="M1255.57,763.54l-6-2.21v22h0c19.68,7.37,26.59,44.16,7.67,61l-7.67,5.9v22s5.24-2.65,16.26-11.56C1293.61,838.22,1286.4,774.83,1255.57,763.54Z"/><path class="cls-14" d="M729.69,708.42l267.86,155,177.75-102.36L906.36,604.64Z"/><polygon class="cls-14" points="1247.7 773.41 1199.61 805.77 978.89 931.63 667.67 751.96 667.67 812.37 978.89 992.03 1247.7 837.42 1247.7 773.41"/><polygon class="cls-15" points="981.93 990.28 1247.7 837.42 1247.7 773.41 1199.61 805.77 982.95 929.31 981.93 990.28"/><polygon class="cls-13" points="1249.52 872.27 981.69 1026.9 981.69 1004.81 1249.52 850.25 1249.52 872.27"/><polygon class="cls-1" points="1249.52 783.34 981.69 937.98 981.69 915.89 1249.52 761.33 1249.52 783.34"/><polygon class="cls-15" points="981.69 937.98 637.34 739.18 637.34 717.09 981.69 915.89 981.69 937.98"/><polygon class="cls-16" points="1036.92 923.67 1036.92 992.78 1054.94 962.94 1069.75 972.82 1067.93 906.34 1036.92 923.67"/><polygon class="cls-1" points="654.38 733.12 633.61 717.99 634.97 678.79 961.41 555.8 1200.2 693.67 893.18 870.92 654.38 733.12"/><polygon class="cls-17" points="892.74 889.64 1199.77 712.4 1199.77 692.7 892.74 869.95 892.74 889.64"/><polygon class="cls-1" points="1199.77 613.43 892.75 790.66 653.94 652.86 960.97 475.55 1199.77 613.43"/><path class="cls-13" d="M648.55,654.83l5.39-2v19.63h0c-17.55,6.57-23.71,39.37-6.84,54.4l6.84,5.26v19.63s-4.67-2.37-14.5-10.31C614.64,721.42,621.07,664.9,648.55,654.83Z"/><polygon class="cls-14" points="655.57 663.64 698.45 692.49 895.24 804.7 1172.72 644.51 1172.72 698.37 895.24 858.55 655.57 720.7 655.57 663.64"/><polygon class="cls-15" points="892.53 856.99 655.57 720.7 655.57 663.64 698.45 692.49 891.62 802.63 892.53 856.99"/><polygon class="cls-13" points="653.94 751.77 892.74 889.64 892.74 869.95 653.94 732.15 653.94 751.77"/><polygon class="cls-13" points="653.94 672.49 892.74 810.36 892.74 790.66 653.94 652.86 653.94 672.49"/><polygon class="cls-17" points="892.74 810.36 1199.77 633.11 1199.77 613.42 892.74 790.66 892.74 810.36"/><path class="cls-18" d="M1155,976.83a5,5,0,0,1-3.56-4.36L1105.34,640.9c-.35-2.52,1-4.62,3-4.69s3.9,1.89,4.25,4.42l46.13,331.56c.35,2.52-1,4.62-3,4.7A3,3,0,0,1,1155,976.83Z"/><path class="cls-18" d="M1238.09,943.24a5,5,0,0,1-3.56-4.36l-46.13-331.56c-.35-2.52,1-4.62,3-4.69s3.9,1.9,4.25,4.42l46.13,331.56c.35,2.52-1,4.62-3,4.69A3,3,0,0,1,1238.09,943.24Z"/><path class="cls-18" d="M1119.25,710.44a4.51,4.51,0,0,1-3.07-2.67c-1.07-2.31-.54-5,1.18-6l79.53-46.68c1.72-1,4,0,5.05,2.34s.54,5-1.18,6l-79.53,46.68A2.79,2.79,0,0,1,1119.25,710.44Z"/><path class="cls-18" d="M1126.9,769.45a4.51,4.51,0,0,1-3.07-2.67c-1.07-2.31-.54-5,1.18-6l79.53-46.68c1.71-1,4,0,5.05,2.34s.54,5-1.18,6l-79.53,46.68A2.8,2.8,0,0,1,1126.9,769.45Z"/><path class="cls-18" d="M1134.54,828.47a4.51,4.51,0,0,1-3.07-2.67c-1.07-2.31-.54-5,1.18-6l79.53-46.68c1.71-1,4,0,5.05,2.34s.54,5-1.18,6l-79.53,46.68A2.79,2.79,0,0,1,1134.54,828.47Z"/><path class="cls-18" d="M1142.19,887.48a4.51,4.51,0,0,1-3.07-2.67c-1.07-2.31-.54-5,1.18-6l79.53-46.68c1.72-1,4,0,5.05,2.34s.54,5-1.18,6l-79.53,46.68A2.8,2.8,0,0,1,1142.19,887.48Z"/><path class="cls-18" d="M1149.84,946.49a4.51,4.51,0,0,1-3.07-2.67c-1.07-2.3-.54-5,1.18-6l79.53-46.68c1.72-1,4,0,5.05,2.34s.54,5-1.18,6l-79.53,46.68A2.8,2.8,0,0,1,1149.84,946.49Z"/><circle class="cls-19" cx="1195.21" cy="661.01" r="6.92" transform="translate(-151.82 435.22) rotate(-19.43)"/><path class="cls-19" d="M1198.67,664.05s19,39.33,20.74,46.28c1.35,5.35-8.56,12.92-12.49,8.77s-14.25-53.34-14.25-53.34Z"/><path class="cls-20" d="M1235.59,732.91c-7.78-9.42-12.6-20.86-18.2-31.72-.69-1.33-1.55-2.79-3-3.16a5.46,5.46,0,0,0-3.39.64c-4.32,1.84-9.36,4.74-9.26,9.43a11.74,11.74,0,0,0,1.16,4.21A476.13,476.13,0,0,0,1233,772.06c1.79,3,4.11,6.32,7.6,6.66,3.7.35,6.72-2.86,8.72-6,3.36-5.27,9.32-15.81,6.2-22.26C1252.29,743.74,1240.63,739,1235.59,732.91Z"/><circle class="cls-19" cx="1147.33" cy="685.25" r="6.92" transform="translate(-162.6 420.64) rotate(-19.43)"/><path class="cls-16" d="M1264.6,983.14a12,12,0,0,1-11.48-8.5l-19.33-63.38a11.81,11.81,0,0,1-.44-2.13l-9.67-83.78a12,12,0,1,1,23.85-2.75l9.55,82.7,19,62.33a12,12,0,0,1-11.48,15.51Z"/><circle class="cls-19" cx="1233.22" cy="732.84" r="21" transform="translate(-65.26 1342.63) rotate(-55.88)"/><path class="cls-16" d="M1181.88,926.22a12,12,0,0,1-11.65-9.15l-12.89-52.64a12,12,0,0,1,5.91-13.39l47.26-25.78A12,12,0,0,1,1222,846.33l-39.15,21.36,10.69,43.67a12,12,0,0,1-11.67,14.86Z"/><path class="cls-21" d="M1189.33,921.54s-.4,8.61-.5,9.38-3.75,2.62-9.09,1.55-20.34-6.06-23-8.64,5.67-2,10.75-1.56,14.92-.73,14.92-.73Z"/><path class="cls-20" d="M1247.06,800.26c2.8-6.3,7-23.09,7-23.09,4.72-14.19,3.26-22.06,1.15-26.21-7.45-3.72-20.2,2.32-20.2,2.32s-18.36,6.53-29.23,15.49c-3.83,3.15-1.32,19.52-.5,36.66.54,11.41-5.07,27-5.07,27s19.57,8.4,30.07,7.7,23.09-5.6,21.69-10.5S1244.27,806.56,1247.06,800.26Z"/><path class="cls-19" d="M1150.79,688.3s19,39.33,20.74,46.28c1.35,5.35-8.56,12.92-12.49,8.77S1144.79,690,1144.79,690Z"/><path class="cls-19" d="M1234.64,734.64l3.14,22.53h0a13.46,13.46,0,0,1-12.81,8.06l-2.59-.09-5-23.69Z"/><path class="cls-21" d="M1218.35,730.15c1.66-2.63,6.44-2.05,7.42.9.7,2.1.17,5.3-1.54,6.71a14,14,0,0,1-5.42,2.71c3,7.41,8.84,13.06,13.55,19.52,5.14-2,7.14-3.48,12.28-5.48a22.1,22.1,0,0,0,6.58-3.46c4.29-3.7,7.89-12.92,7.3-18.56-.82-7.94-5.08-14.08-11.3-19.07-4.81-3.86-13.37-4.53-19.35-2.79C1220,712.91,1220.12,723.15,1218.35,730.15Z"/><circle class="cls-22" cx="1255.27" cy="727.85" r="15.8" transform="translate(-51.45 1358.69) rotate(-55.88)"/><circle class="cls-21" cx="1259" cy="727.13" r="16.97" transform="translate(-49.22 1361.46) rotate(-55.88)"/><path class="cls-20" d="M1209.3,767.43l6.21,4.31a23.48,23.48,0,0,1,5.86,5.12c1.54,2.11,2.33,4.94,1.38,7.37-1.29,3.31-5.17,4.71-8.64,5.47a73.52,73.52,0,0,1-15.27,1.68,73.48,73.48,0,0,1-14.6-7c-9.37-6.14-15.41-16.17-20.29-26.26q-3.75-7.76-6.84-15.82c3.3.32,6-.72,9.15-1.81s5.9-4,5.72-7.31c3.71,7.32,7.25,14.34,11,21.66a40,40,0,0,0,4.47,7.43C1191.84,767.64,1202.43,768.55,1209.3,767.43Z"/><path class="cls-21" d="M1265.35,975.94s1.79,5.38,3.29,9.56,0,13.44,2.39,17.32,9,.6,8.66-2.69-2.09-15.83-3-17.92-7-8.72-7-8.72Z"/><g class="cls-2"><g class="cls-2"><path class="cls-1" d="M1357.48,842.6v2.69s0-.09,0-.13c0-2.71-1.91-5.26-5.24-7.18a25.71,25.71,0,0,0-12.66-3,25.2,25.2,0,0,0-12.46,3.06v-2.69a25.19,25.19,0,0,1,12.46-3.06,25.71,25.71,0,0,1,12.66,3c3.32,1.92,5.19,4.47,5.24,7.18C1357.48,842.51,1357.48,842.56,1357.48,842.6Z"/><g class="cls-23"><g class="cls-2"><path class="cls-1" d="M1357.48,842.6v2.69s0-.09,0-.13c0-2.71-1.91-5.26-5.24-7.18a20.14,20.14,0,0,0-2.57-1.22v-2.69a20.08,20.08,0,0,1,2.57,1.22c3.32,1.92,5.19,4.47,5.24,7.18,0,0,0,.09,0,.13"/><path class="cls-1" d="M1349.67,834.06v2.69q-1-.41-2.16-.73v-2.69q1.11.32,2.16.73"/><path class="cls-1" d="M1347.51,833.33V836q-.9-.26-1.85-.45v-2.69q.94.19,1.85.45"/><path class="cls-1" d="M1345.66,832.88v2.69q-.85-.18-1.73-.3v-2.69q.88.12,1.73.3"/><path class="cls-1" d="M1343.94,832.58v2.69q-.84-.12-1.7-.19v-2.69q.86.07,1.7.19"/><path class="cls-1" d="M1342.23,832.39v2.69q-.86-.07-1.75-.09V832.3q.88,0,1.75.09"/><path class="cls-1" d="M1340.49,832.3V835h-.9l-.92,0v-2.69l.92,0h.9"/><path class="cls-1" d="M1338.66,832.31V835q-1,0-2,.13v-2.69q1-.1,2-.13"/><path class="cls-1" d="M1336.7,832.44v2.69q-1.15.11-2.26.31v-2.69q1.1-.2,2.26-.31"/><path class="cls-1" d="M1334.44,832.75v2.69a25.57,25.57,0,0,0-3.28.81v-2.69a25.56,25.56,0,0,1,3.28-.81"/><path class="cls-1" d="M1331.16,833.56v2.69a20.1,20.1,0,0,0-4,1.78v-2.69a20.09,20.09,0,0,1,4-1.78"/></g></g></g><g class="cls-2"><path class="cls-1" d="M1364.49,842.62v2.69c0,3.76-2.51,7.29-7.06,10v-2.69C1362,849.91,1364.48,846.37,1364.49,842.62Z"/><g class="cls-24"><g class="cls-2"><path class="cls-1" d="M1364.49,842.62v2.69q0,.11,0,.22v-2.69q0-.11,0-.22"/><path class="cls-1" d="M1364.49,842.84v2.69a8.54,8.54,0,0,1-.16,1.43v-2.69a8.51,8.51,0,0,0,.16-1.43"/><path class="cls-1" d="M1364.32,844.27V847a9,9,0,0,1-.4,1.38v-2.69a9,9,0,0,0,.4-1.38"/><path class="cls-1" d="M1363.92,845.65v2.69a9.92,9.92,0,0,1-.65,1.39V847a9.93,9.93,0,0,0,.65-1.39"/><path class="cls-1" d="M1363.27,847v2.69a11.56,11.56,0,0,1-1,1.46V848.5a11.55,11.55,0,0,0,1-1.46"/><path class="cls-1" d="M1362.29,848.5v2.69a14.15,14.15,0,0,1-1.52,1.64v-2.69a14.17,14.17,0,0,0,1.52-1.64"/><path class="cls-1" d="M1360.77,850.14v2.69a19.18,19.18,0,0,1-3.11,2.31v-2.69a19.18,19.18,0,0,0,3.11-2.31"/><path class="cls-1" d="M1357.66,852.46v2.69l-.23.13v-2.69l.23-.13"/></g></g></g><g class="cls-2"><path class="cls-1" d="M1326.68,853.68v2.66A2.89,2.89,0,0,0,1325,854a8.85,8.85,0,0,0-8,0v-2.69a8.85,8.85,0,0,1,8,0,2.89,2.89,0,0,1,1.69,2.31Z"/><g class="cls-25"><g class="cls-2"><path class="cls-1" d="M1326.68,853.68v2.66A2.89,2.89,0,0,0,1325,854a6.28,6.28,0,0,0-.8-.38V851a6.25,6.25,0,0,1,.8.38,2.89,2.89,0,0,1,1.69,2.31v0"/><path class="cls-1" d="M1324.19,851v2.69c-.22-.09-.46-.17-.69-.23v-2.69c.24.07.47.15.69.23"/><path class="cls-1" d="M1323.5,850.72v2.69l-.6-.15v-2.69l.6.15"/><path class="cls-1" d="M1322.9,850.58v2.69l-.57-.1v-2.69l.57.1"/><path class="cls-1" d="M1322.34,850.48v2.69l-.55-.06v-2.69l.55.06"/><path class="cls-1" d="M1321.78,850.42v2.69l-.56,0v-2.69l.56,0"/><path class="cls-1" d="M1321.22,850.39v2.69h-.58v-2.69h.58"/><path class="cls-1" d="M1320.64,850.39v2.69l-.63,0v-2.69l.63,0"/><path class="cls-1" d="M1320,850.43v2.69l-.73.1v-2.69l.73-.1"/><path class="cls-1" d="M1319.29,850.53v2.69a8.17,8.17,0,0,0-1.07.27V850.8a8.17,8.17,0,0,1,1.07-.27"/><path class="cls-1" d="M1318.22,850.8v2.69a6.31,6.31,0,0,0-1.27.56v-2.69a6.31,6.31,0,0,1,1.27-.56"/></g></g></g><g class="cls-2"><path class="cls-1" d="M1333.68,853.71v2.69c0,1.9-1.32,3.76-3.62,5.12v-2.69C1332.36,857.47,1333.67,855.61,1333.68,853.71Z"/><g class="cls-26"><g class="cls-2"><path class="cls-1" d="M1333.68,853.71v2.69s0,.07,0,.11v-2.69s0-.07,0-.11"/><path class="cls-1" d="M1333.68,853.82v2.69a4.25,4.25,0,0,1-.08.71v-2.69a4.24,4.24,0,0,0,.08-.71"/><path class="cls-1" d="M1333.6,854.53v2.69a4.62,4.62,0,0,1-.2.71v-2.69a4.61,4.61,0,0,0,.2-.71"/><path class="cls-1" d="M1333.39,855.24v2.69a5.18,5.18,0,0,1-.34.73V856a5.19,5.19,0,0,0,.34-.73"/><path class="cls-1" d="M1333.05,856v2.69a6.09,6.09,0,0,1-.52.77v-2.69a6,6,0,0,0,.52-.77"/><path class="cls-1" d="M1332.54,856.73v2.69a7.4,7.4,0,0,1-.8.86v-2.69a7.4,7.4,0,0,0,.8-.86"/><path class="cls-1" d="M1331.74,857.59v2.69a9.68,9.68,0,0,1-1.57,1.17v-2.69a9.68,9.68,0,0,0,1.57-1.17"/><path class="cls-1" d="M1330.17,858.76v2.69l-.11.07v-2.69l.11-.07"/></g></g></g><polygon class="cls-1" points="1316.95 851.36 1316.94 854.06 1290.67 869.55 1290.68 866.86 1316.95 851.36"/><g class="cls-2"><path class="cls-1" d="M1284.67,868.11v-2.69a1.78,1.78,0,0,0,1.05,1.46,5.45,5.45,0,0,0,4.95,0v2.69a5.45,5.45,0,0,1-4.95,0A1.78,1.78,0,0,1,1284.67,868.11Z"/><g class="cls-27"><g class="cls-2"><path class="cls-1" d="M1290.68,866.86v2.69a3.94,3.94,0,0,1-.79.35V867.2a3.94,3.94,0,0,0,.79-.35"/><path class="cls-1" d="M1289.9,867.2v2.69a5.06,5.06,0,0,1-.66.16v-2.69a5,5,0,0,0,.66-.16"/><path class="cls-1" d="M1289.24,867.37v2.69l-.45.06v-2.69l.45-.06"/><path class="cls-1" d="M1288.79,867.43v2.69l-.39,0v-2.69l.39,0"/><path class="cls-1" d="M1288.4,867.46v2.69H1288v-2.69h.36"/><path class="cls-1" d="M1288,867.46v2.69l-.34,0v-2.69l.34,0"/><path class="cls-1" d="M1287.7,867.44v2.69l-.34,0V867.4l.34,0"/><path class="cls-1" d="M1287.36,867.4v2.69L1287,870v-2.69l.35.06"/><path class="cls-1" d="M1287,867.34V870l-.36-.09v-2.69l.36.09"/><path class="cls-1" d="M1286.65,867.25v2.69l-.43-.14v-2.69l.43.14"/><path class="cls-1" d="M1286.22,867.11v2.69a3.8,3.8,0,0,1-.49-.23,1.78,1.78,0,0,1-1.05-1.46v-2.69a1.78,1.78,0,0,0,1.05,1.46,3.87,3.87,0,0,0,.49.23"/></g></g></g><polygon class="cls-1" points="1327.12 835.35 1327.11 838.04 1269.84 871.82 1269.84 869.13 1327.12 835.35"/><g class="cls-2"><path class="cls-1" d="M1266.5,876.55v-2.69c0-1.71,1.11-3.42,3.34-4.73v2.69C1267.61,873.13,1266.5,874.84,1266.5,876.55Z"/><g class="cls-28"><g class="cls-2"><path class="cls-1" d="M1269.84,869.13v2.69l-.09.05v-2.69l.09-.05"/><path class="cls-1" d="M1269.76,869.18v2.69a9,9,0,0,0-1.47,1.09v-2.69a9.06,9.06,0,0,1,1.47-1.09"/><path class="cls-1" d="M1268.29,870.27V873a6.74,6.74,0,0,0-.73.78v-2.69a6.76,6.76,0,0,1,.73-.78"/><path class="cls-1" d="M1267.56,871.05v2.69a5.5,5.5,0,0,0-.47.7v-2.69a5.53,5.53,0,0,1,.47-.7"/><path class="cls-1" d="M1267.09,871.75v2.69a4.74,4.74,0,0,0-.31.67v-2.69a4.75,4.75,0,0,1,.31-.67"/><path class="cls-1" d="M1266.78,872.42v2.69a4.28,4.28,0,0,0-.19.66v-2.69a4.29,4.29,0,0,1,.19-.66"/><path class="cls-1" d="M1266.59,873.08v2.69a4,4,0,0,0-.08.68v-2.69a4,4,0,0,1,.08-.68"/><path class="cls-1" d="M1266.51,873.76v2.69s0,.07,0,.1v-2.69s0-.07,0-.1"/></g></g></g><polygon class="cls-1" points="1357.43 852.59 1357.42 855.28 1312.34 881.87 1312.34 879.18 1357.43 852.59"/><g class="cls-2"><path class="cls-1" d="M1306.33,880.43v-2.69a1.77,1.77,0,0,0,1,1.46,5.46,5.46,0,0,0,5,0v2.69a5.46,5.46,0,0,1-5,0A1.77,1.77,0,0,1,1306.33,880.43Z"/><g class="cls-29"><g class="cls-2"><path class="cls-1" d="M1312.34,879.18v2.69a3.91,3.91,0,0,1-.78.35v-2.69a3.94,3.94,0,0,0,.78-.35"/><path class="cls-1" d="M1311.56,879.53v2.69a5,5,0,0,1-.66.16v-2.69a5.11,5.11,0,0,0,.66-.16"/><path class="cls-1" d="M1310.9,879.69v2.69l-.45.06v-2.69l.45-.06"/><path class="cls-1" d="M1310.45,879.75v2.69l-.39,0v-2.69l.39,0"/><path class="cls-1" d="M1310.06,879.78v2.69h-.36v-2.69h.36"/><path class="cls-1" d="M1309.71,879.78v2.69l-.35,0v-2.69l.35,0"/><path class="cls-1" d="M1309.36,879.76v2.69l-.34,0v-2.69l.34,0"/><path class="cls-1" d="M1309,879.72v2.69l-.35-.06v-2.69l.35.06"/><path class="cls-1" d="M1308.67,879.66v2.69l-.37-.09v-2.69l.37.09"/><path class="cls-1" d="M1308.3,879.57v2.69l-.43-.14v-2.69l.43.14"/><path class="cls-1" d="M1307.88,879.43v2.69a3.81,3.81,0,0,1-.49-.23,1.77,1.77,0,0,1-1-1.46v-2.69a1.77,1.77,0,0,0,1,1.46,3.86,3.86,0,0,0,.49.23"/></g></g></g><polygon class="cls-1" points="1330.06 858.83 1330.05 861.52 1291.59 884.2 1291.6 881.51 1330.06 858.83"/><g class="cls-2"><path class="cls-1" d="M1259.51,876.51v-2.69c0,2.81,1.86,5.64,5.6,7.8a27.09,27.09,0,0,0,13.3,3.12,26.59,26.59,0,0,0,13.18-3.23v2.69a26.59,26.59,0,0,1-13.18,3.23,27.09,27.09,0,0,1-13.3-3.12C1261.37,882.15,1259.5,879.32,1259.51,876.51Z"/><g class="cls-30"><g class="cls-2"><path class="cls-1" d="M1291.6,881.51v2.69a21.17,21.17,0,0,1-4.28,1.89v-2.69a21.18,21.18,0,0,0,4.28-1.89"/><path class="cls-1" d="M1287.32,883.39v2.69a27,27,0,0,1-3.46.86v-2.69a27,27,0,0,0,3.46-.86"/><path class="cls-1" d="M1283.86,884.25v2.69q-1.17.21-2.38.33v-2.69q1.21-.12,2.38-.33"/><path class="cls-1" d="M1281.48,884.58v2.69q-1,.1-2.08.14v-2.69q1,0,2.08-.14"/><path class="cls-1" d="M1279.4,884.72v2.69l-1,0h-1v-2.69h1l1,0"/><path class="cls-1" d="M1277.45,884.73v2.69q-.94,0-1.85-.1v-2.69q.92.08,1.85.1"/><path class="cls-1" d="M1275.6,884.63v2.69q-.92-.08-1.81-.2v-2.69q.89.13,1.81.2"/><path class="cls-1" d="M1273.79,884.43v2.69q-.93-.13-1.83-.32v-2.69q.9.19,1.83.32"/><path class="cls-1" d="M1272,884.11v2.69q-1-.21-1.95-.48v-2.69q.95.27,1.95.48"/><path class="cls-1" d="M1270,883.63v2.69q-1.17-.33-2.25-.76v-2.69q1.08.43,2.25.76"/><path class="cls-1" d="M1267.76,882.87v2.69a20.63,20.63,0,0,1-2.64-1.26c-3.74-2.16-5.61-5-5.6-7.8v-2.69c0,2.81,1.86,5.64,5.6,7.8a20.6,20.6,0,0,0,2.64,1.26"/></g></g></g></g><path class="cls-12" d="M1357.06,832.35c4.76,2.75,7.35,6.3,7.43,10.09s-2.43,7.43-7.06,10.15l-45.09,26.59a5.46,5.46,0,0,1-5,0c-1.38-.8-1.4-2.07-.05-2.87l45.09-26.59c3.31-2,5.11-4.54,5.05-7.27s-1.91-5.26-5.24-7.18a25.71,25.71,0,0,0-12.66-3,25.19,25.19,0,0,0-12.46,3.06l-57.28,33.78c-4.5,2.66-4.44,6.94.12,9.57s12.25,2.55,16.63,0L1325.06,856a2.81,2.81,0,0,0,1.62-2.33,2.89,2.89,0,0,0-1.69-2.31,8.85,8.85,0,0,0-8,0l-26.27,15.49a5.45,5.45,0,0,1-4.95,0c-1.38-.8-1.4-2.07-.06-2.87l26.27-15.49c4.88-2.88,12.92-2.91,17.92-.08,2.44,1.41,3.78,3.24,3.81,5.18s-1.28,3.83-3.62,5.21l-38.46,22.68a26.59,26.59,0,0,1-13.18,3.23,27.09,27.09,0,0,1-13.3-3.12c-7.38-4.26-7.47-11.1-.28-15.34l57.28-33.78c4.62-2.73,10.8-4.24,17.4-4.26A35.76,35.76,0,0,1,1357.06,832.35Z"/></g></g></g></g></svg>