<svg xmlns="http://www.w3.org/2000/svg" xmlns:xlink="http://www.w3.org/1999/xlink" viewBox="0 0 769.81 551.35"><defs><style>.cls-1{fill:#3498db;}.cls-2{isolation:isolate;}.cls-3{fill:#d6eaf2;mix-blend-mode:multiply;}.cls-4{fill:#97dfff;}.cls-5{fill:#55c3fe;}.cls-6{fill:#fff;}.cls-7{fill:#e9eeff;}.cls-8{fill:#fe7386;}.cls-9{fill:#227cc6;}.cls-10{fill:#009aff;}.cls-11{fill:#1f1f8c;}.cls-12{fill:#fdc5b6;}.cls-13{fill:#155a93;}.cls-14{fill:#112f5b;}.cls-15{fill:#ff7382;}.cls-16{clip-path:url(#clip-path);}.cls-17{clip-path:url(#clip-path-2);}.cls-18{clip-path:url(#clip-path-3);}.cls-19{clip-path:url(#clip-path-4);}.cls-20{clip-path:url(#clip-path-5);}.cls-21{clip-path:url(#clip-path-6);}.cls-22{clip-path:url(#clip-path-7);}.cls-23{clip-path:url(#clip-path-8);}</style><clipPath id="clip-path"><path class="cls-1" d="M762.8,367.05v2.7a.66.66,0,0,0,0-.14c0-2.71-1.91-5.26-5.23-7.18a25.82,25.82,0,0,0-12.66-3,25.14,25.14,0,0,0-12.46,3.06V359.8a25.18,25.18,0,0,1,12.47-3.06,25.64,25.64,0,0,1,12.65,3c3.33,1.92,5.2,4.47,5.24,7.18Z"/></clipPath><clipPath id="clip-path-2"><path class="cls-1" d="M769.81,367.07v2.69c0,3.76-2.5,7.3-7,10V377C767.3,374.36,769.8,370.83,769.81,367.07Z"/></clipPath><clipPath id="clip-path-3"><path class="cls-1" d="M732,378.13v2.66a2.9,2.9,0,0,0-1.69-2.31,8.86,8.86,0,0,0-8,0v-2.69a8.83,8.83,0,0,1,8,0A2.88,2.88,0,0,1,732,378.1Z"/></clipPath><clipPath id="clip-path-4"><path class="cls-1" d="M739,378.16v2.69c0,1.91-1.31,3.76-3.62,5.12v-2.69C737.68,381.92,739,380.06,739,378.16Z"/></clipPath><clipPath id="clip-path-5"><path class="cls-1" d="M690,392.56v-2.69a1.79,1.79,0,0,0,1.06,1.46,5.48,5.48,0,0,0,4.94,0V394a5.43,5.43,0,0,1-5,0A1.77,1.77,0,0,1,690,392.56Z"/></clipPath><clipPath id="clip-path-6"><path class="cls-1" d="M671.82,401v-2.69c0-1.71,1.11-3.42,3.34-4.73v2.69C672.94,397.58,671.83,399.29,671.82,401Z"/></clipPath><clipPath id="clip-path-7"><path class="cls-1" d="M711.66,404.88v-2.69a1.78,1.78,0,0,0,1.05,1.46,5.47,5.47,0,0,0,4.95,0v2.69a5.46,5.46,0,0,1-5,0A1.74,1.74,0,0,1,711.66,404.88Z"/></clipPath><clipPath id="clip-path-8"><path class="cls-1" d="M664.83,401v-2.69c0,2.81,1.86,5.64,5.6,7.8a27.15,27.15,0,0,0,13.3,3.12A26.59,26.59,0,0,0,696.92,406v2.69a26.55,26.55,0,0,1-13.17,3.23,27,27,0,0,1-13.31-3.12C666.69,406.6,664.82,403.78,664.83,401Z"/></clipPath></defs><title>Asset 11</title><g class="cls-2"><g id="Layer_2" data-name="Layer 2"><g id="Layer_1-2" data-name="Layer 1"><polygon class="cls-3" points="309.12 540.5 93.92 416.26 0 365.51 335.93 178.93 718.12 344.88 379.75 540.53 309.12 540.5"/><path class="cls-3" d="M521,532.48c-53-30.74,89.15-52.34,146.66-48.33C912.7,501.23,570.82,561.41,521,532.48Z"/><polygon class="cls-1" points="654.36 375.79 677.65 358.83 676.13 314.86 310 176.92 42.17 331.55 386.52 530.35 654.36 375.79"/><polygon class="cls-4" points="387.01 551.35 42.66 352.56 42.66 330.47 387.01 529.26 387.01 551.35"/><polygon class="cls-4" points="42.66 241.55 387.01 440.33 654.85 285.78 310.49 86.91 42.66 241.55"/><path class="cls-5" d="M660.89,288l-6-2.21v22h0c19.68,7.38,26.59,44.16,7.67,61l-7.67,5.91v22s5.23-2.65,16.26-11.57C698.93,362.67,691.72,299.28,660.89,288Z"/><path class="cls-6" d="M135,232.87l267.86,155L580.63,285.52,311.68,129.09Z"/><polygon class="cls-6" points="653.03 297.87 604.93 330.22 384.21 456.08 72.99 276.41 72.99 336.82 384.21 516.48 653.03 361.87 653.03 297.87"/><polygon class="cls-7" points="387.26 514.73 653.03 361.87 653.03 297.87 604.93 330.22 388.27 453.76 387.26 514.73"/><polygon class="cls-5" points="654.85 396.72 387.01 551.35 387.01 529.26 654.85 374.7 654.85 396.72"/><polygon class="cls-1" points="654.85 307.79 387.01 462.43 387.01 440.34 654.85 285.78 654.85 307.79"/><polygon class="cls-7" points="387.01 462.43 42.66 263.63 42.66 241.54 387.01 440.34 387.01 462.43"/><polygon class="cls-8" points="442.24 448.12 442.24 517.23 460.27 487.39 475.07 497.27 473.25 430.79 442.24 448.12"/><polygon class="cls-1" points="59.7 257.57 38.93 242.44 40.29 203.24 366.73 80.25 605.53 218.12 298.5 395.37 59.7 257.57"/><polygon class="cls-9" points="298.06 414.09 605.09 236.85 605.09 217.16 298.06 394.4 298.06 414.09"/><polygon class="cls-10" points="605.09 137.88 298.07 315.11 59.27 177.31 366.29 0 605.09 137.88"/><path class="cls-5" d="M53.87,179.28l5.4-2v19.63h0c-17.55,6.57-23.71,39.37-6.84,54.4l6.84,5.26v19.62s-4.67-2.36-14.5-10.31C20,245.87,26.39,189.35,53.87,179.28Z"/><polygon class="cls-6" points="60.89 188.09 103.77 216.94 300.57 329.15 578.04 168.96 578.04 222.82 300.57 383 60.89 245.15 60.89 188.09"/><polygon class="cls-7" points="297.85 381.44 60.89 245.15 60.89 188.09 103.77 216.94 296.94 327.08 297.85 381.44"/><polygon class="cls-5" points="59.27 276.22 298.06 414.09 298.06 394.4 59.27 256.6 59.27 276.22"/><polygon class="cls-5" points="59.27 196.94 298.06 334.81 298.06 315.12 59.27 177.31 59.27 196.94"/><polygon class="cls-9" points="298.06 334.81 605.09 157.56 605.09 137.87 298.06 315.12 298.06 334.81"/><path class="cls-11" d="M560.35,501.28a5,5,0,0,1-3.56-4.36L510.66,165.35c-.35-2.51,1-4.62,3-4.69s3.9,1.89,4.25,4.42L564,496.64c.35,2.52-1,4.62-3,4.69A3.21,3.21,0,0,1,560.35,501.28Z"/><path class="cls-11" d="M643.42,467.69a5,5,0,0,1-3.56-4.36L593.73,131.77c-.35-2.52,1-4.62,3-4.7s3.9,1.9,4.25,4.42l46.13,331.56c.35,2.52-1,4.62-3,4.7A3.22,3.22,0,0,1,643.42,467.69Z"/><path class="cls-11" d="M524.57,234.89a4.53,4.53,0,0,1-3.07-2.67c-1.07-2.3-.54-5,1.18-6l79.53-46.68c1.72-1,4,0,5,2.34s.55,5-1.17,6l-79.53,46.68A2.8,2.8,0,0,1,524.57,234.89Z"/><path class="cls-11" d="M532.22,293.91a4.53,4.53,0,0,1-3.07-2.68c-1.07-2.3-.54-5,1.18-6l79.53-46.68c1.71-1,4,0,5,2.34s.54,5-1.18,6L534.2,293.58A2.82,2.82,0,0,1,532.22,293.91Z"/><path class="cls-11" d="M539.87,352.92a4.49,4.49,0,0,1-3.07-2.67c-1.07-2.31-.54-5,1.18-6l79.53-46.68c1.71-1,4,0,5,2.34s.54,5-1.18,6l-79.53,46.68A2.82,2.82,0,0,1,539.87,352.92Z"/><path class="cls-11" d="M547.51,411.93a4.5,4.5,0,0,1-3.06-2.67c-1.08-2.31-.55-5,1.17-6l79.53-46.68c1.72-1,4,0,5.06,2.34s.54,5-1.18,6L549.5,411.6A2.79,2.79,0,0,1,547.51,411.93Z"/><path class="cls-11" d="M555.16,470.94a4.5,4.5,0,0,1-3.06-2.67c-1.08-2.3-.55-5,1.17-6l79.53-46.68c1.72-1,4,0,5.05,2.34s.55,5-1.17,6l-79.53,46.68A2.74,2.74,0,0,1,555.16,470.94Z"/><path class="cls-12" d="M594,187.76a6.91,6.91,0,1,0,4.22-8.82A6.91,6.91,0,0,0,594,187.76Z"/><path class="cls-12" d="M604,188.5s19,39.34,20.74,46.28c1.35,5.35-8.56,12.93-12.48,8.78S598,190.22,598,190.22Z"/><path class="cls-13" d="M640.91,257.36c-7.78-9.42-12.6-20.86-18.2-31.72-.69-1.33-1.55-2.79-3-3.16a5.45,5.45,0,0,0-3.39.64c-4.32,1.84-9.36,4.74-9.26,9.43a11.87,11.87,0,0,0,1.16,4.21,476.71,476.71,0,0,0,30.13,59.75c1.79,3,4.11,6.32,7.6,6.66,3.7.35,6.72-2.87,8.72-6,3.36-5.27,9.32-15.81,6.2-22.26C657.61,268.19,646,263.46,640.91,257.36Z"/><path class="cls-12" d="M546.13,212a6.91,6.91,0,1,0,4.22-8.82A6.91,6.91,0,0,0,546.13,212Z"/><path class="cls-8" d="M669.92,507.6a12,12,0,0,1-11.48-8.51l-19.33-63.37a12,12,0,0,1-.44-2.13L629,349.81a12,12,0,0,1,23.84-2.76l9.55,82.7,19,62.34a12,12,0,0,1-8,15A12.25,12.25,0,0,1,669.92,507.6Z"/><path class="cls-12" d="M621.16,245.51a21,21,0,1,0,29.16-5.6A21,21,0,0,0,621.16,245.51Z"/><path class="cls-8" d="M587.2,450.67a12,12,0,0,1-11.64-9.16l-12.89-52.63a12,12,0,0,1,5.91-13.39l47.26-25.78a12,12,0,0,1,11.49,21.07l-39.15,21.36,10.69,43.67a12,12,0,0,1-8.8,14.51A12.31,12.31,0,0,1,587.2,450.67Z"/><path class="cls-14" d="M594.66,446s-.4,8.61-.5,9.38-3.75,2.62-9.09,1.55-20.34-6.06-23-8.64,5.67-2,10.75-1.56,14.92-.73,14.92-.73Z"/><path class="cls-13" d="M652.39,324.71c2.8-6.3,7-23.09,7-23.09,4.73-14.2,3.26-22.07,1.15-26.21-7.45-3.72-20.2,2.32-20.2,2.32S622,284.26,611.1,293.22c-3.83,3.15-1.32,19.52-.5,36.66.54,11.41-5.07,27-5.07,27s19.56,8.4,30.06,7.7,23.1-5.6,21.7-10.5S649.59,331,652.39,324.71Z"/><path class="cls-12" d="M556.11,212.75s19,39.33,20.74,46.28c1.35,5.35-8.56,12.92-12.48,8.77s-14.26-53.34-14.26-53.34Z"/><path class="cls-12" d="M640,259.09l3.14,22.53h0a13.47,13.47,0,0,1-12.81,8.06l-2.59-.1-5-23.68Z"/><path class="cls-14" d="M623.67,254.6c1.66-2.63,6.44-2,7.42.9.7,2.1.17,5.3-1.54,6.71a14,14,0,0,1-5.42,2.71c3,7.41,8.84,13.06,13.55,19.52,5.14-2,7.15-3.48,12.28-5.48a21.86,21.86,0,0,0,6.59-3.46c4.29-3.7,7.88-12.92,7.3-18.56-.82-7.94-5.08-14.08-11.3-19.07-4.82-3.86-13.37-4.53-19.36-2.79C625.3,237.37,625.44,247.6,623.67,254.6Z"/><path class="cls-15" d="M647.51,243.44a15.8,15.8,0,1,0,22-4.22A15.8,15.8,0,0,0,647.51,243.44Z"/><path class="cls-14" d="M650.28,242.07a17,17,0,1,0,23.56-4.53A17,17,0,0,0,650.28,242.07Z"/><path class="cls-13" d="M614.62,291.88l6.22,4.32a23.38,23.38,0,0,1,5.86,5.12,7.92,7.92,0,0,1,1.38,7.36c-1.29,3.32-5.16,4.71-8.64,5.47a73.26,73.26,0,0,1-15.27,1.68,73.74,73.74,0,0,1-14.6-7c-9.36-6.14-15.41-16.18-20.28-26.26q-3.75-7.76-6.84-15.82c3.31.32,6-.72,9.15-1.81s5.9-4,5.71-7.31c3.72,7.32,7.26,14.34,11,21.66a39.94,39.94,0,0,0,4.47,7.43C597.16,292.09,607.76,293,614.62,291.88Z"/><path class="cls-14" d="M670.67,500.39s1.79,5.37,3.28,9.55,0,13.44,2.39,17.33,9,.59,8.66-2.69-2.09-15.83-3-17.92-7-8.72-7-8.72Z"/><g class="cls-2"><g class="cls-2"><path class="cls-1" d="M762.8,367.05v2.7a.66.66,0,0,0,0-.14c0-2.71-1.91-5.26-5.23-7.18a25.82,25.82,0,0,0-12.66-3,25.14,25.14,0,0,0-12.46,3.06V359.8a25.18,25.18,0,0,1,12.47-3.06,25.64,25.64,0,0,1,12.65,3c3.33,1.92,5.2,4.47,5.24,7.18Z"/><g class="cls-16"><g class="cls-2"><path class="cls-1" d="M762.8,367.05v2.7a.66.66,0,0,0,0-.14c0-2.71-1.91-5.26-5.23-7.18a19.12,19.12,0,0,0-2.58-1.22v-2.7a19.67,19.67,0,0,1,2.57,1.23c3.33,1.92,5.2,4.47,5.24,7.18v.13"/><path class="cls-1" d="M755,358.51v2.7a20.27,20.27,0,0,0-2.16-.73v-2.69c.74.21,1.47.45,2.16.72"/><path class="cls-1" d="M752.83,357.79v2.69c-.6-.17-1.21-.32-1.84-.45v-2.7c.62.13,1.24.28,1.84.46"/><path class="cls-1" d="M751,357.33V360c-.57-.12-1.14-.22-1.73-.3V357c.58.09,1.16.19,1.73.3"/><path class="cls-1" d="M749.26,357v2.7c-.56-.08-1.13-.15-1.7-.19v-2.7c.57.05,1.14.11,1.7.19"/><path class="cls-1" d="M747.56,356.84v2.7c-.58-.05-1.16-.08-1.75-.1v-2.69c.59,0,1.17.05,1.75.09"/><path class="cls-1" d="M745.81,356.75v2.69h-.9l-.92,0v-2.69l.92,0h.9"/><path class="cls-1" d="M744,356.76v2.69c-.66,0-1.32.07-2,.13v-2.69c.65-.07,1.3-.11,2-.13"/><path class="cls-1" d="M742,356.89v2.69c-.76.08-1.52.18-2.25.32v-2.7c.74-.13,1.49-.24,2.26-.31"/><path class="cls-1" d="M739.76,357.2v2.7a23.82,23.82,0,0,0-3.28.81V358a27.41,27.41,0,0,1,3.27-.81"/><path class="cls-1" d="M736.49,358v2.7a20.07,20.07,0,0,0-4,1.78V359.8a20.18,20.18,0,0,1,4-1.79"/></g></g></g><g class="cls-2"><path class="cls-1" d="M769.81,367.07v2.69c0,3.76-2.5,7.3-7,10V377C767.3,374.36,769.8,370.83,769.81,367.07Z"/><g class="cls-17"><g class="cls-2"><path class="cls-1" d="M769.81,367.07v0"/><path class="cls-1" d="M769.81,367.29V370a8.7,8.7,0,0,1-.16,1.43v-2.7a8.59,8.59,0,0,0,.17-1.43"/><path class="cls-1" d="M769.64,368.72v2.7a10.25,10.25,0,0,1-.4,1.38v-2.69a8.73,8.73,0,0,0,.39-1.39"/><path class="cls-1" d="M769.25,370.11v2.69a10.25,10.25,0,0,1-.65,1.39V371.5a11.61,11.61,0,0,0,.65-1.39"/><path class="cls-1" d="M768.6,371.5v2.69a12,12,0,0,1-1,1.46V373a11.92,11.92,0,0,0,1-1.45"/><path class="cls-1" d="M767.62,373v2.7a14.53,14.53,0,0,1-1.53,1.64V374.6a14.67,14.67,0,0,0,1.53-1.65"/><path class="cls-1" d="M766.09,374.6v2.69A18.34,18.34,0,0,1,763,379.6v-2.69a19.78,19.78,0,0,0,3.11-2.31"/><path class="cls-1" d="M763,376.91v2.69l-.22.14V377l.23-.13"/></g></g></g><g class="cls-2"><path class="cls-1" d="M732,378.13v2.66a2.9,2.9,0,0,0-1.69-2.31,8.86,8.86,0,0,0-8,0v-2.69a8.83,8.83,0,0,1,8,0A2.88,2.88,0,0,1,732,378.1Z"/><g class="cls-18"><g class="cls-2"><path class="cls-1" d="M732,378.13v2.66a2.9,2.9,0,0,0-1.69-2.31,6.55,6.55,0,0,0-.8-.38v-2.69a6.4,6.4,0,0,1,.79.38A2.88,2.88,0,0,1,732,378.1v0"/><path class="cls-1" d="M729.52,375.41v2.69l-.7-.23v-2.69a5.73,5.73,0,0,1,.7.23"/><path class="cls-1" d="M728.82,375.18v2.69c-.19-.06-.39-.1-.59-.15V375a5.66,5.66,0,0,1,.59.15"/><path class="cls-1" d="M728.23,375v2.69c-.19,0-.38-.07-.57-.09v-2.7l.57.1"/><path class="cls-1" d="M727.66,374.93v2.7l-.55-.07v-2.69l.55.06"/><path class="cls-1" d="M727.11,374.87v2.69l-.56,0v-2.69l.57,0"/><path class="cls-1" d="M726.54,374.84v2.69H726v-2.7h.58"/><path class="cls-1" d="M726,374.84v2.7c-.21,0-.42,0-.62,0v-2.7l.63,0"/><path class="cls-1" d="M725.33,374.88v2.7c-.25,0-.49.06-.73.1V375c.24-.05.48-.08.72-.11"/><path class="cls-1" d="M724.61,375v2.69a7.28,7.28,0,0,0-1.07.27v-2.7a7.27,7.27,0,0,1,1.07-.26"/><path class="cls-1" d="M723.54,375.25V378a6,6,0,0,0-1.27.56v-2.69a6.37,6.37,0,0,1,1.27-.57"/></g></g></g><g class="cls-2"><path class="cls-1" d="M739,378.16v2.69c0,1.91-1.31,3.76-3.62,5.12v-2.69C737.68,381.92,739,380.06,739,378.16Z"/><g class="cls-19"><g class="cls-2"><path class="cls-1" d="M739,378.16v0"/><path class="cls-1" d="M739,378.27V381a3.36,3.36,0,0,1-.08.71V379a4.29,4.29,0,0,0,.08-.71"/><path class="cls-1" d="M738.92,379v2.69a4.41,4.41,0,0,1-.2.71v-2.69a5.75,5.75,0,0,0,.2-.71"/><path class="cls-1" d="M738.72,379.69v2.69a5.35,5.35,0,0,1-.34.73v-2.69a6.89,6.89,0,0,0,.34-.73"/><path class="cls-1" d="M738.38,380.42v2.69a6.13,6.13,0,0,1-.52.77v-2.7a6,6,0,0,0,.52-.76"/><path class="cls-1" d="M737.86,381.18v2.7a7.93,7.93,0,0,1-.8.86V382a6.43,6.43,0,0,0,.8-.86"/><path class="cls-1" d="M737.06,382v2.7a9.58,9.58,0,0,1-1.56,1.16v-2.69a9.29,9.29,0,0,0,1.57-1.17"/><path class="cls-1" d="M735.49,383.21v2.69l-.12.07v-2.69l.11-.07"/></g></g></g><polygon class="cls-1" points="722.27 375.81 722.26 378.51 696 394 696 391.31 722.27 375.81"/><g class="cls-2"><path class="cls-1" d="M690,392.56v-2.69a1.79,1.79,0,0,0,1.06,1.46,5.48,5.48,0,0,0,4.94,0V394a5.43,5.43,0,0,1-5,0A1.77,1.77,0,0,1,690,392.56Z"/><g class="cls-20"><g class="cls-2"><path class="cls-1" d="M696,391.31V394a4,4,0,0,1-.79.35v-2.7a3.68,3.68,0,0,0,.78-.34"/><path class="cls-1" d="M695.22,391.65v2.7a4.54,4.54,0,0,1-.66.16v-2.69a4.91,4.91,0,0,0,.66-.17"/><path class="cls-1" d="M694.56,391.82v2.69l-.45.07v-2.7a3.47,3.47,0,0,0,.45-.06"/><path class="cls-1" d="M694.11,391.88v2.7l-.38,0v-2.69l.39,0"/><path class="cls-1" d="M693.72,391.91v2.69h-.36v-2.69h.36"/><path class="cls-1" d="M693.36,391.91v2.69l-.35,0v-2.69l.34,0"/><path class="cls-1" d="M693,391.89v2.69l-.34,0v-2.7l.34,0"/><path class="cls-1" d="M692.68,391.85v2.7l-.34-.06v-2.7a2.14,2.14,0,0,0,.35.06"/><path class="cls-1" d="M692.33,391.79v2.7l-.37-.09v-2.7l.36.09"/><path class="cls-1" d="M692,391.7v2.7a3,3,0,0,1-.42-.15v-2.69l.43.14"/><path class="cls-1" d="M691.54,391.56v2.69a2.75,2.75,0,0,1-.49-.23,1.77,1.77,0,0,1-1-1.46v-2.69a1.79,1.79,0,0,0,1.06,1.46c.15.08.31.16.48.23"/></g></g></g><polygon class="cls-1" points="732.44 359.8 732.43 362.49 675.16 396.27 675.17 393.58 732.44 359.8"/><g class="cls-2"><path class="cls-1" d="M671.82,401v-2.69c0-1.71,1.11-3.42,3.34-4.73v2.69C672.94,397.58,671.83,399.29,671.82,401Z"/><g class="cls-21"><g class="cls-2"><path class="cls-1" d="M675.17,393.58v2.69l-.09.05v-2.69l.09-.05"/><path class="cls-1" d="M675.08,393.63v2.69a9.67,9.67,0,0,0-1.47,1.09v-2.69a9,9,0,0,1,1.47-1.09"/><path class="cls-1" d="M673.61,394.72v2.69a8.87,8.87,0,0,0-.73.79v-2.7a6.63,6.63,0,0,1,.73-.78"/><path class="cls-1" d="M672.88,395.5v2.7a5.35,5.35,0,0,0-.47.7v-2.7a5,5,0,0,1,.47-.7"/><path class="cls-1" d="M672.41,396.2v2.7a4.9,4.9,0,0,0-.31.66v-2.69a5,5,0,0,1,.31-.67"/><path class="cls-1" d="M672.1,396.87v2.69a3.93,3.93,0,0,0-.19.67v-2.7a4.1,4.1,0,0,1,.19-.66"/><path class="cls-1" d="M671.91,397.53v2.7a3.83,3.83,0,0,0-.08.67v-2.69a3.94,3.94,0,0,1,.08-.68"/><path class="cls-1" d="M671.83,398.21v0"/></g></g></g><polygon class="cls-1" points="762.75 377.04 762.75 379.74 717.66 406.32 717.66 403.63 762.75 377.04"/><g class="cls-2"><path class="cls-1" d="M711.66,404.88v-2.69a1.78,1.78,0,0,0,1.05,1.46,5.47,5.47,0,0,0,4.95,0v2.69a5.46,5.46,0,0,1-5,0A1.74,1.74,0,0,1,711.66,404.88Z"/><g class="cls-22"><g class="cls-2"><path class="cls-1" d="M717.66,403.63v2.69a3.78,3.78,0,0,1-.79.35V404a3.7,3.7,0,0,0,.78-.35"/><path class="cls-1" d="M716.88,404v2.69a4.54,4.54,0,0,1-.66.16v-2.69a4.54,4.54,0,0,0,.66-.16"/><path class="cls-1" d="M716.22,404.14v2.69l-.44.07v-2.7a3.06,3.06,0,0,0,.45-.06"/><path class="cls-1" d="M715.77,404.2v2.7l-.39,0v-2.69a2.34,2.34,0,0,0,.38,0"/><path class="cls-1" d="M715.39,404.23v2.69H715v-2.69h.36"/><path class="cls-1" d="M715,404.23v2.69h-.35v-2.7l.35,0"/><path class="cls-1" d="M714.68,404.21v2.7l-.34,0v-2.7l.34,0"/><path class="cls-1" d="M714.34,404.17v2.7l-.35-.06v-2.7a2.14,2.14,0,0,0,.35.06"/><path class="cls-1" d="M714,404.11v2.7l-.36-.09V404l.36.09"/><path class="cls-1" d="M713.63,404v2.7a3.12,3.12,0,0,1-.43-.15v-2.69l.43.14"/><path class="cls-1" d="M713.2,403.88v2.69a3.12,3.12,0,0,1-.49-.23,1.74,1.74,0,0,1-1-1.46v-2.69a1.78,1.78,0,0,0,1.05,1.46,4.37,4.37,0,0,0,.49.23"/></g></g></g><polygon class="cls-1" points="735.38 383.28 735.38 385.97 696.91 408.65 696.92 405.96 735.38 383.28"/><g class="cls-2"><path class="cls-1" d="M664.83,401v-2.69c0,2.81,1.86,5.64,5.6,7.8a27.15,27.15,0,0,0,13.3,3.12A26.59,26.59,0,0,0,696.92,406v2.69a26.55,26.55,0,0,1-13.17,3.23,27,27,0,0,1-13.31-3.12C666.69,406.6,664.82,403.78,664.83,401Z"/><g class="cls-23"><g class="cls-2"><path class="cls-1" d="M696.92,406v2.69a21,21,0,0,1-4.27,1.89v-2.69a21.4,21.4,0,0,0,4.28-1.89"/><path class="cls-1" d="M692.64,407.85v2.69a28.22,28.22,0,0,1-3.46.86v-2.7a26.5,26.5,0,0,0,3.46-.85"/><path class="cls-1" d="M689.18,408.7v2.7c-.78.14-1.58.25-2.39.33V409c.81-.08,1.6-.19,2.38-.33"/><path class="cls-1" d="M686.8,409v2.7c-.68.07-1.37.11-2.07.14v-2.7c.7,0,1.4-.07,2.08-.14"/><path class="cls-1" d="M684.72,409.17v2.7h-1c-.33,0-.65,0-1,0v-2.69h1l1,0"/><path class="cls-1" d="M682.77,409.18v2.69c-.63,0-1.24,0-1.85-.09v-2.7c.61.05,1.23.09,1.85.1"/><path class="cls-1" d="M680.92,409.08v2.7c-.62,0-1.22-.12-1.81-.21v-2.69c.6.08,1.2.15,1.81.2"/><path class="cls-1" d="M679.11,408.88v2.69c-.62-.08-1.23-.19-1.83-.31v-2.7c.6.13,1.21.23,1.83.32"/><path class="cls-1" d="M677.28,408.56v2.7q-1-.21-1.95-.48v-2.7c.63.19,1.28.34,1.94.48"/><path class="cls-1" d="M675.34,408.08v2.7c-.78-.22-1.53-.48-2.26-.76v-2.7a23,23,0,0,0,2.26.76"/><path class="cls-1" d="M673.08,407.32V410a21.42,21.42,0,0,1-2.64-1.26c-3.74-2.16-5.61-5-5.6-7.8v-2.69c0,2.81,1.86,5.64,5.6,7.8a20,20,0,0,0,2.64,1.25"/></g></g></g></g><path class="cls-4" d="M762.38,356.8c4.76,2.75,7.36,6.3,7.43,10.09s-2.43,7.43-7.06,10.15l-45.09,26.59a5.47,5.47,0,0,1-4.95,0c-1.38-.8-1.4-2.07-.05-2.87l45.09-26.59c3.3-1.95,5.1-4.53,5-7.27s-1.91-5.26-5.24-7.18a25.64,25.64,0,0,0-12.65-3,25.18,25.18,0,0,0-12.47,3.06l-57.27,33.78c-4.5,2.65-4.44,6.94.11,9.57s12.26,2.54,16.64,0l38.46-22.68A2.81,2.81,0,0,0,732,378.1a2.88,2.88,0,0,0-1.69-2.31,8.83,8.83,0,0,0-8,0L696,391.31a5.48,5.48,0,0,1-4.94,0c-1.39-.8-1.41-2.08-.06-2.87L717.27,373c4.88-2.88,12.92-2.91,17.92-.07,2.45,1.41,3.78,3.23,3.81,5.18s-1.28,3.83-3.62,5.21L696.92,406a26.59,26.59,0,0,1-13.18,3.23,27.15,27.15,0,0,1-13.3-3.12c-7.38-4.26-7.47-11.1-.28-15.34L727.44,357c4.61-2.73,10.79-4.24,17.4-4.26A35.76,35.76,0,0,1,762.38,356.8Z"/></g></g></g></svg>