<svg xmlns="http://www.w3.org/2000/svg" viewBox="0 0 31.56 31.56"><defs><style>.cls-1{fill:#009aff;}</style></defs><title>Asset 65</title><g id="Layer_2" data-name="Layer 2"><g id="Layer_1-2" data-name="Layer 1"><path class="cls-1" d="M15.74,0h.09a15.69,15.69,0,0,1,9.1,2.91,16.67,16.67,0,0,1,1.52,1.23A14.35,14.35,0,0,1,27.84,5.6a14.37,14.37,0,0,1,1.73,2.51,15.44,15.44,0,0,1,2,7.62v.09a15.69,15.69,0,0,1-2.91,9.1,16.67,16.67,0,0,1-1.23,1.52A14.35,14.35,0,0,1,26,27.84a14.37,14.37,0,0,1-2.51,1.73,15.44,15.44,0,0,1-7.62,2h-.09a15.69,15.69,0,0,1-9.1-2.91,16.67,16.67,0,0,1-1.52-1.23A14.31,14.31,0,0,1,3.72,26,14.37,14.37,0,0,1,2,23.45a15.44,15.44,0,0,1-2-7.62v-.09a15.69,15.69,0,0,1,2.91-9.1A16.67,16.67,0,0,1,4.15,5.11,14.31,14.31,0,0,1,5.6,3.72,14.37,14.37,0,0,1,8.11,2,15.44,15.44,0,0,1,15.74,0ZM11.95,8.59q-2.08,0-3.3.13a5.66,5.66,0,0,0-.94.11,2.55,2.55,0,0,0-1.14.49,3.24,3.24,0,0,0-.52.49,3.48,3.48,0,0,0-.38.78,9.23,9.23,0,0,0-.31,1.12,33.52,33.52,0,0,0-.2,3.45V16.9q0,1.26.16,3a4.05,4.05,0,0,0,.18.94,4.86,4.86,0,0,0,.34,1.05A2.66,2.66,0,0,0,6.9,23a6,6,0,0,0,.58.22l.83.13q.36.07,2,.13,3.86.11,5.63.11,1.59,0,4.12-.07,3.3-.11,3.77-.2A2.73,2.73,0,0,0,24.7,23a1.78,1.78,0,0,0,.45-.27,3.18,3.18,0,0,0,.45-.45,3,3,0,0,0,.45-.81,6.37,6.37,0,0,0,.27-1.05,31.18,31.18,0,0,0,.22-3.52V15.18a33.52,33.52,0,0,0-.2-3.45,4.76,4.76,0,0,0-.27-1,2.82,2.82,0,0,0-.56-1.08,1.3,1.3,0,0,0-.43-.34A2.51,2.51,0,0,0,24.54,9a2.26,2.26,0,0,0-.61-.18,12,12,0,0,0-1.48-.16q-3.25-.13-6.61-.13Q14.14,8.52,11.95,8.59Zm1.79,4.26,4.62,2.42,1.05.56-1,.47s-1.64.87-4.82,2.51v-6Z"/></g></g></svg>