<svg xmlns="http://www.w3.org/2000/svg" viewBox="0 0 656.62 593.42"><defs><style>.cls-1{isolation:isolate;}.cls-2{fill:#d6eaf2;mix-blend-mode:multiply;}.cls-3{fill:#ea4266;}.cls-4{fill:#fff;}.cls-5{fill:#fe7386;}.cls-6{fill:#3498db;}.cls-7{fill:#173d7a;}.cls-8{fill:#396caa;}.cls-9{fill:#009aff;}.cls-10{fill:#55c3fe;}.cls-11{fill:#112f5b;}.cls-12{fill:#d4ecff;}.cls-13{fill:#ffc2b0;}.cls-14{fill:#ea9c92;}.cls-15{fill:#97dfff;}.cls-16{fill:#ff4e66;}</style></defs><title>Asset 70</title><g class="cls-1"><g id="Layer_2" data-name="Layer 2"><g id="Layer_1-2" data-name="Layer 1"><path class="cls-2" d="M384.66,372.49a21.8,21.8,0,0,1-7.6-2.51c-6.53-3.77-6.53-9.89,0-13.66s17.13-3.77,23.66,0a10.08,10.08,0,0,1,4.34,4.39l45.21-26.1-96.2-55.54c-8.08-4.67-21.19-4.67-29.27,0l-96.2,55.54,44.3,25.58a19.87,19.87,0,0,0-4.74,1.91c-6.53,3.77-6.53,9.89,0,13.66s17.13,3.77,23.66,0a11.78,11.78,0,0,0,3.31-2.74l44.3,25.58Z"/><path class="cls-2" d="M600,431.1l-96.2-55.54-45.21,26.1a10.08,10.08,0,0,0-4.34-4.39c-6.53-3.77-17.13-3.77-23.66,0s-6.53,9.89,0,13.66a21.81,21.81,0,0,0,7.6,2.51l-45.21,26.1,46.54,26.87c.25-2.26,1.85-4.49,4.85-6.22,6.53-3.77,17.13-3.77,23.66,0s6.53,9.89,0,13.66a23.64,23.64,0,0,1-10.77,2.8l46.54,26.87L600,448C608,443.34,608,435.77,600,431.1Z"/><path class="cls-2" d="M247.21,469.72a21.69,21.69,0,0,0-7.42-2.48l45.15-26.07-44.3-25.58a11.79,11.79,0,0,1-3.31,2.74c-6.53,3.77-17.13,3.77-23.66,0s-6.53-9.89,0-13.66a19.87,19.87,0,0,1,4.74-1.91l-44.3-25.58L77.9,432.72c-8.08,4.67-8.08,12.23,0,16.9l96.2,55.54,45.15-26.07a10.19,10.19,0,0,0,4.3,4.29c6.53,3.77,17.13,3.77,23.66,0S253.74,473.5,247.21,469.72Z"/><path class="cls-2" d="M400.25,512.17a22.36,22.36,0,0,0,10.18-2.65c6.18-3.57,6.18-9.35,0-12.92s-16.2-3.57-22.38,0c-2.83,1.64-4.35,3.74-4.59,5.88l-44-25.42-42.7,24.65a20.51,20.51,0,0,1,7,2.35c6.18,3.57,6.18,9.35,0,12.92s-16.2,3.57-22.38,0a9.63,9.63,0,0,1-4.07-4.05l-42.7,24.65,91,52.53c7.64,4.41,20,4.41,27.68,0l91-52.53Z"/><path class="cls-3" d="M443.63,260.34l-86.46-49.92c-9.79-5.65-25.66-5.65-35.45,0L231,262.78,205.2,252.23v25.46l42,24.26v16.92c-.18,3.12,1.78,6.28,5.9,8.66,7.91,4.57,20.75,4.57,28.66,0a14.27,14.27,0,0,0,4-3.31l53.66,31,54.76-31.62h0V301c6.73-1,14.18,0,19.46,3a12.22,12.22,0,0,1,5.26,5.31l54.76-31.62V252.23Z"/><path class="cls-4" d="M389.1,300.07l-.89,1.21.5,0-49.26,28.44-53.66-31a14.28,14.28,0,0,1-4,3.31c-7.91,4.57-20.75,4.57-28.66,0-3.2-1.85-5.09-4.16-5.7-6.57-.9,3.53,1,7.26,5.7,10,7.91,4.57,20.75,4.57,28.66,0a14.28,14.28,0,0,0,4-3.31l53.66,31,54.76-31.62v-3.41Z"/><path class="cls-5" d="M394.21,298.12a26.4,26.4,0,0,1-9.2-3c-7.91-4.57-7.91-12,0-16.55s20.75-4.57,28.66,0a12.21,12.21,0,0,1,5.26,5.31l54.76-31.62L357.17,185c-9.79-5.65-25.66-5.65-35.45,0L205.2,252.23l53.66,31a24.07,24.07,0,0,0-5.74,2.31c-7.91,4.57-7.91,12,0,16.55s20.75,4.57,28.66,0a14.28,14.28,0,0,0,4-3.31l53.66,31Z"/><path class="cls-4" d="M258.86,283.21l-53.66-31v3.41l50,28.87A26.24,26.24,0,0,1,258.86,283.21Z"/><path class="cls-4" d="M418.92,283.85a12.21,12.21,0,0,0-5.26-5.31c-7.91-4.57-20.75-4.57-28.66,0-4.71,2.72-6.59,6.44-5.7,10,.61-2.4,2.49-4.72,5.7-6.57,7.91-4.57,20.75-4.57,28.66,0a12.21,12.21,0,0,1,5.26,5.31l54.76-31.62v-3.41Z"/><path class="cls-6" d="M609,363.12,504.66,302.89l-54.76,31.62a12.22,12.22,0,0,0-5.26-5.31,26.72,26.72,0,0,0-9.69-3.1c-1.76-2.3-7.66-9.34-8.25-9.51l-16.64-4.81v25.56c-.06,3,1.91,6.09,5.92,8.41a26.4,26.4,0,0,0,9.2,3l-27.55,15.91-27.21-9.75v25.46l56.37,32.55c.3-2.74,2.25-5.43,5.87-7.53,4.29-2.47,10-3.6,15.62-3.39v23.33l56.38,32.55,116.52-67.27c5-2.89,7.43-6.7,7.32-10.48h0v-25Z"/><path class="cls-7" d="M426.79,367.69v45.24c.3-2.74,2.25-5.43,5.87-7.52,7.91-4.57,20.75-4.57,28.66,0a14.31,14.31,0,0,1,4,3.28,53,53,0,0,1,13.16-2.3v-38.7Z"/><path class="cls-7" d="M504.66,302.89l-.4.23V457.66l.41.24,116.52-67.27c5-2.89,7.43-6.7,7.32-10.48h0v-25L609,363.12Z"/><polygon class="cls-8" points="448.28 407.26 448.28 399.89 454.66 403.57 448.28 407.26"/><path class="cls-4" d="M628.32,356.64c-.64,3.12-3,6.14-7.15,8.53L504.66,432.44l-49.14-28.37c-.06-.77-.28-2.33-.28-2.33l-7-1.85v3.41l56.38,32.55,116.52-67.27C626.82,365.32,629.19,360.89,628.32,356.64Z"/><path class="cls-9" d="M621.17,344.7,504.66,277.43,449.89,309a12.21,12.21,0,0,0-5.26-5.31c-7.91-4.57-20.75-4.57-28.66,0s-7.91,12,0,16.55a26.41,26.41,0,0,0,9.2,3l-54.76,31.62,56.38,32.55c.3-2.74,2.24-5.43,5.87-7.53,7.91-4.57,20.75-4.57,28.66,0s7.91,12,0,16.55a28.63,28.63,0,0,1-13,3.39l56.38,32.55,116.52-67.27C631,359.52,631,350.35,621.17,344.7Z"/><path class="cls-4" d="M416,323.69a23.32,23.32,0,0,0,5,2.07l4.24-2.45a26.41,26.41,0,0,1-9.2-3c-3.2-1.85-5.09-4.17-5.7-6.57C409.38,317.25,411.26,321,416,323.69Z"/><path class="cls-4" d="M467,389.93c.9-3.53-1-7.26-5.7-10-7.91-4.57-20.75-4.57-28.66,0-3.63,2.1-5.57,4.79-5.87,7.53l-56.38-32.55v3.41l56.38,32.55c.3-2.74,2.24-5.43,5.87-7.53,7.91-4.57,20.75-4.57,28.66,0C464.53,385.21,466.41,387.53,467,389.93Z"/><path class="cls-7" d="M308,380.39V354.93l-26.76,10-26.9-15.53a14.27,14.27,0,0,1-4,3.31c-7.91,4.57-20.75,4.57-28.66,0-7.73-4.46-7.89-11.63-.51-16.22l6.25,3.5V308.41H208l-1.92,13.17-32.38-18.69L70.64,362.39l-20.79-7.46v25.46h0c0,3.7,2.45,7.41,7.34,10.23L173.71,457.9l54.68-31.57a12.34,12.34,0,0,0,5.21,5.19c7.91,4.57,20.75,4.57,28.66,0,4.11-2.37,6.06-5.51,5.91-8.62V403.36Z"/><path class="cls-8" d="M173.71,302.89,70.64,362.39l-20.79-7.46v25.46h0c0,3.7,2.45,7.41,7.34,10.23L173.71,457.9v-155Z"/><path class="cls-4" d="M222.75,308.53l-.67,1.72.16.15c-.21.1-.42.2-.61.32-4.71,2.72-6.59,6.44-5.7,10,.61-2.4,2.49-4.72,5.7-6.57a24.05,24.05,0,0,1,5.74-2.31v-3.41Z"/><path class="cls-10" d="M262.26,389.51a26.26,26.26,0,0,0-9-3L308,354.93l-53.66-31a14.27,14.27,0,0,1-4,3.31c-7.91,4.57-20.75,4.57-28.66,0s-7.91-12,0-16.55a24.06,24.06,0,0,1,5.74-2.31l-53.66-31L57.19,344.7c-9.79,5.65-9.79,14.82,0,20.47l116.52,67.27,54.68-31.57a12.34,12.34,0,0,0,5.21,5.19c7.91,4.57,20.75,4.57,28.66,0S270.17,394.08,262.26,389.51Z"/><path class="cls-4" d="M262.26,406.06c-7.91,4.57-20.75,4.57-28.66,0a12.34,12.34,0,0,1-5.21-5.19l-54.68,31.57L57.19,365.17c-4.14-2.39-6.51-5.41-7.15-8.53-.87,4.25,1.5,8.68,7.15,11.94l116.52,67.27,54.68-31.57a12.34,12.34,0,0,0,5.21,5.19c7.91,4.57,20.75,4.57,28.66,0,4.71-2.72,6.59-6.44,5.7-10C267.35,401.89,265.46,404.21,262.26,406.06Z"/><path class="cls-4" d="M253.27,386.51a30.45,30.45,0,0,1,4.21,1L308,358.35v-3.41Z"/><path class="cls-3" d="M447.51,468.5l-30.19-17.43a28.63,28.63,0,0,0,13-3.39c3.31-1.91,5.22-4.32,5.76-6.81l.17.12v-1.53s0-.07,0-.1V413.83l-25.54,9.93,5.87,4a29.57,29.57,0,0,0-14.93,3.41c-3.63,2.1-5.57,4.79-5.87,7.53l-56.38-32.55-33.13,19.13-3.44-11.49-18.12-1.53v28.3l5.54-1.41a22.26,22.26,0,0,1,3.46,1.57c7.91,4.57,7.91,12,0,16.55s-20.75,4.57-28.66,0a12.34,12.34,0,0,1-5.21-5.19l-30.27,17.48-24.42-11.36v25.46l116.52,67.27c9.79,5.65,25.66,5.65,35.45,0l116.52-67.27V458.16Z"/><path class="cls-4" d="M293.76,415.23a22.48,22.48,0,0,0-4.08-1.77l-.49-1-4.42-.27v3.41a26.27,26.27,0,0,1,9,3c3.2,1.85,5.09,4.16,5.7,6.57C300.35,421.68,298.47,418,293.76,415.23Z"/><path class="cls-5" d="M417.31,425.61a28.64,28.64,0,0,0,13-3.39c7.91-4.57,7.91-12,0-16.55s-20.75-4.57-28.66,0c-3.63,2.1-5.57,4.79-5.87,7.53l-56.38-32.55-54.68,31.57a26.27,26.27,0,0,1,9,3c7.91,4.57,7.91,12,0,16.55s-20.75,4.57-28.66,0a12.34,12.34,0,0,1-5.21-5.19l-54.68,31.57,116.52,67.27c9.79,5.65,25.66,5.65,35.45,0l116.52-67.27Z"/><path class="cls-4" d="M436.05,415.65c-.61,2.4-2.49,4.72-5.7,6.57a28.63,28.63,0,0,1-13,3.39l5,2.86a25.58,25.58,0,0,0,8.08-2.84C435.07,422.91,437,419.19,436.05,415.65Z"/><path class="cls-4" d="M357.17,525.43c-9.79,5.65-25.66,5.65-35.45,0L205.21,458.16v3.41l116.52,67.27c9.79,5.65,25.66,5.65,35.45,0l116.52-67.27v-3.41Z"/><path class="cls-9" d="M212.44,383.25c-21,12.11-55,12.11-75.95,0s-21-31.74,0-43.85,55-12.11,75.95,0S233.41,371.14,212.44,383.25Z"/><path class="cls-11" d="M148.76,43.94s1.17,24.1,3,40.3S192.61,71.8,192.61,71.8V53.36Z"/><path class="cls-7" d="M169.54,343.83c.59,1.46,10.69,13.77,20.8,16.85,4.39,1.34,7.35,1.51,9.29,1.28a3.06,3.06,0,0,0,2.49-4.08,38.4,38.4,0,0,0-19.39-21.38C165.58,328,169.54,343.83,169.54,343.83Z"/><path class="cls-7" d="M166.17,348.56s3.81,8.94,5,16.41c.71,4.56-1.79,10.48-3.85,14.4a4.21,4.21,0,0,1-6.55,1.13,24.32,24.32,0,0,1-8.2-15.68c-1.17-12.6,0-14.8,0-14.8Z"/><path class="cls-12" d="M141.82,196.29a239.54,239.54,0,0,0,0,33.47c1.32,17.58,6,99.79,6.92,119.57,0,0-.44,6,11.15,4.67s10.66-8,10.66-8,16.28-.22,16.79-9.82S204,221.63,204,183.89Z"/><path class="cls-13" d="M210,114.12l8,12.35,27.41,33.11a6.15,6.15,0,0,1-4.36,3.88c-2.67.63-25.72-21.37-35.68-31a7.65,7.65,0,0,1-1.05-9.72Z"/><path class="cls-9" d="M194.47,63.41s12.67-.33,17.08,18,7.86,41.24,4,43.14c-11.51,5.72-18.8-1-18.8-1Z"/><path class="cls-10" d="M198.26,64.19a10.37,10.37,0,0,0-6.84-.38c-10.79,3.1-51.38,15-58.07,20.73-7.73,6.61,11.59,43.72,11.31,55.89S143,167,141.94,180.18s-2.53,20.48,8.29,26.11,29.3,5.88,43.13-4.65,11.32-17.75,10.75-25.4-5.28-40.74-4.88-50.13a35.54,35.54,0,0,0,8.48-9.75c3.61-6.16-2.77-17.47-5.41-24.83s1.49-15.77.67-21.77C202.55,66.67,200.58,65.15,198.26,64.19Z"/><path class="cls-4" d="M167.24,89.19l4.61,5.29a3.13,3.13,0,0,1,.74,2.5l-4,28.16a3.08,3.08,0,0,0,.55,2.24L179,141a.92.92,0,0,0,1.62-.24l6-17.37a3.08,3.08,0,0,0,0-2l-9.1-25.92a3.13,3.13,0,0,1-.09-1.76l1.62-6.76Z"/><ellipse class="cls-4" cx="170.04" cy="78.8" rx="15.37" ry="12.2" transform="translate(-8.63 22.24) rotate(-7.3)"/><ellipse class="cls-13" cx="170.04" cy="78.8" rx="10.99" ry="8.72" transform="translate(-8.63 22.24) rotate(-7.3)"/><path class="cls-13" d="M175,61.71s-7.33-6-8.76-3-2.63,16.15-2.63,16.15l14.55,3.91-2.21-13.27S178.82,63.06,175,61.71Z"/><circle class="cls-13" cx="176.01" cy="46.08" r="21.72" transform="translate(119.63 219.07) rotate(-86.62)"/><path class="cls-14" d="M165.18,62.54c-.13.68-.25,1.42-.37,2.17,1.46,7.56,12.77,10.87,12.77,10.87l-1.67-10s1.37-1.16,1-2.33C172.42,61.79,166.79,60.54,165.18,62.54Z"/><circle class="cls-13" cx="176.01" cy="46.08" r="21.72" transform="translate(119.63 219.07) rotate(-86.62)"/><polygon class="cls-13" points="122.49 138.03 124.92 196.17 133.42 197.04 138.95 144.71 122.49 138.03"/><path class="cls-10" d="M150.42,133.18c-.46-2-4.18-3.69-4.75-6.33C142.75,113.31,142,93.34,142,93.34l-2.37,27.28c2.74,8.09,5.09,15.52,5,19.82-.16,7.14-.71,15-1.34,23v0S153.23,145.59,150.42,133.18Z"/><path class="cls-9" d="M135,83.35s-6.8,2.6-10.64,23.47-6.72,41.78.13,44.48,12.59,4.72,14.6-.86,3.27-32.48,3.52-42.16S143.22,85.26,135,83.35Z"/><path class="cls-13" d="M243.39,157.16a18.24,18.24,0,0,1,6.34,4.25,41.33,41.33,0,0,1,4.33,5.82c2.12,3.16,3.9,10,2.61,10.83s-8.67-11.43-9.86-8.57,0,5.5-1.52,5.54-6.83-12.34-11-16.18S243.39,157.16,243.39,157.16Z"/><path class="cls-8" d="M170.54,346a33.34,33.34,0,0,0,4.65-.48h0l3.19-127.79Z"/><path class="cls-9" d="M158.24,277l-4.52-5.9-47.55-27.53a6.62,6.62,0,0,1-2.76-5.28l0-38.93-2.73-3.57,2.57-1.49h0a1.74,1.74,0,0,1,1.86.11L159,225.61a6.62,6.62,0,0,1,2.76,5.28l0,42.4a2.4,2.4,0,0,1-1,2.26h0Z"/><path class="cls-9" d="M125.36,254.67l-3.38-2-18.55-32.21,0-21.16-2.73-3.57,2.57-1.49h0a1.74,1.74,0,0,1,1.86.11L159,225.61a5.58,5.58,0,0,1,2,2.38Z"/><path class="cls-9" d="M101.93,197.36l-1.21-1.58,2.57-1.49h0a1.74,1.74,0,0,1,1.86.11l.95.55Z"/><path class="cls-9" d="M159.54,226a6.91,6.91,0,0,1,2.25,4.54l-5.27,3L154,229.15Z"/><path class="cls-12" d="M156.48,227.09l-53.89-31.2c-1.52-.88-2.76.05-2.77,2.08l0,42.4a6.62,6.62,0,0,0,2.76,5.28l53.89,31.2c1.52.88,2.76-.05,2.77-2.08l0-42.4A6.62,6.62,0,0,0,156.48,227.09Z"/><path class="cls-4" d="M157.3,226.6,103.4,195.4a1.62,1.62,0,0,0-2.2.2,2,2,0,0,1,1.38.29l53.89,31.2a6.62,6.62,0,0,1,2.76,5.28l0,42.4a2.88,2.88,0,0,1-.57,1.89c.82-.16,1.38-1,1.38-2.37l0-42.4A6.62,6.62,0,0,0,157.3,226.6Z"/><polygon class="cls-4" points="145.41 257.5 142.84 256.02 142.84 233.97 145.41 235.45 145.41 257.5"/><polygon class="cls-4" points="139.41 254.04 136.85 252.56 136.85 230.51 139.41 231.99 139.41 254.04"/><polygon class="cls-4" points="133.42 250.58 130.85 249.1 130.85 227.04 133.42 228.53 133.42 250.58"/><path class="cls-13" d="M125,195.68s-2.25,13.57-1.91,17.92,2.66,11.51,4.43,11.36.06-17.48,3.16-15.75,3.43,4.69,4.83,3.64S133,197,134.08,190.57,125,195.68,125,195.68Z"/><path class="cls-14" d="M184.35,48c10.9,3.87,13,1.51,13.12,1.38.1-.66.18-1.32.22-2a21.66,21.66,0,0,0-.72-6.94L168.7,36.6S173.16,44,184.35,48Z"/><path class="cls-11" d="M198.48,25.72c-2.57-2.2-11.84-13.09-28.44-10.52C159.67,16.81,150.92,23.89,149,40a37.11,37.11,0,0,0,10,29.52,8.86,8.86,0,0,0,1.18-.6c4.16-2.74,4.61-4.24,4.61-4.26l.92-8.24a2.3,2.3,0,0,0-2.07-2.28,4.15,4.15,0,0,1-3-1.85c-2.38-3.12-1.28-8,3.49-8.16,2.49-.1,3.46-1.44,3.81-2.71a2,2,0,0,1,2.54-1.32c5.43,2,18.79,6.2,27.4,3.76C208.86,40.76,201,27.92,198.48,25.72Z"/><path class="cls-4" d="M186.1,57.79,192.74,56s-3.17,5-7.8,6.26-5.35-2.65-5.35-2.65Z"/><polygon class="cls-9" points="136.29 212.43 130.62 209.19 132.75 212.66 135.61 213.71 136.29 212.43"/><circle class="cls-4" cx="161.07" cy="52.86" r="2.25"/><path class="cls-15" d="M541.18,375.55c-20.61,11.9-54,11.9-74.63,0s-20.61-31.19,0-43.09,54-11.9,74.63,0S561.79,363.66,541.18,375.55Z"/><path class="cls-7" d="M507,338c-.59,1.47-10.74,13.83-20.89,16.92-4.41,1.34-7.38,1.52-9.33,1.29a3.07,3.07,0,0,1-2.5-4.1,38.56,38.56,0,0,1,19.48-21.47C510.93,322.07,507,338,507,338Z"/><path class="cls-7" d="M510.34,342.71s-3.83,9-5,16.48c-.72,4.58,1.79,10.52,3.86,14.46a4.22,4.22,0,0,0,6.58,1.14A24.42,24.42,0,0,0,524,359c1.18-12.65,0-14.86,0-14.86Z"/><path class="cls-12" d="M534.8,189.78a240.57,240.57,0,0,1,0,33.61c-1.32,17.65-6.06,100.22-6.95,120.08,0,0,.44,6-11.2,4.69s-10.7-8-10.7-8-16.35-.22-16.86-9.86-16.74-115.07-16.74-153Z"/><path class="cls-8" d="M505.95,340.17a33.46,33.46,0,0,1-4.67-.48h0l-3.2-128.34Z"/><path class="cls-10" d="M517.51,72.67c26.41,10.95,25.88,26.56,25.88,26.56s-5.17,57.23-3.41,95.46c.74,16-84.9,17.2-72.13-25.43,15.06-50.26,9.41-91,16.46-97.09S510.68,69.84,517.51,72.67Z"/><ellipse class="cls-13" cx="512.81" cy="83.12" rx="10.03" ry="13.62" transform="translate(304.4 558.99) rotate(-75.56)"/><path class="cls-4" d="M514.76,95.06a19.54,19.54,0,0,1-4.87-.62c-8.16-2.1-13.49-8.89-11.88-15.13a10.48,10.48,0,0,1,6.62-7,18.92,18.92,0,0,1,20.56,5.3,10.48,10.48,0,0,1,2.42,9.32h0C526.33,91.91,521,95.06,514.76,95.06Zm-4-20.57a13.23,13.23,0,0,0-4.93.91,7.25,7.25,0,0,0-4.64,4.74c-1.15,4.47,3.11,9.44,9.5,11.09s12.52-.65,13.67-5.12h0a7.26,7.26,0,0,0-1.77-6.4A14.63,14.63,0,0,0,514.9,75,16.46,16.46,0,0,0,510.8,74.48Z"/><path class="cls-13" d="M506.92,71.48s.23,1.06-.23,9.43c-.14,2.63,9.07,5.09,11.45,2.71s1.43-4.86,2-13.81S506.92,71.48,506.92,71.48Z"/><path class="cls-14" d="M520.14,69.8s-2.27,8.3-13.45,11.49l.17-7.55Z"/><circle class="cls-13" cx="507.54" cy="53.8" r="20.33" transform="translate(2.69 128.76) rotate(-14.5)"/><path class="cls-14" d="M512.21,54.54S501,59.34,493.27,59.39s-6-6.44-6-6.44l23-3.32Z"/><path class="cls-11" d="M491,55.81s9.75-4.14,18.3-2.41a9,9,0,0,1,5.17,3.07A3.05,3.05,0,0,0,516,57.6c1.52.34,4-5.95,6.95-6.09s4.92,1.94,2.5,5.81-1.6,8.2-.49,8.82,12.91-8.41,2.5-29-36.84-9.51-41-5.33c0,0-4.33,3.77-7.85.42C478.65,32.19,474.71,61.77,491,55.81Z"/><path class="cls-13" d="M471.4,68l-14.2-6.12a6.3,6.3,0,0,1-3.46-3.73l-14-40.64-6.5,1.13,11.34,50.57a8.53,8.53,0,0,0,4.15,5.57L472.34,88Z"/><path class="cls-13" d="M619.15,74.59l3.26-1.49a26.21,26.21,0,0,0,7.48-5.17l2.27-2.24a4.39,4.39,0,0,0,1-4.83h0a2.42,2.42,0,0,0-3.32-1.22L623,63.08s1.07-3,.55-3.8-5.78,5-8.21,9.15S619.15,74.59,619.15,74.59Z"/><path class="cls-13" d="M562.48,90.85l12.15-1.36a21.4,21.4,0,0,0,8.17-2.64l32.54-18.42,3.82,6.16-33.27,25.69a15.34,15.34,0,0,1-3.34,2l-19.84,8.48Z"/><path class="cls-13" d="M433.22,18.62,432,17.19a11.42,11.42,0,0,1-2.67-5.82l-.87-5.93A5.08,5.08,0,0,1,430.39.62l.17-.12A3.07,3.07,0,0,1,435.05,2L438,9s-.92-3.66.26-4.06c.87-.3,2.51,4.24,1.54,6.76a10.66,10.66,0,0,0-.06,5.76Z"/><path class="cls-4" d="M499.48,67.8l-5.25-1.44s2.51,3.94,6.16,4.95,4.23-2.09,4.23-2.09Z"/><path class="cls-10" d="M491.61,69.25s-23.72-4.69-31-6.89-10.27,17.7-9.72,22.74,25.22,10.67,28.15,19.32S491.61,69.25,491.61,69.25Z"/><path class="cls-10" d="M527.88,78S545.22,85.42,574.23,89a3.12,3.12,0,0,1,2.58,2.05c1.12,3.21,3,10.23,1.54,17.44a6.4,6.4,0,0,1-6.35,5c-9.08-.06-28.63.81-31.8,9.3C536,134,527.88,78,527.88,78Z"/><path class="cls-4" d="M517.68,93.62l-4.75,5.16a3.13,3.13,0,0,0-.81,2.48l3.27,28.26a3.08,3.08,0,0,1-.61,2.22l-10.23,13.38a.92.92,0,0,1-1.61-.28l-5.57-17.53a3.08,3.08,0,0,1,.06-2l9.8-25.67a3.13,3.13,0,0,0,.14-1.76l-1.43-6.8Z"/><path class="cls-9" d="M569.61,108.32c-5.19.6-17.93,1.7-27.72,2.52A9,9,0,0,0,534,122.16c5.22,20-1.69,52.28-.44,63.19,1.49,13.05-6.42,18.1-6.46,18.13,7.81-1.69,13.11-4.77,12.92-8.79-1.08-23.48.45-54.11,1.79-74.26,5.7-6.23,22.25-6.91,30.33-6.85a6.38,6.38,0,0,0,6.28-5.2,30.38,30.38,0,0,0,.09-10.57C578.47,98,578.47,107.29,569.61,108.32Z"/><path class="cls-16" d="M302.27,486.5c24.39,14.08,63.94,14.08,88.33,0s24.39-36.92,0-51-63.94-14.08-88.33,0S277.88,472.42,302.27,486.5Z"/><path class="cls-7" d="M308.17,441.89c-4.35,1.86-7.09,6.71-6.73,11.92a20.1,20.1,0,0,0,1,5.83c1.38,2.91,5.92,6.9,13.17,4s23.33-18,23.93-27.87C340.64,417.43,319.62,437,308.17,441.89Z"/><path class="cls-7" d="M350.72,472.29s-1.74,10.6-.89,12.54,5.88,6.09,13.33,5.19,28.87-8.28,33.65-22.41c7.4-21.89-41.36,1.64-41.36,1.64Z"/><path class="cls-12" d="M371.66,302.9l1.66,165.41c-.17,5.75-3.94,10.61-9,11.47q-.94.16-2,.25c-5.13.45-8.12-1.75-9.83-4.07a12.14,12.14,0,0,1-2.21-6.68l-2.11-70.61L337.6,335.54,323,447.28a9.66,9.66,0,0,1-4,7.36,11.17,11.17,0,0,1-6.65,1.8,12.22,12.22,0,0,1-8.84-4.35,8.86,8.86,0,0,1-2.11-6l5.78-67.23,2.15-85.75Z"/><path class="cls-13" d="M350.24,154.84l-2.61,15.07a6.91,6.91,0,0,0,5.64,6.57c5.74,1.42,7.52-2.28,7.52-2.28l2.6-17Z"/><path class="cls-13" d="M381.88,146.59c-4.08,12.91-16.69,20.41-28.17,16.74s-17.49-17.11-13.41-30S357,112.9,368.47,116.57,386,133.68,381.88,146.59Z"/><path class="cls-10" d="M350.92,170.19c-.4-.16-24.36-15.59-33.22.56-14.44,26.33-3.88,56.52-9,122.06-.86,11,14.76,17.65,22.15,21.87a44.23,44.23,0,0,0,21.49,6.11c7.49.06,21.85-6.6,21.33-16.39-2.4-45,1.58-83,5.26-119.8C378.9,184.6,374.3,179.66,350.92,170.19Z"/><path class="cls-8" d="M337.6,335.54,323,447.28a9.66,9.66,0,0,1-4,7.36,10.78,10.78,0,0,1-1.25.7c3-2.27,11.87-96.06,13.5-106.49S337.6,335.54,337.6,335.54Z"/><polygon class="cls-13" points="428.62 183.83 448.69 144.01 442.39 140.03 421.6 170.37 428.62 183.83"/><polygon class="cls-13" points="296.29 141.55 306.05 97.15 313.82 97.23 310.9 134.05 296.29 141.55"/><path class="cls-10" d="M378.9,184.6s22.44,8.85,41.72-15.47c1.7-2.14,5.19-1.9,6.19.41,1.73,4,3.91,10,1.27,15.66-11.65,25-51.41,24.14-61,38.16S378.9,184.6,378.9,184.6Z"/><path class="cls-10" d="M335.72,164.66s-18.53,1.42-21.19-14.61a122.57,122.57,0,0,1-1.86-16,3.23,3.23,0,0,0-3.63-3.14c-4.44.55-11.31,1.88-12.24,4.85-1.39,4.44-4,26.22,14.29,59.63C323.07,217.24,335.72,164.66,335.72,164.66Z"/><path class="cls-13" d="M306,97.26l.18-5.06a10.42,10.42,0,0,1,1.51-5.06l5.13-8.43L314.17,77a3.9,3.9,0,0,1,5.13-.88l1.18.74a4.85,4.85,0,0,1,2.26,4.41l-2.65,7.2,3.36-.65a1.19,1.19,0,0,1,1.4,1h0a1.19,1.19,0,0,1-.73,1.32l-5.48,2.21-5,7Z"/><path class="cls-13" d="M448.83,144.26l2.35-4.49a10.42,10.42,0,0,0,1.18-5.14l-.3-9.86-.33-2.13a3.9,3.9,0,0,0-4-3.3l-1.39.06a4.85,4.85,0,0,0-4.14,2.72l-1.25,7.58-2.6-2.22a1.19,1.19,0,0,0-1.69.14h0a1.19,1.19,0,0,0,0,1.5l3.67,4.63,1,9.65Z"/><path class="cls-9" d="M364.26,218.34c-2,8.89,9.8,76-3.27,100.51,6.53-2.65,13-7.83,12.64-14.45-1.71-32.2-.16-60.77,2.2-87.91,11.17-5.66,28.63-9,41-18.08C403.58,203.3,366,210.4,364.26,218.34Z"/><path class="cls-4" d="M342.31,165.93l3.33-3.42s5.47,5.59,9.87,6.56a51.34,51.34,0,0,0,7.88,1.63l2.14,5.91S348.09,175.36,342.31,165.93Z"/><path class="cls-11" d="M366.25,147a2.81,2.81,0,0,0,2.29-1.19c.91-1.32.33-7.37,3.14-8.37,4.38-1.56,14.78,3.92,15.89-11.89.58-8.22-3.42-10.4-3.4-14.9,0,0,.35,2.26-20.79.85s-28,17.37-28.52,26.31,3.83,23.64,18.28,25.66c2.4.33,12.46-7.76,12.2-8.82s-4.06-1-3.51-4.09C362.28,148,363.85,147,366.25,147Z"/><path class="cls-9" d="M63,247.16,9.57,216.33a2.73,2.73,0,0,0-2.76-.22v0l-5.18,3,3.64,1.33v38.88c0,3.16,1.92,6.84,4.3,8.21L60.6,297v4.56l5.23-3h0a3.81,3.81,0,0,0,1.45-3.42v-39.7C67.26,252.2,65.33,248.53,63,247.16Z"/><path class="cls-12" d="M57.69,301.35,4.3,270.53c-2.37-1.37-4.3-5-4.3-8.21v-39.7c0-3.16,1.92-4.62,4.3-3.25L57.69,250.2c2.37,1.37,4.3,5,4.3,8.21v39.7C62,301.27,60.06,302.72,57.69,301.35Z"/><path class="cls-4" d="M57.69,250.2,4.3,219.37A2.53,2.53,0,0,0,1,219.6a3.23,3.23,0,0,1,1.9.48L56.26,250.9c2.37,1.37,4.3,5,4.3,8.21v39.7a4.35,4.35,0,0,1-1,3c1.42-.12,2.4-1.48,2.4-3.73v-39.7C62,255.24,60.06,251.57,57.69,250.2Z"/><path class="cls-4" d="M22.25,256.85c0,2.3-1.61,3.23-3.6,2.08a8,8,0,0,1-3.6-6.24c0-2.3,1.61-3.23,3.6-2.08A8,8,0,0,1,22.25,256.85Z"/><path class="cls-4" d="M33.16,263.15c0,2.3-1.61,3.23-3.6,2.08A8,8,0,0,1,26,259c0-2.3,1.61-3.23,3.6-2.08A8,8,0,0,1,33.16,263.15Z"/><path class="cls-4" d="M44.08,269.45c0,2.3-1.61,3.23-3.6,2.08a8,8,0,0,1-3.6-6.24c0-2.3,1.61-3.23,3.6-2.08A8,8,0,0,1,44.08,269.45Z"/><polygon class="cls-2" points="36.87 569.7 0.88 548.92 36.87 528.13 72.86 548.92 36.87 569.7"/><polygon class="cls-7" points="72.86 522.53 36.87 543.31 36.87 501.75 72.86 480.97 72.86 522.53"/><polygon class="cls-9" points="36.87 501.75 0.88 480.97 36.87 460.19 72.86 480.97 36.87 501.75"/><polygon class="cls-8" points="36.87 543.31 0.88 522.53 0.88 480.97 36.87 501.75 36.87 543.31"/><polygon class="cls-4" points="23.91 520.86 13.84 515.05 13.84 503.42 23.91 509.24 23.91 520.86"/><polygon class="cls-2" points="619.15 592.24 581.68 570.61 619.15 548.98 656.62 570.61 619.15 592.24"/><polygon class="cls-7" points="656.62 543.14 619.15 564.78 619.15 521.51 656.62 499.88 656.62 543.14"/><polygon class="cls-12" points="619.15 521.51 581.68 499.88 619.15 478.24 656.62 499.88 619.15 521.51"/><polygon class="cls-9" points="619.15 564.78 581.68 543.14 581.68 499.88 619.15 521.51 619.15 564.78"/><polygon class="cls-4" points="605.66 541.4 595.18 535.35 595.18 523.25 605.66 529.3 605.66 541.4"/><path class="cls-7" d="M643.44,246.46l-52.2-30.14a2.67,2.67,0,0,0-2.7-.22v0L583.49,219l3.56,1.3v38c0,3.09,1.88,6.69,4.2,8l49.89,28.81v4.46l5.12-2.95h0a3.72,3.72,0,0,0,1.42-3.35V254.48C647.64,251.39,645.76,247.8,643.44,246.46Z"/><path class="cls-9" d="M638.29,299.45l-52.2-30.14c-2.32-1.34-4.2-4.93-4.2-8V222.47c0-3.09,1.88-4.51,4.2-3.18l52.2,30.14c2.32,1.34,4.2,4.93,4.2,8v38.81C642.49,299.36,640.61,300.78,638.29,299.45Z"/><path class="cls-4" d="M639.57,248.51l-52.2-30.14c-1.47-.85-2.76-.58-3.51.51a2.94,2.94,0,0,1,2.23.42l52.2,30.14c2.32,1.34,4.2,4.93,4.2,8v38.81a4.69,4.69,0,0,1-.69,2.67c1.18-.31,2-1.59,2-3.59V256.53C643.77,253.44,641.89,249.85,639.57,248.51Z"/><path class="cls-4" d="M603.64,255.93c0,2.25-1.58,3.16-3.52,2a7.79,7.79,0,0,1-3.52-6.1c0-2.25,1.58-3.16,3.52-2A7.78,7.78,0,0,1,603.64,255.93Z"/><path class="cls-4" d="M614.31,262.09c0,2.25-1.58,3.16-3.52,2a7.78,7.78,0,0,1-3.52-6.1c0-2.25,1.58-3.16,3.52-2A7.78,7.78,0,0,1,614.31,262.09Z"/><path class="cls-4" d="M625,268.25c0,2.25-1.58,3.16-3.52,2a7.78,7.78,0,0,1-3.52-6.1c0-2.25,1.58-3.16,3.52-2A7.78,7.78,0,0,1,625,268.25Z"/></g></g></g></svg>