<svg xmlns="http://www.w3.org/2000/svg" viewBox="0 0 313.27 246.42"><defs><style>.cls-1{fill:#e9eeff;}.cls-2{fill:#2e2ea3;}.cls-3{fill:#164072;}.cls-4{fill:#0a253f;}.cls-5{fill:#112f5b;}.cls-6{fill:#155a93;}.cls-7{fill:#97dfff;}.cls-8{fill:#3498db;}.cls-9{fill:#55c3fe;}.cls-10{fill:#fff;}.cls-11{fill:#f8a9b6;}.cls-12{fill:#fdc5b6;}.cls-13{fill:#fe7386;}.cls-14{fill:#c7ebf9;}.cls-15{fill:#e6f7ff;}.cls-16{fill:#ffc2b0;}.cls-17{fill:#a1a1a1;}.cls-18{fill:#c7c7c7;}.cls-19{fill:#f7f7f7;}.cls-20{fill:#e0e0e0;}</style></defs><title>Asset 72</title><g id="Layer_2" data-name="Layer 2"><g id="Layer_1-2" data-name="Layer 1"><ellipse class="cls-1" cx="156.64" cy="183.78" rx="156.64" ry="62.64"/><polygon class="cls-2" points="307.56 80.88 307.56 87.29 167.51 168.19 27.38 87.28 27.38 80.87 307.56 80.88"/><path class="cls-3" d="M89.37,102.88v74.34c0,25.78,35.29,46.68,78.82,46.68S247,203,247,177.22V102.88Z"/><path class="cls-4" d="M90.78,123.89c-2.13.6,21.39,32.91,60.3,54.66,22.65,12.66,65.74,15.44,90.33,16a30.73,30.73,0,0,0,5.6-17.27V121.83L144,104.75S94,123,90.78,123.89Z"/><polygon class="cls-5" points="27.38 87.28 167.47 6.41 307.56 87.29 167.51 168.19 27.38 87.28"/><polygon class="cls-3" points="27.38 80.87 167.47 0 307.56 80.88 167.51 161.78 27.38 80.87"/><polygon class="cls-6" points="167.51 168.19 167.51 161.78 27.38 80.87 27.38 87.28 167.51 168.19"/><path class="cls-7" d="M231,197.22h5.86a5.83,5.83,0,0,0,5.81-6.25l-2.93-15.22a5.83,5.83,0,0,0-5.81-5.4h0a5.83,5.83,0,0,0-5.81,5.4L225.21,191A5.83,5.83,0,0,0,231,197.22Z"/><polygon class="cls-7" points="232.61 197.69 235.43 197.69 235.43 112.55 158.07 66.93 156.63 69.36 232.61 114.16 232.61 197.69"/><circle class="cls-7" cx="233.92" cy="160.13" r="6.57"/><path class="cls-5" d="M298.09,142.43s-2.26,3-2.7,4.92a3.56,3.56,0,0,0,.34,2.93,45.23,45.23,0,0,0,4.45,2.26c1.07.34,3.91,4.12,6.46,5s5.68,2.51,6.58.55S303,144.49,303,144.49Z"/><path class="cls-5" d="M261.58,138.87s.25,2.28,2.28,2.15,3.79-2.28,3.79-2.28l-.51,8.09S266,159,262.47,160.23s-4.3-5.44-4.3-5.44Z"/><path class="cls-8" d="M271,62.06l.62,22L258.85,97.27l-11.39-3.54a6.87,6.87,0,0,1-4.82-6.19l-.28-5.13s-5.62-6.11-3.79-6.58,26.65-17,26.65-17Z"/><path class="cls-8" d="M264.92,142.85a6.51,6.51,0,0,1-5.65-9.72c2.32-4.1,8.28-16.62,7.93-25.14-.16-3.94-10.41-10.93-19.46-14.55a6.5,6.5,0,1,1,4.83-12.08c4.51,1.8,27,11.54,27.63,26.09.58,13.78-8.57,30.28-9.62,32.11A6.5,6.5,0,0,1,264.92,142.85Z"/><path class="cls-8" d="M300.93,147.47a6.51,6.51,0,0,1-6.48-6c-.62-8-3.06-30.81-6.86-39.43-2.25-5.11-13.6-10.71-20.95-13a6.51,6.51,0,0,1,3.93-12.4c3.89,1.23,23.55,8,28.93,20.21s7.67,40.49,7.92,43.68a6.5,6.5,0,0,1-6,7Z"/><path class="cls-9" d="M269.78,25.81l4.77,5.64s1.31,15.48,7.85,26.18c7.13,11.66,19.51,18.68,18.85,20.1-1.27,2.73.4,6.31-3.14,4.4-1.77-1-14.62-6-23.7-14.74S260,46.25,260,46.25Z"/><path class="cls-7" d="M253.55,36.68a37.28,37.28,0,0,1,17.79-6.8,13.82,13.82,0,0,1,4.35.09c4.4,1.09,5.51,4,5.68,5.47S271.94,76,271.94,76s-19.18,12-27,7.94c-5.62-2.9-5.65-6.17-5.23-7.77a19.8,19.8,0,0,0,.59-2.91l9.79-34.17Z"/><path class="cls-10" d="M264.5,31.74s-5.77,1.78-6.19,3.36,4.09,6.61,9.55,6.19,10.91-5.67,8.71-7.56S264.5,31.74,264.5,31.74Z"/><path class="cls-11" d="M277.37,26.3l-6.6,10h0A7.09,7.09,0,0,1,262.9,35h0a1.75,1.75,0,0,1-.32-2.13L268.16,23Z"/><circle class="cls-12" cx="275.82" cy="22.81" r="11.06" transform="translate(102.24 238.36) rotate(-55.88)"/><path class="cls-5" d="M284.71,25.71a2.77,2.77,0,0,0,1.71,0l.07,0a11,11,0,0,0-20.56-7.81,3.78,3.78,0,0,0,1.26.8c1.06.39,5.05-.1,5.12-1.67l-.11,2.31a2.68,2.68,0,0,0,2.08-1.48A16.39,16.39,0,0,0,284.71,25.71Z"/><circle class="cls-12" cx="267.59" cy="17.66" r="3.37" transform="translate(102.88 229.29) rotate(-55.88)"/><path class="cls-12" d="M305.9,81.43A4.09,4.09,0,0,1,298,79.24c.61-2.17,5.8-3.42,5-1.33C301.45,81.73,306.5,79.26,305.9,81.43Z"/><path class="cls-9" d="M250.13,39.09s-20.7,24-20.4,40.52a55.66,55.66,0,0,0,8.83,28.81l7-.31s-7.41-27.3-4.18-33.76S258.43,41.11,250.13,39.09Z"/><path class="cls-12" d="M246.17,114.71c-2,1.73-5.57-1.71-7.3-3.71s-1.14-5.35,2.68-6.67c2.5-.86,10.25,5.19,5.75,4.08C243.57,107.5,248.17,113,246.17,114.71Z"/><path class="cls-5" d="M42.59,143.58s2.26,3,2.7,4.92a3.56,3.56,0,0,1-.34,2.93,45.25,45.25,0,0,1-4.45,2.26c-1.07.34-3.91,4.12-6.46,5s-5.68,2.51-6.58.55,10.18-13.56,10.18-13.56Z"/><path class="cls-5" d="M79.1,140s-.25,2.28-2.28,2.15S73,139.89,73,139.89l.51,8.09s1.14,12.14,4.68,13.4,4.3-5.44,4.3-5.44Z"/><path class="cls-13" d="M69.7,63.21l-.62,22L81.82,98.42l11.39-3.54A6.87,6.87,0,0,0,98,88.69l.28-5.13s5.62-6.11,3.79-6.58S75.46,60,75.46,60Z"/><path class="cls-13" d="M75.76,144a6.51,6.51,0,0,0,5.65-9.72c-2.32-4.1-8.28-16.62-7.93-25.14.16-3.94,10.41-10.93,19.46-14.55a6.5,6.5,0,1,0-4.83-12.08c-4.51,1.8-27,11.54-27.63,26.09-.58,13.78,8.57,30.28,9.62,32.11A6.5,6.5,0,0,0,75.76,144Z"/><path class="cls-13" d="M39.75,148.62a6.51,6.51,0,0,0,6.48-6c.62-8,3.06-30.81,6.86-39.43,2.25-5.11,13.6-10.71,20.95-13a6.51,6.51,0,0,0-3.93-12.4c-3.89,1.23-23.55,8-28.93,20.21s-7.67,40.49-7.92,43.68a6.5,6.5,0,0,0,6,7Z"/><path class="cls-14" d="M70.37,25.76l-3.82,2.73s-15.71,37.36-15.4,40.4,3.54,5.11,6,4.2S68.28,50.63,68.28,50.63Z"/><path class="cls-15" d="M86.78,29s-12.42-4-17.5-2.68-4.76,8.4-5.18,10.1,2.73,42.29,2.73,42.29,19,14.9,28.31,10.25c6.73-3.36,7.27-7.17,7.06-9a22.64,22.64,0,0,1-.21-3.38L96.4,36.85Z"/><circle class="cls-16" cx="73.66" cy="15.74" r="12.35" transform="translate(-1.11 24.88) rotate(-19.03)"/><path class="cls-16" d="M71,19.06l4.2,12.7h0a7.92,7.92,0,0,0,8.86.92h0a2,2,0,0,0,1-2.2L81.86,18.15Z"/><path class="cls-14" d="M52.53,75.4h0a6.16,6.16,0,0,0,6.14-6.14h0a6.16,6.16,0,0,0-6.14-6.14h0a6.16,6.16,0,0,0-6.14,6.14h0A6.16,6.16,0,0,0,52.53,75.4Z"/><path class="cls-16" d="M44.62,68.64c0,2.52-2.35,4.6.17,4.6a4.56,4.56,0,0,0,4.56-4.56c0-2.52-6-3.3-8.08-1.86C36.52,70.1,44.62,66.12,44.62,68.64Z"/><path class="cls-14" d="M102.19,79.91a5.5,5.5,0,0,1,0,.58s0,.06,0,.09a5.77,5.77,0,0,1,0,.69v.06c-.22,1.6-1.19,3.77-4.21,5.91h0a49.21,49.21,0,0,1-5.22,2.36c-7.47.91-19.49-7.11-25.41-11.5A22.51,22.51,0,0,1,68.84,75L91.64,65,97,37.8l.59-1.4-1.2.44L102,76.53A22.64,22.64,0,0,0,102.19,79.91Z"/><path class="cls-15" d="M95.68,53.74S83.81,30.26,86.78,29c0,0,10.47,2.36,12.59,7s14.79,34.83,14.15,38.86S109,80.3,98.62,83A125.87,125.87,0,0,1,81,86.4L80.66,82,99.93,70.43Z"/><path class="cls-1" d="M32.11,67.64,55,69.47s7.73,4.58,7.44,8-6.87,3.44-6.87,3.44l-12.6,8Z"/><path class="cls-10" d="M48.74,82.73a7.55,7.55,0,0,0-1.55-5.42c-3.57-4.59-10.55-9.49-13.85-9.49L55,69.47s10,3.44,7.44,8a6.24,6.24,0,0,1-6.87,3.44Z"/><path class="cls-10" d="M43.43,88s4.72-8.52,10-8.83a34.59,34.59,0,0,0,9-1.72S73.58,76.43,78.26,82l2.52,3Z"/><path class="cls-5" d="M42.5,89.84l41.34-4.53a.85.85,0,0,0-.18-1.68L43.43,88,31.11,66.19a.85.85,0,0,0-1.48.83Z"/><path class="cls-16" d="M81.53,83.15c4.25.94-10.67,3-3,5.33,2.42.72,8.32-1.84,8.32-4.36s-1.9-3.25-4.42-3.25S79.07,82.61,81.53,83.15Z"/><path class="cls-1" d="M74.49,83.39s-22.51-4.68-25.73-2S44,85.77,44,85.77L43.43,88l33.78-3.59Z"/><path class="cls-5" d="M75.62,19a8.32,8.32,0,0,1-.13-2.68A2.82,2.82,0,0,1,77,14.23,2.91,2.91,0,0,1,78.31,14a3.31,3.31,0,0,1,2.49,1.17,3.37,3.37,0,0,1,.48,1,5.4,5.4,0,0,1-2,6,3.29,3.29,0,0,0,1.87,1.35,9.11,9.11,0,0,0,2.15.68c.94,1.66.41,4.06.1,6s.08,3-.49,4.87c-1.36,4.32-2.08,9-.94,13.38,1.41-2.79,4.18-4.55,6.26-6.89a12.82,12.82,0,0,0,3.33-9.61,9.93,9.93,0,0,0-5.78-8.12C88.31,21,89,16.71,88.37,13A12.57,12.57,0,0,0,82,4.23a18.24,18.24,0,0,0-7.53-1.85,16.36,16.36,0,0,0-3.79.14A13,13,0,0,0,62.79,7.6,9.54,9.54,0,0,0,61,16.69a5.42,5.42,0,0,1,4.62-1.64c1.32.33,5,4,7.09,4.27C73.59,19.46,74.94,19.68,75.62,19Z"/><path class="cls-13" d="M83.32,23.84a1.76,1.76,0,0,0-.59.65,1.39,1.39,0,0,0,.91,1.71,4,4,0,0,0,2.15,0l1.37-.25a2.93,2.93,0,0,0,1.31-.47,1.73,1.73,0,0,0,.53-1.8C88.3,21.19,84.67,22.83,83.32,23.84Z"/><polygon class="cls-17" points="272.45 85.53 271.26 84.74 271.24 82.55 289.14 74.93 302.77 82.06 286.08 92.65 272.45 85.53"/><polygon class="cls-18" points="286.1 93.69 302.79 83.1 302.74 82 286.05 92.6 286.1 93.69"/><polygon class="cls-19" points="302.56 77.59 285.87 88.18 272.24 81.06 288.93 70.46 302.56 77.59"/><path class="cls-20" d="M271.94,81.18l.3-.12,0,1.09h0a2,2,0,0,0-.25,3l.39.28,0,1.09a5.44,5.44,0,0,1-.83-.54C270.21,85,270.43,81.81,271.94,81.18Z"/><polygon class="cls-10" points="272.35 81.66 274.81 83.16 286.04 88.96 301.12 79.38 301.25 82.38 286.16 91.96 272.49 84.84 272.35 81.66"/><polygon class="cls-1" points="286.01 91.88 272.49 84.84 272.35 81.66 274.81 83.16 285.83 88.85 286.01 91.88"/><polygon class="cls-20" points="272.47 86.57 286.1 93.69 286.05 92.6 272.42 85.48 272.47 86.57"/><polygon class="cls-20" points="272.28 82.15 285.91 89.28 285.87 88.18 272.24 81.06 272.28 82.15"/><polygon class="cls-18" points="285.91 89.28 302.6 78.68 302.56 77.59 285.87 88.18 285.91 89.28"/></g></g></svg>