<svg xmlns="http://www.w3.org/2000/svg" xmlns:xlink="http://www.w3.org/1999/xlink" viewBox="0 0 763.9 565.28"><defs><style>.cls-1{fill:none;}.cls-2{fill:#d4ecff;}.cls-3{fill:#ff7382;}.cls-4{clip-path:url(#clip-path);}.cls-15,.cls-5{fill:#fff;}.cls-6{fill:#227cc6;}.cls-7{fill:#112f5b;}.cls-8{fill:#c7ebf9;}.cls-9{fill:#ffc2b0;}.cls-10{fill:#3498db;}.cls-11{fill:#97dfff;}.cls-12{fill:#1d6baa;}.cls-13{fill:#00a7d6;}.cls-14{fill:#5cb9ff;opacity:0.5;}.cls-15{opacity:0.4;}.cls-16{fill:#55c3fe;}.cls-17{fill:#fe7386;}.cls-18{fill:#fdc5b6;}.cls-19{fill:#e9eeff;}</style><clipPath id="clip-path"><polygon class="cls-1" points="547.7 302.23 301.45 159.01 77.44 289.97 323.69 433.19 547.7 302.23"/></clipPath></defs><title>Asset 71</title><g id="Layer_2" data-name="Layer 2"><g id="Layer_1-2" data-name="Layer 1"><path class="cls-2" d="M755,362.41,320.2,111.57a17.85,17.85,0,0,0-17.85,0L8.92,281.11a17.85,17.85,0,0,0,0,30.92L443.45,562.89a17.85,17.85,0,0,0,17.85,0L755,393.34A17.85,17.85,0,0,0,755,362.41Z"/><ellipse class="cls-3" cx="449.35" cy="459.94" rx="51.65" ry="26.75"/><g class="cls-4"><rect class="cls-5" x="62.06" y="221.04" width="269.86" height="12.13" transform="translate(-87.69 130.47) rotate(-30.31)"/><rect class="cls-5" x="105.42" y="249.71" width="274.51" height="12.13" transform="translate(-94.92 154.1) rotate(-29.74)"/><rect class="cls-5" x="153.2" y="275.7" width="269.1" height="12.13" transform="translate(-100.68 175.42) rotate(-29.09)"/><rect class="cls-5" x="204.52" y="301.68" width="268.06" height="12.13" transform="translate(-107.91 207.78) rotate(-29.65)"/><rect class="cls-5" x="245.82" y="330.65" width="272.44" height="12.13" transform="translate(-117.42 237.35) rotate(-30.14)"/><rect class="cls-5" x="293.23" y="359.03" width="269.86" height="12.13" transform="translate(-125.73 266) rotate(-30.31)"/></g><path class="cls-6" d="M526.22,322.86a10.7,10.7,0,0,1-10.59-9.22c-9.38-67.2,36.31-179.6,38.26-184.36a10.7,10.7,0,0,1,19.81,8.12c-.45,1.11-45.44,111.81-36.86,173.27a10.7,10.7,0,0,1-9.12,12.08A10.35,10.35,0,0,1,526.22,322.86Z"/><path class="cls-7" d="M603.6,327.76c5.33-1.06,7.13-5.68,2.83-10.24-.41-.44-5.93-.66-7.37-.59-1.62.08-3.32-2.59-7.4-2.31-2.93.2-8.32,3.36-10.08,3.43-12.69.51-11.71,6.34-10.91,6.84,3.52,2.21,7,4.56,11.15,4.78S599.48,328.31,603.6,327.76Z"/><path class="cls-7" d="M527.47,326.7c5.42.37,8.36-3.62,5.4-9.14-.28-.53-5.55-2.19-7-2.49-1.59-.34-2.52-3.37-6.54-4.16-2.88-.57-8.91,1.07-10.62.68-12.38-2.83-13,3.06-12.31,3.76,2.82,3.05,5.57,6.23,9.52,7.52S523.35,326.16,527.47,326.7Z"/><path class="cls-6" d="M555.41,170.76s13.92,6.74,25.6,7.19,18-2.25,18-2.25l2.25-22.46-42.67-9.43Z"/><path class="cls-6" d="M601.2,326.31A10.71,10.71,0,0,1,590.59,317c-.38-3-9.38-74.29-9.38-94.38,0-19.72,3.19-75.2,3.33-77.55a10.71,10.71,0,0,1,21.38,1.23c0,.57-3.29,57.21-3.29,76.31,0,18.75,9.12,91,9.22,91.69a10.71,10.71,0,0,1-9.28,12A11.2,11.2,0,0,1,601.2,326.31Z"/><path class="cls-8" d="M617.28,77.22c-8-11.69-41-16.27-49-17.73s-9.48,10.23-10.87,23.63l-6.64,46.69s-7,16.4,3.39,20.13,52.68,11.28,56.82,3.74C611.94,151.83,620.17,81.46,617.28,77.22Z"/><circle class="cls-9" cx="582.87" cy="34.45" r="21.27" transform="translate(444.58 601.72) rotate(-79.68)"/><path class="cls-9" d="M574.77,39.63,578,62.46h0a13.64,13.64,0,0,0,14.73,4.29l2.5-.81-1.69-24.48Z"/><ellipse class="cls-9" cx="601.86" cy="38.78" rx="8.24" ry="4.34" transform="translate(455.9 623.96) rotate(-79.68)"/><path class="cls-7" d="M586.68,13.52a21.27,21.27,0,0,0-21.88,9.73c3.31,2.87,9.07,4.68,12.83,5.41,1.65.32,17,1,16.81-1.76a37.89,37.89,0,0,0,2,10,7.23,7.23,0,0,1,6.85-5.74h.56A21.27,21.27,0,0,0,586.68,13.52Z"/><path class="cls-7" d="M588,29.86c0-.61-5.69,7.47-14.79,4.86A5.61,5.61,0,0,0,577,31.57a8,8,0,0,1-8.28,2.69A12,12,0,0,0,572,32.34s-3.47,1.83-6.79.5c2.09-.9,1.78-2.29,1.78-2.29s-1.85,1.85-5.45-1.29c1.46-.19,1.32-6.91,6.61-11.75s9.59-6,16.67-4.77c-1.74-1.8-3.57-2.8-6.08-2.4,2.83-1.58,8.81,1.25,10.58,3.87,5.5-2.11,16.16,3.72,14.49,16.9-.06-.5-2.56.93-4.51.31s-3.58,3.21-3.14,4.17a1.69,1.69,0,0,1-2.87,1.53C591.55,35.65,588.29,37.5,588,29.86Z"/><path class="cls-8" d="M600.16,139.79,606,143c5.94,3.28,3.82,6.65,3.82,6.65s55.93-43.43,54.16-46.77-60.35-38.14-62.18-34.6,2.56,22.59,2.56,22.59,29.91,14.94,27.13,18.31S600.16,139.79,600.16,139.79Z"/><path class="cls-9" d="M610.51,136.77a7.74,7.74,0,0,1-7.74,7.74c-4.28,0-15-4.06-15-8.34s18.95,7.25,15-7.15C601.64,124.91,610.51,132.5,610.51,136.77Z"/><path class="cls-8" d="M563.39,60.76s-23.33,15.44-38.8,17.64S482.2,62.93,482.2,62.93s-5.63,5.82-4.62,7.83,24.34,26.8,43.3,28,46.76-16.14,46.76-16.14Z"/><path class="cls-9" d="M483.3,63c1.42,2-2.62,11.27-3.64,12.47-2.77,3.26-16.23-5.66-15.46-9.86s-1.44-11.72,2.77-11S476.13,53,483.3,63Z"/><path class="cls-10" d="M466.15,47.76V79.91A6.84,6.84,0,0,0,473,86.75h0a6.84,6.84,0,0,0,6.84-6.84V47.76Z"/><path class="cls-11" d="M551.64,413.67c-.12-.36-.25-.71-.38-1.06s-.25-.71-.38-1.06-.25-.71-.38-1.06-.25-.71-.38-1.06-.25-.71-.38-1.06-.25-.71-.38-1.06-.25-.71-.38-1.06-.25-.71-.38-1.06-.25-.71-.38-1.06-.25-.71-.38-1.06-.25-.71-.38-1.06-.25-.71-.38-1.06-.25-.71-.38-1.06-.25-.71-.38-1.06-.25-.71-.38-1.06-.25-.71-.38-1.06-.25-.71-.38-1.06-.25-.71-.38-1.06-.25-.71-.38-1.06-.25-.71-.38-1.06-.25-.71-.38-1.06-.25-.71-.38-1.06-.25-.71-.38-1.06-.25-.71-.38-1.06-.25-.71-.38-1.06-.25-.71-.38-1.06-.25-.71-.38-1.06-.25-.71-.38-1.06-.25-.71-.38-1.06-.25-.71-.38-1.06-.25-.71-.38-1.06-.25-.71-.38-1.06-.25-.71-.38-1.06-.25-.71-.38-1.06-.25-.71-.38-1.06-.25-.71-.38-1.06-.25-.71-.38-1.06-.25-.71-.38-1.06-.25-.71-.38-1.06-.25-.71-.38-1.06-.25-.71-.38-1.06-.25-.71-.38-1.06-.25-.71-.38-1.06-.25-.71-.38-1.06-.25-.71-.38-1.06-.25-.71-.38-1.06-.25-.71-.38-1.06-.25-.71-.38-1.06-.25-.71-.38-1.06-.25-.71-.38-1.06-.25-.71-.38-1.06-.25-.71-.38-1.06-.25-.71-.38-1.06-.25-.71-.38-1.06-.25-.71-.38-1.06-.25-.71-.38-1.06-.25-.71-.38-1.06-.25-.71-.38-1.06-.25-.71-.38-1.06-.24-.71-.38-1.06-.25-.71-.38-1.06-.25-.71-.38-1.06-.25-.71-.38-1.06-.25-.71-.38-1.06-.25-.71-.38-1.06-.24-.71-.38-1.06-.24-.71-.38-1.06-.25-.71-.38-1.06-.24-.71-.38-1.06-.24-.71-.38-1.06-.24-.71-.38-1.06-.24-.71-.38-1.06-.24-.71-.38-1.06-.24-.71-.38-1.06-.24-.71-.38-1.06-.24-.71-.38-1.06-.24-.71-.38-1.06-.24-.71-.38-1.06-.24-.71-.38-1.06-.24-.71-.38-1.06-.24-.71-.38-1.06-.24-.71-.38-1.06-.24-.71-.38-1.06-.24-.71-.38-1.06-.24-.71-.38-1.06-.24-.71-.38-1.06-.24-.71-.38-1.06-.24-.71-.38-1.06-.24-.71-.38-1.06-.24-.71-.38-1.06-.24-.71-.38-1.06-.24-.71-.38-1.06-.24-.71-.38-1.06-.24-.71-.38-1.06-.24-.71-.38-1.06-.24-.71-.38-1.06-.24-.71-.38-1.06-.24-.71-.38-1.06-.24-.71-.38-1.06-.24-.71-.38-1.06-.24-.71-.38-1.06-.24-.71-.38-1.06-.24-.71-.38-1.06-.24-.71-.38-1.06-.24-.71-.38-1.06-.24-.71-.38-1.06-.24-.71-.38-1.06-.24-.71-.38-1.06-.24-.71-.38-1.06-.24-.71-.38-1.06-.24-.71-.38-1.06-.24-.71-.38-1.06-.24-.71-.38-1.06-.24-.71-.38-1.06-.24-.71-.38-1.06-.24-.71-.38-1.06-.24-.71-.38-1.06-.24-.71-.38-1.06-.24-.71-.38-1.06-.24-.71-.38-1.06-.24-.71-.38-1.06-.24-.71-.38-1.06-.24-.71-.38-1.06-.24-.71-.38-1.06-.24-.71-.38-1.06-.24-.71-.38-1.06-.24-.71-.37-1.06-.24-.71-.38-1.06-.24-.71-.38-1.06-.24-.71-.38-1.06-.24-.71-.38-1.06-.24-.71-.37-1.06-.24-.71-.38-1.06-.24-.71-.38-1.06-.24-.71-.37-1.06-.24-.71-.38-1.06-.24-.71-.37-1.06-.24-.71-.37-1.06-.24-.71-.38-1.06-.24-.71-.38-1.06-.24-.71-.37-1.06-.24-.71-.37-1.06-.24-.71-.37-1.06-.24-.71-.37-1.06-.24-.71-.38-1.06-.24-.71-.37-1.06-.24-.71-.37-1.06-.24-.71-.37-1.06-.23-.71-.37-1.06-.23-.71-.37-1.06-.23-.71-.37-1.06-.23-.71-.37-1.06-.23-.71-.37-1.06-.23-.71-.37-1.06-.23-.71-.37-1.06-.23-.71-.37-1.06-.23-.71-.37-1.06-.23-.71-.37-1.06-.23-.71-.37-1.06-.23-.71-.37-1.06-.23-.71-.37-1.06-.23-.71-.37-1.06-.23-.71-.37-1.06-.23-.71-.37-1.06-.23-.71-.37-1.06-.23-.7-.37-1.06-.23-.71-.37-1.06-.23-.71-.37-1.06-.23-.7-.37-1.06-.23-.71-.37-1.06-.23-.71-.37-1.06-.17-.51-.27-.76-.24-.71-.38-1.07-.24-.71-.38-1.07-.24-.71-.38-1.07-.24-.71-.38-1.07-.24-.71-.38-1.07-.24-.71-.38-1.07-.24-.71-.38-1.07-.24-.71-.38-1.07-.24-.71-.38-1.07-.24-.71-.38-1.07-.24-.71-.38-1.07-.24-.71-.38-1.07-.24-.71-.38-1.07-.24-.71-.38-1.07-.24-.71-.38-1.07-.24-.71-.38-1.07-.24-.71-.38-1.07-.24-.71-.38-1.06-.23-.71-.38-1.07-.23-.71-.38-1.07-.23-.71-.38-1.06-.23-.71-.38-1.06-.23-.71-.38-1.06-.23-.71-.38-1.06-.23-.71-.38-1.06-.23-.71-.38-1.06-.21-.63-.33-.95c0,0,0-.08,0-.12,0-.23,0-.47,0-.7s0-.47,0-.7,0-.47,0-.7,0-.47,0-.7,0-.47,0-.7,0-.47,0-.7,0-.47,0-.7,0-.47,0-.7,0-.47,0-.7,0-.47,0-.7,0-.47,0-.7,0-.47,0-.7,0-.47,0-.7,0-.47,0-.7,0-.47,0-.7,0-.47,0-.7,0-.47,0-.7,0-.47,0-.7,0-.47,0-.7,0-.47,0-.7,0-.47,0-.7,0-.47,0-.7,0-.47,0-.7,0-.47,0-.7,0-.47,0-.7,0-.47,0-.7,0-.47,0-.7,0-.47,0-.7,0-.47,0-.7,0-.47,0-.7,0-.47,0-.7,0-.47,0-.7,0-.47,0-.7,0-.47,0-.7,0-.47,0-.7,0-.47,0-.7,0-.47,0-.7,0-.47,0-.7,0-.47,0-.7,0-.47,0-.7,0-.47,0-.7,0-.47,0-.7,0-.47,0-.7,0-.47,0-.7,0-.47,0-.7,0-.47,0-.7,0-.47,0-.7,0-.47,0-.7,0-.47,0-.7,0-.47,0-.7,0-.47,0-.7,0-.47,0-.7,0-.47,0-.7,0-.47,0-.7,0-.47,0-.7,0-.47,0-.7,0-.47,0-.7,0-.47,0-.7,0-.47,0-.7,0-.47,0-.7,0-.47,0-.7,0-.47,0-.7,0-.47,0-.7,0-.47,0-.7,0-.47,0-.7,0-.47,0-.7,0-.47,0-.7,0-.47,0-.7,0-.47,0-.7,0-.47,0-.7,0-.47,0-.7,0-.47,0-.7,0-.47,0-.7,0-.47,0-.7,0-.47,0-.7,0-.47,0-.7,0-.47,0-.7,0-.47,0-.7,0-.47,0-.7,0-.47,0-.7,0-.47,0-.7,0-.47,0-.7,0-.47,0-.7,0-.47,0-.7,0-.47,0-.7,0-.47,0-.7,0-.47,0-.7,0-.47,0-.7,0-.47,0-.7,0-.47,0-.7,0-.47,0-.7,0-.47,0-.7,0-.47,0-.7,0-.47,0-.7,0-.47,0-.7,0-.47,0-.7,0-.47,0-.7,0-.47,0-.7,0-.47,0-.7,0,28.47,0,28.24,0-.47,0-.7,0-.47,0-.7,0-.47,0-.7,0-.47,0-.7,0-.47,0-.7,0-.47,0-.7,0-.47,0-.7,0-.47,0-.7,0-.47,0-.7,0-.47,0-.7,0-.47,0-.7,0-.47,0-.7,0-.47,0-.7,0-.47,0-.7,0-.47,0-.7,0-.47,0-.7,0-.47,0-.7,0-.47,0-.7,0-.47,0-.7,0-.47,0-.7,0-.47,0-.7,0-.47,0-.7,0-.47,0-.7,0-.47,0-.7,0-.47,0-.7,0-.47,0-.7,0-.47,0-.7,0-.47,0-.7,0-.47,0-.7,0-.47,0-.7,0-.47,0-.7,0-.47,0-.7,0-.47,0-.7,0-.47,0-.7,0-.47,0-.7,0-.47,0-.7,0-.47,0-.7,0-.47,0-.7,0-.47,0-.7,0-.47,0-.7,0-.47,0-.7,0-.47,0-.7,0-.47,0-.7,0-.47,0-.7,0-.47,0-.7,0-.47,0-.7,0-.47,0-.7,0-.47,0-.7,0-.47,0-.7,0-.47,0-.7,0-.47,0-.7,0-.47,0-.7,0-.47,0-.7,0-.47,0-.7,0-.47,0-.7,0-.47,0-.7,0-.47,0-.7,0-.47,0-.7,0-.47,0-.7,0-.47,0-.7,0-.47,0-.7,0-.47,0-.7,0-.47,0-.7,0-.47,0-.7,0-.47,0-.7,0-.47,0-.7,0-.47,0-.7,0-.47,0-.7,0-.47,0-.7,0-.47,0-.7,0-.47,0-.7,0-.47,0-.7,0-.47,0-.7,0-.47,0-.7,0-.47,0-.7,0-.47,0-.7,0-.47,0-.7,0-.47,0-.7,0-.47,0-.7,0-.47,0-.7,0-.47,0-.7,0-.47,0-.7,0-.47,0-.7,0-.47,0-.7,0-.47,0-.7,0-.47,0-.7,0-.47,0-.7,0-.47,0-.7,0-.47,0-.7,0-.47,0-.7,0-.47,0-.7,0-.47,0-.7,0-.47,0-.7,0-.47,0-.7,0-.47,0-.7,0-.47,0-.7,0-.47,0-.7,0-.47,0-.7c.19-5.62-4.53-11.27-14.19-15.55-18.85-8.37-49.31-8.37-68,0-9.54,4.26-14.18,9.87-14,15.46,0,.23,0,.47,0,.7s0,.47,0,.7,0,.47,0,.7,0,.47,0,.7,0,.47,0,.7,0,.47,0,.7,0,.47,0,.7,0,.47,0,.7,0,.47,0,.7,0,.47,0,.7,0,.47,0,.7,0,.47,0,.7,0,.47,0,.7,0,.47,0,.7,0,.47,0,.7,0,.47,0,.7,0,.47,0,.7,0,.47,0,.7,0,.47,0,.7,0,.47,0,.7,0,.47,0,.7,0,.47,0,.7,0,.47,0,.7,0,.47,0,.7,0,.47,0,.7,0,.47,0,.7,0,.47,0,.7,0,.47,0,.7,0,.47,0,.7,0,.47,0,.7,0,.47,0,.7,0,.47,0,.7,0,.47,0,.7,0,.47,0,.7,0,.47,0,.7,0,.47,0,.7,0,.47,0,.7,0,.47,0,.7,0,.47,0,.7,0,.47,0,.7,0,.47,0,.7,0,.47,0,.7,0,.47,0,.7,0,.47,0,.7,0,.47,0,.7,0,.47,0,.7,0,.47,0,.7,0,.47,0,.7,0,.47,0,.7,0,.47,0,.7,0,.47,0,.7,0,.47,0,.7,0,.47,0,.7,0,.47,0,.7,0,.47,0,.7,0,.47,0,.7,0,.47,0,.7,0,.47,0,.7,0,.47,0,.7,0,.47,0,.7,0,.47,0,.7,0,.47,0,.7,0,.47,0,.7,0,.47,0,.7,0,.47,0,.7,0,.47,0,.7,0,.47,0,.7,0,.47,0,.7,0,.47,0,.7,0,.47,0,.7,0,.47,0,.7,0,.47,0,.7,0,.47,0,.7,0,.47,0,.7,0,.47,0,.7,0,.47,0,.7,0,.47,0,.7,0,.47,0,.7,0,.47,0,.7,0,.47,0,.7,0,.47,0,.7,0,.47,0,.7,0,.47,0,.7,0,.47,0,.7,0,.47,0,.7,0,.47,0,.7,0,.47,0,.7,0,.47,0,.7,0,.47,0,.7,0,.47,0,.7,0,.47,0,.7,0,.47,0,.7,0,.47,0,.7,0,.47,0,.7,0,.47,0,.7,0,.47,0,.7,0,.47,0,.7,0,.47,0,.7,0-28.47,0-28.24,0,.47,0,.7,0,.47,0,.7,0,.47,0,.7,0,.47,0,.7,0,.47,0,.7,0,.47,0,.7,0,.47,0,.7,0,.47,0,.7,0,.47,0,.7,0,.47,0,.7,0,.47,0,.7,0,.47,0,.7,0,.47,0,.7,0,.47,0,.7,0,.47,0,.7,0,.47,0,.7,0,.47,0,.7,0,.47,0,.7,0,.47,0,.7,0,.47,0,.7,0,.47,0,.7,0,.47,0,.7,0,.47,0,.7,0,.47,0,.7,0,.47,0,.7,0,.47,0,.7,0,.47,0,.7,0,.47,0,.7,0,.47,0,.7,0,.47,0,.7,0,.47,0,.7,0,.47,0,.7,0,.47,0,.7,0,.47,0,.7,0,.47,0,.7,0,.47,0,.7,0,.47,0,.7,0,.47,0,.7,0,.47,0,.7,0,.47,0,.7,0,.47,0,.7,0,.47,0,.7,0,.47,0,.7,0,.47,0,.7,0,.47,0,.7,0,.47,0,.7,0,.47,0,.7,0,.47,0,.7,0,.47,0,.7,0,.47,0,.7,0,.47,0,.7,0,.47,0,.7,0,.47,0,.7,0,.47,0,.7,0,.47,0,.7,0,.47,0,.7,0,.47,0,.7,0,.47,0,.7,0,.47,0,.7,0,.47,0,.7,0,.47,0,.7,0,.47,0,.7,0,.47,0,.7,0,.47,0,.7,0,.47,0,.7,0,.47,0,.7,0,.47,0,.7,0,.47,0,.7,0,.47,0,.7,0,.47,0,.7,0,.47,0,.7,0,.47,0,.7,0,.47,0,.7,0,.47,0,.7,0,.47,0,.7,0,.47,0,.7,0,.47,0,.7,0,.47,0,.7,0,.47,0,.7,0,.47,0,.7,0,.47,0,.7,0,.47,0,.7,0,.47,0,.7,0,.47,0,.7,0,.47,0,.7,0,.47,0,.7,0,.47,0,.7,0,.47,0,.7,0,.47,0,.7,0,.47,0,.7,0,.47,0,.7,0,.47,0,.7,0,.47,0,.7,0,.47,0,.7,0,.47,0,.7,0,.47,0,.7,0,.47,0,.7,0,.47,0,.7,0,.47,0,.7v.05c-.13.32-.24.64-.34,1s-.27.71-.38,1.06-.27.71-.38,1.06-.27.71-.38,1.06-.27.71-.38,1.06-.27.71-.38,1.06-.27.71-.38,1.07-.27.71-.38,1.07-.27.71-.38,1.06-.27.71-.38,1.07-.27.71-.38,1.07-.27.71-.38,1.07-.24.63-.33.94-.26.7-.37,1.05-.26.7-.37,1.05-.26.7-.37,1.05-.26.7-.37,1.06-.26.7-.37,1.05-.26.7-.37,1.06-.26.7-.37,1.05-.26.7-.37,1.05-.26.7-.37,1.05-.26.7-.37,1.06-.26.7-.37,1.06-.26.7-.37,1.05-.26.7-.37,1.06-.26.7-.37,1.06-.26.7-.37,1.06-.26.7-.37,1.06-.26.7-.37,1.06-.26.7-.37,1.06-.26.7-.37,1.06-.26.7-.37,1.06-.26.7-.37,1.06-.26.7-.37,1.06-.26.7-.37,1.06-.26.7-.37,1.06-.26.7-.38,1.06-.26.7-.37,1.06-.26.7-.37,1.06-.26.7-.37,1.06-.26.7-.38,1.06-.26.7-.37,1.06-.26.7-.38,1.06-.26.7-.37,1.06-.26.7-.38,1.06-.26.7-.38,1.06-.26.7-.38,1.06-.26.7-.38,1.06-.26.7-.37,1.06-.26.7-.38,1.06-.26.7-.38,1.06-.26.7-.38,1.06-.26.71-.38,1.06-.26.7-.38,1.06-.26.7-.38,1.06-.26.7-.38,1.06-.26.7-.38,1.06-.26.7-.38,1.06-.26.71-.38,1.06-.26.71-.38,1.06-.26.7-.38,1.06-.26.71-.38,1.06-.26.7-.38,1.06-.26.71-.38,1.06-.26.7-.38,1.06-.26.71-.38,1.06-.26.71-.38,1.06-.26.71-.38,1.06-.26.71-.38,1.06-.26.7-.38,1.06-.26.71-.38,1.06-.26.71-.38,1.06-.26.71-.38,1.06-.26.7-.38,1.06-.26.71-.38,1.06-.26.71-.38,1.06-.26.71-.38,1.06-.26.71-.38,1.06-.26.71-.38,1.06-.26.71-.38,1.06-.26.71-.38,1.06-.26.71-.38,1.06-.26.71-.38,1.06-.26.71-.38,1.06-.26.71-.38,1.06-.26.71-.38,1.06-.26.71-.38,1.06-.26.71-.38,1.06-.26.71-.38,1.06-.26.7-.38,1.06-.26.71-.38,1.06-.26.71-.38,1.06-.26.71-.38,1.06-.26.71-.38,1.06-.26.71-.38,1.06-.26.71-.38,1.06-.26.71-.38,1.06-.26.71-.38,1.06-.26.71-.38,1.06-.26.71-.38,1.06-.26.71-.38,1.06-.26.71-.38,1.06-.26.71-.38,1.06-.26.71-.38,1.06-.26.71-.38,1.06-.26.71-.38,1.06-.26.71-.38,1.06-.26.71-.38,1.06-.26.71-.38,1.06-.26.71-.38,1.06-.26.71-.38,1.06-.26.71-.38,1.06-.26.71-.38,1.06-.26.71-.38,1.06-.26.71-.38,1.06-.26.71-.38,1.06-.26.71-.38,1.06-.26.71-.38,1.06-.26.71-.38,1.06-.26.71-.38,1.06-.26.71-.38,1.06-.26.71-.38,1.06-.26.71-.38,1.06-.26.71-.38,1.06-.26.71-.38,1.06-.26.71-.38,1.06-.26.71-.38,1.06-.26.71-.38,1.06-.26.71-.38,1.06-.26.71-.38,1.06-.26.71-.38,1.06-.26.71-.38,1.06-.26.71-.38,1.06-.26.71-.38,1.06-.26.71-.38,1.06-.26.71-.38,1.06-.26.71-.38,1.06-.26.71-.38,1.06-.26.71-.38,1.06-.26.71-.38,1.06-.26.71-.38,1.06-.26.71-.38,1.06-.26.71-.38,1.06-.26.71-.38,1.06-.26.71-.38,1.06-.26.71-.38,1.06-.26.71-.38,1.06-.26.71-.38,1.06-.26.71-.38,1.06-.26.71-.38,1.06-.26.71-.38,1.06-.26.71-.38,1.06-.26.71-.38,1.06-.26.71-.38,1.06-.26.71-.38,1.06-.26.71-.38,1.06-.26.71-.38,1.06-.26.71-.38,1.06-.26.71-.38,1.06-.26.71-.38,1.06-.26.71-.38,1.06-.26.71-.38,1.06-.26.71-.38,1.06-.26.71-.38,1.06-.26.71-.38,1.06-.26.71-.38,1.06-.26.71-.38,1.06-.26.71-.38,1.06-.26.71-.38,1.06-.26.71-.38,1.06-.26.71-.38,1.06-.26.71-.38,1.06-.26.71-.38,1.06-.26.71-.38,1.06-.26.71-.38,1.06-.26.71-.38,1.06-.26.71-.38,1.06-.26.71-.38,1.06-.26.71-.38,1.06-.26.71-.38,1.06-.26.71-.38,1.06-.26.71-.38,1.06-.26.71-.38,1.06-.26.71-.38,1.06-.26.71-.38,1.06-.26.71-.38,1.06-.26.71-.38,1.06-.26.71-.38,1.06-.26.71-.38,1.06-.26.71-.38,1.06-.26.71-.38,1.06-.26.71-.38,1.06-.26.71-.38,1.06-.26.71-.38,1.06-.26.71-.38,1.06-.26.71-.38,1.06-.26.71-.38,1.06-.26.71-.38,1.06c-8.1,23.13,3.39,48.14,34.48,66.09C389.63,508,469,508,517.85,479.61,548.67,461.7,559.91,436.76,551.64,413.67Z"/><path class="cls-10" d="M532.52,411c-.06-.17-.11-.34-.16-.51s-.11-.34-.17-.51-.11-.34-.16-.51-.11-.34-.17-.51-.11-.34-.16-.51-.11-.34-.17-.51-.11-.34-.16-.51-.11-.34-.16-.51-.11-.34-.16-.51-.11-.34-.16-.51-.11-.34-.17-.51-.11-.34-.16-.51-.11-.34-.16-.51-.11-.34-.17-.51-.11-.34-.16-.51-.11-.34-.16-.51-.11-.34-.16-.51-.11-.34-.17-.51-.1-.34-.16-.51-.11-.34-.17-.51-.11-.34-.16-.51-.11-.34-.16-.51-.11-.34-.16-.51-.11-.34-.17-.51-.11-.34-.16-.51-.11-.34-.16-.51-.11-.34-.16-.51-.11-.34-.17-.51-.11-.34-.16-.51-.11-.34-.16-.51-.11-.34-.16-.51-.11-.34-.16-.51-.1-.34-.16-.51-.11-.34-.17-.51-.1-.34-.16-.51-.11-.34-.16-.51-.1-.34-.16-.51-.11-.34-.16-.51-.11-.34-.16-.51-.1-.34-.16-.51-.1-.34-.16-.51-.11-.34-.17-.51-.1-.34-.16-.51-.1-.34-.16-.51-.1-.34-.16-.51-.1-.34-.16-.51-.1-.34-.16-.51-.1-.34-.16-.51-.1-.34-.16-.51-.1-.34-.17-.51-.1-.34-.16-.51-.1-.34-.16-.51-.1-.34-.16-.51-.1-.34-.16-.51-.1-.34-.16-.51-.1-.34-.16-.51-.1-.34-.17-.51-.1-.34-.16-.51-.1-.34-.16-.51-.1-.34-.16-.51-.1-.34-.16-.51-.1-.34-.16-.51-.1-.34-.16-.51-.1-.34-.16-.51-.1-.34-.16-.51-.1-.34-.16-.51-.1-.34-.16-.51-.1-.34-.16-.51-.1-.34-.16-.51-.1-.34-.16-.51-.1-.34-.16-.51-.1-.34-.16-.51-.1-.34-.17-.51-.1-.34-.16-.51-.1-.34-.17-.51-.1-.34-.16-.51-.1-.34-.16-.51-.1-.34-.16-.51-.1-.34-.16-.51-.1-.34-.16-.51-.1-.34-.16-.51-.1-.34-.16-.51-.1-.34-.16-.51-.1-.34-.16-.51-.1-.34-.16-.51-.05-.17-.08-.26v0l-.07-.21-.07-.21,0-.06c0-.17-.12-.34-.17-.52s-.11-.34-.17-.51-.12-.35-.17-.52-.11-.34-.17-.51-.11-.34-.17-.52-.11-.34-.17-.52-.12-.34-.17-.52-.11-.34-.17-.51-.12-.34-.17-.52-.11-.34-.17-.51-.11-.34-.17-.52-.11-.34-.17-.52-.11-.34-.17-.51-.11-.34-.17-.51-.11-.35-.17-.52-.11-.34-.17-.51-.11-.34-.17-.52-.11-.34-.17-.51-.11-.34-.17-.52-.11-.34-.17-.51-.11-.35-.17-.52-.11-.34-.17-.51-.11-.34-.17-.52-.11-.34-.17-.52-.11-.34-.17-.51-.11-.34-.17-.52-.11-.34-.17-.51-.11-.34-.17-.52-.11-.34-.17-.51-.11-.34-.17-.51-.11-.34-.17-.51-.11-.34-.17-.52-.11-.34-.17-.51-.11-.35-.17-.52-.11-.34-.17-.51-.11-.34-.17-.52-.11-.34-.17-.51-.11-.35-.17-.52-.11-.34-.17-.51-.11-.34-.17-.52-.11-.34-.17-.51-.11-.34-.17-.51-.11-.34-.17-.51-.11-.34-.17-.52-.11-.34-.17-.51-.11-.35-.17-.52-.11-.34-.17-.51-.11-.34-.17-.52-.11-.34-.17-.51-.11-.34-.17-.52-.11-.34-.17-.51-.11-.34-.17-.52-.11-.34-.17-.52-.11-.34-.17-.52-.11-.34-.17-.51-.11-.34-.17-.52-.11-.34-.17-.51-.11-.34-.17-.52-.11-.34-.17-.51-.11-.34-.17-.52-.11-.34-.17-.52-.11-.34-.17-.52-.11-.34-.17-.51-.11-.34-.17-.52-.11-.34-.17-.51-.11-.34-.17-.52-.11-.34-.17-.51-.11-.34-.17-.52-.11-.34-.17-.51-.11-.34-.17-.52-.11-.34-.17-.51-.11-.34-.17-.52-.11-.34-.17-.51-.11-.34-.17-.52-.11-.34-.17-.51-.11-.34-.17-.51-.11-.34-.17-.51-.11-.34-.17-.51-.11-.34-.17-.51-.11-.34-.17-.51-.11-.34-.17-.51-.11-.34-.17-.52-.11-.34-.17-.51-.11-.34-.17-.52-.11-.34-.17-.52-.11-.34-.16-.51-.11-.34-.17-.52-.11-.34-.17-.51-.11-.34-.17-.52l-.17-.51-.17-.52-.17-.51c-.05-.17-.11-.34-.17-.52s-.11-.34-.16-.51l-.17-.52-.17-.51-.17-.52-.17-.51-.17-.52-.17-.51-.17-.52c-.05-.17-.11-.34-.17-.51s-.11-.34-.17-.51-.11-.34-.17-.51-.11-.34-.17-.51-.11-.34-.17-.51-.11-.34-.17-.52-.11-.34-.17-.51-.11-.34-.17-.51-.11-.34-.17-.51c-2.08-6.7-8.91-13.18-20.51-18.33-28.14-12.49-73.6-12.49-101.55,0-11.49,5.13-18.22,11.58-20.22,18.26-.06.17-.11.34-.17.52s-.11.34-.17.51-.12.34-.17.52-.11.34-.17.51-.11.34-.17.51-.12.34-.17.51-.12.34-.17.51-.11.34-.17.51-.11.34-.17.51-.12.34-.17.52-.12.34-.17.51-.12.34-.17.52-.12.34-.17.51-.12.34-.17.51-.12.34-.17.51-.12.34-.17.52-.12.34-.17.51-.12.34-.17.51-.12.34-.17.51-.12.34-.17.51-.12.34-.17.52-.12.34-.17.51-.12.34-.17.52-.12.34-.17.51-.12.34-.17.52-.12.34-.17.51-.12.34-.17.51-.12.34-.17.52-.12.34-.17.51-.12.34-.17.51-.12.34-.17.52-.12.34-.17.51-.12.34-.17.51-.12.34-.17.52-.12.34-.17.52-.12.34-.17.51-.12.34-.17.51-.12.34-.17.52-.12.34-.17.51-.12.34-.17.51-.12.34-.17.51-.12.34-.17.52-.12.34-.17.52-.12.34-.17.51-.12.34-.17.52-.12.34-.17.51-.12.34-.17.51-.12.34-.17.51-.12.34-.17.52-.12.34-.17.52-.12.34-.17.52-.12.34-.17.51-.12.34-.17.52-.12.34-.17.51-.12.34-.17.51-.12.34-.17.52-.12.34-.17.52-.12.34-.17.51-.12.34-.17.51-.12.34-.17.52-.12.34-.17.51-.12.34-.17.51-.12.34-.17.52-.12.34-.17.51-.12.34-.17.52-.12.34-.17.51-.12.34-.17.52-.12.34-.17.51-.12.34-.17.51-.12.34-.17.52-.12.34-.17.52-.12.34-.17.51-.12.34-.17.51-.12.34-.17.52-.12.34-.17.52-.12.34-.17.51-.12.34-.17.52-.12.34-.17.51v0c0,.15-.11.31-.15.46h0c-.06.16-.1.32-.15.48s-.11.34-.16.51-.11.34-.16.51-.11.34-.16.51-.11.34-.16.51-.11.34-.17.51-.11.34-.16.51-.11.34-.16.51-.11.34-.17.51-.11.34-.16.51-.11.34-.16.51-.11.34-.16.51-.11.34-.16.51-.11.34-.16.51-.11.34-.17.51-.11.34-.16.51-.11.34-.16.51-.11.34-.16.51-.11.34-.16.51-.11.34-.17.51-.11.34-.16.51-.11.34-.16.51-.11.34-.17.51-.11.34-.16.51-.11.34-.16.51-.11.34-.16.51-.11.34-.17.51-.11.34-.16.51-.11.34-.16.51-.11.34-.16.51-.11.34-.17.51-.11.34-.16.51-.11.34-.16.51-.11.34-.17.51-.11.34-.16.51-.11.34-.17.51-.11.34-.16.51-.11.34-.17.51-.11.34-.16.51-.11.34-.17.51-.11.34-.16.51-.11.34-.17.51-.11.34-.16.51-.11.34-.17.51-.11.34-.16.51-.11.34-.17.51-.11.34-.16.51-.11.34-.17.51-.11.34-.16.51-.11.34-.16.51-.11.34-.16.51-.11.34-.17.51-.11.34-.16.51-.11.34-.16.51-.11.34-.17.51-.11.34-.17.51-.11.34-.16.51-.11.34-.16.51-.11.34-.17.51-.11.34-.16.51-.11.34-.16.51-.11.34-.17.51-.11.34-.16.51-.11.34-.16.51-.11.34-.17.51-.11.34-.17.51-.11.34-.16.51-.11.34-.16.51-.11.34-.17.51-.11.34-.16.51-.11.34-.17.51-.11.34-.16.51-.11.34-.17.51-.11.34-.16.51-.11.34-.17.51-.11.34-.17.51-.11.34-.17.51-.11.34-.16.51-.11.34-.16.51-.11.34-.16.51-.11.34-.17.51-.11.34-.16.51-.11.34-.17.51-.11.34-.16.51-.11.34-.17.51-.11.34-.16.51-.11.34-.17.51l-.17.51-.16.51c-.06.17-.11.34-.17.51s-.11.34-.16.51l-.17.51-.16.51-.16.51-.17.51-.16.51-.17.51-.16.51-.17.51-.16.51-.17.51-.17.51-.16.51-.17.51-.16.51-.17.51-.16.51-.17.51-.16.51-.17.51-.16.51-.17.51-.16.51-.17.51-.16.51-.17.51-.16.51-.16.51c-6.5,19.36,3.26,40.21,29.24,55.21,41.42,23.91,108.35,23.91,149.49,0C529.65,451.13,539.19,430.31,532.52,411Z"/><path class="cls-12" d="M479.49,292c28.14,12.49,28.29,32.75.34,45.24s-73.42,12.49-101.56,0S350,304.46,377.94,292,451.36,279.47,479.49,292Z"/><path class="cls-13" d="M462.79,77.44c18.85,8.37,19,21.94.23,30.31s-49.19,8.37-68,0S376,85.81,394.75,77.44,443.94,69.07,462.79,77.44Z"/><circle class="cls-10" cx="449.28" cy="50.17" r="8.25"/><circle class="cls-10" cx="427.88" cy="23.27" r="5.7"/><circle class="cls-10" cx="441.24" cy="5.7" r="5.7"/><path class="cls-14" d="M538.65,463.56q1.81-1.9,3.42-3.84l.08-.11q1.56-1.9,2.92-3.83l.16-.23c.87-1.25,1.68-2.51,2.42-3.78l.22-.4c.7-1.22,1.35-2.45,1.94-3.69.09-.2.17-.4.26-.6.54-1.18,1-2.36,1.47-3.55.1-.27.17-.54.27-.81.39-1.12.75-2.25,1-3.38.09-.36.15-.71.24-1.07.25-1.05.48-2.11.65-3.16.07-.45.1-.9.16-1.36.12-1,.25-1.94.3-2.91,0-.56,0-1.11,0-1.67,0-.87,0-1.75,0-2.62,0-.68-.12-1.36-.19-2s-.11-1.51-.22-2.26-.33-1.72-.51-2.58c-.12-.57-.2-1.15-.35-1.72q-.54-2.15-1.3-4.28c-.12-.36-.25-.71-.38-1.06s-.25-.71-.38-1.06-.25-.71-.38-1.06-.25-.71-.38-1.06-.25-.71-.38-1.06-.25-.71-.38-1.06-.25-.71-.38-1.06-.25-.71-.38-1.06-.25-.71-.38-1.06-.25-.71-.38-1.06-.25-.71-.38-1.06-.25-.71-.38-1.06-.25-.71-.38-1.06-.25-.71-.38-1.06-.25-.71-.38-1.06-.25-.71-.38-1.06-.25-.71-.38-1.06-.25-.71-.38-1.06-.25-.71-.38-1.06-.25-.71-.38-1.06-.25-.71-.38-1.06-.25-.71-.38-1.06-.25-.71-.38-1.06-.25-.71-.38-1.06-.25-.71-.38-1.06-.25-.71-.38-1.06-.25-.71-.38-1.06-.25-.71-.38-1.06-.25-.71-.38-1.06-.25-.71-.38-1.06-.25-.71-.38-1.06-.25-.71-.38-1.06-.25-.71-.38-1.06-.25-.71-.38-1.06-.25-.71-.38-1.06-.25-.71-.38-1.06-.25-.71-.38-1.06-.25-.71-.38-1.06-.25-.71-.38-1.06-.25-.71-.38-1.06-.25-.71-.38-1.06-.25-.71-.38-1.06-.25-.71-.38-1.06-.25-.71-.38-1.06-.25-.71-.38-1.06-.25-.71-.38-1.06-.25-.71-.38-1.06-.25-.71-.38-1.06-.25-.71-.38-1.06-.25-.71-.38-1.06-.25-.71-.38-1.06-.25-.71-.38-1.06-.25-.71-.38-1.06-.25-.71-.38-1.06-.25-.71-.38-1.06-.25-.71-.38-1.06-.25-.71-.38-1.06-.25-.71-.38-1.06-.25-.71-.38-1.06-.24-.71-.38-1.06-.25-.71-.38-1.06-.25-.71-.38-1.06-.25-.71-.38-1.06-.25-.71-.38-1.06-.25-.71-.38-1.06-.24-.71-.38-1.06-.24-.71-.38-1.06-.24-.71-.38-1.06-.24-.71-.38-1.06-.24-.71-.38-1.06-.24-.71-.38-1.06-.24-.71-.38-1.06-.24-.71-.38-1.06-.24-.71-.38-1.06-.24-.71-.38-1.06-.24-.71-.38-1.06-.24-.71-.38-1.06-.24-.71-.38-1.06-.24-.71-.38-1.06-.24-.71-.38-1.06-.24-.71-.38-1.06-.24-.71-.38-1.06-.24-.71-.38-1.06-.24-.71-.38-1.06-.24-.71-.38-1.06-.24-.71-.38-1.06-.24-.71-.38-1.06-.24-.71-.38-1.06-.24-.71-.38-1.06-.24-.71-.38-1.06-.24-.71-.38-1.06-.24-.71-.38-1.06-.24-.71-.38-1.06-.24-.71-.38-1.06-.24-.71-.38-1.06-.24-.71-.38-1.06-.24-.71-.38-1.06-.24-.71-.38-1.06-.24-.71-.38-1.06-.24-.71-.38-1.06-.24-.71-.38-1.06-.24-.71-.38-1.06-.24-.71-.38-1.06-.24-.71-.38-1.06-.24-.71-.38-1.06-.24-.71-.38-1.06-.24-.71-.38-1.06-.24-.71-.38-1.06-.24-.71-.38-1.06-.24-.71-.38-1.06-.24-.71-.38-1.06-.24-.71-.38-1.06-.24-.71-.38-1.06-.24-.71-.38-1.06-.24-.71-.38-1.06-.24-.71-.38-1.06-.24-.71-.38-1.06-.24-.71-.38-1.06-.24-.71-.38-1.06-.24-.71-.38-1.06-.24-.71-.38-1.06-.24-.71-.38-1.06-.24-.71-.38-1.06-.24-.71-.38-1.06-.24-.71-.38-1.06-.24-.71-.38-1.06-.24-.71-.38-1.06-.24-.71-.38-1.06-.24-.71-.38-1.06-.24-.71-.37-1.06-.24-.71-.38-1.06-.24-.71-.38-1.06-.24-.71-.37-1.06-.24-.71-.38-1.06-.24-.71-.37-1.06-.24-.71-.38-1.06-.24-.71-.37-1.06-.24-.71-.37-1.06-.24-.71-.38-1.06-.24-.71-.38-1.06-.24-.71-.37-1.06-.24-.71-.37-1.06-.24-.71-.37-1.06-.24-.71-.38-1.06-.24-.71-.37-1.06-.24-.71-.37-1.06-.24-.71-.37-1.06-.23-.71-.37-1.06-.23-.71-.37-1.06-.23-.71-.37-1.06-.23-.71-.37-1.06-.23-.71-.37-1.06-.23-.71-.37-1.06-.23-.71-.37-1.06-.23-.71-.37-1.06-.23-.71-.37-1.06-.23-.71-.37-1.06-.23-.71-.37-1.06-.23-.71-.37-1.06-.23-.71-.37-1.06-.23-.71-.37-1.06-.23-.71-.37-1.06-.23-.71-.37-1.06-.23-.71-.37-1.06-.23-.71-.37-1.06-.23-.7-.37-1.06-.23-.71-.37-1.06-.23-.71-.37-1.06-.23-.7-.37-1.06-.23-.71-.37-1.06-.23-.71-.37-1.06-.17-.51-.27-.76-.24-.71-.38-1.07-.24-.71-.38-1.07-.24-.71-.38-1.07-.24-.71-.38-1.07-.24-.71-.38-1.07-.24-.71-.38-1.07-.24-.71-.38-1.07-.24-.71-.38-1.07-.24-.71-.38-1.07-.24-.71-.38-1.07-.24-.71-.38-1.07-.24-.71-.38-1.07-.24-.71-.38-1.07-.24-.71-.38-1.07-.24-.71-.38-1.07-.24-.71-.38-1.07-.24-.71-.38-1.07-.24-.71-.38-1.06-.23-.71-.38-1.07-.23-.71-.38-1.07-.23-.71-.38-1.07-.23-.71-.38-1.06-.23-.71-.38-1.06-.23-.71-.38-1.06-.23-.71-.38-1.06-.23-.71-.38-1.06-.21-.63-.33-.95c0,0,0-.08,0-.12,0-.23,0-.47,0-.7s0-.47,0-.7,0-.47,0-.7,0-.47,0-.7,0-.47,0-.7,0-.47,0-.7,0-.47,0-.7,0-.47,0-.7,0-.47,0-.7,0-.47,0-.7,0-.47,0-.7,0-.47,0-.7,0-.47,0-.7,0-.47,0-.7,0-.47,0-.7,0-.47,0-.7,0-.47,0-.7,0-.47,0-.7,0-.47,0-.7,0-.47,0-.7,0-.47,0-.7,0-.47,0-.7,0-.47,0-.7,0-.47,0-.7,0-.47,0-.7,0-.47,0-.7,0-.47,0-.7,0-.47,0-.7,0-.47,0-.7,0-.47,0-.7,0-.47,0-.7,0-.47,0-.7,0-.47,0-.7,0-.47,0-.7,0-.47,0-.7,0-.47,0-.7,0-.47,0-.7,0-.47,0-.7,0-.47,0-.7,0-.47,0-.7,0-.47,0-.7,0-.47,0-.7,0-.47,0-.7,0-.47,0-.7,0-.47,0-.7,0-.47,0-.7,0-.47,0-.7,0-.47,0-.7,0-.47,0-.7,0-.47,0-.7,0-.47,0-.7,0-.47,0-.7,0-.47,0-.7,0-.47,0-.7,0-.47,0-.7,0-.47,0-.7,0-.47,0-.7,0-.47,0-.7,0-.32,0-.49c0,.23,0-28.47,0-28.24,0-.16,0-.32,0-.49s0-.47,0-.7,0-.47,0-.7,0-.47,0-.7,0-.47,0-.7,0-.47,0-.7,0-.47,0-.7,0-.47,0-.7,0-.47,0-.7,0-.47,0-.7,0-.47,0-.7,0-.47,0-.7,0-.47,0-.7,0-.47,0-.7,0-.47,0-.7,0-.47,0-.7,0-.47,0-.7,0-.47,0-.7,0-.47,0-.7,0-.47,0-.7,0-.47,0-.7,0-.47,0-.7,0-.47,0-.7,0-.47,0-.7,0-.47,0-.7,0-.47,0-.7,0-.47,0-.7,0-.47,0-.7,0-.47,0-.7,0-.47,0-.7,0-.47,0-.7,0-.47,0-.7,0-.47,0-.7,0-.47,0-.7,0-.47,0-.7,0-.47,0-.7,0-.47,0-.7,0-.47,0-.7,0-.47,0-.7,0-.47,0-.7,0-.47,0-.7,0-.47,0-.7,0-.47,0-.7,0-.47,0-.7,0-.47,0-.7,0-.47,0-.7,0-.47,0-.7,0-.47,0-.7,0-.47,0-.7,0-.47,0-.7,0-.47,0-.7,0-.47,0-.7,0-.47,0-.7,0-.47,0-.7,0-.47,0-.7,0-.47,0-.7,0-.47,0-.7,0-.47,0-.7c.1-2.86-1.1-5.73-3.55-8.42l-17.37,13V225.39L491.7,365c9.52,37.29-17.24,74.4-55.67,76.36l-.9,0c-69.69,3.24-107.48-31.51-121.76-48.63-.06.18-.13.36-.19.54-.13.35-.26.71-.38,1.06s-.26.71-.38,1.06-.26.71-.38,1.06-.26.71-.38,1.06-.26.71-.38,1.06-.26.71-.38,1.06-.26.71-.38,1.06-.26.71-.38,1.06-.26.71-.38,1.06-.26.71-.38,1.06-.26.71-.38,1.06-.26.71-.38,1.06-.26.71-.38,1.06-.26.71-.38,1.06-.26.71-.38,1.06-.26.71-.38,1.06-.26.71-.38,1.06-.26.71-.38,1.06-.26.71-.38,1.06c-8.1,23.13,3.39,48.14,34.48,66.09C389.63,508,469,508,517.85,479.61c.93-.54,1.78-1.1,2.67-1.66h0a91.45,91.45,0,0,0,18.11-14.39Z"/><path class="cls-15" d="M351.79,426.11l63-197.83V106.2L382,87.84a10.37,10.37,0,0,0-1.21,5.06c0,.23,0,.47,0,.7s0,.47,0,.7,0,.47,0,.7,0,.47,0,.7,0,.47,0,.7,0,.47,0,.7,0,.47,0,.7,0,.47,0,.7,0,.47,0,.7,0,.47,0,.7,0,.47,0,.7,0,.47,0,.7,0,.47,0,.7,0,.47,0,.7,0,.47,0,.7,0,.47,0,.7,0,.47,0,.7,0,.47,0,.7,0,.47,0,.7,0,.47,0,.7,0,.47,0,.7,0,.47,0,.7,0,.47,0,.7,0,.47,0,.7,0,.47,0,.7,0,.47,0,.7,0,.47,0,.7,0,.47,0,.7,0,.47,0,.7,0,.47,0,.7,0,.47,0,.7,0,.47,0,.7,0,.47,0,.7,0,.47,0,.7,0,.47,0,.7,0,.47,0,.7,0,.47,0,.7,0,.47,0,.7,0,.47,0,.7,0,.47,0,.7,0,.47,0,.7,0,.47,0,.7,0,.47,0,.7,0,.47,0,.7,0,.47,0,.7,0,.47,0,.7,0,.47,0,.7,0,.47,0,.7,0,.47,0,.7,0,.47,0,.7,0,.47,0,.7,0,.47,0,.7,0,.47,0,.7,0,.47,0,.7,0,.47,0,.7,0,.47,0,.7,0,.47,0,.7,0,.32,0,.49c0-.23,0,28.47,0,28.24,0,.16,0,.32,0,.49s0,.47,0,.7,0,.47,0,.7,0,.47,0,.7,0,.47,0,.7,0,.47,0,.7,0,.47,0,.7,0,.47,0,.7,0,.47,0,.7,0,.47,0,.7,0,.47,0,.7,0,.47,0,.7,0,.47,0,.7,0,.47,0,.7,0,.47,0,.7,0,.47,0,.7,0,.47,0,.7,0,.47,0,.7,0,.47,0,.7,0,.47,0,.7,0,.47,0,.7,0,.47,0,.7,0,.47,0,.7,0,.47,0,.7,0,.47,0,.7,0,.47,0,.7,0,.47,0,.7,0,.47,0,.7,0,.47,0,.7,0,.47,0,.7,0,.47,0,.7,0,.47,0,.7,0,.47,0,.7,0,.47,0,.7,0,.47,0,.7,0,.47,0,.7,0,.47,0,.7,0,.47,0,.7,0,.47,0,.7,0,.47,0,.7,0,.47,0,.7,0,.47,0,.7,0,.47,0,.7,0,.47,0,.7,0,.47,0,.7,0,.47,0,.7,0,.47,0,.7,0,.47,0,.7,0,.47,0,.7,0,.47,0,.7,0,.47,0,.7,0,.47,0,.7,0,.47,0,.7,0,.47,0,.7,0,.47,0,.7,0,.47,0,.7,0,.47,0,.7,0,.47,0,.7,0,.47,0,.7v.05c-.13.32-.24.64-.34,1s-.27.71-.38,1.06-.27.71-.38,1.06-.27.71-.38,1.06-.27.71-.38,1.06-.27.71-.38,1.06-.27.71-.38,1.07-.27.71-.38,1.07-.27.71-.38,1.06-.27.71-.38,1.07-.27.71-.38,1.07-.27.71-.38,1.07-.24.63-.33.94-.26.7-.37,1.05-.26.7-.37,1.05-.26.7-.37,1.05-.26.7-.37,1.06-.26.7-.37,1.05-.26.7-.37,1.06-.26.7-.37,1.05-.26.7-.37,1.05-.26.7-.37,1.06-.26.7-.37,1.06-.26.7-.37,1.06-.26.7-.37,1.05-.26.7-.37,1.06-.26.7-.37,1.06-.26.7-.37,1.06-.26.7-.37,1.06-.26.7-.37,1.06-.26.7-.37,1.06-.26.7-.37,1.06-.26.7-.37,1.06-.26.7-.37,1.06-.26.7-.37,1.06-.26.7-.37,1.06-.26.7-.37,1.06-.26.7-.37,1.06-.26.7-.37,1.06-.26.7-.37,1.06-.26.7-.37,1.06-.26.7-.38,1.06-.26.7-.37,1.06-.26.7-.38,1.06-.26.7-.37,1.06-.26.7-.38,1.06-.26.7-.38,1.06-.26.7-.38,1.06-.26.7-.38,1.06-.26.7-.38,1.06-.26.7-.38,1.06-.26.7-.38,1.06-.26.7-.38,1.06-.26.71-.38,1.06-.26.7-.38,1.06-.26.71-.38,1.06-.26.7-.38,1.06-.26.7-.38,1.06-.26.71-.38,1.06-.26.71-.38,1.06-.26.71-.38,1.06-.26.71-.38,1.06-.26.71-.38,1.06-.26.7-.38,1.06-.26.71-.38,1.06-.26.71-.38,1.06-.26.71-.38,1.06-.26.71-.38,1.06-.26.7-.38,1.06-.26.71-.38,1.06-.26.71-.38,1.06-.26.71-.38,1.06-.26.71-.38,1.06-.26.71-.38,1.06-.26.7-.38,1.06-.26.71-.38,1.06-.26.71-.38,1.06-.26.71-.38,1.06-.26.71-.38,1.06-.26.71-.38,1.06-.26.71-.38,1.06-.26.71-.38,1.06-.26.71-.38,1.06-.26.71-.38,1.06-.26.71-.38,1.06-.26.71-.38,1.06-.26.71-.38,1.06-.26.71-.38,1.06-.26.71-.38,1.06-.26.71-.38,1.06-.26.7-.38,1.06-.26.71-.38,1.06-.26.71-.38,1.06-.26.71-.38,1.06-.26.71-.38,1.06-.26.71-.38,1.06-.26.71-.38,1.06-.26.71-.38,1.06-.26.71-.38,1.06-.26.71-.38,1.06-.26.71-.38,1.06-.26.71-.38,1.06-.26.71-.38,1.06-.26.71-.38,1.06-.26.71-.38,1.06-.26.71-.38,1.06-.26.71-.38,1.06-.26.71-.38,1.06-.26.71-.38,1.06-.26.71-.38,1.06-.26.71-.38,1.06-.26.71-.38,1.06-.26.71-.38,1.06-.26.71-.38,1.06-.26.71-.38,1.06-.26.71-.38,1.06-.26.71-.38,1.06-.26.71-.38,1.06-.26.71-.38,1.06-.26.71-.38,1.06-.26.71-.38,1.06-.26.71-.38,1.06-.26.71-.38,1.06-.26.71-.38,1.06-.26.71-.38,1.06-.26.71-.38,1.06-.26.71-.38,1.06-.26.71-.38,1.06-.26.71-.38,1.06-.26.71-.38,1.06-.26.71-.38,1.06-.26.71-.38,1.06-.26.71-.38,1.06-.26.71-.38,1.06-.26.71-.38,1.06-.26.71-.38,1.06-.26.71-.38,1.06-.26.71-.38,1.06-.26.71-.38,1.06-.26.71-.38,1.06-.26.71-.38,1.06-.26.71-.38,1.06-.26.71-.38,1.06-.26.71-.38,1.06-.26.71-.38,1.06-.26.71-.38,1.06-.26.71-.38,1.06-.26.71-.38,1.06-.26.71-.38,1.06-.26.71-.38,1.06-.26.71-.38,1.06-.26.71-.38,1.06-.26.71-.38,1.06-.26.71-.38,1.06-.26.71-.38,1.06-.26.71-.38,1.06-.26.71-.38,1.06-.26.71-.38,1.06-.26.71-.38,1.06-.26.71-.38,1.06-.26.71-.38,1.06-.26.71-.38,1.06-.26.71-.38,1.06-.26.71-.38,1.06-.26.71-.38,1.06-.26.71-.38,1.06-.26.71-.38,1.06-.26.71-.38,1.06-.26.71-.38,1.06-.26.71-.38,1.06-.26.71-.38,1.06-.26.71-.38,1.06-.26.71-.38,1.06-.26.71-.38,1.06-.26.71-.38,1.06-.26.71-.38,1.06-.26.71-.38,1.06-.26.71-.38,1.06-.26.71-.38,1.06-.26.71-.38,1.06-.26.71-.38,1.06-.26.71-.38,1.06-.24.65-.35,1C320.2,406.28,332.75,417.33,351.79,426.11Z"/><path class="cls-16" d="M462.79,77.44c18.85,8.37,19,21.94.23,30.31s-49.19,8.37-68,0S376,85.81,394.75,77.44,443.94,69.07,462.79,77.44Z"/><path class="cls-11" d="M429,121.74c-12.56,0-25.13-2.18-35-6.54-16.22-7.2-18.65-17.28-18.66-22.65S377.79,77.17,393.85,70c19.53-8.72,50.2-8.73,69.84,0,16.23,7.2,18.66,17.28,18.67,22.65S480,108,463.91,115.19C454.15,119.55,441.59,121.74,429,121.74Zm-34.3-29.21c.39.78,2.22,2.87,7.17,5.07,14.74,6.54,39.55,6.55,54.17,0,4.81-2.15,6.6-4.19,7-5-.39-.78-2.22-2.87-7.17-5.07h0c-14.73-6.54-39.54-6.54-54.16,0C396.89,89.72,395.1,91.77,394.72,92.53Z"/><circle class="cls-10" cx="428.49" cy="70.34" r="8.25"/><path class="cls-7" d="M254.31,406.4s-3.37,8.05-3.22,12.74,2.49,6.44,2.49,6.44,8.78,2.34,11.42,2.49,11.27,7,17.57,7.47,14.35,2.34,15.23-2.64-31-24.74-31-24.74Z"/><path class="cls-7" d="M221.15,411s.5,4.47,4.47,4.22,7.45-4.47,7.45-4.47l-1,15.89s-2.23,23.84-9.19,26.32-8.44-10.68-8.44-10.68Z"/><path class="cls-16" d="M290.39,228.37l1.21,43.25-57,22.47-.39-25.75s-11-12-7.44-12.91S279.08,222,279.08,222Z"/><path class="cls-10" d="M290.66,163.82l6.65,7.48s19.74,59.38,19.21,64.73-6.24,9-10.51,7.39-19.63-39.5-19.63-39.5Z"/><path class="cls-17" d="M261.43,409.89a12,12,0,0,1-2.75-.32,11.92,11.92,0,0,1-8.87-14.34l17.36-73.61.69-75a11.92,11.92,0,0,1,11.92-11.81h.11a11.92,11.92,0,0,1,11.81,12L291,323.17a11.91,11.91,0,0,1-.32,2.62L273,400.7A11.92,11.92,0,0,1,261.43,409.89Z"/><path class="cls-16" d="M253.84,165.85s21.81-7,30.75-4.79,11.92,8.19,12.66,11.17-3,75.24-3,75.24-38.74,32-55.13,23.84c-11.84-5.92-12.79-12.61-12.41-15.88a39.84,39.84,0,0,0,.36-5.94l9.82-69.81Z"/><circle class="cls-9" cx="276.92" cy="142.54" r="21.72" transform="translate(51.88 357.85) rotate(-70.97)"/><path class="cls-9" d="M281.65,148.38l-7.4,22.35h0a13.93,13.93,0,0,1-15.58,1.61h0a3.43,3.43,0,0,1-1.7-3.87l5.51-21.69Z"/><path class="cls-17" d="M227.51,418.37a12.09,12.09,0,0,1-2.46-.26A11.92,11.92,0,0,1,215.83,404l11.9-56.69,9.83-87.06a11.92,11.92,0,0,1,23.69,2.68l-9.89,87.62q-.06.56-.18,1.11l-12,57.24A11.92,11.92,0,0,1,227.51,418.37Z"/><path class="cls-7" d="M295.27,143.49a5.45,5.45,0,0,0,3.25-.87l.11-.11a21.69,21.69,0,0,0-43-4.3,7.41,7.41,0,0,0,2.79.87c2.21.2,9.53-2.77,8.86-5.79l1,4.43a5.26,5.26,0,0,0,3.19-3.87A32.19,32.19,0,0,0,295.27,143.49Z"/><path class="cls-10" d="M314.08,247.49h0a10.83,10.83,0,0,1-10.8-10.8h0a10.83,10.83,0,0,1,10.8-10.8h0a10.83,10.83,0,0,1,10.8,10.8h0A10.83,10.83,0,0,1,314.08,247.49Z"/><circle class="cls-18" cx="258.69" cy="136.99" r="6.61" transform="translate(44.83 336.88) rotate(-70.97)"/><path class="cls-18" d="M335.72,235.67a8,8,0,0,1-16.05,0c0-4.43,3.59-5.15,8-5.15S335.72,231.24,335.72,235.67Z"/><path class="cls-10" d="M226.74,255.43a9.74,9.74,0,0,0-.06,1c0,.05,0,.11,0,.17a10.14,10.14,0,0,0,.08,1.22l0,.11c.4,2.82,2.1,6.62,7.4,10.4h0a86.46,86.46,0,0,0,9.18,4.15c13.15,1.6,34.28-12.51,44.7-20.22a39.57,39.57,0,0,0-2.66-5.46l-40.12-17.65-9.43-47.81-1-2.45,2.1.77-9.82,69.81A39.84,39.84,0,0,1,226.74,255.43Z"/><path class="cls-16" d="M238.19,209.39s20.87-41.31,15.66-43.54c0,0-18.42,4.15-22.15,12.34s-26,61.28-24.9,68.36,7.95,9.57,26.21,14.38a221.41,221.41,0,0,0,30.92,5.92l.68-7.83L230.7,238.75Z"/><path class="cls-19" d="M350,233.84l-40.25,3.21s-13.6,8.06-13.09,14.1,12.09,6,12.09,6l22.16,14.1Z"/><path class="cls-5" d="M287.6,251.16l16,1.4a30.53,30.53,0,0,1,20.84,10.93l6.47,7.81L267,264.12S273,248.13,287.6,251.16Z"/><path class="cls-5" d="M320.75,260.38a13.28,13.28,0,0,1,2.72-9.53c6.27-8.07,18.57-16.7,24.36-16.7l-38.07,2.9s-17.63,6-13.09,14.1,12.09,6,12.09,6Z"/><path class="cls-3" d="M331.73,272.89l-72.72-8a1.49,1.49,0,1,1,.32-3l70.77,7.75,21.68-38.43a1.49,1.49,0,0,1,2.6,1.47Z"/><path class="cls-18" d="M266.55,260.13c-10.37,1.28,17.56,5.35,13.48,7.1-16.6,7.13-27.87-1.73-27.87-6.17a8,8,0,0,1,8-8C264.62,253,275.51,259,266.55,260.13Z"/><path class="cls-19" d="M330.1,269.71s-7.08-15.23-24-13-21.79,8.13-21.79,8.13Z"/></g></g></svg>