<svg xmlns="http://www.w3.org/2000/svg" viewBox="0 0 554.79 528.91"><defs><style>.cls-1,.cls-31{fill:none;}.cls-2{fill:#2a569b;}.cls-3{fill:#d6effd;}.cls-4{fill:#c25390;}.cls-5{fill:#3498db;}.cls-6{fill:#155a93;}.cls-7{fill:#e1ae41;}.cls-8{fill:#4bbbfd;}.cls-9{fill:#99d9fd;}.cls-10{fill:#fff;}.cls-11{isolation:isolate;}.cls-12{fill:#0a253f;}.cls-13{fill:#164072;}.cls-14{fill:#f5f5f6;}.cls-15{fill:#ebebed;}.cls-16{fill:#61c3fb;}.cls-17{fill:#83d1fd;}.cls-18{fill:#fdd0b3;}.cls-19{fill:#eec4a8;}.cls-20{fill:#ea4266;}.cls-21{fill:#fe7386;}.cls-22{fill:#141654;}.cls-23{fill:#112f5b;}.cls-24{fill:#fec7aa;}.cls-25{fill:#c7ebf9;}.cls-26{fill:#e6f7ff;}.cls-27{fill:#113b63;}.cls-28{fill:#ffc747;}.cls-29{fill:#070c73;}.cls-30{fill:#4139e7;}.cls-31{stroke:#172a63;stroke-miterlimit:10;stroke-width:0.33px;}.cls-32{fill:#282a86;}.cls-33{fill:#575dfd;}.cls-34{fill:#baefff;}</style></defs><title>Asset 73</title><g id="Layer_2" data-name="Layer 2"><g id="Layer_1-2" data-name="Layer 1"><path class="cls-1" d="M206.8,459.19h0a4.18,4.18,0,0,0-.48-.52l.06.06A4.22,4.22,0,0,1,206.8,459.19Z"/><path class="cls-1" d="M216.42,462.48a5.49,5.49,0,0,1-.43.85A5.42,5.42,0,0,0,216.42,462.48Z"/><path class="cls-1" d="M207.2,460a3,3,0,0,0-.25-.49v0A3.13,3.13,0,0,1,207.2,460Z"/><path class="cls-1" d="M206.12,458.45h0a6,6,0,0,0-.95-.67h0A6,6,0,0,1,206.12,458.45Z"/><path class="cls-1" d="M121.32,415.29a8.18,8.18,0,0,1,.76-.29c-.25.11-.54.16-.76.29Z"/><path class="cls-1" d="M105,424.91h0c-.1.08-.15.18-.24.26l.05-.06C104.85,425.05,104.89,425,105,424.91Z"/><path class="cls-1" d="M23,471.88a5.54,5.54,0,0,1-.3-.58A5.54,5.54,0,0,0,23,471.88Z"/><path class="cls-1" d="M22.24,470.48a4.48,4.48,0,0,1-.11-.63A4.48,4.48,0,0,0,22.24,470.48Z"/><path class="cls-1" d="M215.71,463.88a7.46,7.46,0,0,1-.8.88A7.46,7.46,0,0,0,215.71,463.88Z"/><polygon class="cls-1" points="131.67 456.17 131.67 456.16 131.67 456.17 131.67 456.17"/><path class="cls-1" d="M131.46,455.55a1.91,1.91,0,0,0-.62-.54c.06,0,.08.08.13.12A1.93,1.93,0,0,1,131.46,455.55Z"/><path class="cls-1" d="M214.53,465.19a10.44,10.44,0,0,1-1.66,1.18A10.44,10.44,0,0,0,214.53,465.19Z"/><path class="cls-1" d="M24.17,473.2c-.16-.14-.26-.29-.4-.44C23.91,472.91,24,473.06,24.17,473.2Z"/><path class="cls-1" d="M103.77,427.24h0Z"/><path class="cls-1" d="M63.15,450.26c0-.09,0-.19.09-.28-.06.09-.05.19-.09.28Z"/><path class="cls-1" d="M103.9,426.43h0a2.54,2.54,0,0,0-.06.38v0A2.48,2.48,0,0,1,103.9,426.43Z"/><path class="cls-1" d="M104.3,425.65h0a3.06,3.06,0,0,0-.16.32l0,0A2.93,2.93,0,0,1,104.3,425.65Z"/><polygon class="cls-2" points="121.32 415.29 105.89 424.25 121.32 415.29 121.32 415.29"/><rect class="cls-2" x="103.77" y="427.24"/><path class="cls-2" d="M103.85,427.7h0a2.5,2.5,0,0,0,.06.33h0A2.56,2.56,0,0,1,103.85,427.7Z"/><path class="cls-2" d="M104.16,425.92l0,0a3.07,3.07,0,0,0-.23.46h0A3.07,3.07,0,0,1,104.16,425.92Z"/><path class="cls-2" d="M105.9,424.25a5.85,5.85,0,0,0-.93.66h0A5.88,5.88,0,0,1,105.9,424.25Z"/><path class="cls-2" d="M104.78,425.12l-.05.06a4.16,4.16,0,0,0-.43.47h0A4.15,4.15,0,0,1,104.78,425.12Z"/><path class="cls-2" d="M103.85,426.77v0a2.54,2.54,0,0,0-.07.43h0A2.56,2.56,0,0,1,103.85,426.77Z"/><path class="cls-3" d="M103.85,427.71h0a2.56,2.56,0,0,0,.06.35h0a3.58,3.58,0,0,0,1.08,1.52,6,6,0,0,0,.94.67l73.48,42.49A10.63,10.63,0,0,0,184.6,474a10.5,10.5,0,0,0,5.17-1.24l15.42-9c1.8-1,2.47-2.47,2-3.81a3.13,3.13,0,0,0-.24-.46,3.06,3.06,0,0,0-.17-.32,4.22,4.22,0,0,0-.42-.46c-.09-.09-.15-.19-.25-.28a6,6,0,0,0-.95-.67h0l-73.5-42.48a11.49,11.49,0,0,0-7.95-.94,9,9,0,0,0-1.65.64,8.18,8.18,0,0,0-.76.29h0l-15.42,9a5.88,5.88,0,0,0-.93.66c-.07.07-.12.14-.19.21a4.15,4.15,0,0,0-.48.53,2.93,2.93,0,0,0-.14.28,3.07,3.07,0,0,0-.26.51,2.48,2.48,0,0,0-.06.34,2.56,2.56,0,0,0-.08.47h0A2.59,2.59,0,0,0,103.85,427.71Z"/><path class="cls-2" d="M63.15,450.26h0a1.33,1.33,0,0,0-.17.5h0A1.34,1.34,0,0,1,63.15,450.26Z"/><path class="cls-2" d="M131,455.13c-.05,0-.07-.08-.13-.12l-6.08-3.51,6.08,3.51C130.9,455,130.93,455.09,131,455.13Z"/><path class="cls-4" d="M100.6,455.54h0c0,.06,0,.13-.07.2h0C100.57,455.66,100.56,455.6,100.6,455.54Z"/><path class="cls-2" d="M131.53,456.59v0a1.07,1.07,0,0,0,.13-.4h0A1.06,1.06,0,0,1,131.53,456.59Z"/><path class="cls-2" d="M130.86,457.32l.06-.05a1.9,1.9,0,0,0,.55-.48h0A1.87,1.87,0,0,1,130.86,457.32Z"/><path class="cls-2" d="M100.54,455.73h0a1.07,1.07,0,0,0-.14.41h0A1.06,1.06,0,0,1,100.54,455.73Z"/><path class="cls-2" d="M101.21,455a1.87,1.87,0,0,0-.61.54h0A1.87,1.87,0,0,1,101.21,455Z"/><polygon class="cls-2" points="205.17 457.78 205.17 457.78 205.17 457.78 131.68 415.3 131.68 415.3 205.17 457.78"/><path class="cls-2" d="M139.42,460l12.84,7.44L139.42,460a4.46,4.46,0,0,0-3.08-.36A4.46,4.46,0,0,1,139.42,460Z"/><path class="cls-2" d="M206.37,458.73l-.06-.06c-.07-.07-.12-.15-.2-.22h0C206.22,458.54,206.28,458.63,206.37,458.73Z"/><path class="cls-2" d="M207,459.51v0a3,3,0,0,0-.15-.3h0A3.06,3.06,0,0,1,207,459.51Z"/><path class="cls-5" d="M63,450.76h0A1.81,1.81,0,0,0,64,452.24l13.6,7.85a5.6,5.6,0,0,0,5.09,0l25.51-14.8c1.4-.81,1.37-2.14,0-2.95l-13.58-7.86a5.65,5.65,0,0,0-5.09,0L64.05,449.29a2.45,2.45,0,0,0-.81.69c-.06.09-.05.19-.09.28A1.34,1.34,0,0,0,63,450.76Z"/><path class="cls-6" d="M216.42,462.48a5.42,5.42,0,0,1-.43.85,5.3,5.3,0,0,1-.28.55,7.46,7.46,0,0,1-.8.88c-.14.14-.23.29-.39.43a10.44,10.44,0,0,1-1.66,1.18L121.8,519.2c-5.08,2.95-13.35,2.95-18.46,0L25.86,474.39a10.64,10.64,0,0,1-1.69-1.19c-.16-.14-.26-.29-.4-.44a7.54,7.54,0,0,1-.8-.88,5.54,5.54,0,0,1-.3-.58,5.56,5.56,0,0,1-.42-.83,4.48,4.48,0,0,1-.11-.63A4.56,4.56,0,0,1,22,469h0l0,7.5c0,1.94,1.28,3.89,3.85,5.38l77.49,44.81c5.11,2.95,13.38,2.95,18.46,0l91.07-52.83c2.52-1.47,3.78-3.39,3.79-5.31l0-7.5a4.56,4.56,0,0,1-.13.8A4.45,4.45,0,0,1,216.42,462.48Z"/><path class="cls-2" d="M93.82,459.29a3.37,3.37,0,0,1,.93-.36,3.38,3.38,0,0,0-.93.36L81,466.71Z"/><path class="cls-2" d="M135.4,460a3.44,3.44,0,0,1,.94-.36,3.44,3.44,0,0,0-.94.36l-12.76,7.41Z"/><path class="cls-7" d="M60.17,479.16v0c0-.06,0-.11.06-.17h0C60.2,479,60.2,479.1,60.17,479.16Z"/><path class="cls-2" d="M159.88,472a4.8,4.8,0,0,0-2.12,0A4.8,4.8,0,0,1,159.88,472Z"/><path class="cls-8" d="M37.81,467.13,52,475.32a5,5,0,0,0,3.45.42,3.83,3.83,0,0,0,1.05-.41L76,464c1.24-.72,1.24-1.88,0-2.6l-14.17-8.2a5,5,0,0,0-4.51,0L37.82,464.51C36.57,465.24,36.56,466.4,37.81,467.13Z"/><path class="cls-2" d="M115.23,471.68a3.44,3.44,0,0,1,.93-.36,3.44,3.44,0,0,0-.93.36l-12.8,7.41Z"/><path class="cls-2" d="M60.18,479.14v0a1.07,1.07,0,0,0-.14.43h0A1.08,1.08,0,0,1,60.18,479.14Z"/><path class="cls-2" d="M60.86,478.43,73.62,471l-12.76,7.41a1.93,1.93,0,0,0-.62.54h0A1.93,1.93,0,0,1,60.86,478.43Z"/><path class="cls-2" d="M132.78,479.9l0-.06c0-.06,0-.13-.07-.19h0A1.06,1.06,0,0,1,132.78,479.9Z"/><path class="cls-2" d="M132.75,480.68v0a1.07,1.07,0,0,0,.13-.39h0A1.07,1.07,0,0,1,132.75,480.68Z"/><path class="cls-2" d="M144,479.75l12.8-7.41a3.37,3.37,0,0,1,.93-.36,3.38,3.38,0,0,0-.93.36L144,479.75a1.92,1.92,0,0,0-.62.54h0A1.92,1.92,0,0,1,144,479.75Z"/><path class="cls-2" d="M99,483.39a4.08,4.08,0,0,0-2-.47A4.08,4.08,0,0,1,99,483.39Z"/><path class="cls-2" d="M95,483.39a4,4,0,0,1,2-.47A4.05,4.05,0,0,0,95,483.39Z"/><path class="cls-9" d="M118.37,489.2a3.44,3.44,0,0,0,.94-.36l12.76-7.41a1.93,1.93,0,0,0,.62-.54c.05-.07,0-.15.08-.23v0a1.07,1.07,0,0,0,.14-.42h0a1.06,1.06,0,0,0-.14-.42l0,.06a1.06,1.06,0,0,0-.08-.25h0a1.9,1.9,0,0,0-.62-.54l-12.86-7.42a4.37,4.37,0,0,0-3-.36,3.44,3.44,0,0,0-.93.36l-12.8,7.41a1.22,1.22,0,0,0,0,2.31l12.84,7.44A4.46,4.46,0,0,0,118.37,489.2Z"/><path class="cls-9" d="M173.65,479.77l-12.84-7.44a3.43,3.43,0,0,0-.93-.36,4.8,4.8,0,0,0-2.12,0,3.37,3.37,0,0,0-.93.36L144,479.75a1.92,1.92,0,0,0-.62.54h0c-.41.59-.2,1.3.64,1.78l12.84,7.41a4.41,4.41,0,0,0,4,0l12.78-7.42C174.77,481.43,174.77,480.41,173.65,479.77Z"/><path class="cls-2" d="M112.57,491.57h0c0-.07,0-.14-.07-.2h0C112.55,491.43,112.54,491.51,112.57,491.57Z"/><path class="cls-2" d="M82.25,490.8a1.91,1.91,0,0,0-.62.54h0A1.92,1.92,0,0,1,82.25,490.8Z"/><path class="cls-2" d="M81.56,491.55h0a1.06,1.06,0,0,0-.13.4h0A1.06,1.06,0,0,1,81.56,491.55Z"/><path class="cls-9" d="M111.88,493.13c.74-.43.94-1,.69-1.56h0c0-.07,0-.14-.07-.21h0a2,2,0,0,0-.63-.54L99,483.39a4.41,4.41,0,0,0-4,0l-12.8,7.41a1.92,1.92,0,0,0-.62.54h0c0,.07,0,.14-.07.22h0a1.06,1.06,0,0,0-.13.41h0a1.42,1.42,0,0,0,.84,1.17l12.84,7.41a4.41,4.41,0,0,0,4,0Z"/><path class="cls-5" d="M140.61,484.05a4.36,4.36,0,0,0-4,0l-12.78,7.42a1.22,1.22,0,0,0,0,2.31l12.86,7.42a4.36,4.36,0,0,0,4,0l12.8-7.41c1.09-.63,1.08-1.67,0-2.32Z"/><path class="cls-2" d="M133.3,503.2c.08,0,.11.1.18.15s-.1-.11-.18-.15l-12.86-7.42Z"/><path class="cls-2" d="M116.44,495.76a4.42,4.42,0,0,1,3.06-.35,4.42,4.42,0,0,0-3.06.35l-12.78,7.42Z"/><path class="cls-2" d="M134,503.93v0c0-.06,0-.12-.06-.17h0C134,503.8,134,503.87,134,503.93Z"/><path class="cls-9" d="M133.3,505.51a1.42,1.42,0,0,0,.83-1.16,1.07,1.07,0,0,0-.15-.44v0c0-.06,0-.13-.07-.19h0a1.9,1.9,0,0,0-.62-.54c.08,0,.11.1.18.15s-.1-.11-.18-.15l-12.86-7.42a3.49,3.49,0,0,0-.94-.36,4.42,4.42,0,0,0-3.06.35l-12.78,7.42a1.22,1.22,0,0,0,0,2.31l12.84,7.44a3.43,3.43,0,0,0,.93.36,4.8,4.8,0,0,0,2.12,0,3.39,3.39,0,0,0,.93-.36Z"/><path class="cls-10" d="M22.14,469.84a4.48,4.48,0,0,0,.11.63,5.56,5.56,0,0,0,.42.83,5.54,5.54,0,0,0,.3.58,7.54,7.54,0,0,0,.8.88c.14.14.24.3.4.44a10.64,10.64,0,0,0,1.69,1.19l77.49,44.81c5.11,2.95,13.38,2.95,18.46,0l91.07-52.83a10.44,10.44,0,0,0,1.66-1.18c.15-.14.25-.29.39-.43a7.46,7.46,0,0,0,.8-.88,5.3,5.3,0,0,0,.28-.55,5.49,5.49,0,0,0,.43-.85,4.45,4.45,0,0,0,.1-.62c.41-2.2-.79-4.49-3.72-6.18l-77.49-44.81c-5.13-3-13.4-3-18.48,0l-91,52.83C23.27,465.17,22,467.1,22,469A4.56,4.56,0,0,0,22.14,469.84Zm38.72,8.58L73.62,471a4.42,4.42,0,0,1,4,0l12.82,7.42c1.12.64,1.12,1.68,0,2.32l-12.8,7.41a4.37,4.37,0,0,1-4,0l-12.86-7.42a1.4,1.4,0,0,1-.82-1.15h0a1.07,1.07,0,0,1,.14-.43c0-.06,0-.13.06-.19A1.93,1.93,0,0,1,60.86,478.43ZM114,447.59a4.35,4.35,0,0,1,3.95,0l6.82,3.94,6.08,3.51a1.91,1.91,0,0,1,.62.54,1.07,1.07,0,0,1,.21.61h0a1.07,1.07,0,0,1-.13.4c0,.07,0,.14-.07.21a1.9,1.9,0,0,1-.55.48l-.06.05-12.78,7.42a4.36,4.36,0,0,1-4,0l-12.89-7.45a1.41,1.41,0,0,1-.83-1.15h0a1.07,1.07,0,0,1,.14-.41c0-.07,0-.14.07-.2a1.87,1.87,0,0,1,.61-.54Zm38.27,22.12-12.8,7.41a3.4,3.4,0,0,1-.94.36,4.6,4.6,0,0,1-1.06.12,4.07,4.07,0,0,1-2-.48l-12.86-7.42a1.4,1.4,0,0,1-.82-1.15,1.42,1.42,0,0,1,.83-1.16L135.4,460a3.44,3.44,0,0,1,.94-.36,4.46,4.46,0,0,1,3.08.36l12.84,7.44A1.22,1.22,0,0,1,152.27,469.7Zm1.23,24.09-12.8,7.41a4.36,4.36,0,0,1-4,0l-12.86-7.42a1.22,1.22,0,0,1,0-2.31l12.78-7.42a4.36,4.36,0,0,1,4,0l12.86,7.42C154.58,492.12,154.59,493.16,153.5,493.79Zm-54.39,6.76a4.41,4.41,0,0,1-4,0l-12.84-7.41a1.42,1.42,0,0,1-.84-1.17,1.06,1.06,0,0,1,.13-.4c0-.07,0-.15.07-.22a1.91,1.91,0,0,1,.62-.54L95,483.39a4.41,4.41,0,0,1,4,0l12.84,7.44a2,2,0,0,1,.63.54c0,.06,0,.13.07.2.25.54.05,1.13-.69,1.56ZM81,466.71l12.8-7.41a3.38,3.38,0,0,1,.93-.36,4.45,4.45,0,0,1,3.05.36l12.86,7.42c1.12.64,1.1,1.67,0,2.32l-12.78,7.42a4.41,4.41,0,0,1-4,0L81.06,469C79.94,468.38,79.92,467.35,81,466.71Zm21.43,14.69a1.22,1.22,0,0,1,0-2.31l12.8-7.41a3.44,3.44,0,0,1,.93-.36,4.37,4.37,0,0,1,3,.36l12.86,7.42a1.9,1.9,0,0,1,.62.54c0,.06,0,.13.07.19a.67.67,0,0,1,0,.81c0,.08,0,.16-.08.23a1.93,1.93,0,0,1-.62.54l-12.76,7.41a3.44,3.44,0,0,1-.94.36,4.46,4.46,0,0,1-3.08-.36Zm15,31.88a3.43,3.43,0,0,1-.93-.36l-12.84-7.44a1.22,1.22,0,0,1,0-2.31l12.78-7.42a4.42,4.42,0,0,1,3.06-.35,3.49,3.49,0,0,1,.94.36l12.86,7.42a1.9,1.9,0,0,1,.62.54c0,.05,0,.11.06.17a1.07,1.07,0,0,1,.15.44,1.42,1.42,0,0,1-.83,1.16l-12.8,7.41a3.39,3.39,0,0,1-.93.36A4.8,4.8,0,0,1,117.45,513.28Zm56.21-31.21-12.78,7.42a4.41,4.41,0,0,1-4,0L144,482.08c-.84-.48-1-1.19-.64-1.78h0a1.92,1.92,0,0,1,.62-.54l12.8-7.41a3.38,3.38,0,0,1,.93-.36,4.8,4.8,0,0,1,2.12,0,3.43,3.43,0,0,1,.93.36l12.84,7.44C174.77,480.41,174.77,481.43,173.67,482.08Zm-69.9-54.84h0a78.61,78.61,0,0,1,.13-.81,104.5,104.5,0,0,1,.4-.78,4.16,4.16,0,0,1,.43-.47c.08-.09.14-.18.24-.26a5.85,5.85,0,0,1,.93-.66l15.42-9c.23-.13.52-.18.76-.29a9,9,0,0,1,1.65-.64,11.49,11.49,0,0,1,7.95.94h0l73.5,42.48a6,6,0,0,1,.95.67c.08.07.13.15.2.22a4.18,4.18,0,0,1,.48.52,3,3,0,0,1,.15.3,3,3,0,0,1,.25.49c.45,1.34-.21,2.78-2,3.81l-15.42,9A10.5,10.5,0,0,1,184.6,474a10.63,10.63,0,0,1-5.19-1.25l-73.48-42.49a6,6,0,0,1-.94-.67,3.58,3.58,0,0,1-1.08-1.52h0a2.5,2.5,0,0,1-.06-.33,2.59,2.59,0,0,1-.08-.47h0ZM64.05,449.29l25.49-14.82a5.65,5.65,0,0,1,5.09,0l13.58,7.86c1.41.81,1.44,2.14,0,2.95l-25.51,14.8a5.6,5.6,0,0,1-5.09,0L64,452.24A1.81,1.81,0,0,1,63,450.76a1.33,1.33,0,0,1,.17-.5c0-.09,0-.19.09-.28A2.45,2.45,0,0,1,64.05,449.29ZM37.82,464.51,57.28,453.2a5,5,0,0,1,4.51,0L76,461.42c1.25.72,1.26,1.88,0,2.6L56.51,475.33a3.83,3.83,0,0,1-1.05.41,5,5,0,0,1-3.45-.42l-14.19-8.19C36.56,466.4,36.57,465.24,37.82,464.51Z"/><path class="cls-9" d="M101.21,455a1.87,1.87,0,0,0-.61.54c0,.06,0,.13-.06.19a1.06,1.06,0,0,0-.14.42h0a1.41,1.41,0,0,0,.83,1.15l12.89,7.45a4.36,4.36,0,0,0,4,0l12.78-7.42.06-.05-.06.05a1.87,1.87,0,0,0,.61-.54h0c0-.07,0-.14.07-.21v0a1.06,1.06,0,0,0,.14-.42h0a1.07,1.07,0,0,0-.21-.61,1.93,1.93,0,0,0-.49-.42c-.05,0-.07-.08-.13-.11l-6.08-3.51L118,447.57a4.35,4.35,0,0,0-3.95,0Z"/><path class="cls-9" d="M81.06,469l12.84,7.44a4.41,4.41,0,0,0,4,0L110.65,469c1.11-.64,1.12-1.67,0-2.32L97.8,459.29a4.45,4.45,0,0,0-3.05-.36,3.37,3.37,0,0,0-.93.36L81,466.71C79.92,467.35,79.94,468.38,81.06,469Z"/><path class="cls-9" d="M152.26,467.4,139.42,460a4.46,4.46,0,0,0-3.08-.36,3.44,3.44,0,0,0-.94.36l-12.76,7.41a1.42,1.42,0,0,0-.83,1.16,1.4,1.4,0,0,0,.82,1.15l12.86,7.42a4.07,4.07,0,0,0,2,.48,4.6,4.6,0,0,0,1.06-.12,3.4,3.4,0,0,0,.94-.36l12.8-7.41A1.22,1.22,0,0,0,152.26,467.4Z"/><path class="cls-9" d="M60.24,479c0,.05,0,.11-.06.17a1.08,1.08,0,0,0-.15.45h0a1.4,1.4,0,0,0,.82,1.15l12.86,7.42a4.37,4.37,0,0,0,4,0l12.8-7.41c1.09-.63,1.08-1.67,0-2.32L77.64,471a4.42,4.42,0,0,0-4,0l-12.76,7.41A1.93,1.93,0,0,0,60.24,479Z"/><g class="cls-11"><path class="cls-12" d="M541.41,268.62,285.63,417.26c-17.92,10.41-47.11,10.41-65.15,0L14.61,299.87l-10.08,6.8-.07,9.46,216,124.68c18,10.41,47.23,10.41,65.15,0L541.34,292.17c8.9-5.17,13.36-11.95,13.38-18.74l.07-9.61S550.31,263.45,541.41,268.62Z"/><path class="cls-13" d="M541.2,245c18,10.41,18.13,27.32.21,37.74L285.63,431.35c-17.92,10.41-47.11,10.41-65.15,0L4.53,306.67,31,288.78l294.2-168.48Z"/></g><g class="cls-11"><path class="cls-14" d="M539.06,241.94,539,264.38c0,6.47-4.27,12.93-12.75,17.86l.06-22.44C534.79,254.87,539,248.41,539.06,241.94Z"/><polygon class="cls-14" points="526.31 259.8 526.24 282.24 282.46 423.91 282.53 401.47 526.31 259.8"/><polygon class="cls-14" points="220.44 401.47 220.37 423.91 14.55 305.08 14.61 282.63 220.44 401.47"/><path class="cls-15" d="M526.11,223.83c17.19,9.92,17.28,26,.2,36L282.53,401.47c-17.08,9.92-44.9,9.93-62.09,0L14.61,282.63,320.28,105Z"/><path class="cls-14" d="M282.53,401.47l-.06,22.44c-17.08,9.93-44.9,9.93-62.09,0l.06-22.44C237.63,411.39,265.45,411.39,282.53,401.47Z"/></g><g class="cls-11"><path class="cls-12" d="M541.41,225.93,285.63,374.57c-17.92,10.41-47.11,10.41-65.15,0L15.9,256.45,4.53,263.05l-.07,10.38,216,124.68c18,10.41,47.23,10.41,65.15,0L541.34,249.47c8.9-5.17,13.36-11.95,13.38-18.74l.07-10.91S550.31,220.75,541.41,225.93Z"/><path class="cls-13" d="M541.2,201.36c18,10.41,18.13,27.32.21,37.74L285.63,387.74c-17.92,10.41-47.11,10.41-65.15,0L4.53,263.05,325.24,76.68Z"/></g><path class="cls-12" d="M17.92,323.76,4.53,316l-1.8-6.59a77,77,0,0,1,1.8-46.34h0l13.39,7.77Z"/><path class="cls-13" d="M17.92,314.4l-6.25-3.31-1-4.34a57.59,57.59,0,0,1,1-28.86h0l6.25,3.22Z"/><g class="cls-11"><path class="cls-9" d="M509.09,204.8,287.45,333.6c-15.53,9-40.82,9-56.45,0L52.59,231.88l-8.74,5.89L43.8,246,230.94,354c15.63,9,40.92,9,56.45,0L509,225.2c7.71-4.48,11.58-10.35,11.59-16.24l.06-8.32S516.8,200.32,509.09,204.8Z"/><path class="cls-8" d="M508.9,184.31c15.63,9,15.71,23.68.18,32.7L287.45,345.81c-15.53,9-40.82,9-56.45,0l-187.14-108,23-15.5,254.94-146Z"/></g><g class="cls-11"><path class="cls-14" d="M507,181.68,507,201.12c0,5.6-3.7,11.2-11,15.47l.06-19.45C503.35,192.88,507,187.28,507,181.68Z"/><polygon class="cls-14" points="496 197.15 495.95 216.6 284.7 339.36 284.75 319.92 496 197.15"/><polygon class="cls-14" points="230.95 319.92 230.9 339.36 52.54 236.39 52.59 216.94 230.95 319.92"/><path class="cls-15" d="M495.83,166c14.9,8.6,15,22.56.18,31.17L284.75,319.92c-14.8,8.6-38.91,8.6-53.8,0l-178.36-103L317.47,63Z"/><path class="cls-14" d="M284.75,319.92l-.05,19.45c-14.8,8.6-38.91,8.6-53.8,0l.06-19.45C245.85,328.52,270,328.52,284.75,319.92Z"/></g><g class="cls-11"><path class="cls-9" d="M509.09,167.8,287.45,296.61c-15.53,9-40.82,9-56.45,0L53.71,194.25,43.86,200l-.06,9L230.94,317c15.63,9,40.92,9,56.45,0L509,188.2c7.71-4.48,11.58-10.35,11.59-16.24l.06-9.45S516.8,163.32,509.09,167.8Z"/><path class="cls-8" d="M508.9,146.51c15.63,9,15.71,23.68.18,32.7L287.45,308c-15.53,9-40.82,9-56.45,0L43.86,200,321.77,38.47Z"/></g><path class="cls-9" d="M55.46,252.58l-11.61-6.73-1.56-5.71A66.74,66.74,0,0,1,43.86,200h0l11.61,6.73Z"/><path class="cls-8" d="M55.46,244.47,50,241.61l-.84-3.76a49.91,49.91,0,0,1,.84-25h0l5.41,2.79Z"/><g class="cls-11"><path class="cls-8" d="M469.86,166.33,248.22,295.13c-15.53,9-40.82,9-56.45,0L13.36,193.41,4.63,199.3l-.06,8.19,187.14,108c15.63,9,40.92,9,56.45,0L469.8,186.73c7.71-4.48,11.58-10.35,11.59-16.24l.06-8.32S477.57,161.85,469.86,166.33Z"/><path class="cls-9" d="M469.67,145.84c15.63,9,15.71,23.68.18,32.7L248.22,307.34c-15.53,9-40.82,9-56.45,0L4.63,199.3l23-15.5,254.94-146Z"/></g><g class="cls-11"><path class="cls-14" d="M467.82,143.21l-.05,19.45c0,5.6-3.7,11.2-11,15.47l.06-19.45C464.12,154.41,467.8,148.81,467.82,143.21Z"/><polygon class="cls-14" points="456.77 158.68 456.72 178.13 245.47 300.89 245.52 281.45 456.77 158.68"/><polygon class="cls-14" points="191.72 281.45 191.66 300.89 13.31 197.92 13.36 178.47 191.72 281.45"/><path class="cls-15" d="M456.6,127.52c14.9,8.6,15,22.56.18,31.17L245.52,281.45c-14.8,8.6-38.91,8.6-53.8,0l-178.36-103L278.24,24.54Z"/><path class="cls-14" d="M245.52,281.45l-.05,19.45c-14.8,8.6-38.91,8.6-53.8,0l.06-19.45C206.62,290,230.73,290,245.52,281.45Z"/></g><g class="cls-11"><path class="cls-8" d="M469.86,129.33,248.22,258.14c-15.53,9-40.82,9-56.45,0L14.48,155.78,4.63,161.5l-.06,9,187.14,108c15.63,9,40.92,9,56.45,0L469.8,149.74c7.71-4.48,11.58-10.35,11.59-16.24l.06-9.45S477.57,124.85,469.86,129.33Z"/><path class="cls-9" d="M469.67,108c15.63,9,15.71,23.68.18,32.7L248.22,269.55c-15.53,9-40.82,9-56.45,0L4.63,161.5,282.54,0Z"/></g><path class="cls-8" d="M16.23,214.11,4.63,207.38l-1.56-5.71A66.75,66.75,0,0,1,4.63,161.5h0l11.61,6.73Z"/><path class="cls-9" d="M16.23,206l-5.41-2.86L10,199.38a49.91,49.91,0,0,1,.84-25h0l5.41,2.79Z"/><path class="cls-16" d="M71.93,162.33s0-.41-.06-1a6.16,6.16,0,0,1-1.15-1.4s2.61-37.8,2.77-37.91c.54-4.9,1.73-9.79,6.81-11.69a15.58,15.58,0,0,1,10.28,0c3.44,1,6.92,2.2,9.51,4.78a14.93,14.93,0,0,1,4.24,8.51c.63,4.77-4,18.5-6.05,24.32a7.76,7.76,0,0,0,0,5.28c.93,2.52,4,14.38,4,17.46.08,4.36-.29,8.71-3.5,12-3,3.08-26.91,15.44-27,15.45-10.36-.77-23.69-10.36-24.52-12.28l-.1-2C48.21,177.3,64,167.91,71.93,162.33Z"/><path class="cls-17" d="M55.95,231.41c-1.59,1.29-3.44.57-3.56.68-1.62,1.62-4.56,3-6.35,4.43-1,.78-2.53,1.82-2.25,3.32.5,2.68,4.79,1.85,6.4,1s2.94-2.18,4.47-3.13c1.09-.68,2.16-1,2.33-2.41C57.09,234.51,56.23,231.38,55.95,231.41Z"/><path class="cls-10" d="M57,234.79c-.21,1.32-1.27,1.68-2.35,2.36-1.56,1-2.92,2.36-4.54,3.18s-5.22,1.51-6.27-.4c.57,2.58,4.78,1.77,6.38,1s2.94-2.18,4.47-3.13c1.09-.68,2.16-1,2.33-2.41A2.58,2.58,0,0,0,57,234.79Z"/><path class="cls-10" d="M49.57,236.68a3,3,0,0,0-2.12-1.22.53.53,0,0,0-.58.45,4,4,0,0,1,2.26,1.2C49.39,237.41,49.82,237,49.57,236.68Z"/><path class="cls-10" d="M50.86,235.85a3,3,0,0,0-2.12-1.22.53.53,0,0,0-.58.45,4,4,0,0,1,2.26,1.2C50.69,236.59,51.12,236.16,50.86,235.85Z"/><path class="cls-10" d="M52.34,234.92a3,3,0,0,0-2.12-1.22.53.53,0,0,0-.58.45,4,4,0,0,1,2.26,1.2C52.16,235.66,52.59,235.22,52.34,234.92Z"/><path class="cls-17" d="M67,238c-1.59,1.29-3.44.57-3.56.68-1.62,1.62-4.56,3-6.35,4.43-1,.78-2.53,1.82-2.25,3.32.5,2.68,4.78,1.85,6.4,1s2.94-2.18,4.47-3.13c1.09-.68,2.16-1,2.33-2.41C68.15,241.08,67.29,237.95,67,238Z"/><path class="cls-10" d="M68,241.35c-.21,1.32-1.27,1.68-2.35,2.36-1.56,1-2.92,2.36-4.54,3.18s-5.22,1.51-6.27-.4c.57,2.58,4.78,1.77,6.38,1s2.94-2.18,4.47-3.13c1.09-.68,2.16-1,2.33-2.41A2.58,2.58,0,0,0,68,241.35Z"/><path class="cls-10" d="M60.63,243.25A3,3,0,0,0,58.52,242a.53.53,0,0,0-.58.45,4,4,0,0,1,2.26,1.2C60.45,244,60.89,243.55,60.63,243.25Z"/><path class="cls-10" d="M61.93,242.42a3,3,0,0,0-2.12-1.22.53.53,0,0,0-.58.45,4,4,0,0,1,2.26,1.2C61.75,243.16,62.18,242.72,61.93,242.42Z"/><path class="cls-10" d="M63.41,241.49a3,3,0,0,0-2.12-1.22.53.53,0,0,0-.58.45,4,4,0,0,1,2.26,1.2C63.23,242.23,63.66,241.79,63.41,241.49Z"/><path class="cls-18" d="M67,238.46c.86-3.79,3.91-19,2.69-40.47v-.35c.12-1.57.12-1.57,8.37-5.93,6.06-3.2,17.35-9.16,19-10.86,2.42-2.49,2.86-5.88,2.78-10.2a22.63,22.63,0,0,0-1.89-8.2,29.59,29.59,0,0,1-10.32,1.73c-.74,0-1.5,0-2.3-.06.12,2.44.27,5,.27,5l.08,1.42-1.16.82c-1.42,1-3.1,2.14-4.91,3.35-6.66,4.48-17.74,11.93-18.76,16.19l.63,12.95c.67,13.94,1.46,30.74,2,34.84C64.39,239.22,66.55,239.18,67,238.46Z"/><path class="cls-19" d="M55.83,231.76c.86-3.78,4-19.24,2.74-40.69-.1-1.74,1.26-2.37,2.08-2.74,20.58-9.49,26.91-15.14,27.41-17a15.35,15.35,0,0,0,.71-6.08l0-1.25c-.77,0-1.55.07-2.32.07a38.91,38.91,0,0,1-11.92-1.85l.08,1.34-1.16.82c-1.42,1-3.1,2.13-4.9,3.35-6.66,4.48-17.75,11.93-18.76,16.2l.62,12.72c.68,14,1.51,31.25,2,35.38A3.47,3.47,0,0,0,55.83,231.76Z"/><path class="cls-20" d="M80,119.75a14.87,14.87,0,0,0-3.15-7.27c-5.88,5.77-6,21-7.34,30.77-4.37,4.57-12.52,8.45-15,9.57a1.06,1.06,0,0,0-.59,1.18,12.66,12.66,0,0,0,2.12,4.85c5.81-2.51,12.09-2.88,19.35-9.78.28-.27.7-.34.83-.72C78.3,142.13,80.6,124.3,80,119.75Z"/><path class="cls-21" d="M71.93,162.33s0-.41-.06-1a6.16,6.16,0,0,1-1.15-1.4s2.61-37.8,2.77-37.91c.54-4.9,1.73-9.79,6.81-11.69a15.58,15.58,0,0,1,10.28,0c3.44,1,6.92,2.2,9.51,4.78a14.93,14.93,0,0,1,4.24,8.51c.63,4.77-4,18.5-6.05,24.32a7.76,7.76,0,0,0,0,5.28c.93,2.52,4,14.38,4,17.46.08,4.36-.29,8.71-3.5,12-3,3.08-26.91,15.44-27,15.45.07-7-6.9-12.06-12.91-14.56-3-1.24-6.87-2.22-9.73-.15a6.34,6.34,0,0,0-1.88,2.43l-.1-2C48.21,177.3,64,167.91,71.93,162.33Z"/><path class="cls-20" d="M104.34,123.56a14.88,14.88,0,0,0-3.15-7.27c-5.88,5.77-6,21-7.34,30.77-5.19,5.43-14.11,11.39-14.11,11.39A12.23,12.23,0,0,0,82,164.15c5.81-2.51,10.48-4.38,17.74-11.28.28-.27.7-.34.83-.72C102.64,145.93,104.94,128.1,104.34,123.56Z"/><polygon class="cls-10" points="48.96 134.31 57.72 164.28 76.95 171.96 69.94 142.77 48.96 134.31"/><path class="cls-19" d="M81.59,159.92c-.29-1-1-.77-1.86-.51a4.87,4.87,0,0,1-2.84.25,8.67,8.67,0,0,1-2-1.38,2.6,2.6,0,0,0-1.28-.36c0,.26.44,1.78.44,1.78s-4.21,0-4.64,0a.71.71,0,0,0-.67,1.17l-.28,0c-.86-.19-1.23,1.13-.37,1.33.23.05.47.08.7.11-.56.22-.7,1.15,0,1.28l.22,0a.67.67,0,0,0,.31,0h.13a.76.76,0,0,0,.63.89c2.06.27,5.09,1.09,6.95-.61a11.61,11.61,0,0,0,3.73-1C81.9,162.3,81.93,161.15,81.59,159.92Z"/><path class="cls-19" d="M60.55,157.47l-.29,0a.71.71,0,0,0-.4-1.28c-.44,0-4.78-.9-4.78-.9l-.52-1.78c0-.1-.75.36-.78.38A2.9,2.9,0,0,0,52.48,156a4.62,4.62,0,0,0,1.24,3.35,4.31,4.31,0,0,0,2.94,1.27l1.49.1A.76.76,0,0,0,59,160h.13a.67.67,0,0,0,.31,0h.22c.74,0,.8-.92.29-1.25.24,0,.47,0,.71,0C61.51,158.84,61.44,157.47,60.55,157.47Z"/><path class="cls-22" d="M77.88,107a5.13,5.13,0,0,0,5,6.1c1.08,0,1.87-.39,1.84-1.18-.06-1.53-.93-1.89-1.86-2.48,0,0,0-.09,0-.13a6.1,6.1,0,0,0-1.53-3.88,16,16,0,0,0-3.6-3.47h0A11.51,11.51,0,0,1,77.88,107Z"/><path class="cls-19" d="M82.44,109.17s0,6.38,0,6.43c0,3.23,6.5,2.2,10.7-3.21V102.17C93.18,101.75,82.44,108.67,82.44,109.17Z"/><path class="cls-19" d="M95.06,83.77a9.85,9.85,0,0,0-7.22-2.09,13,13,0,0,0-6.74,3.14,15,15,0,0,0-4.2,5.75,14.28,14.28,0,0,0-.73,7.07c1.08,9.16,5.82,12.6,7.35,13.21,4.09-.29,6.58-2.1,8-4.16a27.91,27.91,0,0,1,5.15-6,5.57,5.57,0,0,0,.45-.42C100.26,97,101.19,89.11,95.06,83.77Z"/><path class="cls-23" d="M113.07,131.67c-.69-1.8-2-3.27-2.69-5.05-.82-2-.14-3.8,1-5.51a8.57,8.57,0,0,0,1.88-5.44c-.14-2.91-1.88-5.37-3.39-7.73a29.07,29.07,0,0,1-3.53-8.27c-.73-2.66-1.11-5.37-2-8a26.4,26.4,0,0,0-1.62-3.9,14.55,14.55,0,0,0-5.56-6.1,15.58,15.58,0,0,0-14.73-.09c-6.06,3.23-8.7,11.23-6.24,16.71-1.11-5.79,4.26-6.23,7.43-7a.77.77,0,0,0,0,.31c1,4.33,4.65,6.7,8.27,8.77l.15-.06c.38-1.2,2.2-2,2.89-.62s-.73,2.33-1.88,2.65c-.33.09-.7,1.47-.79,1.73a15.57,15.57,0,0,0-.92,4.21c-.11,1.56.51,8.45,9.2,9.4a2.37,2.37,0,0,1,2,1.72c1.13,3.92,2.18,14.12-.15,24.45a5.73,5.73,0,0,0,3.19,1.67,5.14,5.14,0,0,0,2.5-.5,9.87,9.87,0,0,0,5.55-7.21A11.36,11.36,0,0,0,113.07,131.67Z"/><path class="cls-24" d="M421.59,102.3a4.9,4.9,0,0,0,.49.3,3,3,0,0,0,2,.5c.89-.26.84-.9.5-1.56.82.28,1.75.35,2.17-.35s0-1.18-.48-1.77h.08a1,1,0,0,0,.88-1.35c-.31-.87-5.46-4.88-5.55-4.93s2.73-.27,2.54-1.69c-.15-1.14-1.67-1-2.48-1.09-2.54-.27-5.92-1.31-8-1.53s-3.32,2-3.12,4A4.23,4.23,0,0,0,412.1,95c0,.17,6.52,8,8.71,8C421.17,103,421.72,102.79,421.59,102.3Z"/><path class="cls-25" d="M389.58,51.14l.81,4.43a41.22,41.22,0,0,0,16,25.7l8.5,6.32c-.1.44-.19.89-.34,1.35a10.69,10.69,0,0,1-2.45,3.93,9.27,9.27,0,0,1-2.39,1.83c-2.09-.81-23.39-10.78-30.91-33.22a54.12,54.12,0,0,0-4.44-8.9l-1.54-2.74C375.54,46,386.58,47.48,389.58,51.14Z"/><path class="cls-26" d="M387.44,146.65c2.51,2,5.37.77,5.55.95,2.56,2.47,14,9.43,13.63,11.76-.69,4.18-7.38,3-9.92,1.82s-4.64-3.29-7-4.72c-1.72-1-3.4-1.53-3.71-3.67C385.76,151.51,387,146.61,387.44,146.65Z"/><path class="cls-23" d="M386,151.93c.37,2,2,2.58,3.73,3.59,2.45,1.45,4.62,3.57,7.16,4.79,2.35,1.13,8.16,2.18,9.73-.83-.8,4-7.37,2.91-9.89,1.7s-4.64-3.29-7-4.72c-1.72-1-3.4-1.53-3.71-3.67A4,4,0,0,1,386,151.93Z"/><path class="cls-23" d="M397.54,155.37a4.73,4.73,0,0,1,3.25-2,.82.82,0,0,1,.91.68,6.23,6.23,0,0,0-3.48,1.94C397.84,156.5,397.16,155.84,397.54,155.37Z"/><path class="cls-23" d="M395.49,153.86a4.73,4.73,0,0,1,3.25-2,.82.82,0,0,1,.91.68,6.23,6.23,0,0,0-3.48,1.94C395.8,155,395.11,154.33,395.49,153.86Z"/><path class="cls-23" d="M393.52,152.42a4.73,4.73,0,0,1,3.25-2,.82.82,0,0,1,.91.68,6.23,6.23,0,0,0-3.48,1.94C393.82,153.56,393.13,152.9,393.52,152.42Z"/><path class="cls-27" d="M371.87,94.06c.81.12,1.63.24,2.45.32,5.74.61,11.85,1.27,17.52-.12-.11,2.06-.22,3.84-.22,3.84,8.39,5.93,24,19.29,25.14,26.18C413,134.5,399.48,145,393.07,150.23c-1.92,1.39-6.62-1.56-5.62-2.87,3-3.88,7.79-12.18,13.13-18.84,0-.51-22.6-12.9-25.79-16.18-3.42-3.52-3.81-8.15-3.73-12.78A22.91,22.91,0,0,1,371.87,94.06Z"/><path class="cls-24" d="M350,143.27l6.59,1.58h0a11.46,11.46,0,0,1-1.8,5.61l-4-1.4c-.63-.22-1.51-.42-2.33-.69A10.65,10.65,0,0,1,350,143.27Z"/><path class="cls-26" d="M333.73,140.11c1.82.08,18.34,2.32,18.85,2.62,0,1,.21,2.57-.49,3.39-1.16,1.34-2.72.33-3.58,2.25-.24.53-13.29-.81-15.08-5A4,4,0,0,1,333.73,140.11Z"/><path class="cls-23" d="M334.4,139.42a1.64,1.64,0,0,1,.57-.2,4.09,4.09,0,0,1,1.63.17c1.89.47,7.73,2.11,11.16,1.48,1.5-.28,3.46-.29,4.43,1a2,2,0,0,1,.26,2c-.85,2.43-4,2.75-6.17,2.48a43.26,43.26,0,0,1-7.11-1.49c-1.78-.53-4.44-1-5.47-2.79A2,2,0,0,1,334.4,139.42Z"/><path class="cls-23" d="M347.56,146c1.39,0,3.83-.3,4.54-2.31a1.6,1.6,0,0,0-.21-1.63,3.09,3.09,0,0,0-2.58-1,8.31,8.31,0,0,0-1.48.14,10.2,10.2,0,0,1-1.85.15,39.93,39.93,0,0,1-8.92-1.49l-.55-.14a4.87,4.87,0,0,0-1.16-.19l-.32,0a1.29,1.29,0,0,0-.44.16,1.56,1.56,0,0,0-.69,1,1.47,1.47,0,0,0,.14,1.13c.81,1.38,2.84,1.94,4.47,2.4l.78.22a43.28,43.28,0,0,0,7,1.47A10.07,10.07,0,0,0,347.56,146Z"/><path class="cls-23" d="M355.46,144.45c8,1.24,13.67,2.22,21.88,3.66-.88-1.44-13.49-29.83-15.25-32.46a21.62,21.62,0,0,1-3.65-13.8c.09-1,2.79-11.39,3.18-11.2,5.82,2.71,11.16,3,17.72,2.37-.08,2.91-.42,8.39-.42,8.39,10.58,28.55,10.58,42.43,11.68,55.72.14,1.74-1.71,3-3.45,3.21-9.4,1-28.56-7.79-34.44-10A4.75,4.75,0,0,1,355.46,144.45Z"/><path class="cls-26" d="M390.62,80.93A78.5,78.5,0,0,0,393,95.39a88,88,0,0,1-22.61,2.93,67.79,67.79,0,0,1-10.62-1c-.59-.28-1.18-.56-1.75-.87a68.14,68.14,0,0,1,4.4-8.88,7.73,7.73,0,0,0,.73-5.61c-1.42-6.46-4.49-21.67-3.18-26.65,1.73-6.59,7.87-11.37,14.54-12.16,4.35-.51,9.45.57,12.65,3.69a14.35,14.35,0,0,1,4,11.9A127.3,127.3,0,0,0,390.62,80.93Z"/><path class="cls-28" d="M390.37,38.34a10,10,0,0,1-6,7.21l-.07,0c0-.17-.09-.34-.12-.52-.61-3.82,6.51-7.84,6.47-7.76Q390.49,37.82,390.37,38.34Z"/><path class="cls-24" d="M385.21,43s-.88,6.77-.9,6.83c-.39,3.44-7.2,1.47-10.95-4.84l1.37-10.87C374.79,33.66,385.27,42.45,385.21,43Z"/><path class="cls-24" d="M375.19,14.3a10.55,10.55,0,0,1,8-1.25,14,14,0,0,1,6.74,4.24,16.1,16.1,0,0,1,3.7,6.68,15.29,15.29,0,0,1-.17,7.61c-2.37,9.59-7.87,12.62-9.58,13.05-4.31-.85-6.71-3.11-7.9-5.48a29.88,29.88,0,0,0-4.67-7,6.05,6.05,0,0,1-.42-.5C367.9,27.62,368,19.16,375.19,14.3Z"/><path class="cls-24" d="M400.37,111.6a4.87,4.87,0,0,0,.45.37,3,3,0,0,0,2,.77c.92-.14,1-.78.7-1.48.78.39,1.69.58,2.19-.06s.16-1.17-.24-1.82l.08,0a1,1,0,0,0,1.06-1.22c-.19-.91-4.76-5.57-4.84-5.63s2.75.1,2.75-1.33c0-1.15-1.52-1.22-2.31-1.41-2.48-.61-5.69-2.1-7.69-2.59s-3.56,1.55-3.63,3.5a4.23,4.23,0,0,0,1.1,2.34c0,.17,5.39,8.78,7.55,9.1C399.87,112.21,400.43,112.1,400.37,111.6Z"/><path class="cls-25" d="M360.42,64.2c-1.5-3.38-2.23-9.09.69-12.06a7.17,7.17,0,0,1,6.09-1.88A7.06,7.06,0,0,1,373.32,57h0A46.19,46.19,0,0,0,387.15,88l9,8.77c-1.32,3.44-4.14,5.28-7.07,6.69h-.14C371.47,93,360.6,64.61,360.42,64.2Z"/><path class="cls-23" d="M362.43,34.45a10.8,10.8,0,0,1-.12-2.37c.69-6.74,2.47-13.85,8.32-18,5.38-3.79,12.73-4.35,18.23-.47,6,4.24,7.75,13.09,4.4,18.6,1.95-6-3.7-7.19-7-8.46a.81.81,0,0,1-.05.33c-1.64,4.47-5.83,6.5-10,8.22a.71.71,0,0,1-.14,0c-.16-1.37-2.06-2.6-3-1.16-.84,1.29.47,2.57,1.64,3.07.65.79-.28,3.35-.44,4.23-.84,4.64.64,8.77,3.44,12.43a23,23,0,0,1,3.15,4.81,7,7,0,0,1-1.66,8c-2.85,2.51-8.13,3.31-11.07.55-2.06-1.93-1.82-4.41-2.14-7-.72-5.79-4.4-6.26-5-5.3a5.35,5.35,0,0,0-.62-3.32C357.6,43,358.47,38.53,362.43,34.45Z"/><path class="cls-24" d="M464.93,157.15a5.12,5.12,0,0,1-.44-.42,3.15,3.15,0,0,1-1-2c0-1,.7-1.09,1.46-.91-.5-.76-.81-1.69-.2-2.3s1.2-.3,1.93,0c0,0,0-.05,0-.08a1,1,0,0,1,1.15-1.25c1,.09,6.39,4.31,6.46,4.39s-.44-2.86,1.06-3c1.2-.14,1.46,1.45,1.75,2.25.94,2.52,2.87,5.69,3.63,7.73s-1.2,3.91-3.23,4.21a4.45,4.45,0,0,1-2.58-.88c-.17,0-9.82-4.59-10.41-6.81C464.36,157.75,464.4,157.15,464.93,157.15Z"/><path class="cls-5" d="M481.88,159.2c5.48,2.76,11.7,7.86,16.86,12.58a72.14,72.14,0,0,1,13.11,15.79c3.33,5.51,10.54,16.6,3.39,21.57-3.59,2.49-10,4.13-11.43-1a64.06,64.06,0,0,0-4.07-11.88c-7.5-15.09-24.8-28-26.57-29.28C474.08,163.19,478.2,160.71,481.88,159.2Z"/><g class="cls-11"><polygon class="cls-6" points="481.57 137.93 455.87 152.87 430 137.93 455.7 123 481.57 137.93"/><polygon class="cls-12" points="481.57 137.93 481.47 165.93 455.77 180.87 455.87 152.87 481.57 137.93"/><polygon class="cls-13" points="455.87 152.87 455.77 180.87 429.9 165.93 430 137.93 455.87 152.87"/></g><path class="cls-9" d="M519.27,356.29c-3.17.82-9,.37-11.75-1.31-2.29.07-12.53-5.11-14.23-.63-1.48,3.92,3.91,7.55,6.79,8.25,6.29,1.52,10.95,4.66,13.47,5.19,1.88.4,4.32.66,5.82-.82C521.19,365.2,521,358.63,519.27,356.29Z"/><path class="cls-29" d="M513.57,366.71c-2.53-.53-7.18-3.67-13.47-5.19-2.42-.58-6.58-3.23-7-6.38-.56,3.61,4.31,6.81,7,7.47,6.29,1.52,10.95,4.66,13.47,5.19,1.88.4,4.32.66,5.82-.82a3.69,3.69,0,0,0,.82-1.5A7.54,7.54,0,0,1,513.57,366.71Z"/><path class="cls-30" d="M499.86,352.94a6,6,0,0,0-3,3.58c-.15.7.93,1,1.08.3a4.85,4.85,0,0,1,3.55-3.47A1.48,1.48,0,0,0,499.86,352.94Z"/><path class="cls-30" d="M502.23,353.56a6.19,6.19,0,0,0-3.08,3.64c-.15.7.93,1,1.08.3a4.85,4.85,0,0,1,3.55-3.47A1.43,1.43,0,0,0,502.23,353.56Z"/><path class="cls-30" d="M504.51,354.26a5.87,5.87,0,0,0-3.11,3.62c-.15.7.93,1,1.08.3a4.85,4.85,0,0,1,3.55-3.47A1.38,1.38,0,0,0,504.51,354.26Z"/><path class="cls-23" d="M521.24,259.8c-2.17.27-22.38,1.56-22.38,1.56.43,7.77,3.39,41.79,4.63,51.48,1.18,9.21,4,42.15,4,42.15,4.33,4.7,11.75,1.31,11.75,1.31s2.07-37.45.9-48.27C518,287.57,521.88,273.19,521.24,259.8Z"/><path class="cls-31" d="M499.9,352.92"/><path class="cls-9" d="M506.85,364.08c-3.17.82-9,.37-11.75-1.31-2.29.07-12.53-5.11-14.23-.63-1.48,3.92,3.91,7.55,6.79,8.25,6.29,1.52,10.95,4.66,13.48,5.19,1.88.4,4.32.66,5.82-.82C508.77,373,508.61,366.42,506.85,364.08Z"/><path class="cls-29" d="M501.15,374.5c-2.53-.53-7.18-3.67-13.48-5.19-2.42-.59-6.58-3.23-7-6.38-.56,3.61,4.31,6.81,7,7.47,6.29,1.52,10.95,4.66,13.48,5.19,1.88.4,4.32.66,5.82-.82a3.69,3.69,0,0,0,.83-1.5A7.54,7.54,0,0,1,501.15,374.5Z"/><path class="cls-32" d="M487.44,360.73a6,6,0,0,0-3,3.58c-.15.7.93,1,1.08.3a4.85,4.85,0,0,1,3.55-3.47A1.48,1.48,0,0,0,487.44,360.73Z"/><path class="cls-32" d="M489.81,361.35a6.19,6.19,0,0,0-3.08,3.64c-.15.7.93,1,1.08.3a4.85,4.85,0,0,1,3.55-3.47A1.43,1.43,0,0,0,489.81,361.35Z"/><path class="cls-32" d="M492.09,362.05a5.87,5.87,0,0,0-3.11,3.62c-.15.7.93,1,1.08.3a4.85,4.85,0,0,1,3.55-3.47A1.38,1.38,0,0,0,492.09,362.05Z"/><path class="cls-27" d="M511,267.32c-2.17.27-24.55,1.83-24.55,1.83.43,7.77,3.39,41.79,4.63,51.48,1.18,9.21,4,42.15,4,42.15,4.33,4.7,11.75,1.31,11.75,1.31s2.07-37.45.9-48.27C505.54,295.36,511.64,280.71,511,267.32Z"/><path class="cls-31" d="M487.48,360.71"/><path class="cls-5" d="M485.41,221.6c.19-10,6-19.21,15.21-22.94l.17-.07a18.35,18.35,0,0,1,11.92-1.06,9.49,9.49,0,0,1,6.72,8.62c.82,13.71,3.06,52,2.94,60.32,0,3.41-17.55,13.47-37.52,4.43C484.53,270,485.06,239.77,485.41,221.6Z"/><path class="cls-24" d="M511.52,174.33a11.5,11.5,0,0,0-11-6c-4.24.21-8.8,2.4-10.23,6.67-1.86,5.55-3.75,12.38-1,17.8C498.37,210.37,514.94,180.63,511.52,174.33Z"/><path class="cls-24" d="M507.57,190.29a.57.57,0,0,0-.84-.48c-3,1.78-9.42,1.28-9.42,1.71,0,0-1.23,8.85-1.7,11.64a.58.58,0,0,0,.39.69,10,10,0,0,0,9.72-2,5.3,5.3,0,0,0,2.27-3.44C508.26,195.81,507.72,192.91,507.57,190.29Z"/><path class="cls-23" d="M515.06,175.17a10.56,10.56,0,0,0-1.83-3.29c-2.6-3.16-6.74-5.49-10.93-5.11l-.12,0,0,0a5.87,5.87,0,0,0-.76-.55,4.64,4.64,0,0,0-2.16-.66c-.83,0-2.49.27-2.86,1.19a.53.53,0,0,0-.23-.13c-4.72-1.26-9.71,2.07-8.66,7.25,1,4.92,6,7.71,10.72,8.15,0,0,.08,2.38.11,4.9a3.79,3.79,0,0,1,3.15-1.49,2.25,2.25,0,0,1,2.15,2.72c-.59,1.85-3.29,2.6-5.26,2.07,0,1.32,0,2.34,0,2.57a2.92,2.92,0,0,0,.6,2,2.55,2.55,0,0,0,1.23.65c.75.2,1.53.25,2.29.38a5.27,5.27,0,0,1,1.71.55,12.91,12.91,0,0,0,1.38.87c1.61.65,2.52-1.35,3.21-2.43a28.18,28.18,0,0,1,2.84-3.5,13.79,13.79,0,0,0,2.38-3.47,18.66,18.66,0,0,0,1.77-8.16A14.58,14.58,0,0,0,515.06,175.17Z"/><path class="cls-24" d="M450.81,161a5.13,5.13,0,0,1-.19-.58,3.15,3.15,0,0,1,0-2.21c.48-.85,1.12-.65,1.72-.14-.09-.91.06-1.87.88-2.14.65-.21,1.21.28,1.7.91,0,0,0-.06,0-.08a1,1,0,0,1,1.6-.58c.82.52,3.7,6.76,3.72,6.87s.93-2.74,2.33-2.2c1.13.43.63,2,.52,2.8-.33,2.67-.07,6.38-.33,8.53s-2.86,2.92-4.8,2.25a4.45,4.45,0,0,1-1.89-2c-.17,0-6.62-8.59-6.11-10.83C450,161.3,450.34,160.78,450.81,161Z"/><path class="cls-5" d="M455.74,174.94c1.15-3.9,7.61-5.63,7.61-5.63l5.38,12.35a43.36,43.36,0,0,0,22.53,22.48L495.6,206c3,4,1.92,15.61-2.68,17.52l-2.44-2.23a56.93,56.93,0,0,0-8.07-6.67C460.9,201.38,455.93,176.61,455.74,174.94Z"/><g class="cls-11"><polygon class="cls-10" points="303.01 61.01 277.31 75.95 251.44 61.01 277.14 46.08 303.01 61.01"/><polygon class="cls-8" points="303.01 61.01 302.91 89.01 277.21 103.94 277.31 75.95 303.01 61.01"/><polygon class="cls-33" points="277.31 75.95 277.21 103.94 251.34 89.01 251.44 61.01 277.31 75.95"/></g><g class="cls-11"><polygon class="cls-10" points="277.29 75.94 251.59 90.87 225.72 75.94 251.42 61 277.29 75.94"/><polygon class="cls-34" points="277.29 75.94 277.19 103.93 251.49 118.87 251.59 90.87 277.29 75.94"/><polygon class="cls-33" points="251.59 90.87 251.49 118.87 225.62 103.93 225.72 75.94 251.59 90.87"/></g><g class="cls-11"><polygon class="cls-6" points="251.45 90.95 225.75 105.89 199.88 90.95 225.58 76.01 251.45 90.95"/><polygon class="cls-12" points="251.45 90.95 251.35 118.94 225.65 133.88 225.75 105.89 251.45 90.95"/><polygon class="cls-13" points="225.75 105.89 225.65 133.88 199.78 118.94 199.88 90.95 225.75 105.89"/></g><g class="cls-11"><polygon class="cls-6" points="284.83 43.67 259.13 58.61 233.26 43.67 258.96 28.73 284.83 43.67"/><polygon class="cls-12" points="284.83 43.67 284.73 71.67 259.03 86.6 259.13 58.61 284.83 43.67"/><polygon class="cls-10" points="259.13 58.61 259.03 86.6 233.16 71.67 233.26 43.67 259.13 58.61"/></g><g class="cls-11"><polygon class="cls-10" points="259.13 58.61 233.43 73.55 207.56 58.61 233.26 43.67 259.13 58.61"/><polygon class="cls-8" points="259.13 58.61 259.03 86.61 233.33 101.54 233.43 73.55 259.13 58.61"/><polygon class="cls-34" points="233.43 73.55 233.33 101.54 207.46 86.61 207.56 58.61 233.43 73.55"/></g></g></g></svg>