<svg xmlns="http://www.w3.org/2000/svg" viewBox="0 0 600 90.06"><defs><style>.cls-1{fill:#231f20;}</style></defs><title>Asset 82</title><g id="Layer_2" data-name="Layer 2"><g id="Layer_1-2" data-name="Layer 1"><path class="cls-1" d="M50.48,44.54H83.94q0,.87.06,2.42.17,4.1.17,5.54,0,17.83-10.21,27.69T45.17,90.06A52.38,52.38,0,0,1,26.65,87,39.29,39.29,0,0,1,12.4,77.77,41.92,41.92,0,0,1,3.2,63.4,48.36,48.36,0,0,1,0,45.75,46.74,46.74,0,0,1,3.26,28.1a40.84,40.84,0,0,1,9.66-14.25A41.63,41.63,0,0,1,27.4,4.62,49.38,49.38,0,0,1,45.17,1.44,42.14,42.14,0,0,1,63,5.08a39.79,39.79,0,0,1,14,11.13L67,23.77a27.79,27.79,0,0,0-9.63-7.38A28.83,28.83,0,0,0,45.4,14Q31.67,14,23,22.76T14.31,45.64q0,14.31,8.68,23.22t22.53,8.91q11.77,0,18.52-5.48t6.75-14.94V56.14H50.48Z"/><path class="cls-1" d="M154.39,87.81l-9.58-21.75H111.35l-9.81,21.75H87.12L128,0l40.85,87.81Zm-38-33.17H140l-8.65-19.27q-.75-1.85-1.56-4.24t-1.62-5.34q-.69,2.77-1.47,5.16t-1.59,4.41Z"/><path class="cls-1" d="M197.66,15V87.81H183.93V15H161.48V3.35H220V15Z"/><path class="cls-1" d="M230.48,87.81V3.35h47.14V15h-33.4V36.17h33.4V48.23h-33.4V75.52h33.4V87.81Z"/><path class="cls-1" d="M326.57,58.88a17.46,17.46,0,0,1,7.58,5.7A14,14,0,0,1,336.7,73a15.15,15.15,0,0,1-4.52,11.45q-4.52,4.34-12,4.34A16.42,16.42,0,0,1,310,85.66a15.35,15.35,0,0,1-5.56-8.84L310,74.07a13.84,13.84,0,0,0,3.71,7.09,9.15,9.15,0,0,0,6.49,2.41,10.5,10.5,0,0,0,7.46-2.66A9,9,0,0,0,330.51,74a9.47,9.47,0,0,0-2-6,15.09,15.09,0,0,0-6-4.31L316.27,61a17.8,17.8,0,0,1-7.65-5.52,13.16,13.16,0,0,1-2.51-8.09,11.56,11.56,0,0,1,4.08-9.07,15.18,15.18,0,0,1,10.41-3.59,15.73,15.73,0,0,1,8,2,13.35,13.35,0,0,1,5.29,5.8l-5.06,3.24A13.24,13.24,0,0,0,325,41.31a8.43,8.43,0,0,0-4.85-1.46A7.82,7.82,0,0,0,314.49,42,7.61,7.61,0,0,0,314,52.09a14.1,14.1,0,0,0,5.24,3.55Z"/><path class="cls-1" d="M386.64,48.29a24.89,24.89,0,0,0-7.88-5.93,22,22,0,0,0-9.25-1.92,20.74,20.74,0,0,0-14.7,6.26,20.56,20.56,0,0,0-4.43,6.84,22.77,22.77,0,0,0-1.48,8.35,23.61,23.61,0,0,0,.88,6.61,18.94,18.94,0,0,0,2.64,5.56A21.42,21.42,0,0,0,360,80.84a21.37,21.37,0,0,0,18.9.33,24,24,0,0,0,7.7-6.08v8.12a29.34,29.34,0,0,1-17.37,5.63,26.4,26.4,0,0,1-7.95-1.21,27,27,0,0,1-7.24-3.53A26.16,26.16,0,0,1,342.5,62a28.38,28.38,0,0,1,2-10.81,26,26,0,0,1,6.07-8.84,26.46,26.46,0,0,1,8.72-5.68,28.29,28.29,0,0,1,10.44-1.88,27.93,27.93,0,0,1,8.65,1.35,31.29,31.29,0,0,1,8.26,4.2Z"/><path class="cls-1" d="M397.08,87.47V36h6.12v19.8h27.36V36h6.22V87.47h-6.22V61.62H403.2V87.47Z"/><path class="cls-1" d="M501.78,61.83a26.76,26.76,0,0,1-2,10.41,26,26,0,0,1-5.95,8.69,28,28,0,0,1-39,0,26.18,26.18,0,0,1-8.06-19.1A26.69,26.69,0,0,1,448.8,51.4a26.31,26.31,0,0,1,6-8.74,27.35,27.35,0,0,1,8.94-5.8,28.29,28.29,0,0,1,21.09,0,27.3,27.3,0,0,1,9,5.8,26,26,0,0,1,5.95,8.7A27,27,0,0,1,501.78,61.83ZM474.26,83.07a20.6,20.6,0,0,0,8-1.6,21.35,21.35,0,0,0,6.88-4.66,20.83,20.83,0,0,0,6.2-15,21.49,21.49,0,0,0-1.6-8.23,21,21,0,0,0-19.52-13.08,21.11,21.11,0,0,0-8.13,1.58,20.12,20.12,0,0,0-6.79,4.61,21.22,21.22,0,0,0-4.61,6.93,21.43,21.43,0,0,0-1.58,8.19,21,21,0,0,0,1.56,8.09,21.88,21.88,0,0,0,11.51,11.57A20.63,20.63,0,0,0,474.26,83.07Z"/><path class="cls-1" d="M564.44,61.83a26.76,26.76,0,0,1-2,10.41,26,26,0,0,1-5.95,8.69,28,28,0,0,1-39,0,26.18,26.18,0,0,1-8.06-19.1,26.69,26.69,0,0,1,2.06-10.43,26.31,26.31,0,0,1,6-8.74,27.35,27.35,0,0,1,8.94-5.8,28.29,28.29,0,0,1,21.09,0,27.3,27.3,0,0,1,9,5.8,26,26,0,0,1,5.95,8.7A27,27,0,0,1,564.44,61.83ZM536.93,83.07a20.6,20.6,0,0,0,8-1.6,21.35,21.35,0,0,0,6.88-4.66,20.83,20.83,0,0,0,6.2-15,21.49,21.49,0,0,0-1.6-8.23,21,21,0,0,0-19.52-13.08,21.11,21.11,0,0,0-8.13,1.58A20.12,20.12,0,0,0,522,46.71a21.22,21.22,0,0,0-4.61,6.93,21.43,21.43,0,0,0-1.58,8.19,21,21,0,0,0,1.56,8.09,21.88,21.88,0,0,0,11.51,11.57A20.63,20.63,0,0,0,536.93,83.07Z"/><path class="cls-1" d="M574.43,87.47V36h6.12V81.63H600v5.84Z"/><rect class="cls-1" x="304.45" y="5.6" width="295.55" height="4.5"/></g></g></svg>