<svg xmlns="http://www.w3.org/2000/svg" xmlns:xlink="http://www.w3.org/1999/xlink" viewBox="0 0 649.69 588.29"><defs><style>.cls-1,.cls-61,.cls-75{fill:none;}.cls-2{fill:#179ecc;}.cls-3{fill:url(#Degradado_sin_nombre_64);}.cls-4{isolation:isolate;}.cls-5{fill:#f8d9d7;}.cls-6{fill:#f9fafb;}.cls-7{fill:#fe7386;}.cls-8{fill:#f2f0f6;}.cls-9{fill:#e6f7ff;}.cls-10,.cls-17{fill:#fff;}.cls-11{fill:#4c3437;}.cls-12{fill:#55c3fe;}.cls-13{fill:#009aff;}.cls-14{fill:#ea4266;}.cls-15{fill:#adf8ff;}.cls-16{fill:url(#linear-gradient);}.cls-17{opacity:0.67;}.cls-18{fill:#cfcdd5;mix-blend-mode:multiply;}.cls-19{fill:#f1f2f4;}.cls-20{fill:#dfe0e2;}.cls-21{fill:#eadfee;}.cls-22{fill:#0072f0;}.cls-23{fill:url(#Degradado_sin_nombre_64-2);}.cls-24{fill:url(#Degradado_sin_nombre_64-3);}.cls-25{fill:url(#Degradado_sin_nombre_64-4);}.cls-26{fill:url(#Degradado_sin_nombre_64-5);}.cls-27{fill:url(#Degradado_sin_nombre_64-6);}.cls-28{fill:url(#Degradado_sin_nombre_64-7);}.cls-29{fill:url(#Degradado_sin_nombre_64-8);}.cls-30{fill:url(#Degradado_sin_nombre_64-9);}.cls-31{fill:url(#Degradado_sin_nombre_64-10);}.cls-32{fill:url(#Degradado_sin_nombre_64-11);}.cls-33{fill:url(#Degradado_sin_nombre_64-12);}.cls-34{fill:url(#Degradado_sin_nombre_64-13);}.cls-35{fill:url(#Degradado_sin_nombre_64-14);}.cls-36{fill:url(#Degradado_sin_nombre_64-15);}.cls-37{fill:url(#Degradado_sin_nombre_64-16);}.cls-38{fill:url(#Degradado_sin_nombre_64-17);}.cls-39{fill:url(#Degradado_sin_nombre_64-18);}.cls-40{fill:url(#Degradado_sin_nombre_64-19);}.cls-41{fill:url(#Degradado_sin_nombre_64-20);}.cls-42{fill:url(#Degradado_sin_nombre_64-21);}.cls-43{clip-path:url(#clip-path);}.cls-44{fill:#227cc6;}.cls-45{clip-path:url(#clip-path-2);}.cls-46{fill:url(#linear-gradient-2);}.cls-47{clip-path:url(#clip-path-3);}.cls-48{clip-path:url(#clip-path-4);}.cls-49{clip-path:url(#clip-path-5);}.cls-50{clip-path:url(#clip-path-6);}.cls-51{fill:#f4f4f4;}.cls-52{fill:#fd5e60;}.cls-53{fill:#e9e9eb;}.cls-54{fill:#3b2cd6;}.cls-55{fill:#32a5c4;}.cls-56{fill:#97dfff;}.cls-57{fill:#f6cbba;}.cls-58{fill:#ffc314;}.cls-59{fill:#002664;}.cls-60{fill:#112f5b;}.cls-61,.cls-75{stroke:#002664;stroke-miterlimit:10;}.cls-61{stroke-width:0.49px;}.cls-62{fill:#ffb400;}.cls-63{fill:#3d91b6;}.cls-64{clip-path:url(#clip-path-7);}.cls-65{fill:#4299c1;}.cls-66{fill:#342a7a;}.cls-67{clip-path:url(#clip-path-8);}.cls-68{fill:#164072;}.cls-69{fill:#42338a;}.cls-70{fill:#ffc9ab;}.cls-71{fill:#efc5b5;}.cls-72{fill:#dcf8ff;}.cls-73{fill:#c7ebf9;}.cls-74{fill:#002984;}.cls-75{stroke-width:0.47px;}</style><linearGradient id="Degradado_sin_nombre_64" x1="381.69" y1="275.49" x2="419.92" y2="275.49" gradientUnits="userSpaceOnUse"><stop offset="0.13" stop-color="#00d9ff"/><stop offset="0.15" stop-color="#02d3fe"/><stop offset="0.46" stop-color="#1a8ced"/><stop offset="0.71" stop-color="#2c58e0"/><stop offset="0.9" stop-color="#3738d9"/><stop offset="1" stop-color="#3b2cd6"/></linearGradient><linearGradient id="linear-gradient" x1="258.48" y1="97.6" x2="260.91" y2="337.22" gradientUnits="userSpaceOnUse"><stop offset="0.13" stop-color="#75ffff" stop-opacity="0.2"/><stop offset="0.2" stop-color="#69ecf3" stop-opacity="0.25"/><stop offset="0.72" stop-color="#1d79aa" stop-opacity="0.58"/><stop offset="1" stop-color="#004d8f" stop-opacity="0.7"/></linearGradient><linearGradient id="Degradado_sin_nombre_64-2" x1="114.17" y1="507.64" x2="99.45" y2="504.95" xlink:href="#Degradado_sin_nombre_64"/><linearGradient id="Degradado_sin_nombre_64-3" x1="114.16" y1="507.73" x2="99.43" y2="505.04" xlink:href="#Degradado_sin_nombre_64"/><linearGradient id="Degradado_sin_nombre_64-4" x1="114.18" y1="507.6" x2="99.46" y2="504.91" xlink:href="#Degradado_sin_nombre_64"/><linearGradient id="Degradado_sin_nombre_64-5" x1="114.17" y1="507.63" x2="99.45" y2="504.94" xlink:href="#Degradado_sin_nombre_64"/><linearGradient id="Degradado_sin_nombre_64-6" x1="114.09" y1="508.12" x2="99.36" y2="505.43" xlink:href="#Degradado_sin_nombre_64"/><linearGradient id="Degradado_sin_nombre_64-7" x1="114.12" y1="507.89" x2="99.4" y2="505.2" xlink:href="#Degradado_sin_nombre_64"/><linearGradient id="Degradado_sin_nombre_64-8" x1="113.47" y1="511.5" x2="98.74" y2="508.81" xlink:href="#Degradado_sin_nombre_64"/><linearGradient id="Degradado_sin_nombre_64-9" x1="114.15" y1="507.76" x2="99.43" y2="505.07" xlink:href="#Degradado_sin_nombre_64"/><linearGradient id="Degradado_sin_nombre_64-10" x1="113.58" y1="510.92" x2="98.85" y2="508.23" xlink:href="#Degradado_sin_nombre_64"/><linearGradient id="Degradado_sin_nombre_64-11" x1="113.28" y1="512.22" x2="98.62" y2="509.54" xlink:href="#Degradado_sin_nombre_64"/><linearGradient id="Degradado_sin_nombre_64-12" x1="147.9" y1="489.7" x2="126.68" y2="487.64" xlink:href="#Degradado_sin_nombre_64"/><linearGradient id="Degradado_sin_nombre_64-13" x1="147.91" y1="489.65" x2="126.69" y2="487.59" xlink:href="#Degradado_sin_nombre_64"/><linearGradient id="Degradado_sin_nombre_64-14" x1="147.91" y1="489.61" x2="126.69" y2="487.55" xlink:href="#Degradado_sin_nombre_64"/><linearGradient id="Degradado_sin_nombre_64-15" x1="147.91" y1="489.59" x2="126.69" y2="487.53" xlink:href="#Degradado_sin_nombre_64"/><linearGradient id="Degradado_sin_nombre_64-16" x1="147.88" y1="489.97" x2="126.66" y2="487.91" xlink:href="#Degradado_sin_nombre_64"/><linearGradient id="Degradado_sin_nombre_64-17" x1="147.9" y1="489.77" x2="126.67" y2="487.71" xlink:href="#Degradado_sin_nombre_64"/><linearGradient id="Degradado_sin_nombre_64-18" x1="147.54" y1="493.46" x2="126.32" y2="491.4" xlink:href="#Degradado_sin_nombre_64"/><linearGradient id="Degradado_sin_nombre_64-19" x1="147.89" y1="489.87" x2="126.67" y2="487.81" xlink:href="#Degradado_sin_nombre_64"/><linearGradient id="Degradado_sin_nombre_64-20" x1="147.59" y1="492.89" x2="126.37" y2="490.84" xlink:href="#Degradado_sin_nombre_64"/><linearGradient id="Degradado_sin_nombre_64-21" x1="147.47" y1="494.18" x2="126.25" y2="492.12" xlink:href="#Degradado_sin_nombre_64"/><clipPath id="clip-path"><polygon class="cls-1" points="109.69 548.87 126.06 539.35 136.12 545.16 119.75 554.67 109.69 548.87"/></clipPath><clipPath id="clip-path-2"><polygon class="cls-1" points="92.48 540.13 106.06 532.23 116.02 537.98 102.43 545.88 92.48 540.13"/></clipPath><linearGradient id="linear-gradient-2" x1="399.46" y1="46.95" x2="401.62" y2="259.43" xlink:href="#linear-gradient"/><clipPath id="clip-path-3"><polygon class="cls-2" points="381.82 101.58 381.69 57.79 419.79 35.79 419.92 79.58 381.82 101.58"/></clipPath><clipPath id="clip-path-4"><polygon class="cls-2" points="381.82 168.28 381.69 124.49 419.79 102.49 419.92 146.28 381.82 168.28"/></clipPath><clipPath id="clip-path-5"><polygon class="cls-2" points="381.82 237.97 381.69 194.18 419.79 172.18 419.92 215.96 381.82 237.97"/></clipPath><clipPath id="clip-path-6"><polygon class="cls-3" points="381.82 308.38 381.69 264.59 419.79 242.59 419.92 286.38 381.82 308.38"/></clipPath><clipPath id="clip-path-7"><path class="cls-1" d="M649.5,345.61l0,14.25c.09-1,.14-1.93.15-2.91l0-14.25C649.64,343.68,649.59,344.65,649.5,345.61Z"/></clipPath><clipPath id="clip-path-8"><path class="cls-1" d="M619.52,382.19l0,14.25q1.42-.76,2.79-1.54c15.7-9.07,25.86-21.37,27.19-35l0-14.25c-1.34,13.66-11.49,26-27.19,35Q620.94,381.43,619.52,382.19Z"/></clipPath></defs><title>Asset 78</title><g class="cls-4"><g id="Layer_2" data-name="Layer 2"><g id="Layer_1-2" data-name="Layer 1"><path class="cls-1" d="M14.85,520.41l0,.08c.09.16.18.34.28.49h0C15.05,520.8,15,520.61,14.85,520.41Z"/><path class="cls-1" d="M18.66,524.46h0c.26.15.54.26.81.38h0C19.18,524.71,18.91,524.6,18.66,524.46Z"/><path class="cls-1" d="M14.1,518.78l0,.12c.11.28.21.57.33.83h0C14.34,519.44,14.22,519.11,14.1,518.78Z"/><path class="cls-1" d="M13.52,516.93l.06.22c.08.31.14.63.24.92h0C13.7,517.71,13.61,517.31,13.52,516.93Z"/><path class="cls-1" d="M12.92,511.92c0,.46,0,.88.06,1.32s0,.62,0,.91h0Q12.93,513.08,12.92,511.92Z"/><path class="cls-1" d="M13.13,514.82c0,.13,0,.27.06.4,0,.32.08.66.14,1h0C13.24,515.76,13.19,515.29,13.13,514.82Z"/><path class="cls-1" d="M20.06,525.12h0c.28.11.59.18.89.26h0C20.62,525.29,20.33,525.22,20.06,525.12Z"/><path class="cls-1" d="M21.57,525.55h0c.31.06.64.09,1,.12h0C22.18,525.63,21.86,525.61,21.57,525.55Z"/><circle class="cls-1" cx="327.91" cy="237.52" transform="translate(-7.38 464.49) rotate(-70.01)"/><path class="cls-1" d="M332,90.52l-.05,0c-.21.09-.41.15-.63.25h0C331.5,90.69,331.72,90.62,332,90.52Z"/><path class="cls-1" d="M327.83,237.42h0l0,0h0Z"/><path class="cls-1" d="M328,237.54h0Z"/><path class="cls-1" d="M24.9,525.72h0c.36,0,.73-.11,1.1-.17h0C25.63,525.61,25.25,525.68,24.9,525.72Z"/><path class="cls-1" d="M23.18,525.75h0c.33,0,.68,0,1,0h0C23.84,525.74,23.51,525.77,23.18,525.75Z"/><path class="cls-1" d="M11.18,524.71c.16.29.31.61.49.88C11.49,525.31,11.34,525,11.18,524.71Z"/><path class="cls-1" d="M343.45,84.37c-.3-.09-.6-.19-.91-.26C342.85,84.18,343.15,84.28,343.45,84.37Z"/><path class="cls-1" d="M339.51,83.89c-.34,0-.66,0-1,0C338.84,83.89,339.17,83.9,339.51,83.89Z"/><path class="cls-1" d="M337.35,84.09c-.34.05-.68.08-1,.16C336.67,84.18,337,84.15,337.35,84.09Z"/><path class="cls-1" d="M345.21,85c-.28-.13-.55-.28-.84-.39C344.66,84.74,344.93,84.89,345.21,85Z"/><path class="cls-1" d="M335.06,84.61c-.34.1-.67.17-1,.29C334.39,84.78,334.72,84.71,335.06,84.61Z"/><path class="cls-1" d="M9.29,519.49c0-.21-.06-.45-.1-.67h0C9.23,519,9.25,519.27,9.29,519.49Z"/><path class="cls-1" d="M12.86,527.15c-.21-.24-.39-.51-.59-.77C12.46,526.63,12.65,526.91,12.86,527.15Z"/><path class="cls-1" d="M340.58,83.87c.33,0,.65.08,1,.12C341.22,83.95,340.91,83.89,340.58,83.87Z"/><path class="cls-1" d="M13.54,527.8c.23.22.44.45.68.65C14,528.26,13.76,528,13.54,527.8Z"/><path class="cls-1" d="M10.29,522.8c.13.33.24.68.39,1C10.53,523.48,10.42,523.13,10.29,522.8Z"/><path class="cls-1" d="M328.26,237.59h0Z"/><path class="cls-1" d="M9.59,520.64c.1.37.18.76.29,1.11C9.76,521.4,9.68,521,9.59,520.64Z"/><path class="cls-1" d="M333.66,348.79h0l.65-.54h0Z"/><path class="cls-1" d="M335.43,347.27h0l.62-.57h0Z"/><path class="cls-1" d="M331.85,350.13h0l.59-.43h0Z"/><path class="cls-1" d="M337.7,345l-.48.49h0l.48-.49Z"/><path class="cls-1" d="M32.68,380.35l-.09,0-.32.13h0Z"/><path class="cls-1" d="M28.58,524.91h0c.49-.17,1-.38,1.5-.6l0,0C29.54,524.54,29.05,524.75,28.58,524.91Z"/><path class="cls-1" d="M330,351.3,32.52,523.09q-1,.59-2,1h0q1-.45,2-1L330,351.3l0,0,0,0Z"/><path class="cls-1" d="M27.13,525.32l.83-.23h0Z"/><path class="cls-5" d="M332.43,349.71h0c.41-.29.81-.6,1.21-.91h0C333.25,349.11,332.84,349.41,332.43,349.71Z"/><path class="cls-5" d="M337.7,345c.34-.37.67-.75,1-1.14-.33.38-.66.77-1,1.14Z"/><path class="cls-5" d="M336,346.7h0c.4-.38.79-.77,1.17-1.17h0C336.84,345.92,336.45,346.32,336,346.7Z"/><path class="cls-5" d="M334.3,348.25h0q.57-.48,1.12-1h0Q334.87,347.78,334.3,348.25Z"/><path class="cls-5" d="M330,351.29l0,0c.61-.35,1.21-.74,1.8-1.15h0C331.25,350.54,330.64,350.94,330,351.29Z"/><path class="cls-6" d="M328,237.54h0a.69.69,0,0,0,.23,0h0A.68.68,0,0,1,328,237.54Z"/><path class="cls-6" d="M327.73,237.32l0,0,0,.06h0Z"/><path class="cls-6" d="M327.53,236.68a1.19,1.19,0,0,0,.07.35,1.3,1.3,0,0,0,0,.16h0A1.22,1.22,0,0,1,327.53,236.68Z"/><path class="cls-6" d="M327.92,237.52h0l.1,0h0Z"/><path class="cls-6" d="M327.86,237.46h0s0,0,0,.06h0S327.88,237.48,327.86,237.46Z"/><polygon class="cls-6" points="339.09 217.18 339.09 217.18 339.09 217.18 339.09 217.18"/><path d="M338.95,217a.69.69,0,0,0,.09.11s0,.05.06.06h0A.69.69,0,0,1,338.95,217Z"/><polygon class="cls-6" points="340.94 213.98 340.94 213.98 340.94 213.98 340.94 213.98"/><path class="cls-7" d="M340,213.68a3.64,3.64,0,0,0-1.65,2.85c0,1.05.75,1.47,1.66.94a3.62,3.62,0,0,0,1.65-2.85C341.66,213.58,340.92,213.15,340,213.68Zm-.39,3.56.14,0-.13,0Zm.4-.15a.92.92,0,0,1-.93.09h0s0,0-.06-.06a.94.94,0,0,1-.33-.78,2.87,2.87,0,0,1,1.3-2.26,1.26,1.26,0,0,1,.51-.18.68.68,0,0,1,.2,0,.7.7,0,0,1,.21,0h0a.74.74,0,0,1,.3.42v0h0a1.29,1.29,0,0,1,.08.43h0A2.89,2.89,0,0,1,340,217.09Z"/><path class="cls-6" d="M328.74,206.69h0a2.87,2.87,0,0,0-1.29,2.25h0A2.87,2.87,0,0,1,328.74,206.69Z"/><path class="cls-6" d="M329.39,206.54h0s-.07,0-.1,0h0C329.31,206.51,329.34,206.54,329.39,206.54Z"/><path class="cls-6" d="M329.67,206.6h0Z"/><path class="cls-7" d="M329.36,206.53h0s-.08,0-.14,0h0a1.26,1.26,0,0,0-.51.18h0a2.87,2.87,0,0,0-1.29,2.25h0l.08,27.74a1.19,1.19,0,0,0,.07.35,1.19,1.19,0,0,1-.07-.35,1.22,1.22,0,0,0,.1.52h0a.67.67,0,0,0,.14.16l0,0,.09.1,0,0s0,0,0,.06h0l.1,0h0a.68.68,0,0,0,.23,0h.07a1.25,1.25,0,0,0,.5-.17,2.9,2.9,0,0,0,1.2-1.61,2.2,2.2,0,0,0,.1-.64l-.08-27.74a.91.91,0,0,0-.39-.84h0A.7.7,0,0,0,329.36,206.53Z"/><polygon class="cls-6" points="328.6 194.25 328.6 194.25 328.6 194.25 328.6 194.25"/><polygon class="cls-6" points="328.14 194.35 328.14 194.35 328.14 194.35 328.14 194.35"/><polygon class="cls-6" points="327.35 194.19 327.36 194.2 327.35 194.19 327.35 194.19"/><path class="cls-6" d="M327.43,194.22l.13,0h0Z"/><path class="cls-6" d="M327.72,194.33h0a1.46,1.46,0,0,0,.26,0h0A1.48,1.48,0,0,1,327.72,194.33Z"/><path d="M329.7,188.12l-.09,0h0Z"/><path d="M330.2,188.06h0Z"/><path d="M326.63,192.62a2.75,2.75,0,0,0,.05.54h0A2.76,2.76,0,0,1,326.63,192.62Z"/><path d="M328.48,194.27l.12,0h0Z"/><path d="M326.92,193.74h0a1.46,1.46,0,0,0,.13.2h0A1.44,1.44,0,0,1,326.92,193.74Z"/><path d="M327.56,194.27h0l.15.06h0Z"/><path d="M326.73,193.31h0a2,2,0,0,0,.09.28h0A2,2,0,0,1,326.73,193.31Z"/><path d="M327.18,194.05h0a1.21,1.21,0,0,0,.17.14h0A1.2,1.2,0,0,1,327.18,194.05Z"/><path d="M328,194.34h0Z"/><path class="cls-8" d="M326.63,192.62a2.76,2.76,0,0,0,.05.54h0c0,.06,0,.11.05.16h0a2,2,0,0,0,.1.29h0a1.39,1.39,0,0,0,.09.14h0a1.44,1.44,0,0,0,.14.21h0a1.2,1.2,0,0,0,.13.11h0a1.2,1.2,0,0,0,.17.14h0l.07,0,.13,0,.16.06a1.48,1.48,0,0,0,.25,0h.17a2,2,0,0,0,.34-.07l.12,0h0a2.81,2.81,0,0,0,.49-.23,5.37,5.37,0,0,0,2.44-4.23c0-1.1-.55-1.73-1.35-1.73H330a2,2,0,0,0-.43.09l.09,0-.12,0h0a2.81,2.81,0,0,0-.5.23A5.39,5.39,0,0,0,326.63,192.62Z"/><path class="cls-5" d="M20.9,525.36h0c.21.06.41.13.62.18h0C21.34,525.5,21.13,525.42,20.9,525.36Z"/><path class="cls-5" d="M22.49,525.67h0c.22,0,.43.07.66.08h0C22.94,525.74,22.72,525.69,22.49,525.67Z"/><path class="cls-5" d="M24.18,525.73h0c.23,0,.45,0,.69,0h0C24.65,525.74,24.42,525.72,24.18,525.73Z"/><path class="cls-5" d="M30,524.33l0,0,.44-.18h0Z"/><path class="cls-5" d="M26,525.55l.39-.06-.39.06Z"/><path class="cls-5" d="M15.74,521.81l0,.06c.16.21.32.44.49.64h0C16.09,522.3,15.92,522,15.74,521.81Z"/><path class="cls-5" d="M18,524l0,0c.21.15.41.31.64.44h0C18.43,524.33,18.21,524.16,18,524Z"/><path class="cls-5" d="M27.93,525.09h0c.21-.06.41-.1.62-.17h0C28.36,525,28.15,525,27.93,525.09Z"/><path class="cls-5" d="M15.17,521h0c0,.08.09.16.13.24h0C15.25,521.15,15.21,521.06,15.17,521Z"/><path class="cls-5" d="M16.79,523l0,0c.19.18.37.38.57.54h0C17.19,523.42,17,523.21,16.79,523Z"/><path class="cls-5" d="M19.44,524.83h0c.2.09.38.2.59.27h0C19.84,525,19.64,524.92,19.44,524.83Z"/><polygon class="cls-9" points="49.53 504.23 311.23 353.1 310.55 111.7 48.85 262.83 49.53 504.23"/><polygon class="cls-10" points="65.12 272.19 294.39 139.79 294.96 271.87 65.69 404.27 65.12 272.19"/><polygon class="cls-2" points="124.8 237.72 65.12 272.19 65.69 404.27 124.8 370.13 124.8 237.72"/><path class="cls-11" d="M20.82,404.66c0,.06,0,.13.08.19h0C20.87,404.79,20.85,404.72,20.82,404.66Z"/><path class="cls-6" d="M20.82,404.66c0,.06,0,.13.08.19h0c1.7,3.63,5.68,4.57,10.3,1.9,6.16-3.56,11.14-12.18,11.12-19.26,0-6.5-4.26-9.43-9.72-7.1l.09,0-.41.17h0q-.56.26-1.14.59C25,384.67,20,393.3,20,400.37A10.73,10.73,0,0,0,20.82,404.66Z"/><path class="cls-12" d="M31.12,378.94c-7.2,4.16-13,14.25-13,22.53s5.89,11.63,13.1,7.47,13-14.25,13-22.54S38.33,374.78,31.12,378.94Zm0,2.17q.58-.33,1.14-.59l.32-.13c5.47-2.33,9.71.6,9.72,7.1,0,7.09-5,15.71-11.12,19.26-4.62,2.67-8.6,1.73-10.3-1.9,0-.06,0-.13-.08-.19a10.73,10.73,0,0,1-.81-4.28C20,393.3,25,384.67,31.13,381.11Z"/><path class="cls-10" d="M28.58,524.91c.48-.16,1-.37,1.46-.58l.49-.2q1-.45,2-1L330,351.3h0c.62-.36,1.23-.75,1.83-1.16l.58-.42c.41-.3.82-.6,1.23-.92l.65-.53q.57-.48,1.13-1l.61-.57c.4-.38.79-.78,1.18-1.18l.48-.49c.34-.37.67-.75,1-1.14,6.4-7.39,10.8-17.55,10.78-26.33h0L348.87,103h0c0-6.17-2.21-10.51-5.74-12.54-.23-.13-.48-.23-.72-.34s-.44-.23-.67-.31-.53-.15-.79-.23-.47-.15-.72-.2-.57-.07-.86-.11-.5-.08-.76-.09-.61,0-.92,0-.52,0-.8,0-.66.1-1,.15-.54.07-.81.13-.74.2-1.11.31-.5.13-.76.21c-.42.14-.84.33-1.27.51-.23.09-.45.17-.68.27q-1,.45-2,1L196.93,168.26,31.79,263.63a33.67,33.67,0,0,0-7.59,6.15c-.21.22-.4.46-.6.68q-.94,1-1.81,2.16c-5.68,7.22-9.49,16.57-9.46,24.74l.61,214.56q0,1.16.11,2.23c0,.23.07.45.1.67.06.47.11.94.2,1.38.05.25.13.48.19.73s.18.78.3,1.14.19.48.28.72.24.66.38,1,.25.44.37.67.21.39.32.58.09.17.13.24.3.39.44.58.35.49.54.7.34.33.51.5.4.41.61.58.39.27.58.41.44.33.67.46.51.25.77.37.4.21.62.29.56.17.85.25.43.14.66.19.61.08.92.12.46.07.7.08.66,0,1,0,.47,0,.72,0,.73-.11,1.1-.17l.39-.06.74-.17.8-.23C28.15,525,28.36,525,28.58,524.91ZM341.67,214.62a3.62,3.62,0,0,1-1.65,2.85c-.91.52-1.65.11-1.66-.94a3.64,3.64,0,0,1,1.65-2.85C340.92,213.15,341.66,213.58,341.67,214.62Zm-11.61-7.18.08,27.74a2.2,2.2,0,0,1-.1.64,2.9,2.9,0,0,1-1.2,1.61,1.25,1.25,0,0,1-.5.17h-.07a.69.69,0,0,1-.23,0h0l-.1,0h0s0,0,0-.06l0,0,0-.06a.67.67,0,0,1-.14-.16,1.3,1.3,0,0,1,0-.16,1.19,1.19,0,0,1-.07-.35l-.08-27.74h0a2.87,2.87,0,0,1,1.29-2.25h0a1.26,1.26,0,0,1,.51-.18s.07,0,.1,0a.7.7,0,0,1,.31.06h0A.91.91,0,0,1,330.05,207.44Zm2.12-18a6.78,6.78,0,0,1-3.08,5.33c-1.71,1-3.1.2-3.11-1.76a6.82,6.82,0,0,1,3.09-5.35C330.79,186.66,332.17,187.46,332.18,189.42ZM310.55,111.7l.68,241.4L49.53,504.23l-.68-241.4ZM44.21,386.4c0,8.29-5.8,18.38-13,22.54s-13.07.83-13.1-7.47,5.81-18.37,13-22.53S44.19,378.12,44.21,386.4Z"/><path class="cls-7" d="M329.08,187.64A6.82,6.82,0,0,0,326,193c0,2,1.4,2.75,3.11,1.76a6.78,6.78,0,0,0,3.08-5.33C332.17,187.46,330.79,186.66,329.08,187.64Zm0,.74a2.81,2.81,0,0,1,.5-.23h0A2,2,0,0,1,330,188h.15c.8,0,1.35.63,1.35,1.73A5.37,5.37,0,0,1,329.1,194a2.81,2.81,0,0,1-.49.23h0l-.12,0a2,2,0,0,1-.34.07H328a1.46,1.46,0,0,1-.26,0l-.15-.06-.13,0-.07,0h0a1.21,1.21,0,0,1-.17-.14,1.2,1.2,0,0,1-.13-.11,1.46,1.46,0,0,1-.13-.2,1.39,1.39,0,0,1-.09-.14,2,2,0,0,1-.09-.28c0-.06,0-.1-.05-.16a2.75,2.75,0,0,1-.05-.54A5.39,5.39,0,0,1,329.08,188.38Z"/><path class="cls-6" d="M16.54,274.13c4.11-6.38,9.42-11.87,15.24-15.23l232.56-134.3L31.78,258.89C26,262.25,20.65,267.75,16.54,274.13Z"/><polygon class="cls-6" points="329.27 91.83 329.27 91.83 329.27 91.83 196.93 168.26 329.27 91.83"/><path class="cls-5" d="M334,89.8c.37-.11.75-.23,1.11-.31C334.73,89.57,334.36,89.69,334,89.8Z"/><path class="cls-5" d="M331.27,90.79h0q-1,.45-2,1h0Q330.29,91.25,331.27,90.79Z"/><path class="cls-5" d="M335.91,89.36c.33-.05.67-.12,1-.15C336.58,89.24,336.24,89.31,335.91,89.36Z"/><path class="cls-5" d="M333.22,90c-.43.15-.88.34-1.32.53l.05,0C332.38,90.34,332.8,90.16,333.22,90Z"/><path class="cls-5" d="M339.37,89.27c.29,0,.58.05.86.11C340,89.32,339.66,89.3,339.37,89.27Z"/><path class="cls-5" d="M340.95,89.58c.27.07.54.13.79.23C341.48,89.71,341.21,89.65,340.95,89.58Z"/><path class="cls-5" d="M338.61,89.17c-.3,0-.61,0-.92,0C338,89.18,338.31,89.16,338.61,89.17Z"/><path class="cls-5" d="M342.41,90.12c.24.11.49.21.72.34C342.9,90.33,342.65,90.23,342.41,90.12Z"/><path class="cls-6" d="M9.19,518.82c0-.19-.06-.38-.08-.57,0,.19.05.39.08.57Z"/><path class="cls-6" d="M8.86,515.71c0,.43,0,.88.06,1.29C8.89,516.59,8.89,516.14,8.86,515.71Z"/><path class="cls-6" d="M12.92,511.92h0c0,.46,0,.88.06,1.32,0-.44-.06-.86-.06-1.32Z"/><path class="cls-6" d="M14.48,519.74h0c.13.27.28.5.41.75l0-.08C14.72,520.19,14.59,520,14.48,519.74Z"/><path class="cls-6" d="M13.33,516.2h0c.07.33.16.64.25,1l-.06-.22C13.46,516.68,13.38,516.45,13.33,516.2Z"/><path class="cls-6" d="M13.82,518.07h0c.1.3.22.56.33.85l0-.12C14,518.54,13.9,518.32,13.82,518.07Z"/><path class="cls-6" d="M13,514.15h0c0,.37.1.72.16,1.08,0-.13,0-.26-.06-.4S13.05,514.38,13,514.15Z"/><path class="cls-6" d="M16.28,522.51h0c.17.2.37.36.55.54l0,0C16.62,522.84,16.44,522.69,16.28,522.51Z"/><path class="cls-6" d="M15.3,521.23h0c.15.23.32.43.49.64l0-.06C15.6,521.62,15.44,521.44,15.3,521.23Z"/><path class="cls-6" d="M17.4,523.59h0c.2.16.41.29.62.43l0,0C17.79,523.87,17.59,523.75,17.4,523.59Z"/><path class="cls-6" d="M21.78,272.62c-5.68,7.21-9.49,16.57-9.46,24.74h0C12.29,289.19,16.1,279.84,21.78,272.62Z"/><path class="cls-6" d="M23.59,270.46c.2-.23.4-.46.6-.68C24,270,23.8,270.24,23.59,270.46Z"/><polygon class="cls-5" points="12.31 297.36 12.31 297.36 12.31 297.36 12.92 511.92 12.92 511.92 12.31 297.36"/><path class="cls-12" d="M353,100.62c0-7.48-2.67-12.74-6.95-15.19-.27-.16-.56-.27-.85-.4s-.55-.28-.84-.39-.61-.18-.91-.26-.6-.19-.91-.26-.66-.08-1-.12-.64-.1-1-.12-.71,0-1.07,0-.66,0-1,0-.77.12-1.15.18-.68.08-1,.16-.84.23-1.26.35-.67.17-1,.29-1,.39-1.49.6c-.29.12-.57.21-.87.35q-1.2.55-2.43,1.26h0l-64.92,37.49L31.78,258.89c-5.82,3.36-11.13,8.85-15.24,15.23-5.12,8-8.37,17.29-8.35,25.62h0L8.8,514.3c0,.49,0,.94.07,1.4s0,.88.06,1.29.12.83.18,1.24c0,.19.05.39.08.57s.06.46.1.67c.08.4.2.77.3,1.15s.18.76.29,1.11.27.7.41,1,.24.68.39,1,.34.61.51.92.31.61.49.88.4.53.6.79.38.53.59.77.45.44.68.66.44.45.68.65.5.35.76.53c4.35,3,10.6,2.88,17.56-1.15L330,356c13.06-7.55,23.63-25.84,23.59-40.86Zm-15.78,244.9c-.39.4-.78.79-1.17,1.17l-.62.57q-.55.5-1.12,1l-.65.54c-.4.32-.81.62-1.21.91l-.59.43c-.59.41-1.19.79-1.8,1.15l0,0L32.52,523.09q-1,.59-2,1l-.44.18c-.5.22-1,.43-1.5.6-.21.07-.41.11-.62.17l-.83.23-.74.17-.39.06c-.37.06-.74.14-1.1.17s-.46,0-.69,0-.69,0-1,0-.44-.06-.66-.08-.65-.06-1-.12-.41-.12-.62-.18-.6-.15-.89-.26-.39-.18-.59-.27-.55-.24-.81-.38-.43-.29-.64-.44-.42-.27-.62-.43-.38-.36-.57-.54-.38-.34-.55-.54-.33-.43-.49-.64-.34-.41-.49-.64c0-.07-.09-.16-.13-.24s-.18-.33-.28-.49-.29-.48-.41-.75-.22-.56-.33-.83-.23-.55-.33-.85-.16-.61-.24-.92-.18-.62-.25-1-.09-.65-.14-1-.12-.7-.16-1.08,0-.61,0-.91-.06-.86-.06-1.32h0l-.61-214.56h0c0-8.17,3.78-17.52,9.46-24.74q.88-1.12,1.81-2.16c.2-.23.4-.46.6-.68a33.67,33.67,0,0,1,7.59-6.15l165.14-95.37L329.27,91.83h0q1-.59,2-1c.21-.1.42-.16.63-.25.44-.19.89-.38,1.32-.53.26-.09.51-.14.76-.21s.75-.23,1.11-.31.54-.08.81-.13.67-.12,1-.15.53,0,.8,0,.62,0,.92,0,.5.06.76.09.58.05.86.11.48.13.72.2.54.13.79.23.45.21.67.31.49.21.72.34c3.53,2,5.72,6.37,5.74,12.54h0l.61,214.56h0c0,8.79-4.38,18.94-10.78,26.33-.33.38-.66.77-1,1.14Z"/><path class="cls-5" d="M341.24,214.37h0a1.33,1.33,0,0,1,.07.41v0a1.29,1.29,0,0,0-.08-.43h0v0a1.22,1.22,0,0,1,0,.13S341.25,214.42,341.24,214.37Z"/><polygon class="cls-5" points="348.87 103 349.48 317.56 349.48 317.56 349.48 317.56 348.87 103 348.87 103 348.87 103 348.87 103"/><path class="cls-6" d="M339.76,217.21l-.14,0h0Z"/><path class="cls-6" d="M341.24,214.37s0,.11,0,.16a1.19,1.19,0,0,1,.05.26,1.33,1.33,0,0,0-.07-.41Z"/><path class="cls-8" d="M341.32,214.79a1.19,1.19,0,0,0-.05-.26,1.22,1.22,0,0,0,0-.13.74.74,0,0,0-.3-.42h0a.7.7,0,0,0-.21,0,.68.68,0,0,0-.2,0,1.26,1.26,0,0,0-.51.18,2.87,2.87,0,0,0-1.3,2.26.94.94,0,0,0,.33.78.69.69,0,0,1-.09-.11.69.69,0,0,0,.15.17h0a.92.92,0,0,0,.93-.09,2.89,2.89,0,0,0,1.3-2.27h0Z"/><path class="cls-13" d="M13.54,527.8c-.23-.22-.47-.42-.68-.66s-.39-.51-.59-.77-.41-.51-.6-.79-.33-.59-.49-.88-.35-.59-.51-.92-.26-.66-.39-1-.29-.68-.41-1-.19-.74-.29-1.11-.22-.75-.3-1.15c0-.21-.06-.45-.1-.67s-.06-.38-.08-.57c-.06-.41-.14-.81-.18-1.24s0-.86-.06-1.29-.07-.92-.07-1.4L8.19,299.75h0c0-8.33,3.23-17.67,8.35-25.62,4.11-6.38,9.42-11.87,15.24-15.23l232.56-134.3L329.26,87.1h0q1.23-.71,2.43-1.26c.29-.13.58-.23.87-.35.5-.21,1-.43,1.49-.6s.68-.19,1-.29.85-.26,1.26-.35.69-.11,1-.16.78-.14,1.15-.18.67,0,1,0,.72,0,1.07,0,.65.08,1,.12.67.06,1,.12.61.17.91.26.62.15.91.26.56.26.84.39.58.25.85.4l0,0-8.19-4.76c-4.3-2.5-10.26-2.15-16.84,1.65L23.59,254.13C10.52,261.68,0,280,0,295L.61,509.54c0,7.46,2.65,12.71,6.9,15.18l8.19,4.76c-.25-.15-.48-.34-.72-.5s-.52-.33-.76-.53S13.76,528,13.54,527.8Z"/><path class="cls-7" d="M125.29,414.71c4.8-2.77,8.67-9.49,8.66-15s-3.92-7.74-8.71-5h0c-4.8,2.77-8.68,9.49-8.66,15S120.49,417.48,125.29,414.71Z"/><path class="cls-10" d="M120.91,405c0,2.76,4.38,7.47,4.38,7.47s4.34-9.74,4.33-12.5h0c0-2.77-2-3.88-4.37-2.49h0a9.57,9.57,0,0,0-4.34,7.52Zm4.34-5.92c1.51-.87,2.73-.17,2.74,1.56a6,6,0,0,1-2.72,4.71c-1.5.87-2.73.17-2.73-1.56A6,6,0,0,1,125.25,399.13Z"/><path class="cls-7" d="M148.68,400.47c4.8-2.77,8.67-9.49,8.66-15s-3.92-7.74-8.71-5h0c-4.8,2.77-8.68,9.49-8.66,15S143.88,403.24,148.68,400.47Z"/><path class="cls-1" d="M153.26,391.65c0-.82-.58-1.15-1.3-.74a2.84,2.84,0,0,0-1.29,2.23c0,.82.58,1.15,1.3.74A2.84,2.84,0,0,0,153.26,391.65Z"/><path class="cls-1" d="M146.9,392.91a4.65,4.65,0,0,0,2.11-3.66c0-1.34-1-1.89-2.12-1.21a4.66,4.66,0,0,0-2.11,3.66C144.78,393,145.73,393.59,146.9,392.91Z"/><path class="cls-10" d="M152.3,395v-.33a3.77,3.77,0,0,0,.45-.4l.14.2a0,0,0,0,0,.06,0l0,0,.45-.56s0-.09,0-.12l-.14-.2a5.58,5.58,0,0,0,.32-.56l.25,0h0a.14.14,0,0,0,.06-.07l.26-.67s0-.09,0-.09l-.25,0a4.11,4.11,0,0,0,.12-.58l.29-.17a.15.15,0,0,0,.07-.11v-.6a0,0,0,0,0-.07,0l-.29.17a1.86,1.86,0,0,0-.12-.44l.25-.31a.11.11,0,0,0,0-.12l-.26-.37s0,0-.06,0l0,0-.25.31a1,1,0,0,0-.33-.19l.14-.37s0-.09,0-.09l-.45,0h0a.15.15,0,0,0-.06.07l-.14.37a1.77,1.77,0,0,0-.45.12v-.33s0-.06-.07,0l-.52.3a.15.15,0,0,0-.07.11v.33a3.76,3.76,0,0,0-.45.39l-.14-.2a0,0,0,0,0-.06,0l0,0-.45.55s0,.09,0,.12l.14.2a5.23,5.23,0,0,0-.32.57l-.25,0h0a.13.13,0,0,0-.06.07l-.26.67s0,.09,0,.09l.25,0a4,4,0,0,0-.12.58l-.29.17a.15.15,0,0,0-.07.11v.6s0,.06.07,0l.29-.17a1.93,1.93,0,0,0,.12.44l-.25.31a.11.11,0,0,0,0,.12l.26.37s0,0,.06,0l0,0,.25-.31a1.09,1.09,0,0,0,.33.19l-.14.37s0,.09,0,.09l.45,0h0a.15.15,0,0,0,.06-.07l.14-.37a1.76,1.76,0,0,0,.45-.12v.33s0,.06.07,0l.52-.3A.14.14,0,0,0,152.3,395Zm-1.62-1.81a2.84,2.84,0,0,1,1.29-2.23c.71-.41,1.29-.08,1.3.74a2.84,2.84,0,0,1-1.29,2.23C151.26,394.3,150.68,394,150.68,393.15Z"/><path class="cls-10" d="M143,393.35l.47-.27a3,3,0,0,0,.2.73l-.4.5a.18.18,0,0,0,0,.19l.43.6s.06,0,.09,0l.06,0,.4-.5a1.68,1.68,0,0,0,.54.3l-.23.6c0,.08,0,.14,0,.15l.73.06.06,0a.23.23,0,0,0,.09-.12l.23-.6a3,3,0,0,0,.73-.2v.54c0,.07,0,.1.11.06l.85-.49a.24.24,0,0,0,.11-.19v-.54a6.36,6.36,0,0,0,.73-.64l.23.33s.06,0,.09,0l.06,0,.73-.91a.18.18,0,0,0,0-.19l-.23-.33a8.54,8.54,0,0,0,.53-.92l.41,0h.06a.23.23,0,0,0,.09-.11l.42-1.09c0-.08,0-.14,0-.15l-.41,0a6.36,6.36,0,0,0,.19-1l.47-.27a.24.24,0,0,0,.11-.19v-1c0-.07,0-.09-.11-.06l-.47.27a2.94,2.94,0,0,0-.2-.73l.4-.5a.18.18,0,0,0,0-.19l-.43-.6a.07.07,0,0,0-.09,0l-.05,0-.4.5a1.67,1.67,0,0,0-.54-.31l.23-.6c0-.08,0-.14,0-.15l-.74-.06h-.05a.24.24,0,0,0-.09.12l-.23.6a3,3,0,0,0-.73.2v-.54c0-.07,0-.09-.11-.06l-.32.18-.53.31a.23.23,0,0,0-.11.18v.54a6.35,6.35,0,0,0-.73.64l-.23-.33s-.06,0-.1,0l-.05,0-.73.91a.18.18,0,0,0,0,.19l.24.33a8.54,8.54,0,0,0-.53.92l-.41,0h-.05a.24.24,0,0,0-.09.12l-.42,1.09c0,.08,0,.14,0,.15l.41,0a6.28,6.28,0,0,0-.19,1l-.47.27a.23.23,0,0,0-.11.18v1C142.87,393.36,142.92,393.39,143,393.35Zm3.91-5.31c1.17-.68,2.12-.13,2.12,1.21a4.65,4.65,0,0,1-2.11,3.66c-1.17.67-2.12.13-2.12-1.21A4.66,4.66,0,0,1,146.88,388Z"/><path class="cls-7" d="M125.29,439.48c4.8-2.77,8.67-9.49,8.66-15s-3.92-7.74-8.71-5h0c-4.8,2.77-8.68,9.49-8.66,15S120.49,442.25,125.29,439.48Z"/><path class="cls-1" d="M123.49,429.68a.6.6,0,0,0-.27.47V435c0,.17.12.24.27.16a.6.6,0,0,0,.27-.47v-4.85C123.76,429.66,123.64,429.59,123.49,429.68Z"/><path class="cls-1" d="M122.24,430.4a.6.6,0,0,0-.27.47v4.85c0,.17.12.24.27.16a.6.6,0,0,0,.27-.47v-4.85C122.51,430.38,122.39,430.31,122.24,430.4Z"/><path class="cls-1" d="M124.73,429a.6.6,0,0,0-.27.47v4.85c0,.17.12.24.27.16A.6.6,0,0,0,125,434v-4.85C125,428.94,124.89,428.87,124.73,429Z"/><path class="cls-1" d="M126,428.24a.6.6,0,0,0-.27.47v4.85c0,.17.12.24.27.16a.6.6,0,0,0,.27-.47v-4.85C126.26,428.22,126.13,428.15,126,428.24Z"/><path class="cls-1" d="M128.77,431.81V427c0-.17-.12-.24-.27-.16a.6.6,0,0,0-.27.47v4.85c0,.17.12.24.27.16A.6.6,0,0,0,128.77,431.81Z"/><path class="cls-1" d="M127.23,427.52a.6.6,0,0,0-.27.47v4.85c0,.17.12.24.27.16a.6.6,0,0,0,.27-.47v-4.85C127.51,427.5,127.38,427.43,127.23,427.52Z"/><path class="cls-10" d="M119.66,430.59l11.2-6.47a1,1,0,0,0,.46-.79c0-.3-.21-.41-.46-.27l-.52.3-2.13-1.21a.26.26,0,0,0-.26,0,.73.73,0,0,0-.26.27c-.14.24-.14.51,0,.59l1.61.92-8,4.61,1.6-2.77c.14-.24.14-.51,0-.59a.26.26,0,0,0-.26,0h0a.74.74,0,0,0-.26.27l-2.11,3.66-.64.37a1,1,0,0,0-.46.8C119.2,430.62,119.41,430.73,119.66,430.59Z"/><path class="cls-10" d="M129.33,432l1.15-7.2-10.42,6,1.4,5.68c.08.33.37.42.7.23l6.56-3.79A1.41,1.41,0,0,0,129.33,432Zm-7.07,3.85c-.15.09-.27,0-.27-.16v-4.85a.6.6,0,0,1,.27-.47c.15-.09.27,0,.27.16v4.85A.6.6,0,0,1,122.25,435.88Zm1.25-.72c-.15.09-.27,0-.27-.16v-4.85a.6.6,0,0,1,.27-.47c.15-.09.27,0,.27.16v4.85A.6.6,0,0,1,123.5,435.16Zm1.25-.72c-.15.09-.27,0-.27-.16v-4.85a.6.6,0,0,1,.27-.47c.15-.09.27,0,.27.16V434A.6.6,0,0,1,124.75,434.44Zm1.25-.72c-.15.09-.27,0-.27-.16v-4.85a.6.6,0,0,1,.27-.47c.15-.09.27,0,.27.16v4.85A.6.6,0,0,1,126,433.72Zm1.25-.72c-.15.09-.27,0-.27-.16V428a.6.6,0,0,1,.27-.47c.15-.09.27,0,.27.16v4.85A.6.6,0,0,1,127.25,433Zm1-.88v-4.85a.6.6,0,0,1,.27-.47c.15-.09.27,0,.27.16v4.85a.6.6,0,0,1-.27.47C128.34,432.36,128.22,432.3,128.22,432.12Z"/><path class="cls-7" d="M148.68,425.23c4.8-2.77,8.67-9.49,8.66-15s-3.92-7.74-8.71-5h0c-4.8,2.77-8.68,9.49-8.66,15S143.88,428,148.68,425.23Z"/><path class="cls-10" d="M146.31,414.7v4.24l4.67-2.7V412l2.14-1.24a.14.14,0,0,0,.05-.07v-.09h0L151,409.06l-2.27-1.58h0l-.08,0-2.26,4.2-2.21,4.1v.1a0,0,0,0,0,.05,0Z"/><polygon class="cls-10" points="146.32 419.48 146.33 420.35 151 417.65 151 416.79 146.32 419.48"/><polygon class="cls-10" points="151 418.98 151 418.11 146.33 420.81 146.33 421.68 151 418.98"/><polygon class="cls-10" points="151.01 419.44 146.33 422.14 146.34 423.01 151.01 420.31 151.01 419.44"/><path class="cls-14" d="M176.86,404.49c8.37-4.83,15.13-16.55,15.1-26.17s-6.83-13.5-15.2-8.67h0c-8.37,4.84-15.13,16.55-15.11,26.17S168.48,409.32,176.86,404.49Z"/><path class="cls-10" d="M181.71,382.25l1.41-.81a.2.2,0,0,0,.07-.09v-.15h0l-3.11-1.95-3.19-2a.09.09,0,0,0-.09,0,.25.25,0,0,0-.09.09L173.55,383l-3.13,5.61v.11a0,0,0,0,0,.05,0l1.47-.85,0,9,2.92-1.69.15-.09,0-5.62,3.64-2.1,0,5.62,3.07-1.77Z"/><path class="cls-10" d="M92.72,375.67l0-10.43c0-.44-.32-.62-.7-.4L83.1,370V369c0-.58-.41-.82-.92-.52L79.63,370l-2.54,1.47a2,2,0,0,0-.92,1.58v2.85l0,9.34c0,.44.32.62.7.39l4.8-2.77,10.31-6A1.54,1.54,0,0,0,92.72,375.67Z"/><path class="cls-10" d="M112.92,363.94l0-10.43c0-.44-.32-.62-.7-.4l-8.89,5.13v-.95c0-.58-.41-.82-.92-.52l-2.55,1.47-2.54,1.47a2,2,0,0,0-.92,1.58v2.85l0,9.33c0,.44.32.62.7.39l4.8-2.77,10.31-6A1.54,1.54,0,0,0,112.92,363.94Z"/><path class="cls-10" d="M92.72,353.46l0-10.43c0-.44-.32-.62-.7-.4l-8.89,5.13v-.95c0-.58-.41-.81-.92-.52l-2.55,1.47-2.54,1.47a2,2,0,0,0-.92,1.58v2.85l0,9.33c0,.44.32.62.7.39l4.8-2.77,10.31-6A1.54,1.54,0,0,0,92.72,353.46Z"/><path class="cls-10" d="M92.72,331.26l0-10.43c0-.44-.32-.62-.7-.4l-8.89,5.13v-.95c0-.58-.41-.82-.92-.52l-2.55,1.47L77.09,327a2,2,0,0,0-.92,1.58v2.85l0,9.34c0,.44.32.62.7.39l4.8-2.77,10.31-6A1.54,1.54,0,0,0,92.72,331.26Z"/><path class="cls-10" d="M92.72,309.06l0-10.43c0-.44-.32-.62-.7-.4l-8.89,5.13v-.95c0-.58-.41-.81-.92-.52l-2.55,1.47-2.54,1.47a2,2,0,0,0-.92,1.58v2.85l0,9.33c0,.44.32.62.7.39l4.8-2.77,10.31-6A1.54,1.54,0,0,0,92.72,309.06Z"/><polygon class="cls-15" points="212.77 233.22 251.77 269.2 256.7 255.89 261.27 262.29 276.89 225.21 280.89 279.97 124.8 370.11 143.39 280.9 159.63 315.99 172.8 292.92 182.33 296.46 212.77 233.22"/><polygon class="cls-16" points="310.95 58.58 208.55 117.16 208.8 411.65 311.2 353.08 310.95 58.58"/><polygon class="cls-17" points="310.95 58.58 208.55 117.16 208.8 129.14 310.98 70.69 310.95 58.58"/><polygon class="cls-18" points="207.07 410.65 208.8 411.65 208.55 117.16 206.82 116.15 207.07 410.65"/><polygon class="cls-18" points="206.82 116.15 208.55 117.16 310.95 58.58 309.22 57.57 206.82 116.15"/><path class="cls-13" d="M305.29,68.48h0a3.92,3.92,0,0,1-1.78,3.08c-1,.57-1.79.11-1.79-1a3.91,3.91,0,0,1,1.78-3.07h0C304.48,66.9,305.28,67.35,305.29,68.48Z"/><path class="cls-13" d="M299,72.21h0a3.92,3.92,0,0,1-1.78,3.08c-1,.57-1.78.11-1.78-1h0a3.9,3.9,0,0,1,1.77-3.07h0C298.2,70.63,299,71.08,299,72.21Z"/><path class="cls-13" d="M288.86,78.18a3.9,3.9,0,0,1,1.77-3.07h0c1-.57,1.79-.12,1.79,1h0a3.92,3.92,0,0,1-1.78,3.08c-1,.57-1.78.11-1.78-1Z"/><polygon class="cls-12" points="240.25 168.44 230.16 174.26 230.3 224.43 240.4 218.6 240.25 168.44"/><polygon class="cls-12" points="256.68 172.5 246.59 178.32 246.7 214.96 251.48 212.2 256.79 209.14 256.68 172.5"/><polygon class="cls-12" points="273.19 199.66 273.12 174.88 263.03 180.71 263.1 205.49 269.96 201.53 273.19 199.66"/><polygon class="cls-12" points="289.54 175.58 279.45 181.41 279.49 196.02 289.58 190.2 289.54 175.58"/><polygon class="cls-2" points="285.24 282.19 285.26 287.11 230.18 318.91 230.16 314 285.24 282.19"/><path class="cls-2" d="M289.52,279.73c1.17-.67,2.14-.15,2.14,1.22a4.75,4.75,0,0,1-2.13,3.69h0c-1.19.69-2.14.12-2.14-1.22A4.66,4.66,0,0,1,289.52,279.73Z"/><polygon class="cls-2" points="285.24 296.57 285.26 301.48 230.18 333.29 230.16 328.38 285.24 296.57"/><path class="cls-2" d="M289.52,294.1c1.17-.67,2.14-.15,2.14,1.22a4.75,4.75,0,0,1-2.13,3.69h0c-1.19.69-2.14.12-2.14-1.22A4.66,4.66,0,0,1,289.52,294.1Z"/><polygon class="cls-2" points="285.24 310.95 285.26 315.86 230.18 347.67 230.16 342.76 285.24 310.95"/><path class="cls-2" d="M289.52,308.48c1.17-.67,2.14-.15,2.14,1.22a4.75,4.75,0,0,1-2.13,3.69h0c-1.19.69-2.14.12-2.14-1.22A4.66,4.66,0,0,1,289.52,308.48Z"/><polygon class="cls-2" points="285.24 325.32 285.26 330.23 230.18 362.04 230.16 357.13 285.24 325.32"/><path class="cls-2" d="M289.52,322.86c1.17-.67,2.14-.15,2.14,1.22a4.75,4.75,0,0,1-2.13,3.69h0c-1.19.69-2.14.12-2.14-1.22A4.66,4.66,0,0,1,289.52,322.86Z"/><polygon class="cls-2" points="285.24 339.7 285.26 344.61 230.18 376.42 230.16 371.51 285.24 339.7"/><path class="cls-2" d="M289.52,337.23c1.17-.67,2.14-.15,2.14,1.22a4.75,4.75,0,0,1-2.13,3.69h0c-1.19.69-2.14.12-2.14-1.22A4.66,4.66,0,0,1,289.52,337.23Z"/><polygon class="cls-13" points="258.49 231.5 258.5 283.09 230.17 299.45 230.16 247.86 258.49 231.5"/><polygon class="cls-13" points="290.17 213.98 290.18 265.56 261.85 281.92 261.84 230.34 290.17 213.98"/><g class="cls-4"><polygon class="cls-10" points="203.8 516.6 117.69 566.41 69.32 538.48 155.43 488.67 203.8 516.6"/><polygon class="cls-19" points="203.8 516.6 203.74 538.48 117.63 588.29 117.69 566.41 203.8 516.6"/><polygon class="cls-20" points="117.69 566.41 117.63 588.29 69.26 560.36 69.32 538.48 117.69 566.41"/></g><polygon class="cls-10" points="117.69 585.13 101.05 576.34 117.63 586.02 130.8 578.29 117.69 585.13"/><polygon class="cls-10" points="117.69 580.61 79.46 559 117.63 581.5 149.72 563.38 117.69 580.61"/><polygon class="cls-10" points="117.69 577.93 95.28 565.76 117.63 578.83 142.33 564.33 117.69 577.93"/><polygon class="cls-10" points="203.8 523.46 203.8 522.72 191.54 530.66 203.8 523.46"/><polygon class="cls-10" points="203.8 532.53 203.8 532.16 195.61 537.25 203.8 532.53"/><polygon class="cls-21" points="160.46 534.78 122.63 512.48 123.64 511.93 161.44 534.21 160.46 534.78"/><path class="cls-13" d="M114.1,521.36c0-1.1-1.5-2-3.34-2s-3.34.89-3.34,2v.77c0,1.1,1.5,2,3.34,2s3.34-.89,3.34-2Z"/><ellipse class="cls-22" cx="110.76" cy="521.36" rx="2.29" ry="1.37"/><path class="cls-23" d="M103.57,505.69l.24.07Z"/><path class="cls-24" d="M101.92,505.53l.23,0Z"/><path class="cls-25" d="M103,505.56l.23,0Z"/><path class="cls-26" d="M102.44,505.51h0Z"/><path class="cls-27" d="M101,505.79l.2-.1Z"/><path class="cls-28" d="M101.43,505.62l.22-.06Z"/><path class="cls-29" d="M101.4,509.42a2.22,2.22,0,0,1,.14-.22A2.28,2.28,0,0,0,101.4,509.42Z"/><path class="cls-30" d="M104.19,505.91l.22.09Z"/><path class="cls-31" d="M101.76,508.86a1.91,1.91,0,0,1,.2-.17A1.91,1.91,0,0,0,101.76,508.86Z"/><path class="cls-32" d="M101.17,510.13c0-.09.05-.15.08-.24C101.22,510,101.18,510,101.17,510.13Z"/><path class="cls-12" d="M101.76,508.86a2.31,2.31,0,0,0-.22.33,2.22,2.22,0,0,0-.14.22,3.14,3.14,0,0,0-.15.47c0,.08-.06.15-.08.24a4.37,4.37,0,0,0-.08.86l0,9.15,1.41-.81,0-9.15a3.26,3.26,0,0,1,.55-1.93,2.49,2.49,0,0,0-1.27.62Z"/><path class="cls-2" d="M105,506.32q-.31-.18-.62-.32l-.22-.09-.38-.15-.24-.07-.34-.1-.23,0-.32,0h-.53l-.23,0-.27,0-.22.06-.25.07-.2.1-.23.11c-1.09.63-1.77,2-1.77,3.87l0,11.58,2.09-1.21,0-9.15a4.37,4.37,0,0,1,.08-.86c0-.09.05-.15.08-.24a3.14,3.14,0,0,1,.15-.47,2.28,2.28,0,0,1,.14-.22,2.31,2.31,0,0,1,.22-.33,2.49,2.49,0,0,1,1.27-.62,3.31,3.31,0,0,1,2,.5,8.62,8.62,0,0,1,3.9,6.76v6.65a3,3,0,0,0,1.85.57l.26,0v-6A13.27,13.27,0,0,0,105,506.32Z"/><path class="cls-12" d="M106.42,505.51c-1.67-1-3.19-1.05-4.29-.42l-1.39.81h0l.23-.11.2-.1.25-.07.22-.06.27,0,.23,0h.53l.32,0,.23,0,.34.1.24.07.38.15.22.09q.3.14.62.32a13.27,13.27,0,0,1,6,10.41v6a3,3,0,0,0,1.39-.41v-6.38A13.26,13.26,0,0,0,106.42,505.51Z"/><path class="cls-22" d="M111.77,523a2.65,2.65,0,0,1-1.28.09c-.37-.06-.41.53,0,.59a3,3,0,0,0,1.44-.1C112.24,523.42,112.13,522.85,111.77,523Z"/><path class="cls-13" d="M144.17,504c0-1.1-1.5-2-3.34-2s-3.34.89-3.34,2v.77c0,1.1,1.5,2,3.34,2s3.34-.89,3.34-2Z"/><ellipse class="cls-22" cx="140.83" cy="503.96" rx="2.29" ry="1.37"/><path class="cls-33" d="M133.65,488.29l.24.07Z"/><path class="cls-34" d="M132,488.13l.23,0Z"/><path class="cls-35" d="M133.07,488.16l.23,0Z"/><path class="cls-36" d="M132.52,488.11h0Z"/><path class="cls-37" d="M131.05,488.39l.2-.1Z"/><path class="cls-38" d="M131.5,488.22l.22-.06Z"/><path class="cls-39" d="M131.47,492a2.2,2.2,0,0,1,.14-.22A2.25,2.25,0,0,0,131.47,492Z"/><path class="cls-40" d="M134.27,488.51l.22.09Z"/><path class="cls-41" d="M131.83,491.46a1.88,1.88,0,0,1,.2-.17A1.9,1.9,0,0,0,131.83,491.46Z"/><path class="cls-42" d="M131.24,492.72c0-.09.05-.15.08-.24C131.29,492.57,131.26,492.64,131.24,492.72Z"/><path class="cls-12" d="M131.83,491.46a2.3,2.3,0,0,0-.22.33,2.2,2.2,0,0,0-.14.22,3.14,3.14,0,0,0-.15.47c0,.08-.06.15-.08.24a4.38,4.38,0,0,0-.08.86l0,9.15,1.41-.81,0-9.15a3.26,3.26,0,0,1,.55-1.93,1.91,1.91,0,0,0-1.06.45A1.88,1.88,0,0,0,131.83,491.46Z"/><path class="cls-2" d="M135.1,488.92q-.31-.18-.62-.32l-.22-.09-.38-.15-.24-.07-.34-.1-.23,0-.32,0h-.53l-.23,0-.27,0-.22.06-.25.07-.2.1-.23.11c-1.09.63-1.77,2-1.77,3.87l0,11.58,2.09-1.21,0-9.15a4.38,4.38,0,0,1,.08-.86c0-.09.05-.15.08-.24a3.14,3.14,0,0,1,.15-.47,2.25,2.25,0,0,1,.14-.22,2.3,2.3,0,0,1,.22-.33,2.49,2.49,0,0,1,1.27-.62,3.31,3.31,0,0,1,2,.5,8.62,8.62,0,0,1,3.9,6.76v6.65a3,3,0,0,0,1.85.57l.26,0v-6A13.27,13.27,0,0,0,135.1,488.92Z"/><path class="cls-12" d="M136.5,488.11c-1.67-1-3.19-1.05-4.29-.42l-1.39.81h0l.23-.11.2-.1.25-.07.22-.06.27,0,.23,0h.53l.32,0,.23,0,.34.1.24.07.38.15.22.09q.3.14.62.32a13.27,13.27,0,0,1,6,10.41v6a3,3,0,0,0,1.39-.41v-6.38A13.26,13.26,0,0,0,136.5,488.11Z"/><path class="cls-22" d="M141.84,505.56a2.65,2.65,0,0,1-1.28.09c-.37-.06-.41.53,0,.59a3,3,0,0,0,1.44-.1C142.32,506,142.2,505.45,141.84,505.56Z"/><g class="cls-4"><g class="cls-43"><polyline class="cls-44" points="116.19 546.42 115.11 545.8 109.77 548.91 119.75 554.67 121.03 553.93 116.51 551.32 120.26 549.14 119.19 548.53 115.45 550.7 112.13 548.79 116.19 546.42"/><path class="cls-44" d="M119.25,544.6a6.07,6.07,0,0,1,1.15-.81,4.07,4.07,0,0,1,4.15-.25c1.14.66,1,1.6-.34,2.39l-1.31.76-3.64-2.1m14.13,2.16a30.17,30.17,0,0,1-3.51-1.14,5.77,5.77,0,0,0-3.47-.32l0,0c.69-.81.64-1.79-.68-2.56a5.05,5.05,0,0,0-2.68-.64,7.57,7.57,0,0,0-3.68,1.2,15.53,15.53,0,0,0-2.25,1.55l9.85,5.69,1.28-.74-4.32-2.5,1.21-.7a4.22,4.22,0,0,1,3.92,0,24.6,24.6,0,0,0,3.05,1l1.33-.77"/><polyline class="cls-44" points="136.12 545.16 126.14 539.39 124.85 540.14 134.84 545.9 136.12 545.16"/></g></g><g class="cls-4"><g class="cls-45"><path class="cls-44" d="M98.79,542.28c-2.62-1.51-3.19-2.8-2.06-3.46,1.34-.78,3.5-.23,5.87,1.14s3.38,2.68,2.06,3.46c-1.17.68-3.36.31-5.87-1.14m5-3.11c-3.06-1.77-6-2.14-8-1s-1.54,3,1.68,4.82,6.24,2.11,8.11,1c2.12-1.23,1.52-3-1.76-4.87"/><path class="cls-44" d="M112.73,536.08a5.94,5.94,0,0,0-3.84-.63,7.28,7.28,0,0,0-2.58.9,6,6,0,0,0-.72.49l-2.11-1.64,3.65-2.12-1.1-.63-4.58,2.66,4,3a11.71,11.71,0,0,1,1.22-.83,4.8,4.8,0,0,1,4.88-.37c1.29.75,1,1.81-.18,2.52a7.92,7.92,0,0,1-2.58.88l.67.76a8.55,8.55,0,0,0,3-1c2.07-1.21,2.15-2.88.27-4"/></g></g><path class="cls-1" d="M127.55,406.67a6,6,0,0,0,2.72-4.71c0-1.73-1.23-2.43-2.74-1.56a6,6,0,0,0-2.72,4.71C124.82,406.84,126,407.54,127.55,406.67Z"/><path class="cls-44" d="M117.78,113.53l.24-.13c1.1-7.06,6-14.75,11.92-18.16a11.8,11.8,0,0,1,4.77-1.64,41.11,41.11,0,0,1,3.83-8.85A36,36,0,0,1,151,71.58c4.53-2.61,9.06-3.24,12.52-1.27l6.21,3.61a9.18,9.18,0,0,1,3.56,3.79,6.67,6.67,0,0,1,4.35.72L183.88,82h0c2.2,1.27,3.57,4,3.58,7.84,0,7.38-4.93,16.28-11.22,20.53l-52.16,30.12c-3,1.73-5.69,1.78-7.56.48.11.08.21.16.33.23l-6.21-3.61c-1.83-1.06-3-3.32-3-6.53C107.63,124.64,112.17,116.77,117.78,113.53Z"/><path class="cls-12" d="M157.24,75.19a36,36,0,0,0-12.49,13.18,41.11,41.11,0,0,0-3.83,8.85,11.8,11.8,0,0,0-4.77,1.64c-5.91,3.41-10.83,11.1-11.92,18.16l-.24.13c-5.61,3.24-10.15,11.11-10.13,17.56s4.59,9.06,10.2,5.82l52.16-30.12c6.3-4.24,11.24-13.15,11.22-20.53,0-7.74-5.5-10.86-12.24-7l-.34.21c-.44-4.17-2.14-7.5-5.1-9.19C166.3,71.94,161.77,72.57,157.24,75.19Z"/><path class="cls-44" d="M206.61,44.38l.24-.13c1.1-7.06,6-14.75,11.92-18.16a11.81,11.81,0,0,1,4.77-1.64,41.11,41.11,0,0,1,3.83-8.85A36,36,0,0,1,239.87,2.43c4.53-2.61,9.06-3.24,12.52-1.27l6.21,3.61a9.18,9.18,0,0,1,3.56,3.79,6.67,6.67,0,0,1,4.35.72l6.21,3.61h0c2.2,1.27,3.57,4,3.58,7.84,0,7.38-4.93,16.28-11.22,20.53L212.89,71.36c-3,1.73-5.69,1.78-7.56.48.11.08.21.16.33.23l-6.21-3.61c-1.83-1.06-3-3.32-3-6.53C196.46,55.49,201,47.62,206.61,44.38Z"/><path class="cls-12" d="M246.08,6a36,36,0,0,0-12.49,13.18,41.12,41.12,0,0,0-3.83,8.85A11.8,11.8,0,0,0,225,29.7c-5.91,3.41-10.83,11.1-11.92,18.16l-.24.13c-5.61,3.24-10.15,11.11-10.13,17.56s4.59,9.06,10.2,5.82l52.16-30.12c6.3-4.24,11.24-13.15,11.22-20.53,0-7.74-5.5-10.86-12.24-7l-.34.21c-.44-4.17-2.14-7.5-5.1-9.19C255.14,2.79,250.6,3.42,246.08,6Z"/><polygon class="cls-46" points="431.7 12.5 369.45 49.21 369.7 325.29 431.95 288.58 431.7 12.5"/><polyline class="cls-18" points="367.98 324.28 369.7 325.29 369.45 49.21 367.73 48.2"/><polygon class="cls-18" points="367.73 48.2 369.45 49.21 431.7 12.5 429.97 11.5 367.73 48.2"/><g class="cls-4"><polygon class="cls-2" points="381.82 101.58 381.69 57.79 419.79 35.79 419.92 79.58 381.82 101.58"/><g class="cls-47"><path class="cls-10" d="M408.71,75.56c-1.69,1-3.06.19-3.07-1.76a6.72,6.72,0,0,1,3-5.28c1.7-1,3.07-.2,3.08,1.74a6.73,6.73,0,0,1-3.06,5.3M409.3,65l-1.23.71-.16.27v.77a11.3,11.3,0,0,0-1.06.93l-.33-.48-.22.05-1.07,1.33-.05.27.33.49a13.06,13.06,0,0,0-.76,1.33l-.59,0-.22.19-.61,1.58.06.2.58.06a10.8,10.8,0,0,0-.28,1.38l-.67.39-.15.27V76.1l.16.09.67-.39a5.28,5.28,0,0,0,.28,1.05l-.58.72-.06.29.62.86.22-.05.59-.73a2.36,2.36,0,0,0,.77.45l-.33.86.05.22,1.07.09.22-.19.33-.87a4.1,4.1,0,0,0,1.06-.29V79l.16.09,1.23-.71.15-.27v-.79a8.67,8.67,0,0,0,1.06-.93l.33.49.22-.07,1.06-1.31.06-.29-.34-.47a11.18,11.18,0,0,0,.78-1.34l.59.05.21-.19.61-1.57-.05-.22-.59,0a8.58,8.58,0,0,0,.28-1.38l.68-.4.15-.27V68l-.16-.09-.68.4a3.91,3.91,0,0,0-.28-1.05l.59-.73.05-.27-.62-.87-.21.06-.59.72a2.36,2.36,0,0,0-.78-.43l.34-.88-.06-.2-1.06-.1-.22.2-.33.86a5.36,5.36,0,0,0-1.06.29v-.77L409.3,65"/><path class="cls-10" d="M396.66,73.25c-2.78,1.6-5,.31-5-2.88a11,11,0,0,1,5-8.67c2.78-1.6,5-.32,5,2.86a11,11,0,0,1-5,8.68m1-17.33-2,1.16a.56.56,0,0,0-.26.45v1.28a16.08,16.08,0,0,0-1.73,1.52l-.55-.78c0-.07-.13-.07-.22,0a.48.48,0,0,0-.13.12L391,61.81a.42.42,0,0,0-.09.46l.55.78a19.69,19.69,0,0,0-1.26,2.18l-1-.07a.22.22,0,0,0-.13,0,.56.56,0,0,0-.22.28l-1,2.58c-.06.18,0,.33.1.35l1,.08a15,15,0,0,0-.45,2.25l-1.12.65a.56.56,0,0,0-.25.44v2.31c0,.17.12.23.25.15l1.12-.65a6.93,6.93,0,0,0,.46,1.73l-1,1.18a.47.47,0,0,0-.1.47l1,1.42c.05.07.14.07.23,0a.49.49,0,0,0,.12-.1l1-1.2a3.86,3.86,0,0,0,1.27.72l-.55,1.43c-.07.19,0,.34.09.35l1.75.15a.22.22,0,0,0,.13,0,.56.56,0,0,0,.22-.28l.55-1.43a7,7,0,0,0,1.73-.46v1.28c0,.17.11.23.26.15l2-1.16a.56.56,0,0,0,.26-.45V76.14a15,15,0,0,0,1.73-1.54l.55.79c0,.07.13.07.22,0a.48.48,0,0,0,.13-.12l1.74-2.16a.43.43,0,0,0,.09-.46l-.55-.79a19.72,19.72,0,0,0,1.26-2.18l1,.09a.25.25,0,0,0,.12,0,.58.58,0,0,0,.23-.29l1-2.58c.06-.17,0-.33-.1-.35l-1-.08a14.73,14.73,0,0,0,.45-2.25l1.12-.65a.56.56,0,0,0,.25-.44V60.8c0-.17-.11-.23-.25-.15l-1.12.65a7.09,7.09,0,0,0-.46-1.73l1-1.18a.46.46,0,0,0,.1-.47l-1-1.42c0-.07-.13-.07-.22,0a.48.48,0,0,0-.13.12l-1,1.19a3.86,3.86,0,0,0-1.27-.72l.55-1.41c.07-.18,0-.35-.09-.35l-1.75-.15a.22.22,0,0,0-.13,0,.56.56,0,0,0-.22.28l-.55,1.41a7.62,7.62,0,0,0-1.73.48V56.07c0-.17-.12-.23-.26-.15"/><path class="cls-10" d="M396.64,66.5a1.85,1.85,0,0,0-.84,1.45c0,.54.38.75.84.48a1.84,1.84,0,0,0,.84-1.45c0-.52-.38-.75-.84-.48"/><path class="cls-10" d="M408.7,71.5a1,1,0,0,0-.45.79c0,.3.21.42.46.27a1,1,0,0,0,.47-.81c0-.29-.21-.4-.47-.25"/></g></g><g class="cls-4"><polygon class="cls-2" points="381.82 168.28 381.69 124.49 419.79 102.49 419.92 146.28 381.82 168.28"/><g class="cls-48"><path class="cls-2" d="M394.28,154.12c-.54.31-1,.05-1-.56l-.08-27.65a2.14,2.14,0,0,1,1-1.68l13.13-7.58c.54-.31,1-.06,1,.56l.08,27.65a2.16,2.16,0,0,1-1,1.68l-13.13,7.58m25.51-51.63-38.1,22,.12,43.79,38.1-22-.12-43.79"/><path class="cls-10" d="M408.3,117.21c0-.62-.44-.87-1-.56l-13.13,7.58a2.14,2.14,0,0,0-1,1.68l.08,27.65c0,.61.44.87,1,.56l13.13-7.58a2.16,2.16,0,0,0,1-1.68Zm-14,33.54-.07-23.66,13.08-7.55.07,23.66Z"/><path class="cls-2" d="M395.46,138.4v-3.21l10.86-6.27v3.21l-9.5,5.49-.48,1.77v-1.49l-.87.5m0-5.73v-3.19l10.86-6.27v3.19l-.86.5v1.5l-.5-1.21-9.5,5.49m11.87-13.13-13.08,7.55.07,23.66,13.08-7.55-.07-23.66"/><polyline class="cls-10" points="406.3 123.2 395.44 129.47 395.45 132.66 404.95 127.18 405.45 128.39 405.44 126.89 406.3 126.39 406.3 123.2"/><polyline class="cls-10" points="406.31 128.92 395.45 135.19 395.46 138.4 396.33 137.9 396.34 139.38 396.82 137.61 406.32 132.13 406.31 128.92"/></g></g><g class="cls-4"><polygon class="cls-2" points="381.82 237.97 381.69 194.18 419.79 172.18 419.92 215.96 381.82 237.97"/><g class="cls-49"><path class="cls-2" d="M391.49,220.3c-3,1.71-5.37.34-5.38-3.07a12,12,0,0,1,4.17-8.43,16.42,16.42,0,0,1,7.31-11.72c3-1.71,5.51-1.18,6.7,1a8.39,8.39,0,0,1,1.4-1c2.54-1.47,4.67-.64,5.23,1.77l.15-.1c2.46-1.42,4.46-.28,4.46,2.54A9.77,9.77,0,0,1,411.1,209L391.49,220.3m28.3-48.12-38.1,22,.12,43.79,38.1-22-.12-43.79"/><path class="cls-10" d="M397.59,197.09a16.42,16.42,0,0,0-7.31,11.72,12,12,0,0,0-4.17,8.43c0,3.41,2.41,4.78,5.38,3.07L411.1,209a9.77,9.77,0,0,0,4.43-7.68c0-2.82-2-4-4.46-2.54l-.15.1c-.56-2.41-2.69-3.23-5.23-1.77a8.39,8.39,0,0,0-1.4,1c-1.19-2.2-3.75-2.73-6.7-1"/></g></g><g class="cls-4"><polygon class="cls-3" points="381.82 308.38 381.69 264.59 419.79 242.59 419.92 286.38 381.82 308.38"/><g class="cls-50"><path class="cls-2" d="M400.75,287.9,396.53,285l-4.11-2.87c-.07-.05,0-.24.09-.3l4-2.29,0-7.84,8.66-5,0,7.84,4-2.29c.1-.06.17.06.09.2l-4.09,7.6-4.17,7.78-.2.11m-4.29-17.68v-1.61l8.66-5v1.61l-8.66,5m0-3v-1.61l8.66-5v1.61l-8.66,5m23.34-24.61-38.1,22,.12,43.79,38.1-22-.12-43.79"/><path class="cls-10" d="M405.12,266.65l-8.66,5,0,7.84-4,2.29c-.11.07-.17.25-.09.3l4.11,2.87,4.21,2.94.2-.11,4.17-7.78,4.09-7.6c.07-.14,0-.26-.09-.2l-4,2.29,0-7.84"/><polyline class="cls-10" points="405.11 263.61 396.45 268.61 396.46 270.22 405.12 265.22 405.11 263.61"/><polyline class="cls-10" points="405.1 260.59 396.44 265.59 396.45 267.2 405.11 262.2 405.1 260.59"/></g></g><g class="cls-4"><path class="cls-20" d="M306.58,460.65V528.7a2.24,2.24,0,0,0,1.31,1.83V462.48A2.24,2.24,0,0,1,306.58,460.65Z"/><polygon class="cls-20" points="307.89 462.48 307.9 530.54 330.44 543.64 330.42 475.58 307.89 462.48"/><path class="cls-51" d="M384.13,448.25a2.26,2.26,0,0,0,1.34-1.86v68.06a2.26,2.26,0,0,1-1.34,1.86l-47.32,27.33V475.58Z"/><path class="cls-52" d="M307.91,458.79c-1.76,1-1.77,2.68,0,3.69l22.54,13.1a7,7,0,0,0,6.38,0l47.32-27.33c1.77-1,1.78-2.68,0-3.7l-22.54-13.1a7,7,0,0,0-6.38,0Z"/><path class="cls-53" d="M330.42,475.58v68.06a7,7,0,0,0,6.38,0V475.58A7,7,0,0,1,330.42,475.58Z"/></g><path class="cls-54" d="M384.71,442.89c.06-.05.1-.11.15-.17S384.77,442.83,384.71,442.89Z"/><path class="cls-54" d="M385.38,441.94a1.58,1.58,0,0,0,0-.22A1.58,1.58,0,0,1,385.38,441.94Z"/><path class="cls-54" d="M385.13,442.43a1.87,1.87,0,0,0,.1-.2A1.89,1.89,0,0,1,385.13,442.43Z"/><path class="cls-54" d="M306.91,456.67a2.56,2.56,0,0,0,.26.29A2.56,2.56,0,0,1,306.91,456.67Z"/><path class="cls-54" d="M307.31,457.12a3.6,3.6,0,0,0,.57.41A3.6,3.6,0,0,1,307.31,457.12Z"/><path class="cls-54" d="M306.66,456.18a1.91,1.91,0,0,0,.14.28A1.89,1.89,0,0,1,306.66,456.18Z"/><path class="cls-55" d="M306.66,456.18a1.89,1.89,0,0,0,.14.28,1.86,1.86,0,0,0,.1.2,2.56,2.56,0,0,0,.26.29c.05.05.09.11.14.16a3.6,3.6,0,0,0,.57.41l22.54,13.1v5l-22.54-13.1a2.24,2.24,0,0,1-1.31-1.83v-5a374.21,374.21,0,0,0,.08.49Z"/><path class="cls-55" d="M336.8,470.63v5a7,7,0,0,1-6.38,0v-5A7,7,0,0,0,336.8,470.63Z"/><path class="cls-44" d="M384.13,443.3a3.69,3.69,0,0,0,.58-.41c.06-.05.1-.11.15-.17a2.65,2.65,0,0,0,.26-.29,1.89,1.89,0,0,0,.1-.2,1.91,1.91,0,0,0,.15-.29,31.38,31.38,0,0,0,.08-.5h0v5a2.26,2.26,0,0,1-1.34,1.86l-47.32,27.33v-5Z"/><path class="cls-56" d="M385.41,441.73a1.58,1.58,0,0,1,0,.22,1.91,1.91,0,0,1-.15.29,1.87,1.87,0,0,1-.1.2,2.65,2.65,0,0,1-.26.29c-.05.06-.09.11-.15.17a3.69,3.69,0,0,1-.58.41L336.8,470.63a7,7,0,0,1-6.38,0l-22.54-13.1a3.6,3.6,0,0,1-.57-.41c-.06-.05-.09-.11-.14-.16a2.56,2.56,0,0,1-.26-.29,1.86,1.86,0,0,1-.1-.2,1.91,1.91,0,0,1-.14-.28,1.56,1.56,0,0,1,0-.22,2.09,2.09,0,0,1,1.28-2.14l47.32-27.33a7,7,0,0,1,6.38,0l22.54,13.1a2.23,2.23,0,0,1,1.31,1.84A1.57,1.57,0,0,1,385.41,441.73Z"/><path class="cls-1" d="M371.56,443.18l.1-.11Z"/><path class="cls-1" d="M372,442.56a1,1,0,0,0,0-.14A1,1,0,0,1,372,442.56Z"/><path class="cls-1" d="M371.84,442.88a1.24,1.24,0,0,0,.07-.13A1.24,1.24,0,0,1,371.84,442.88Z"/><path class="cls-1" d="M320.2,452.28a1.7,1.7,0,0,0,.17.19A1.7,1.7,0,0,1,320.2,452.28Z"/><path class="cls-1" d="M320.47,452.58a2.39,2.39,0,0,0,.38.27A2.39,2.39,0,0,1,320.47,452.58Z"/><path class="cls-1" d="M320,452a1.24,1.24,0,0,0,.09.19A1.25,1.25,0,0,1,320,452Z"/><path class="cls-20" d="M320,452a35.08,35.08,0,0,0,.16.32,1.7,1.7,0,0,0,.17.19l.1.11a2.39,2.39,0,0,0,.38.27l14.88,8.65v3.27l-14.88-8.65a1.48,1.48,0,0,1-.86-1.21v-3.27a1,1,0,0,0,0,.18A1,1,0,0,0,320,452Z"/><path class="cls-53" d="M339.94,461.5v3.27a4.64,4.64,0,0,1-4.21,0v-3.27A4.64,4.64,0,0,0,339.94,461.5Z"/><path class="cls-19" d="M371.18,443.45a2.44,2.44,0,0,0,.38-.27l.1-.11a1.73,1.73,0,0,0,.17-.19,1.24,1.24,0,0,0,.07-.13,1.26,1.26,0,0,0,.1-.19,1,1,0,0,0,0-.14,1,1,0,0,0,0-.19h0v3.27a1.49,1.49,0,0,1-.88,1.23l-31.24,18V461.5Z"/><path class="cls-10" d="M372,442.42a1,1,0,0,1,0,.14,1.26,1.26,0,0,1-.1.19,1.24,1.24,0,0,1-.07.13,1.73,1.73,0,0,1-.17.19l-.1.11a2.44,2.44,0,0,1-.38.27l-31.24,18a4.64,4.64,0,0,1-4.21,0l-14.88-8.65a2.39,2.39,0,0,1-.38-.27l-.1-.11a1.7,1.7,0,0,1-.17-.19,1.25,1.25,0,0,1-.07-.13A1.24,1.24,0,0,1,320,452a1,1,0,0,1,0-.14,1.38,1.38,0,0,1,.85-1.41l31.24-18a4.65,4.65,0,0,1,4.21,0L371.19,441a1.47,1.47,0,0,1,.86,1.22A1,1,0,0,1,372,442.42Z"/><path class="cls-9" d="M337.83,460.38a2.7,2.7,0,0,1-1.29-.29L322,451.63l30.92-17.86a3.06,3.06,0,0,1,2.59,0l14.55,8.46-30.93,17.86A2.72,2.72,0,0,1,337.83,460.38Z"/><ellipse class="cls-14" cx="340.78" cy="452.58" rx="2.92" ry="2.19"/><ellipse class="cls-7" cx="348.97" cy="448.21" rx="2.92" ry="2.19"/><ellipse class="cls-14" cx="356.41" cy="444.67" rx="2.92" ry="2.19"/><path class="cls-57" d="M354.64,444.41c.26-.73,1.47-.35,2-.39a27.53,27.53,0,0,1,5.47-.07c.79.1,1.58.28,2.36.42,3.11.55,5.77.15,8.91-.19,0,0,.89,4,1,4.59,0,0-6.37-.91-9.36-1.67a18.25,18.25,0,0,1-4.09,1,3.22,3.22,0,0,1-.79,0,1.78,1.78,0,0,0-.85-.08,9.75,9.75,0,0,0-1.4.66.39.39,0,0,1-.52-.14.77.77,0,0,1,.15-.95,2.34,2.34,0,0,1,.57-.45,5.46,5.46,0,0,1,1.12-.43c.27-.08.52-.34.23-.58l-.12-.07c-1-.53-2.32.11-3.42-.32C355.42,445.57,354.4,445.09,354.64,444.41Z"/><path class="cls-58" d="M366.73,444.07c.64.08,12.06-.74,12.06-.74l1.44-3.91a12.73,12.73,0,0,1,2.43,4.49,12.37,12.37,0,0,1,.06,4.93c-.67.78-1.33,1.39-1.8,1.38-2.34,0-16.13-1.53-16.67-2.43C364.34,446.86,364.82,445.61,366.73,444.07Z"/><path class="cls-57" d="M359.89,451c-3.14.34-5.8.74-8.91.19a13.93,13.93,0,0,0-5.06-.4,9.31,9.31,0,0,0-1.81.53,7,7,0,0,1-2.59.42.21.21,0,0,0-.15.06.23.23,0,0,0-.26.23c0,.64.56.9,1.13.94a8.9,8.9,0,0,0,1.66-.06,3.54,3.54,0,0,0,3.48,2.05,18.25,18.25,0,0,0,4.09-1c3,.76,9.36,1.67,9.36,1.67C360.78,455,359.89,451,359.89,451Z"/><path class="cls-7" d="M392,526.19c-2,.51-5.58.23-7.29-.81-1.42,0-7.78-3.17-8.83-.39-.92,2.44,2.43,4.69,4.22,5.13,3.91.95,6.8,2.9,8.37,3.23,1.17.25,2.68.41,3.61-.51C393.15,531.72,393.06,527.64,392,526.19Z"/><path class="cls-59" d="M388.42,532.66c-1.57-.33-4.46-2.28-8.37-3.23-1.5-.36-4.08-2-4.34-4-.35,2.24,2.67,4.23,4.34,4.64,3.91.95,6.8,2.9,8.37,3.23,1.17.25,2.68.41,3.61-.51a2.29,2.29,0,0,0,.51-.93A4.68,4.68,0,0,1,388.42,532.66Z"/><path class="cls-59" d="M379.91,524.11a3.73,3.73,0,0,0-1.88,2.22c-.09.44.58.62.67.19a3,3,0,0,1,2.21-2.16A.92.92,0,0,0,379.91,524.11Z"/><path class="cls-59" d="M381.38,524.5a3.84,3.84,0,0,0-1.91,2.26c-.09.44.58.62.67.19a3,3,0,0,1,2.21-2.16A.89.89,0,0,0,381.38,524.5Z"/><path class="cls-59" d="M382.8,524.93a3.65,3.65,0,0,0-1.93,2.25c-.09.44.58.62.67.19a3,3,0,0,1,2.21-2.16A.86.86,0,0,0,382.8,524.93Z"/><path class="cls-60" d="M392.49,467.41c-.8,7.79-3,16.89-.43,27.52,2,8.57,0,31.4,0,31.4s-4.48,2.76-7.39-.4c0,0-.52-19.42-3-30.17-1.16-5-2.65-17.51-2.51-28.35Z"/><path class="cls-61" d="M379.08,524.07"/><path class="cls-7" d="M381.58,532.27c-2,.51-5.58.23-7.29-.81-1.42,0-7.78-3.17-8.83-.39-.92,2.44,2.43,4.69,4.22,5.13,3.91.95,6.8,2.9,8.37,3.23,1.17.25,2.68.41,3.61-.51C382.77,537.8,382.67,533.72,381.58,532.27Z"/><path class="cls-59" d="M378,538.74c-1.57-.33-4.46-2.28-8.37-3.23-1.5-.36-4.08-2-4.34-4-.35,2.24,2.67,4.23,4.34,4.64,3.91.95,6.8,2.9,8.37,3.23,1.17.25,2.68.41,3.61-.51a2.29,2.29,0,0,0,.51-.93A4.68,4.68,0,0,1,378,538.74Z"/><path class="cls-59" d="M369.52,530.19a3.73,3.73,0,0,0-1.88,2.22c-.09.44.58.62.67.19a3,3,0,0,1,2.21-2.16A.92.92,0,0,0,369.52,530.19Z"/><path class="cls-59" d="M371,530.58a3.84,3.84,0,0,0-1.91,2.26c-.09.44.58.62.67.19a3,3,0,0,1,2.21-2.16A.89.89,0,0,0,371,530.58Z"/><path class="cls-59" d="M372.41,531a3.65,3.65,0,0,0-1.93,2.25c-.09.44.58.62.67.19a3,3,0,0,1,2.21-2.16A.85.85,0,0,0,372.41,531Z"/><path class="cls-60" d="M382.34,467.54c-1.46.18-13-2.83-13-2.83-1.6,11.69.45,30.74,1.94,37.13,2.51,10.75,3,30.17,3,30.17,2.91,3.16,7.39.4,7.39.4s2-22.83,0-31.4C378.48,487.55,382.78,476.54,382.34,467.54Z"/><path class="cls-61" d="M368.69,530.14"/><path class="cls-7" d="M353.09,450.86c.64.08,12.06-.74,12.06-.74s2.83-7.74,3.05-8.19c.74-1.53,1.45-3.08,2.21-4.61,3.14-6.37,9.7-13.08,17.46-11.7a4.84,4.84,0,0,1,2.37,1,6.56,6.56,0,0,1,2.18,4.39,33.12,33.12,0,0,1-1,12.32c-1.32,5.07-2,9.46-.38,14.52,1.25,3.94,2.87,8.63,1.92,12.76a26.45,26.45,0,0,1-24.69,1c.51-7.42,3.23-17.84,3.35-19.21-.67.59-3.12,4.65-4.35,4.64-2.34,0-16.13-1.53-16.67-2.43C350.7,453.65,351.18,452.4,353.09,450.86Z"/><path class="cls-57" d="M368.9,410.32a7,7,0,0,1,4.66-2.63,9.23,9.23,0,0,1,7.4,2.54,8.37,8.37,0,0,1,2.7,6.93c.07.06-.41,10.72-.87,12.11a33.23,33.23,0,0,1-6.57.92c-.06-1.37-.66-4-1.64-4.91a4.38,4.38,0,0,1-2.91.76c-2.46-.43-3.75-4.33-4.33-6.34A10.71,10.71,0,0,1,368.9,410.32Z"/><path class="cls-60" d="M365.21,411.32a10.13,10.13,0,0,1,2.22-2.57,12.1,12.1,0,0,1,6.92-2.71,11.32,11.32,0,0,1,8.69,3.2c2.48,2.53,2.11,6.34,4.93,8.58a9.69,9.69,0,0,1,3.69,8.52.72.72,0,0,0,.34.68,5.85,5.85,0,0,1,1.85,7.6,5.78,5.78,0,0,1-2,2,.68.68,0,0,0-.12.12c1,4.42-3.17,7.49-7.27,7.58a5.41,5.41,0,0,1-4.91-2.68,60.76,60.76,0,0,0-3-5.34c-1-1.32-3.11-2.38-4.7-1.54a3.32,3.32,0,0,1-1.36-1.74c-.78-2.13.21-4.24,1.39-6A11.92,11.92,0,0,0,373,423.8a2.74,2.74,0,0,1,1-1.47,1.76,1.76,0,0,0,.8-1.64.71.71,0,0,0-1.34-.25c-.2.39-.35.78-.42.95-.16.36-.69.15-.7-.19,0-.59,0-1.2-.05-1.79a1.63,1.63,0,0,0-1.08-1.48.7.7,0,0,0-.35,0,19.08,19.08,0,0,1-4.66.4C365.06,418.12,363.87,413.57,365.21,411.32Z"/><g class="cls-4"><polygon class="cls-62" points="489.06 306.36 489.1 320.61 557.04 360.1 557.16 345.61 489.06 306.36"/><path class="cls-2" d="M491.73,304.75q-1.36.79-2.67,1.61l68.11,39.25,68.1-39.33c-16.86-10.61-41-17.26-67.95-17.26C531.74,289,508.55,295,491.73,304.75Z"/><polygon class="cls-63" points="557.16 345.61 557.21 359.86 649.54 359.86 649.5 345.61 557.16 345.61"/><g class="cls-4"><g class="cls-64"><g class="cls-4"><path class="cls-65" d="M649.5,345.61l0,14.25c.09-1,.14-1.93.15-2.91l0-14.25c0,1-.06,1.95-.15,2.91"/></g></g></g><path class="cls-12" d="M625.26,306.28c15.21,9.57,24.46,22.36,24.38,36.41,0,1-.06,1.95-.15,2.91-1.34,13.66-11.49,26-27.19,35q-1.37.79-2.79,1.54l-62.35-36.58Z"/><polygon class="cls-66" points="557.16 345.61 557.21 359.86 619.56 396.44 619.52 382.19 557.16 345.61"/><g class="cls-4"><g class="cls-67"><path class="cls-44" d="M619.52,382.19l0,14.25q1.42-.76,2.79-1.54c15.7-9.07,25.86-21.37,27.19-35l0-14.25c-1.34,13.66-11.49,26-27.19,35q-1.37.79-2.79,1.54"/></g></g></g><g class="cls-4"><path class="cls-15" d="M557.16,345.61,494.1,381.88c16.47,8.84,38.51,14.25,62.77,14.25s46.25-5.38,62.8-14.18Z"/><g class="cls-4"><path class="cls-55" d="M619.68,382c-16.55,8.8-38.6,14.18-62.8,14.18s-46.3-5.4-62.77-14.25l0,14.25c16.47,8.84,38.51,14.25,62.77,14.25s46.25-5.38,62.8-14.18Z"/></g></g><g class="cls-4"><path class="cls-56" d="M489.16,291.88c-15.24,9.56-24.6,22.32-24.68,36.34,0,1,0,1.95.12,2.91,1.25,14.42,12.33,27.32,29.44,36.51L557,331.3l-.29-.17Z"/><polygon class="cls-68" points="494.04 367.64 494.08 381.89 557.01 345.55 556.98 331.3 494.04 367.64"/></g><path class="cls-2" d="M494.11,381.89l0,0,0-14.24c-17.11-9.19-28.19-22.1-29.44-36.51-.07-.88-.12-1.77-.12-2.67l0,14.25c0,.23,0,.46,0,.69l0,13.57c0,.9,0,1.79.12,2.67C466,374,477,387,494.15,396.14Z"/><path class="cls-14" d="M62.19,192a10.18,10.18,0,0,1,2.15-5c4,4,4.11,14.38,5,21.06,3,3.13,8.57,5.79,10.26,6.55a.73.73,0,0,1,.41.81,8.67,8.67,0,0,1-1.45,3.32c-4-1.72-8.27-2-13.24-6.69-.19-.19-.48-.23-.57-.49C63.35,207.3,61.78,195.1,62.19,192Z"/><path class="cls-7" d="M77.5,269.28c1.69,1.38,4.84.66,5,.79A60.46,60.46,0,0,0,88,274.73c1.05.83,2.7,1.94,2.4,3.53-.53,2.85-5.1,2-6.82,1.1S80.51,277,78.88,276c-1.16-.72-2.31-1.1-2.49-2.56C76.28,272.58,77.2,269.25,77.5,269.28Z"/><path class="cls-69" d="M76.41,272.88c.22,1.41,1.35,1.79,2.51,2.51,1.66,1,3.11,2.51,4.83,3.38s5.56,1.61,6.68-.43c-.61,2.75-5.09,1.89-6.79,1S80.51,277,78.88,276c-1.16-.72-2.31-1.1-2.49-2.56A2.76,2.76,0,0,1,76.41,272.88Z"/><path class="cls-69" d="M84.34,274.89a3.24,3.24,0,0,1,2.25-1.3.56.56,0,0,1,.61.48,4.26,4.26,0,0,0-2.41,1.28C84.53,275.68,84.07,275.21,84.34,274.89Z"/><path class="cls-69" d="M83.06,273.88a3.24,3.24,0,0,1,2.25-1.3.56.56,0,0,1,.62.48,4.26,4.26,0,0,0-2.41,1.28C83.25,274.67,82.79,274.2,83.06,273.88Z"/><path class="cls-69" d="M81.78,272.86a3.24,3.24,0,0,1,2.26-1.3.56.56,0,0,1,.61.48,4.27,4.27,0,0,0-2.41,1.28C82,273.65,81.51,273.18,81.78,272.86Z"/><path class="cls-60" d="M54.59,220.4a24.68,24.68,0,0,0,13.27-1.92c-.07,1.41-.15,2.66-.15,2.66,5.4,3.82,16.23,10.25,16.94,14.68-.71,14-1.53,33.72-2,34.16-1.7,1.44-4.61.56-5.41-.25,0,0-3.07-11.6-2.08-29,0,0-18.89-8.37-20.12-12.94-.71-2.63-.57-3-.52-5.7C54.49,221.51,54.53,221,54.59,220.4Z"/><path class="cls-7" d="M69.91,274c1.69,1.38,4.84.66,5,.79a60.49,60.49,0,0,0,5.59,4.65c1.05.83,2.7,1.94,2.4,3.53-.53,2.85-5.1,2-6.82,1.1s-3.13-2.32-4.76-3.33c-1.16-.72-2.31-1.1-2.49-2.56C68.7,277.32,69.61,274,69.91,274Z"/><path class="cls-69" d="M68.83,277.61c.22,1.41,1.35,1.79,2.51,2.51,1.66,1,3.11,2.51,4.83,3.38s5.56,1.61,6.68-.43c-.61,2.75-5.09,1.89-6.79,1s-3.13-2.32-4.76-3.33c-1.16-.72-2.31-1.1-2.49-2.56A2.77,2.77,0,0,1,68.83,277.61Z"/><path class="cls-69" d="M76.75,279.63a3.24,3.24,0,0,1,2.25-1.3.56.56,0,0,1,.61.48,4.27,4.27,0,0,0-2.41,1.28C76.95,280.41,76.49,279.95,76.75,279.63Z"/><path class="cls-69" d="M75.47,278.62a3.24,3.24,0,0,1,2.25-1.3.56.56,0,0,1,.62.48,4.26,4.26,0,0,0-2.41,1.28C75.66,279.4,75.2,278.94,75.47,278.62Z"/><path class="cls-69" d="M74.2,277.6a3.24,3.24,0,0,1,2.25-1.3.56.56,0,0,1,.61.48,4.26,4.26,0,0,0-2.41,1.28C74.39,278.38,73.93,277.92,74.2,277.6Z"/><path class="cls-68" d="M49,218.95c3.74,1.75,7.18,2,11.4,1.53-.05,1.87-.27,5.4-.27,5.4,5.4,3.82,16.23,10.25,16.94,14.68-.71,14-1.53,33.72-2,34.16-1.7,1.44-4.61.56-5.41-.25,0,0-3.07-11.6-2.08-29,0-.33-16.19-8.3-18.24-10.41-2.2-2.26-2.45-5.24-2.4-8.23A20.12,20.12,0,0,1,49,218.95Z"/><path class="cls-7" d="M45.53,194.6a10.22,10.22,0,0,1,2.91-5.83,14.65,14.65,0,0,1,6.51-3.27,10.66,10.66,0,0,1,7,0c3.48,1.3,4.29,4.65,4.66,8,.11.08,1.9,26,1.9,26-1.57,2.83-10.71,7-20.82,1.21.39-1.53,1.3-4.1,1.94-5.83a5.31,5.31,0,0,0,0-3.61C48.26,207.26,45.1,197.86,45.53,194.6Z"/><path class="cls-14" d="M45.53,194.6a10.18,10.18,0,0,1,2.15-5c4,4,4.11,14.38,5,21.06a70.36,70.36,0,0,0,9.66,7.8,8.37,8.37,0,0,1-1.55,3.91,34.3,34.3,0,0,1-12.14-7.72c-.19-.19-.48-.23-.57-.49C46.69,209.91,45.12,197.71,45.53,194.6Z"/><polygon class="cls-53" points="83.43 201.96 77.44 222.47 64.28 227.73 69.08 207.75 83.43 201.96"/><path class="cls-70" d="M61.1,219.49c.2-.7.7-.53,1.27-.35a3.33,3.33,0,0,0,1.95.17,5.93,5.93,0,0,0,1.39-.94,1.78,1.78,0,0,1,.88-.25c0,.18-.3,1.22-.3,1.22s2.88,0,3.18,0a.49.49,0,0,1,.46.8l.19,0c.59-.13.84.77.25.91-.16,0-.32.05-.48.07.38.15.48.78,0,.88l-.15,0a.46.46,0,0,1-.21,0h-.09a.52.52,0,0,1-.43.61c-1.41.18-3.48.74-4.75-.42a8,8,0,0,1-2.55-.69C60.89,221.12,60.87,220.33,61.1,219.49Z"/><path class="cls-70" d="M75.5,217.81h.2a.49.49,0,0,1,.28-.88c.3,0,3.27-.62,3.27-.62l.36-1.22c0-.07.51.24.53.26a2,2,0,0,1,.89,1.48,3.17,3.17,0,0,1-.85,2.29,3,3,0,0,1-2,.87l-1,.07a.52.52,0,0,1-.55-.51H76.5a.46.46,0,0,1-.21,0h-.15c-.5,0-.54-.63-.2-.86-.16,0-.32,0-.49,0C74.84,218.75,74.89,217.81,75.5,217.81Z"/><path class="cls-60" d="M67,193.75a3.24,3.24,0,0,1-.34-2.06h0a4.8,4.8,0,0,0-.35-2.35c-.5-1.31-1.39-2.36-1.95-3.63a9.28,9.28,0,0,1-.62-5.88h0a10.93,10.93,0,0,0-2.47,2.37,4.18,4.18,0,0,0-1,2.66s0,.06,0,.09c-.64.4-1.24.65-1.27,1.7-.06,1.65,1.63,2.46,2.19,3.84a12.58,12.58,0,0,1,.51,3.74,12.43,12.43,0,0,0,1.6,5.73,4.43,4.43,0,0,0,3.3,2c1.33.11,2.95-.47,3.3-1.9.42-1.71-.87-3.21-1.73-4.53C67.76,194.93,67.35,194.36,67,193.75Z"/><path class="cls-71" d="M60.52,184.75s0,4.36,0,4.4c0,2.21-4.45,1.51-7.33-2.2v-7C53.17,179.66,60.52,184.4,60.52,184.75Z"/><path class="cls-70" d="M51.88,167.35a6.74,6.74,0,0,1,4.94-1.43,8.92,8.92,0,0,1,4.61,2.15A10.29,10.29,0,0,1,64.31,172a9.78,9.78,0,0,1,.5,4.84c-.74,6.27-4,8.63-5,9a6.76,6.76,0,0,1-5.44-2.85A19.11,19.11,0,0,0,50.82,179a3.85,3.85,0,0,1-.31-.28C48.32,176.38,47.69,171,51.88,167.35Z"/><path class="cls-60" d="M60.49,165.84a10.66,10.66,0,0,0-10.08.06,10,10,0,0,0-3.81,4.18,18.1,18.1,0,0,0-1.11,2.67c-.6,1.8-.85,3.66-1.35,5.48a19.91,19.91,0,0,1-2.42,5.66c-1,1.62-2.23,3.3-2.32,5.29a5.87,5.87,0,0,0,1.29,3.72,3.81,3.81,0,0,1,.71,3.77c-.49,1.22-1.37,2.23-1.84,3.46a7.78,7.78,0,0,0-.43,4.18,6.76,6.76,0,0,0,3.8,4.93,3.52,3.52,0,0,0,1.71.34,3.92,3.92,0,0,0,2.18-1.14C46,204,44.39,192.74,48,192.79c2.29,0,3.3,4.6,3.38,5.91.2,3.16-2.51,9.09,1.06,10.76a4.37,4.37,0,0,0,5-1.17c1.28-1.93.56-4.43-.71-6.14s-2.93-2.63-2.42-5.19c.27-1.35.88-2.61,1.13-4a5.75,5.75,0,0,0-.16-3.17,11.65,11.65,0,0,0-1.58-2.27,6.88,6.88,0,0,0,.65-3.44,10.65,10.65,0,0,0-.63-2.88c-.07-.18-.32-1.12-.54-1.19-.78-.22-1.72-.93-1.28-1.82s1.72-.39,2,.43l.1,0c2.48-1.42,5-3,5.66-6a.53.53,0,0,0,0-.21c2.16.54,5.84.85,5.08,4.81C66.44,173.53,64.63,168.05,60.49,165.84Z"/><path class="cls-72" d="M415.9,299s-.63,15.6-1.44,17.08c-1.9,3.46-6.86,8.88-7,9.56-.4,2,1.37,4.13,3.24,3.91,1.19-.14,10.13-5.55,10.13-5.55C421.28,321,416,298.83,415.9,299Z"/><path class="cls-60" d="M427.38,391.13c-1.6,1.31-4.59.63-4.71.75a57.4,57.4,0,0,1-5.3,4.42c-1,.79-2.56,1.84-2.28,3.35.5,2.71,4.84,1.87,6.47,1s3-2.2,4.51-3.16c1.1-.68,2.19-1,2.36-2.43C428.53,394.26,427.66,391.1,427.38,391.13Z"/><path class="cls-2" d="M428.41,394.54c-.21,1.33-1.28,1.7-2.38,2.38-1.57,1-3,2.38-4.59,3.21s-5.27,1.52-6.33-.41c.58,2.61,4.83,1.79,6.45,1s3-2.2,4.51-3.16c1.1-.68,2.19-1,2.36-2.43A2.62,2.62,0,0,0,428.41,394.54Z"/><path class="cls-14" d="M420.89,396.45a3.07,3.07,0,0,0-2.14-1.23.53.53,0,0,0-.58.46,4,4,0,0,1,2.29,1.21C420.7,397.2,421.14,396.76,420.89,396.45Z"/><path class="cls-14" d="M422.1,395.49a3.07,3.07,0,0,0-2.14-1.23.53.53,0,0,0-.58.46,4,4,0,0,1,2.29,1.21C421.92,396.24,422.36,395.8,422.1,395.49Z"/><path class="cls-14" d="M423.31,394.53a3.07,3.07,0,0,0-2.14-1.23.53.53,0,0,0-.58.46,4,4,0,0,1,2.29,1.21C423.13,395.27,423.57,394.83,423.31,394.53Z"/><path class="cls-60" d="M433.18,374.56c-.62,2-3.48,3.06-3.52,3.23a57.42,57.42,0,0,1-2,6.61c-.4,1.21-1.12,2.95,0,4.05,1.91,2,5.07-1.11,6-2.7s1.26-3.47,2-5.13c.54-1.18,1.25-2.08.62-3.33C435.87,376.54,433.4,374.38,433.18,374.56Z"/><path class="cls-2" d="M435.92,376.84c.56,1.23-.13,2.13-.67,3.3-.77,1.68-1.15,3.62-2.05,5.21s-3.56,4.18-5.51,3.16c1.92,1.86,5-1.18,5.91-2.75s1.26-3.47,2-5.13c.54-1.18,1.25-2.08.62-3.33A2.62,2.62,0,0,0,435.92,376.84Z"/><path class="cls-14" d="M430.71,382.59a3.07,3.07,0,0,0-2.46.16.53.53,0,0,0-.24.7,4,4,0,0,1,2.57-.25C431,383.31,431.09,382.7,430.71,382.59Z"/><path class="cls-14" d="M431.19,381.11a3.07,3.07,0,0,0-2.46.16.53.53,0,0,0-.24.7,4,4,0,0,1,2.57-.25C431.45,381.83,431.57,381.23,431.19,381.11Z"/><path class="cls-14" d="M431.67,379.64a3.07,3.07,0,0,0-2.46.16.53.53,0,0,0-.24.7,4,4,0,0,1,2.57-.25C431.93,380.36,432,379.75,431.67,379.64Z"/><path class="cls-60" d="M434.78,375.43c-.47-1.37-2.67-11.14-15.92-24.49,0,0,4.67-11.19,5.84-15.53.33-1.21,2-8.08,2.12-10.38-2.25.23-9.2-1.9-10.8-2.93-1.16,4.11-6.16,28.22-5,32.56,9.17,13,17.68,24,18.15,24.41C429.46,379.24,434.23,377.14,434.78,375.43Z"/><path class="cls-68" d="M436.31,332.91c-.06-3.2-1-6.28-1.28-9.47A45.12,45.12,0,0,1,423.5,326c-.18,3.7.46,11.39.46,11.39-1.08,3.44-4.71,18.86-3.49,23.28,1.37,12.78,1.58,30.72,2.06,31.13,1.62,1.36,4.37.53,5.13-.23,0,0,4.39-18.86.61-34.62,0,0,5.86-12,7-16.34A27.61,27.61,0,0,0,436.31,332.91Z"/><path class="cls-73" d="M437.61,299.42a9.7,9.7,0,0,0-2.76-5.53,13.9,13.9,0,0,0-6.18-3.1,13.25,13.25,0,0,0-7-.21,7.14,7.14,0,0,0-5.68,6.1c-.1.08-.18,26.35-.18,26.35,1.49,2.68,10.16,6.63,19.76,1.15-.37-1.46-1.23-3.89-1.84-5.53a5,5,0,0,1,0-3.43C435,311.44,438,302.52,437.61,299.42Z"/><path class="cls-72" d="M437.65,298.83a8.75,8.75,0,0,0-2.61-4.74c-3.31,4.14-2.55,18-2.21,19.29l-13.31,7.4c-.27.15.8,3.22,2.21,3.09,1.22-.11,13.63-5.64,14.16-6.28C436.58,316.77,438.16,301.65,437.65,298.83Z"/><path class="cls-74" d="M420.63,286.88a6.08,6.08,0,0,0,3.06,4.8l0,0c0-.1.08-.2.11-.31.66-2.25-3.32-5.21-3.31-5.16Q420.6,286.57,420.63,286.88Z"/><path class="cls-71" d="M423.39,290.07s0,4.14,0,4.18c0,2.1,4.22,1.43,7-2.09v-6.64C430.36,285.25,423.39,289.74,423.39,290.07Z"/><path class="cls-57" d="M431.58,273.57a6.4,6.4,0,0,0-4.69-1.36,8.46,8.46,0,0,0-4.38,2,9.77,9.77,0,0,0-2.73,3.74,9.28,9.28,0,0,0-.48,4.59c.7,6,3.78,8.19,4.77,8.58a6.41,6.41,0,0,0,5.17-2.7,18.13,18.13,0,0,1,3.34-3.88,3.66,3.66,0,0,0,.29-.27C435,282.13,435.56,277,431.58,273.57Z"/><path class="cls-60" d="M438,285.24c.1-4.11-.44-8.52-3.64-11.44a9.63,9.63,0,0,0-10.93-1.66c-3.94,2.1-5.65,7.29-4.05,10.86-.72-3.76,2.77-4,4.82-4.56a.5.5,0,0,0,0,.2c.65,2.81,3,4.35,5.37,5.7l.08,0c.2-.81,1.43-1.41,1.89-.47s-.48,1.51-1.22,1.72a26.82,26.82,0,0,0,0,6.09c-6,3.56-6.7,6.85-6.75,9.22-.07,3.18,2.63,6.95,4.77,8.41-1.51-4,1.95-5.11,2.88-7.93a11.45,11.45,0,0,0,.26-2.39c.25-2.11.53-5.39,2-6.16C435.43,292.66,437.94,287.52,438,285.24Z"/><path class="cls-57" d="M420.15,320.59a15.53,15.53,0,0,1-4.78,1.63c-1.18.06-1.89,1.68-3.16,1.75a.49.49,0,0,0-.37.82c.47.51,1.84.19,2.82-.82a.43.43,0,0,0,0,.08,1,1,0,0,0,.47.86.8.8,0,0,0,.21.08.48.48,0,0,0,.05.23.92.92,0,0,0,.67.55h0a.89.89,0,0,0,.93.68,1.1,1.1,0,0,0,.73-.28,4.87,4.87,0,0,0,2.26-1.65,11.25,11.25,0,0,0,1.37-1.6C421.78,322.12,421.33,319.76,420.15,320.59Z"/><g class="cls-4"><polygon class="cls-53" points="395.63 333.85 410.88 324.99 421.82 331.31 406.58 340.17 395.63 333.85"/></g><polygon class="cls-10" points="401.52 332.54 400.94 332.2 400.36 332.54 400.94 332.88 401.52 332.54"/><polygon class="cls-10" points="401.79 332.69 401.21 333.03 408.55 337.24 409.13 336.9 401.79 332.69"/><polygon class="cls-10" points="402.55 331.89 401.97 331.55 401.39 331.89 401.97 332.23 402.55 331.89"/><polygon class="cls-10" points="402.82 332.04 402.24 332.38 409.58 336.59 410.16 336.25 402.82 332.04"/><polygon class="cls-10" points="403.58 331.29 403 330.95 402.42 331.29 403 331.63 403.58 331.29"/><polygon class="cls-10" points="403.84 331.44 403.26 331.78 410.6 335.99 411.18 335.65 403.84 331.44"/><path class="cls-57" d="M408.91,325.64a6.7,6.7,0,0,0-2.71.88,6.41,6.41,0,0,1-1,.71c-.15.08-.3.17-.46.24a1.47,1.47,0,0,0-.61.4,1.53,1.53,0,0,0-.27.85,3.64,3.64,0,0,0-.05,1.11c.13.55.7.51,1,.12a1.2,1.2,0,0,0,.25-.67,1.45,1.45,0,0,1,.64-1.17l3.64-2.26A.43.43,0,0,0,408.91,325.64Z"/><path class="cls-2" d="M433.45,292.92a4.19,4.19,0,0,0-3.55-1.47c-1,.19-1,.87-.69,1a4.77,4.77,0,0,1,3.19,1.68C432.59,294.45,433.85,293.88,433.45,292.92Z"/><path class="cls-57" d="M197.14,403.65a76.15,76.15,0,0,1-11-6.9,24.63,24.63,0,0,0-4.42-2.85,10.76,10.76,0,0,0-2.38-.64,9.19,9.19,0,0,1-3.17-1.3.28.28,0,0,0-.2,0,.3.3,0,0,0-.44.09c-.43.72,0,1.38.62,1.81a11.61,11.61,0,0,0,1.9,1.06,4.62,4.62,0,0,0,2.48,4.66c.43.22.91.32,1.35.51.66.28,1.17.78,1.83,1a3.55,3.55,0,0,0,2.07.1c2.81,2.89,9.29,8.24,9.29,8.24C195.37,408.75,197.14,403.65,197.14,403.65Z"/><path class="cls-56" d="M226.3,482.69c-2,.52-5.72.23-7.48-.83-1.46,0-8-3.25-9.06-.4-.95,2.5,2.49,4.81,4.33,5.26,4,1,7,3,8.58,3.31,1.2.25,2.75.42,3.71-.52C227.52,488.36,227.42,484.18,226.3,482.69Z"/><path class="cls-59" d="M222.67,489.33c-1.61-.34-4.57-2.34-8.58-3.31-1.54-.37-4.19-2.06-4.46-4.06-.36,2.3,2.74,4.34,4.46,4.75,4,1,7,3,8.58,3.31,1.2.25,2.75.42,3.71-.52a2.35,2.35,0,0,0,.53-1A4.8,4.8,0,0,1,222.67,489.33Z"/><path class="cls-59" d="M213.94,480.55a3.82,3.82,0,0,0-1.93,2.28c-.09.45.59.64.69.19a3.09,3.09,0,0,1,2.26-2.21A.94.94,0,0,0,213.94,480.55Z"/><path class="cls-59" d="M215.45,481a3.94,3.94,0,0,0-2,2.32c-.09.45.59.64.69.19a3.09,3.09,0,0,1,2.26-2.21A.91.91,0,0,0,215.45,481Z"/><path class="cls-59" d="M216.9,481.4a3.74,3.74,0,0,0-2,2.31c-.09.45.59.64.69.19a3.09,3.09,0,0,1,2.26-2.21A.88.88,0,0,0,216.9,481.4Z"/><path class="cls-60" d="M227.55,421.24c-1.38.17-14.25,1-14.25,1,.27,4.95,2.16,26.62,2.95,32.78.75,5.86,2.57,26.84,2.57,26.84,2.75,3,7.48.83,7.48.83s1.32-23.85.57-30.74C225.46,438.92,228,429.76,227.55,421.24Z"/><path class="cls-75" d="M214,480.54"/><path class="cls-56" d="M218.39,487.65c-2,.52-5.72.23-7.48-.83-1.46,0-8-3.25-9.06-.4-.95,2.5,2.49,4.81,4.33,5.26,4,1,7,3,8.58,3.31,1.2.25,2.75.42,3.71-.52C219.61,493.33,219.51,489.14,218.39,487.65Z"/><path class="cls-59" d="M214.76,494.29c-1.61-.34-4.57-2.34-8.58-3.31-1.54-.37-4.19-2.06-4.46-4.06-.36,2.3,2.74,4.34,4.46,4.75,4,1,7,3,8.58,3.31,1.2.25,2.75.42,3.71-.52a2.35,2.35,0,0,0,.53-1A4.8,4.8,0,0,1,214.76,494.29Z"/><path class="cls-59" d="M206,485.52a3.82,3.82,0,0,0-1.93,2.28c-.09.45.59.64.69.19a3.09,3.09,0,0,1,2.26-2.21A.94.94,0,0,0,206,485.52Z"/><path class="cls-59" d="M207.54,485.91a3.94,3.94,0,0,0-2,2.32c-.09.45.59.64.69.19a3.09,3.09,0,0,1,2.26-2.21A.91.91,0,0,0,207.54,485.91Z"/><path class="cls-59" d="M209,486.36a3.74,3.74,0,0,0-2,2.31c-.09.45.59.64.69.19a3.09,3.09,0,0,1,2.26-2.21A.88.88,0,0,0,209,486.36Z"/><path class="cls-68" d="M221,426c-1.38.17-15.63,1.16-15.63,1.16.27,4.95,2.16,26.62,2.95,32.78.75,5.86,2.57,26.84,2.57,26.84,2.75,3,7.48.83,7.48.83s1.31-23.85.57-30.74C217.56,443.88,221.44,434.56,221,426Z"/><path class="cls-75" d="M206.06,485.5"/><path class="cls-12" d="M226.4,387.09a6.09,6.09,0,0,0-4.49-5.56,11.79,11.79,0,0,0-7.38.73A32.78,32.78,0,0,0,204,389.19a18.29,18.29,0,0,0-4.25,7.3c-.72,2.07-1.55,4.1-2.31,6.15l-1.57-1a8.26,8.26,0,0,0-2.32,7.33s4.89,3.91,6,3.9c3.17,0,4.68-6.43,5.33-8.12-1.15,12.22-.8,22.66-.51,23.51,12.72,5.76,23.86-.65,23.89-2.82C228.34,420.18,226.92,395.83,226.4,387.09Z"/><path class="cls-57" d="M221.36,366.8a7.32,7.32,0,0,0-7-3.84c-2.7.14-5.61,1.53-6.51,4.25-1.18,3.54-2.39,7.88-.62,11.33C213,389.76,223.54,370.82,221.36,366.8Z"/><path class="cls-57" d="M218.85,377a.36.36,0,0,0-.54-.31c-1.89,1.13-6,.82-6,1.09,0,0-.79,5.63-1.08,7.41a.37.37,0,0,0,.25.44,6.39,6.39,0,0,0,6.19-1.26,3.38,3.38,0,0,0,1.45-2.19A35.19,35.19,0,0,0,218.85,377Z"/><path class="cls-60" d="M223.62,367.34a6.73,6.73,0,0,0-1.16-2.1,8.42,8.42,0,0,0-7-3.26l-.07,0h0a3.78,3.78,0,0,0-.48-.35,3,3,0,0,0-1.37-.42c-.53,0-1.59.17-1.82.76a.34.34,0,0,0-.15-.08c-3-.8-6.18,1.32-5.51,4.62.63,3.13,3.81,4.91,6.83,5.19,0,0,.05,1.51.07,3.12a2.41,2.41,0,0,1,2-.95,1.43,1.43,0,0,1,1.37,1.73c-.37,1.18-2.09,1.66-3.35,1.32,0,.84,0,1.49,0,1.64a1.86,1.86,0,0,0,.38,1.26,1.62,1.62,0,0,0,.78.41c.48.13,1,.16,1.46.24a3.35,3.35,0,0,1,1.09.35,8.21,8.21,0,0,0,.88.55c1,.42,1.6-.86,2-1.55a18,18,0,0,1,1.81-2.23A8.79,8.79,0,0,0,223,375.4a11.88,11.88,0,0,0,1.13-5.2A9.3,9.3,0,0,0,223.62,367.34Z"/></g></g></g></svg>