<svg xmlns="http://www.w3.org/2000/svg" viewBox="0 0 600 79.98"><defs><style>.cls-1{fill:#231f20;}.cls-2{fill:#636363;}</style></defs><title>Asset 81</title><g id="Layer_2" data-name="Layer 2"><g id="Layer_1-2" data-name="Layer 1"><polygon class="cls-1" points="478.34 38.6 487.47 42.57 483.24 46.93 478.34 38.6"/><polygon class="cls-1" points="504.51 38.78 492.45 42.24 496.51 47.81 504.51 38.78"/><path class="cls-1" d="M538.81,23.8V11.28H523a.57.57,0,0,0-.33,1Z"/><path class="cls-1" d="M531,0h-9.35V11.31a.58.58,0,0,0,1.05.34Z"/><path class="cls-1" d="M475.76,11.28v20.3l33-4.6.12,10.79s.08,2.13.08,3a17.09,17.09,0,0,1-33.31,5.39c0,4.16.17,16.77.17,16.77s0,0,0,.07A16.43,16.43,0,0,0,482,74.49Q488.68,80,500.12,80q10,0,16.33-6.16t6.37-16.53V12.07a.79.79,0,0,0-.79-.79Z"/><path class="cls-2" d="M298.42,78V11.38h11.37L345.9,70.85V11.38h7.34V78H341.87L305.76,18.45V78Z"/><path class="cls-2" d="M376.31,78V11.38h7.43V78Z"/><path class="cls-2" d="M406.72,78V11.38h11.37L454.2,70.85V11.38h7.34V78H450.17L414.06,18.45V78Z"/><path class="cls-2" d="M538.52,78l24.61-66.63h12.13L600,78h-7.61L586,61h-33.7l-6.22,17ZM554.8,54.39h28.86L570.38,18.45H568Z"/><path class="cls-2" d="M0,78V11.38H18V78Z"/><path class="cls-2" d="M34.37,78V11.38H84.45V26.24H52.23V37.78H83.51V50.63H52.23V63.16H85.16V78Z"/><path class="cls-2" d="M99.81,78V11.38h18V62.53h29.8V78Z"/><path class="cls-2" d="M159.24,78V26.24H142.1V11.38h52.27V26.24h-17V78Z"/><path class="cls-2" d="M203.24,57.38h17.14v.67q0,3.63,1.92,5.06t6.8,1.43h4.47q4.07,0,5.71-1.1t1.63-3.87V56.67a4.09,4.09,0,0,0-1.3-3.4q-1.3-1-5.86-1.57l-14.5-1.57q-8.1-.89-11.84-5.08t-3.74-12.42V28.52a22,22,0,0,1,1.48-8.3,14.77,14.77,0,0,1,4.3-6,14.16,14.16,0,0,1,5.86-2.84,47.46,47.46,0,0,1,10.29-.83h10.69q10,0,15.26,4t5.28,11.64V30.8H239.71v-.72q0-3-1.41-4.16t-5.08-1.16H229.1q-4.25,0-5.84,1a3.78,3.78,0,0,0-1.59,3.47V32q0,3.67,7.2,4.48L242.08,38q8.55,1,12.75,5T259,54.21v6.4q0,8.28-5.15,13.25t-13.83,5H225.52q-11.68,0-17-4T203.24,62Z"/></g></g></svg>