<svg xmlns="http://www.w3.org/2000/svg" viewBox="0 0 600 139.82"><defs><style>.cls-1{fill:#571582;}.cls-2{fill:#f87494;}</style></defs><title>Asset 80</title><g id="Layer_2" data-name="Layer 2"><g id="Layer_1-2" data-name="Layer 1"><path class="cls-1" d="M61.16,113.62a56.08,56.08,0,0,1-13.28,6.93,40.15,40.15,0,0,1-13.35,2.27q-15.61,0-25.08-10.26T0,85.34Q0,69.5,8.93,59.88t23.49-9.62q13.51,0,21.8,9.13T62.52,83.6v.3H8.15v.83q0,13.66,7.32,22.1a23.9,23.9,0,0,0,18.93,8.45,37.07,37.07,0,0,0,13.35-2.46,55.92,55.92,0,0,0,13.42-7.73Zm-52-36.35H53.4q-1.21-9.21-7.17-14.79A20.32,20.32,0,0,0,31.83,56.9a21.78,21.78,0,0,0-15,5.66A23.73,23.73,0,0,0,9.13,77.26Z"/><path class="cls-1" d="M254.83,114.52A44.62,44.62,0,0,1,244,120.89a29.08,29.08,0,0,1-10.52,1.93q-8.6,0-13.95-5a16.78,16.78,0,0,1-5.36-12.89q0-11.55,10.45-18.18t30.05-7.47V71.91q0-7.84-3.73-11.43T239.06,56.9a27.43,27.43,0,0,0-10.18,2,50.9,50.9,0,0,0-11.16,6.49V57.8A50.71,50.71,0,0,1,229,52a32.11,32.11,0,0,1,10.67-1.89q12,0,17.35,5.54t5.35,18.06v36.5a7.13,7.13,0,0,0,.61,3.36,2,2,0,0,0,1.88,1.1q1.82,0,6.27-3.93c.7-.65,1.23-1.13,1.58-1.43l.08,7a33.08,33.08,0,0,1-6.26,4.75,10.8,10.8,0,0,1-5.06,1.59,5.85,5.85,0,0,1-4.86-1.93Q255.05,118.83,254.83,114.52Zm-.15-7.24V85.48q-15.08.23-23.84,5.43t-8.75,13.73a10.53,10.53,0,0,0,3.62,8.45q3.62,3.09,10,3.09a21,21,0,0,0,8.9-2.15A48.13,48.13,0,0,0,254.68,107.28Z"/><path class="cls-1" d="M346.3,113.62A56.08,56.08,0,0,1,333,120.55a40.15,40.15,0,0,1-13.35,2.27q-15.61,0-25.08-10.26t-9.46-27.23q0-15.84,8.93-25.46t23.49-9.62q13.51,0,21.8,9.13t8.29,24.21v.3H293.28v.83q0,13.66,7.32,22.1a23.9,23.9,0,0,0,18.93,8.45,37.07,37.07,0,0,0,13.35-2.46,55.92,55.92,0,0,0,13.42-7.73Zm-52-36.35h44.27q-1.21-9.21-7.17-14.79A20.32,20.32,0,0,0,317,56.9a21.78,21.78,0,0,0-15,5.66A23.73,23.73,0,0,0,294.26,77.26Z"/><path class="cls-1" d="M365,108.64a42.88,42.88,0,0,0,10.41,5.24,32.94,32.94,0,0,0,10.41,1.7q6.72,0,10.56-3.17a10.64,10.64,0,0,0,3.85-8.67q0-8.06-14-13.19c-2.41-.91-4.29-1.61-5.65-2.11q-7.69-3-11.54-7.8a17.61,17.61,0,0,1-3.85-11.36,17.46,17.46,0,0,1,6.15-13.8q6.15-5.37,15.95-5.36a31.62,31.62,0,0,1,9.17,1.43A44.68,44.68,0,0,1,406.18,56v8a48.86,48.86,0,0,0-10.1-5.09,28,28,0,0,0-9.36-1.7,15.3,15.3,0,0,0-10.18,3.36,10.68,10.68,0,0,0-4,8.56,9.79,9.79,0,0,0,3.66,7.73q3.66,3.13,13.62,6.6,10.56,3.69,14.48,8t3.93,11.42q0,9.28-6.15,14.59t-16.85,5.32a35.26,35.26,0,0,1-10.37-1.51,40.82,40.82,0,0,1-9.84-4.6Z"/><path class="cls-1" d="M439.89,104.19q0,7,1.93,9.28c1.28,1.51,3.58,2.26,6.89,2.26a18,18,0,0,0,5.36-.86,37.89,37.89,0,0,0,6.26-2.68v7.62A35.07,35.07,0,0,1,454,122a28,28,0,0,1-6.29.72q-8.68,0-12.22-4.15T431.9,104V58.1H417V51.62H432.2V35.71l5.88-6.79h1.81v22.7H458.6V58.1H439.89Z"/><path class="cls-1" d="M533.1,113.62a56.08,56.08,0,0,1-13.28,6.93,40.15,40.15,0,0,1-13.35,2.27q-15.61,0-25.08-10.26t-9.46-27.23q0-15.84,8.93-25.46t23.49-9.62q13.51,0,21.8,9.13t8.29,24.21v.3H480.08v.83q0,13.66,7.32,22.1a23.9,23.9,0,0,0,18.93,8.45,37.07,37.07,0,0,0,13.35-2.46,55.92,55.92,0,0,0,13.42-7.73Zm-52-36.35h44.27q-1.21-9.21-7.17-14.79a20.32,20.32,0,0,0-14.41-5.58,21.78,21.78,0,0,0-15,5.66A23.73,23.73,0,0,0,481.07,77.26Z"/><path class="cls-1" d="M556.86,121.31V51.62h7.77v17.2q6.49-10,11.84-14.19a17.82,17.82,0,0,1,11.16-4.22,15.47,15.47,0,0,1,6.15,1.28,25.88,25.88,0,0,1,6.22,4l-4.23,7.4A28.28,28.28,0,0,0,590,59.31a11.92,11.92,0,0,0-5-1.21q-4.68,0-9.5,4.53T564.63,77.26v44Z"/><polygon class="cls-2" points="138.02 74.91 86.4 13.55 86.4 121.85 92.58 121.85 101.22 121.85 129.56 121.85 143.97 121.85 173.48 121.85 180.97 121.85 189.19 121.85 189.19 13.55 138.02 74.91"/><rect class="cls-1" x="86.4" y="133.02" width="102.78" height="6.8"/><circle class="cls-1" cx="86.4" cy="5.1" r="5.1"/><circle class="cls-1" cx="189.18" cy="5.1" r="5.1"/></g></g></svg>