<svg xmlns="http://www.w3.org/2000/svg" viewBox="0 0 214.01 54.34"><defs><style>.cls-1{fill:#354b60;}.cls-2{fill:#009aff;}.cls-2,.cls-3{fill-rule:evenodd;}.cls-3{fill:#fff;}</style></defs><title>Asset 5</title><g id="Layer_2" data-name="Layer 2"><g id="Layer_1-2" data-name="Layer 1"><path class="cls-1" d="M100.39,39.85A1.1,1.1,0,0,1,99.24,39l-.34-2.63a10.61,10.61,0,0,1-8.1,3.91c-5.35,0-8.17-3.7-8.17-9.25V15.38h4.29V31c0,3.7,1.69,5.82,5.13,5.82a8.78,8.78,0,0,0,6.6-3.38v-18h4.29V39.85Zm21-33c0,.22-.17.34-.46.34s-1-.14-2-.14c-3.18,0-5.42,1.74-5.42,6.55v3h7.78v1.71h-7.73V39.85h-2.29V18.33l-3.37-.22c-.46,0-.7-.24-.7-.6v-.94h4.07v-3c0-5.51,3-8.29,7.35-8.29a8.06,8.06,0,0,1,2.84.51l-.07,1.11Zm19.8,33a.82.82,0,0,1-.89-.68L140,36.11c-2.65,2.59-5,4.13-9,4.13-3.28,0-6.41-1.86-6.41-6.21,0-4.08,4.43-7.05,15.3-7.32V24.2c0-4.44-1.93-6.93-5.69-6.93-4.63,0-6.31,3.09-7.28,3.09a.8.8,0,0,1-.72-.43l-.41-.7a11.55,11.55,0,0,1,8.65-3.82c5.13,0,7.69,3.43,7.69,8.79V39.85Zm-1.33-11.6c-9.13.27-13.08,2.3-13.08,5.68s2.26,4.64,4.77,4.64c3.78,0,6-1.74,8.31-4.06V28.25Zm19.32,11.91a8.35,8.35,0,0,1-7.42-3.86l-.14,2.95a.59.59,0,0,1-.65.6h-1.4V4.7h2.31V20c2.12-2.83,4.91-4.59,8.41-4.59,5.88,0,9.35,4.06,9.35,12.25,0,7-3.73,12.49-10.46,12.49Zm.46-22.9c-3.18,0-5.73,1.74-7.76,4.66V34.61a7.46,7.46,0,0,0,6.87,3.74c5.64,0,8.53-4.35,8.53-10.68,0-7.15-2.72-10.41-7.64-10.41Zm33.8,9.61H176.12v.46c0,7.22,3.47,11,8.87,11,4.84,0,6.94-2.58,7.56-2.58A.53.53,0,0,1,193,36l.63.77c-1.54,1.93-5.23,3.41-8.84,3.41-6.58,0-11-4.66-11-12.83,0-6.88,4-11.91,10.82-11.91,5.4,0,9.42,3.79,9.42,10.53,0,.7-.19.92-.65.92Zm-8.75-9.74c-4.91,0-7.9,3.24-8.48,8.26H192c0-5.15-3-8.26-7.32-8.26Zm29,.75a.43.43,0,0,1-.48.39,11.54,11.54,0,0,0-3.37-.63c-3.64,0-5.85,2.32-7.3,6.57V39.85h-2.29v-24h1.2c.55,0,.77.19.8.75l.19,5.07c1.54-3.89,4.07-6.23,7.83-6.23a7.7,7.7,0,0,1,3.73.89l-.31,1.59Z"/><path class="cls-2" d="M27.1,0A27.17,27.17,0,1,1,0,27.17,27.13,27.13,0,0,1,27.1,0Z"/><path class="cls-3" d="M36.13,27.77a1.21,1.21,0,0,0,0,2.42h4.82a12.06,12.06,0,0,1-12,12.08h-.19V24.15a6,6,0,0,1,6-6h6.21v9.66ZM13.25,30.19V15.7h.19a12.06,12.06,0,0,1,12,12.08V42.27h-.19a12.06,12.06,0,0,1-12-12.08Z"/></g></g></svg>