<svg xmlns="http://www.w3.org/2000/svg" viewBox="0 0 13.94 24.68"><title>Asset 69</title><g id="Layer_2" data-name="Layer 2"><g id="Layer_1-2" data-name="Layer 1"><path d="M12.55,0H1.39A1.39,1.39,0,0,0,0,1.39V23.29a1.39,1.39,0,0,0,1.39,1.39H12.55a1.39,1.39,0,0,0,1.39-1.39V1.39A1.39,1.39,0,0,0,12.55,0ZM4.84,1.33H9.1V1.7H4.84ZM7,24.15a.83.83,0,1,1,.83-.83A.83.83,0,0,1,7,24.15Zm5.65-3.09a.61.61,0,0,1-.61.61H1.92a.61.61,0,0,1-.61-.61V3.29a.61.61,0,0,1,.61-.61H12a.61.61,0,0,1,.61.61Z"/></g></g></svg>