<svg xmlns="http://www.w3.org/2000/svg" viewBox="0 0 640.93 423.43"><defs><style>.cls-1{isolation:isolate;}.cls-2{fill:#d4ecff;}.cls-3{fill:#97dfff;}.cls-4{fill:#7eceff;}.cls-5{fill:#fff;}.cls-6{fill:#55c3fe;}.cls-7{fill:#3498db;}.cls-8{fill:#232330;}.cls-9{fill:#ffc2b0;}.cls-10{fill:#c6c6c6;}.cls-11{fill:#f6abc9;}.cls-12{fill:#fe7386;}.cls-13{fill:#daf2fe;}.cls-14{fill:#112f5b;}.cls-15{fill:#fc88a1;}.cls-16{fill:#113b63;}.cls-17{fill:#ef92a9;mix-blend-mode:multiply;}.cls-18{fill:#ffa9b8;}.cls-19{fill:#f0f6ff;}.cls-20{fill:#12121e;}</style></defs><title>Asset 60</title><g class="cls-1"><g id="Layer_2" data-name="Layer 2"><g id="Layer_1-2" data-name="Layer 1"><path class="cls-2" d="M377.21,44.61,7.14,247.12a13.74,13.74,0,0,0-.54,23.79L254.39,421.43a13.74,13.74,0,0,0,14,.14L634.1,209.06a13.74,13.74,0,0,0,0-23.77L390.67,44.77A13.74,13.74,0,0,0,377.21,44.61Z"/><polygon class="cls-3" points="495.9 135 387.34 72.33 229.6 163.99 76.45 180.67 76.45 252.99 290.4 376.52 601.29 195.85 601.29 123.52 495.9 135"/><polygon class="cls-4" points="290.4 304.19 290.4 376.52 76.45 252.99 76.45 180.67 290.4 304.19"/><polygon class="cls-5" points="90.9 228.32 79.18 235.43 185.88 288.78 90.9 228.32"/><polygon class="cls-6" points="291.89 360.34 83.47 240.01 83.47 243.16 291.69 363.39 594.28 187.54 594.28 184.62 291.89 360.34"/><polygon class="cls-7" points="291.89 334.64 83.47 214.3 83.47 217.46 291.69 337.68 594.28 161.84 594.28 158.91 291.89 334.64"/><polygon class="cls-5" points="387.34 0 76.45 180.67 290.4 304.19 601.29 123.52 387.34 0"/><polygon class="cls-6" points="291.89 322.74 83.47 202.4 83.47 205.56 291.69 325.78 594.28 149.94 594.28 147.01 291.89 322.74"/><path class="cls-8" d="M397.91,62.85l-.31,3.77-.06.76-.21,2.57-4.7,1.71L392,70.34l-2.31,1.34a10.64,10.64,0,0,1-1.37-1.76,8.48,8.48,0,0,1-.59-1.18,7.22,7.22,0,0,1,1.09-7.21l.09-.12,4.86-1Z"/><path class="cls-8" d="M388.79,61.53a7.22,7.22,0,0,0-1.09,7.21,28.87,28.87,0,0,1-13.85-3.4,17,17,0,0,1-2.07-1.39,10.51,10.51,0,0,1-3.32-4.19L371,58.25,368,57.74c0-.07,0-.14,0-.21l6.87-4,.07,0Z"/><polygon class="cls-8" points="371.03 58.25 368.46 59.74 359.24 65.1 358.83 64.86 366.21 58.47 367.19 57.61 367.95 57.74 371.03 58.25"/><path class="cls-9" d="M368.45,59.75a10.66,10.66,0,0,0,3.34,4.2l-6.46,3a3.51,3.51,0,0,1-3-.07l-3.46-2-.91-.52c-.83-.48-.88-1.25-.12-1.76L362.7,59l.44-.32a3.5,3.5,0,0,1,3.06-.18l-7.37,6.39.41.23Z"/><polygon class="cls-8" points="391.97 70.34 392.63 71.65 393.08 72.56 391.44 73.2 380.6 77.43 380.18 77.19 389.39 71.84 389.66 71.68 391.97 70.34"/><polygon class="cls-9" points="358.74 107.62 358.17 108.04 346.33 116.91 334.91 110.32 334.33 109.98 348.54 101.72 358.74 107.62"/><polygon class="cls-10" points="420.2 155.53 416.89 157.45 368.19 129.33 371.5 127.41 420.2 155.53"/><polygon class="cls-10" points="512.87 156.72 509.54 158.65 413.42 103.16 416.75 101.22 512.87 156.72"/><polygon class="cls-10" points="505.31 161.11 501.99 163.04 405.87 107.54 409.19 105.62 505.31 161.11"/><polygon class="cls-10" points="490.21 169.89 486.88 171.82 390.76 116.32 394.09 114.39 490.21 169.89"/><polygon class="cls-10" points="312.84 170.44 309.52 172.36 218.31 119.7 221.63 117.78 312.84 170.44"/><polygon class="cls-10" points="475.1 178.67 471.78 180.59 375.66 125.1 378.98 123.17 475.1 178.67"/><polygon class="cls-9" points="316.47 83.21 302.26 91.47 302.1 91.37 290.27 84.55 306.27 77.32 316.47 83.21"/><polygon class="cls-10" points="446.66 195.2 443.33 197.13 263.62 93.37 266.95 91.44 446.66 195.2"/><polygon class="cls-10" points="373.83 237.52 370.52 239.44 190.81 135.69 194.12 133.76 373.83 237.52"/><polygon class="cls-10" points="351.18 250.68 347.86 252.61 168.15 148.85 171.47 146.92 351.18 250.68"/><path class="cls-8" d="M367.94,57.53c0,.07,0,.14,0,.21l-.77-.13-1,.85a3.5,3.5,0,0,0-3.06.18l-.44.32a15.18,15.18,0,0,1,3.27-2.5,24.78,24.78,0,0,1,8.83-2.93Z"/><polygon class="cls-11" points="368.46 59.75 368.45 59.74 368.46 59.74 368.46 59.75"/><path class="cls-11" d="M368.46,59.75v0h0Z"/><path class="cls-8" d="M397.6,66.62l.81.47-.87.29Z"/><path class="cls-9" d="M389.39,71.84l-9.21,5.35.42.24,10.84-4.22c.29.49.07,1-.64,1.41l-.48.22-6.26,2.89a3.55,3.55,0,0,1-3-.07l-.85-.49-3.52-2c-.83-.48-.89-1.26-.13-1.77l5.36-3.91a3.43,3.43,0,0,1,3.28-.07Z"/><path class="cls-8" d="M390.31,74.84l.48-.22c.72-.36.94-.93.64-1.41l1.64-.64-.46-.91,4.7-1.71.21-2.57.87-.29-.81-.47.31-3.77-4.18-2.41-4.86,1-.09.12-13.87-8c6.54-.93,13.75.21,19,3.25,3.72,2.15,3.53,4.72,3.52,4.85a10.7,10.7,0,0,1,1.11.55c4.77,2.75,2.19,7.17-4,10.78A22.63,22.63,0,0,1,390.31,74.84Z"/><polygon class="cls-9" points="365.76 79.46 364.27 80.32 353.44 74.07 354.93 73.2 365.76 79.46"/><path class="cls-9" d="M385.15,69.39a3.43,3.43,0,0,0-3.28.07l-5.36,3.91c-.76.51-.7,1.29.13,1.77l3.52,2-5.84,2.7a9.43,9.43,0,0,1-8.15-.18l-.41-.23L354.93,73.2l-.41-.23c-2.23-1.29-2.37-3.35-.34-4.72l4.64-3.39,3.46,2a3.51,3.51,0,0,0,3,.07l6.46-3a17,17,0,0,0,2.07,1.39,28.87,28.87,0,0,0,13.85,3.4,8.47,8.47,0,0,0,.59,1.18,10.64,10.64,0,0,0,1.37,1.76l-.27.15Z"/><polygon class="cls-9" points="354.93 73.2 353.44 74.07 364.27 80.32 360.05 82.78 349.22 76.53 354.93 73.2"/><path class="cls-12" d="M367.42,87c6.08,3.51,6.71,9.08,1.47,13l-10.71,8,.57-.43-10.21-5.89L334.33,110l.58.34L302.1,91.37l.17.1,14.21-8.26-10.2-5.89,13.06-5.9c6.75-3.05,16.37-2.7,22.45.81l7.43,4.29L360,82.78Z"/><path class="cls-13" d="M366.62,32l70.17,40.51-83.25,48.38-7.1-4.1,11.83-8.85,10.69-8c5.24-3.91,4.6-9.48-1.46-13l-7.36-4.25,4.22-2.45,1.49-.87.41.23a9.41,9.41,0,0,0,8.13.18l5.83-2.69.84.49a3.54,3.54,0,0,0,3,.07l6.25-2.88a22.59,22.59,0,0,0,4.22-1.87c6.2-3.6,8.78-8,4-10.77a10.68,10.68,0,0,0-1.11-.55c0-.13.2-2.7-3.51-4.84-5.26-3-12.45-4.17-19-3.25a24.9,24.9,0,0,0-8.92,2.94,15.16,15.16,0,0,0-3.27,2.5l-4.9,3.59c-.75.51-.71,1.28.12,1.76l.91.52-4.63,3.39c-2,1.37-1.89,3.43.34,4.71l.41.23-5.71,3.32-7.42-4.28c-6.07-3.5-15.68-3.85-22.41-.8l-13,5.89-16,7.21-7.11-4.1Z"/><polygon class="cls-10" points="497.76 165.5 494.44 167.43 398.32 111.93 401.64 110 497.76 165.5"/><polygon class="cls-10" points="482.66 174.28 479.33 176.21 383.21 120.71 386.54 118.78 482.66 174.28"/><polygon class="cls-10" points="439.1 199.59 435.79 201.51 256.07 97.76 259.39 95.83 439.1 199.59"/><polygon class="cls-10" points="431.55 203.98 428.24 205.9 248.52 102.15 251.84 100.22 431.55 203.98"/><polygon class="cls-10" points="424 208.36 420.69 210.29 240.97 106.53 244.29 104.61 424 208.36"/><polygon class="cls-10" points="247.57 208.37 244.26 210.29 153.05 157.63 156.36 155.7 247.57 208.37"/><polygon class="cls-10" points="416.45 212.75 413.13 214.68 233.41 110.93 236.74 109 416.45 212.75"/><polygon class="cls-10" points="408.9 217.14 405.57 219.07 225.86 115.31 229.19 113.38 408.9 217.14"/><polygon class="cls-10" points="381.39 233.13 378.07 235.06 198.35 131.3 201.68 129.37 381.39 233.13"/><polygon class="cls-10" points="366.28 241.91 362.97 243.83 183.26 140.07 186.57 138.15 366.28 241.91"/><polygon class="cls-10" points="358.73 246.29 355.41 248.22 175.69 144.47 179.02 142.54 358.73 246.29"/><polygon class="cls-10" points="343.62 255.07 340.31 257 160.6 153.24 163.91 151.32 343.62 255.07"/><polygon class="cls-10" points="306.32 276.75 302.99 278.69 233.09 238.32 236.41 236.39 306.32 276.75"/><polygon class="cls-10" points="298.77 281.14 295.44 283.07 225.54 242.71 228.86 240.78 298.77 281.14"/><path class="cls-9" d="M183.71,128.54l11.23-14.8s.91.61,7,2.63c9.12,3,7.72-7.29,9.18-13.48s3.13-10.15,2.3-18.11-15.17-16.95-26.91-7.17-6.47,20.13-9.22,23.24-8.56,5.83-8.56,5.83S166.54,130.12,183.71,128.54Z"/><path class="cls-9" d="M190.53,91.23c2.84-5.78,4.56-4.45,4.91-4.68s5.1-3.37,6.08-3.78c.71-.3,7.24-.69,11.2-.58a8.6,8.6,0,0,1,.75,2.6c.83,8-.83,11.92-2.3,18.11s.41,15.79-8.68,16.75c-6.42.68-7.55-5.9-7.55-5.9l-11.23,14.8c-5.08.47-8.36-4.7-11.13-6.65A49.08,49.08,0,0,0,187,107.61S187.68,97,190.53,91.23Z"/><path class="cls-14" d="M219.51,80.85c-1.28-2.72-3.79-4.55-6.45-6a17.3,17.3,0,0,0-5-1.71,45.71,45.71,0,0,1-7.46-2.21C180.26,63.17,175.69,91.67,176.12,95s.15,3.53-1.2,6.41c-1.7,3.58,5,9.52,12.55,10s2.38-17.93,7.8-18.63.48,12.93,4.91,11.71-.9-14.2,7-12.06c4.29,1.16,9.84-.3,14.47-2.89A25.32,25.32,0,0,0,219.51,80.85Z"/><path class="cls-9" d="M228.19,139.36s-2.14,2.75-3,3.79,1.2,2.66,1.85,2.7a8.35,8.35,0,0,0,3.36-1.6c.07-.31,2.21-2.22.93-2.93S228.19,139.36,228.19,139.36Z"/><path class="cls-9" d="M243,147.67c-1.5.1,1.73-1-1-2.95,0,0,1.44-2.6-1.15-3.4.16.05.43-1.14.43-1.25,0-.93-1.05-1.21-1.81-1.25a5.29,5.29,0,0,0-2.31.56,25.56,25.56,0,0,0-3,1.16c-3.78,2.07-4.82,1.47-6.2.57-.8.56-2.75,2-2.8,2a21.33,21.33,0,0,0-2.51,3.33,61.88,61.88,0,0,0,2.81,5.82,36.19,36.19,0,0,1,2.36,3.89,83.05,83.05,0,0,0,12.39-3C244.21,151.77,244.21,147.59,243,147.67Z"/><path class="cls-15" d="M208,143.29s-22.48-1.06-31-1.3c2.6,5.32,4.12,11.15,6.21,16.67a10.35,10.35,0,0,0,11.58,6.49c11.33-2.1,29.22-5.77,34.74-7.7a1.28,1.28,0,0,0,.79-1.75c-1.09-2.55-4.93-11.43-7.33-12.83C219.83,141.08,208,143.29,208,143.29Z"/><path class="cls-11" d="M242.44,178.92s-2.14,2.75-3,3.79,1.2,2.66,1.85,2.7a8.35,8.35,0,0,0,3.36-1.6c.07-.31,2.21-2.22.93-2.93S242.44,178.92,242.44,178.92Z"/><path class="cls-14" d="M188.24,347.76c-2.12.23-4.25.32-6,.34,1.22-7.36-4.19-34.38,2.88-47.71,7.49-14.12,11-51.38,11-51.38L173,242.56l-9-16.41c-15.89,12.83-7.7,28.51-4.34,38.51a10.2,10.2,0,0,1,.51,6.07c-2.47,8-4.1,24.34-3.88,27.35s1.51,39.69,1.51,39.69c.12,1.57.92,3.17.89,6.59s-2.18,8.55-2.57,11.72a7.05,7.05,0,0,0,1.35,5.31c.47,3.1,4,5.26,8.33,4.56,5.64-.91,16.9-.57,25.48-2.59s15.05-8.38,15.09-12.19S193.1,347.22,188.24,347.76Z"/><path class="cls-14" d="M192.49,359a73.45,73.45,0,0,0,9.95-.3c4.86-.54,18.21-.37,18.17,3.42s-6.52,10.18-15.09,12.19-19.84,1.68-25.48,2.59-9.83-2.93-7.94-7.44S192.49,359,192.49,359Z"/><path class="cls-16" d="M216.52,246.62s-4.43,44.67-11.92,58.79c-7.61,14.35-9.71,49.65-11.3,54.66s-6.52,12.3-14.29,13.84-9-3.75-8.67-6.92,2.54-8.28,2.57-11.72-.77-5-.89-6.59c0,0,4-42.56,3.79-45.58s1.41-19.32,3.88-27.35-12.54-24.63-12.54-24.63l25.33-3.53Z"/><path class="cls-14" d="M214.18,265.4c1.53-10.52,2.35-18.78,2.35-18.78l-24,1-25.33,3.53a83.1,83.1,0,0,1,10.16,14.28l3.32,1.12a45.77,45.77,0,0,0,27,.7Z"/><path class="cls-15" d="M216.14,197.34c-.37-3,.62-24.5.39-33.46A56.35,56.35,0,0,0,213.8,148c-7.3-13.47-28.65-24.55-28.65-24.55s-11.54-4.17-15.41-9.39,3-9.56,3-9.56c-2.95-.83-6.11,1.18-8.85,3.9a30.43,30.43,0,0,0-8.54,17.76c-1.18,9.18-2.34,24.89.65,40,2.57,13,1.12,18.11.06,24.89-.87,5.56-2.66,46.12-2.66,46.12a5,5,0,0,0,.7,2.78c.52.83,1.06,1.62,1.61,2.38l5.39-9.66,2.72,17.77c19.2,13.81,56.75,2.6,56.75,2.6s-3.19-30.29-3.07-31.25S216.52,200.34,216.14,197.34Z"/><path class="cls-17" d="M217.09,211.61l-.55-9.17s-30.94-62.28-31.94-41.74c-.5,10.22,6,29.47,12.74,46.6a6.81,6.81,0,0,0,6.34,4.31Z"/><path class="cls-18" d="M218.66,184.68c-.44-1.77-.85-6.61-2-13.44A94.37,94.37,0,0,1,215.4,157c-.09-8.26-2.41-22-17.36-19.58-21.12,3.36-12.08,32.95-9.77,38.11,2,4.53,7.32,17.85,9.49,23.4C203.71,192.28,212.11,190.79,218.66,184.68Z"/><path class="cls-19" d="M172.61,104.51s-6.19,3.81-3.1,9.22,25.53,15.11,26.64,16.54c0,0,.88-8.11-2.09-10.85,0,0-17.17-3.35-19.84-7.73S172.61,104.51,172.61,104.51Z"/><path class="cls-15" d="M172.61,104.51s-1,2.82,1.61,7.18c2,3.32,12.33,6,17.24,7.17h0s-1.82,1-4.87,6.23c-6.9-3.58-15.27-8.18-17.08-11.36C166.43,108.32,172.61,104.51,172.61,104.51Z"/><rect class="cls-20" x="224.21" y="90.49" width="5.2" height="13.85" transform="translate(472.82 117.82) rotate(161.5)"/><rect class="cls-20" x="230.93" y="83.32" width="8.47" height="119.82" rx="2.47" ry="2.47" transform="translate(503.63 204.41) rotate(161.49)"/><rect class="cls-8" x="236.14" y="88.56" width="10.33" height="146.22" transform="translate(521.45 238.42) rotate(161.5)"/><rect class="cls-8" x="229.8" y="89.02" width="2.08" height="29.45" transform="translate(482.68 128.88) rotate(161.5)"/><path class="cls-20" d="M270.84,249.93l-1.43-20.56-9.8,3.28,10.72,17.44A.27.27,0,0,0,270.84,249.93Z"/><path class="cls-9" d="M228.19,139.36s3.83-3.83,5-3.47,3.31,4.12,2.8,5.65-2.14,2.34-3,0l-.85-1.07-2.76,3.16-1.17-2.09Z"/><path class="cls-9" d="M239.29,138.93s-4.85,2-4.82,3.12.31,2.21,2.18,1.36,4.2-1.85,4.2-1.85Z"/><path class="cls-9" d="M240.34,142.22s-4.85,2-4.82,3.12.31,2.21,2.18,1.36,4.2-1.85,4.2-1.85Z"/><path class="cls-9" d="M241.39,145.52s-4.85,2-4.82,3.12.31,2.21,2.18,1.36,4.2-1.85,4.2-1.85Z"/><path class="cls-9" d="M242.68,148.63s-3.81,1.7-3.8,2.45.21,1.48,1.46.91,2.81-1.24,2.81-1.24Z"/><path class="cls-9" d="M257.29,187.23c-1.5.1,1.73-1-1-2.95,0,0,1.44-2.6-1.15-3.4.16.05.43-1.14.43-1.25,0-.93-1.05-1.21-1.81-1.25a5.29,5.29,0,0,0-2.31.56,25.55,25.55,0,0,0-3,1.16c-3.78,2.07-4.82,1.47-6.2.57-.8.56-2.75,2-2.8,2a21.32,21.32,0,0,0-2.51,3.33,61.92,61.92,0,0,0,2.81,5.82,36.15,36.15,0,0,1,2.36,3.89,83,83,0,0,0,12.39-3C258.46,191.33,258.46,187.15,257.29,187.23Z"/><path class="cls-18" d="M222.23,182.85s-22.48-1.06-31-1.3c2.6,5.32,4.12,11.15,6.21,16.67A10.35,10.35,0,0,0,209,204.72c11.33-2.1,29.23-5.77,34.74-7.7a1.28,1.28,0,0,0,.79-1.75c-1.09-2.55-4.93-11.43-7.33-12.83C234.08,180.64,222.23,182.85,222.23,182.85Z"/><polygon class="cls-5" points="594.28 170.3 605.99 177.41 499.29 230.76 594.28 170.3"/></g></g></g></svg>