<svg xmlns="http://www.w3.org/2000/svg" viewBox="0 0 31.56 31.56"><defs><style>.cls-1{fill:#009aff;}</style></defs><title>Asset 66</title><g id="Layer_2" data-name="Layer 2"><g id="Layer_1-2" data-name="Layer 1"><path class="cls-1" d="M15.74,0h.09a15.69,15.69,0,0,1,9.1,2.91,16.67,16.67,0,0,1,1.52,1.23A14.35,14.35,0,0,1,27.84,5.6a14.37,14.37,0,0,1,1.73,2.51,15.44,15.44,0,0,1,2,7.62v.09a15.69,15.69,0,0,1-2.91,9.1,16.67,16.67,0,0,1-1.23,1.52A14.35,14.35,0,0,1,26,27.84a14.39,14.39,0,0,1-2.51,1.73,15.44,15.44,0,0,1-7.62,2h-.09a15.69,15.69,0,0,1-9.1-2.91,16.62,16.62,0,0,1-1.52-1.23A14.31,14.31,0,0,1,3.72,26,14.35,14.35,0,0,1,2,23.45a15.44,15.44,0,0,1-2-7.62v-.09a15.69,15.69,0,0,1,2.91-9.1A16.61,16.61,0,0,1,4.15,5.11,14.27,14.27,0,0,1,5.6,3.72,14.37,14.37,0,0,1,8.11,2,15.44,15.44,0,0,1,15.74,0ZM9.84,9,8,10.29a6.63,6.63,0,0,0-2.53,3.52,4.75,4.75,0,0,0-.25.94q-.07.67-.07,1.17V16a6.4,6.4,0,0,0,.4,2.17,7.09,7.09,0,0,0,2.82,3.5,6.93,6.93,0,0,0,3.63,1h.09a7.15,7.15,0,0,0,2.94-.63,9.58,9.58,0,0,0,1.1-.67,6.66,6.66,0,0,0,2.49-5.6v-.09q0-.36,0-.83v0H12.08v2.33q.2,0,3.9,0a2.55,2.55,0,0,1-.22.69,2.84,2.84,0,0,1-.38.72q-.18.2-.65.65a4.42,4.42,0,0,1-2.64.87,4,4,0,0,1-2.67-.94,3.71,3.71,0,0,1-.56-.52,4.34,4.34,0,0,1-1-2.87,4.49,4.49,0,0,1,.56-2.22A4.43,4.43,0,0,1,9,12.8a5.45,5.45,0,0,1,.47-.4A3.84,3.84,0,0,1,12,11.54a5.16,5.16,0,0,1,2.89.94h0a1.53,1.53,0,0,0,.22-.2,18.69,18.69,0,0,0,1.5-1.59v0A7,7,0,0,0,12.35,9H9.84Zm13,3.9v2h-2v2l2,0v2h1.93q0-.65,0-2l2,0v-2h-2l0-2H22.89Z"/></g></g></svg>