<svg xmlns="http://www.w3.org/2000/svg" xmlns:xlink="http://www.w3.org/1999/xlink" viewBox="0 0 597.14 545.03"><defs><style>.cls-1{isolation:isolate;}.cls-2{fill:#3498db;}.cls-3{fill:#2d2d2d;}.cls-4{fill:#55c3fe;}.cls-11,.cls-28,.cls-34,.cls-5{mix-blend-mode:multiply;}.cls-34,.cls-6{fill:#bcbcbc;}.cls-7{opacity:0.5;}.cls-8{fill:#fff;}.cls-9{fill:#ffc2b0;}.cls-10{fill:#ea4266;}.cls-11,.cls-14{fill:#e8e8e8;}.cls-12{fill:#1d76b2;}.cls-13{fill:#227cc6;}.cls-15{fill:url(#linear-gradient);}.cls-16{fill:#112f5b;}.cls-17{fill:#fe7386;}.cls-18{fill:#e5e5e5;}.cls-19{fill:#f4f4f4;}.cls-20{fill:#97dfff;}.cls-21{fill:#155a93;}.cls-22{fill:#1d6baa;}.cls-23{fill:#878787;}.cls-24{fill:#c1c1c1;}.cls-25{fill:#686868;}.cls-26{fill:#4f4f4f;}.cls-27{fill:#164072;}.cls-28{fill:#e2e2e2;}.cls-29{fill:#c7ebf9;}.cls-30{fill:#4c4c4c;}.cls-31{fill:#5b5b5b;}.cls-32{fill:#e6f7ff;}.cls-33{fill:#eaeaea;}.cls-35{fill:#333;}.cls-36{fill:#ea9c92;}</style><linearGradient id="linear-gradient" x1="107.93" y1="197" x2="150.58" y2="197" gradientTransform="translate(87.08)" gradientUnits="userSpaceOnUse"><stop offset="0" stop-color="#fff"/><stop offset="0.72" stop-color="#f0f0f0"/><stop offset="1" stop-color="#e8e8e8"/></linearGradient></defs><title>Asset 53</title><g class="cls-1"><g id="Layer_2" data-name="Layer 2"><g id="Layer_1-2" data-name="Layer 1"><path class="cls-2" d="M328.18,3.14,7.53,426.71,0,423.57V185.13L320.65,0ZM11.55,403.55,309.09,231.77V20L11.55,191.8Z"/><polygon class="cls-3" points="322.4 238.24 13.3 416.7 13.3 191.6 322.4 13.14 322.4 238.24"/><polygon class="cls-2" points="311.74 19.3 311.74 230.93 13.3 403.22 13.3 416.7 322.4 238.24 322.4 13.14 311.74 19.3"/><path class="cls-4" d="M328.18,241.58,7.53,426.71V188.26L328.18,3.14ZM19.08,406.69,316.62,234.91V23.15L19.08,194.94Z"/><polygon class="cls-4" points="321.92 14.23 316.62 23.15 316.62 234.91 19.23 406.61 14.65 415.36 321.92 237.97 321.92 14.23"/><g class="cls-5"><path class="cls-6" d="M223.92,172.74a4.19,4.19,0,0,0,.49,1C224.67,173.87,224.24,173.22,223.92,172.74Z"/><path class="cls-6" d="M250.95,172.26c2.36-2.78,4.24-9.19-4.65-13s-11.15-6.83-11.15-6.83a20.43,20.43,0,0,0-4.06,6.49c-.74,2.05,1.5,2.58,1.5,2.58h0a6.85,6.85,0,0,0-1.41.68,8.78,8.78,0,0,1-.64-1.35c-2.37-6.65-.89-20.38-.89-20.38s-.64.12-1.57.35a5.29,5.29,0,0,1-.29-3.64v-.07l1.34-1.13-1-1c.36-2.47.45-4.67.45-4.67l-6-2.19a5.79,5.79,0,0,0-1.19.12l-.9-.9-2.35-1,.78,2.46,1.51,1.75c-.34-.13-.58.41-.62,1.91-.05,2.14-.52,4.13,1.33,5.85a8.38,8.38,0,0,1,1.91,4.3,5.07,5.07,0,0,0-1.91,1.52c2.73,10.26.83,24.29,2.67,28.52l.82,1.08a17,17,0,0,0,.55,8,4.2,4.2,0,0,0,4.29.48l-17,7.53a49.92,49.92,0,0,0-6.34,3L195.31,173.4l-25.23,14.25,8.1,14.33c-.21.49-3,7.34,1.92,16.41a5.43,5.43,0,0,0-1.26,1.2c4.85,17.16,13,23.23,18.42,23.51A115.45,115.45,0,0,0,194,255.18c.66.33,1.32.64,2,.94-1.63,10.82-3.95,25.59-5.27,30.93-.2.8.07,18.51.28,33.73,0,1.39,20.52,21.06,20.54,22.4l8.95,1-18.2-29.87,3.64-19.42c.49-1.15,1.47-3,2.67-5.07,0,1.91.81,10.36,1.77,19.82.52,5.08,26.39,18.74,27.45,20.55h9.55c0-2-25.3-21-24.93-27.51.33-5.92.58-10.25.63-10.66,1.32-12.4,12.7-23.09,13.37-25.72a39.33,39.33,0,0,0,1.06-8.54,25.11,25.11,0,0,0,4-1.92s-1.68-14.69-4.43-19.74-.37-15.58,3.24-24.54,1.57-22.6-1.23-23.72c-.29-.12-.61-.22-.93-.32-1.39-1.31,11.91-4.23,8.68-7.43C249.57,176.74,252.36,173.43,250.95,172.26Zm-29.77-38.6c-.23-.7.28-1.64-.18-2.55l1.39,1.62C222.16,133.56,221.35,134.18,221.18,133.65Zm-35.87,82.28s.05-.46.1-1.14l.53.93Zm9.83,13c-1.41,1.24-4.21-4-6.19-8.24l7-3.93C197,221.72,197.33,227,195.15,228.94Z"/></g><g class="cls-7"><path class="cls-8" d="M120.85,179.66l-.93-.84c2.69-3,6.22-3.67,9.64-4.37a21.68,21.68,0,0,0,6.14-1.87,12.67,12.67,0,0,0,3.75-3.39c1.61-1.94,3.14-3.77,6.8-3.74.52,0,.93,0,1.27,0,1.18.06,1.42.07,3-.94.8-.53,1.57-1.1,2.3-1.65a24.58,24.58,0,0,1,4.73-3l2-.89c4.55-2,8.14-3.53,11.74-8.12.82-1.05,1.48-2,2.05-2.79,2.41-3.42,3.51-5,9.32-4.7,3.83.19,5.27-.8,7.66-2.42.7-.47,1.46-1,2.36-1.53a15,15,0,0,1,2.11-1,11.39,11.39,0,0,0,2.38-1.21,17.51,17.51,0,0,0,1.9-1.65,8.82,8.82,0,0,1,4.49-2.76,10.73,10.73,0,0,1,2.75-.09,7,7,0,0,0,3.21-.31,6.11,6.11,0,0,0,2.68-2.61,12,12,0,0,1,1.69-2.14,7.64,7.64,0,0,1,5-2.26l.16,1.24a6.47,6.47,0,0,0-4.26,1.93,11,11,0,0,0-1.51,1.92,7.27,7.27,0,0,1-3.23,3.07,8.07,8.07,0,0,1-3.77.41,9.69,9.69,0,0,0-2.44.07,7.62,7.62,0,0,0-3.87,2.44,18.39,18.39,0,0,1-2,1.76,12.55,12.55,0,0,1-2.63,1.34,14,14,0,0,0-1.94.92c-.88.53-1.63,1-2.31,1.5-2.43,1.64-4.18,2.83-8.42,2.63-5.12-.24-5.91.87-8.24,4.17-.58.83-1.25,1.77-2.09,2.85-3.79,4.84-7.51,6.45-12.22,8.5l-2,.88a23.37,23.37,0,0,0-4.49,2.86c-.75.56-1.53,1.15-2.36,1.7-1.8,1.19-2.29,1.22-3.72,1.15-.33,0-.72,0-1.21,0h-.05c-3,0-4.25,1.45-5.77,3.29a13.91,13.91,0,0,1-4.12,3.7,23,23,0,0,1-6.49,2C126.44,176.37,123.26,177,120.85,179.66Z"/></g><g class="cls-7"><path class="cls-8" d="M99.34,180.43l-.56-1.12a62.82,62.82,0,0,0,5.84-3.52c4-2.58,8.07-5.25,12.43-6a39.06,39.06,0,0,1,4.62-.4c2.92-.13,5.69-.25,8.63-2,2.45-1.42,4-3.68,5.55-6.08,1.76-2.65,3.59-5.4,6.81-6.91.92-.43,1.87-.79,2.78-1.13a20.45,20.45,0,0,0,4.72-2.25,33.6,33.6,0,0,0,3.32-2.8,21.8,21.8,0,0,1,5.76-4.25,6.61,6.61,0,0,1,2.91-.39,6.43,6.43,0,0,0,2.14-.19,8.9,8.9,0,0,0,3.1-2.35,14.3,14.3,0,0,1,2.21-1.93,10.28,10.28,0,0,1,4-1.44c.42-.08.86-.17,1.34-.28a15.13,15.13,0,0,0,5.45-2.74c.65-.45,1.33-.92,2.07-1.38a7.78,7.78,0,0,1,3.08-1,9.12,9.12,0,0,0,2-.5,17.17,17.17,0,0,0,4.13-2.64c.68-.53,1.38-1.08,2.12-1.58,5.82-3.89,12.09-7.23,18.15-10.46,2.62-1.4,5.24-2.79,7.83-4.24.8-.45,1.64-.88,2.5-1.31a42.9,42.9,0,0,0,5-2.87,25,25,0,0,1,5.18-2.55,28,28,0,0,0,4.42-2.07c2.11-1.3,4.15-2.62,6.19-3.93,3.56-2.3,7.24-4.67,11.17-6.85l.61,1.1c-3.9,2.16-7.56,4.52-11.1,6.81-2,1.32-4.09,2.64-6.21,3.95a29.13,29.13,0,0,1-4.62,2.17,23.59,23.59,0,0,0-4.93,2.42,44.19,44.19,0,0,1-5.19,3c-.84.43-1.67.85-2.46,1.29-2.6,1.45-5.23,2.85-7.85,4.25-6,3.22-12.27,6.54-18,10.4-.7.47-1.38,1-2,1.52a18.42,18.42,0,0,1-4.44,2.82,10.3,10.3,0,0,1-2.3.57,6.67,6.67,0,0,0-2.62.82c-.72.44-1.37.9-2,1.34a16.3,16.3,0,0,1-5.88,2.94c-.5.12-1,.21-1.39.29a9.19,9.19,0,0,0-3.6,1.26,13.12,13.12,0,0,0-2,1.76,9.72,9.72,0,0,1-3.61,2.66,7.56,7.56,0,0,1-2.55.25,5.61,5.61,0,0,0-2.38.29,20.94,20.94,0,0,0-5.41,4,35,35,0,0,1-3.45,2.9,21.68,21.68,0,0,1-5,2.4c-.89.34-1.82.68-2.69,1.09-2.9,1.37-4.55,3.85-6.3,6.47-1.6,2.41-3.26,4.9-6,6.47-3.21,1.86-6.12,2-9.2,2.13a38.09,38.09,0,0,0-4.47.38c-4.11.67-8.09,3.26-12,5.77A64.25,64.25,0,0,1,99.34,180.43Z"/></g><g class="cls-7"><path class="cls-8" d="M127.72,154.6l-.87-.9c5.81-5.64,14.28-7.54,21.75-9.21l2.56-.58c2.74-.64,4.76-2.57,6.89-4.61.89-.85,1.81-1.73,2.78-2.5s1.66-1.33,2.49-2c2.18-1.78,4.44-3.61,6.77-5.17a51.72,51.72,0,0,1,6-3.3,45.28,45.28,0,0,0,6.6-3.72,69.76,69.76,0,0,1,11.24-6.25c1.27-.61,2.56-1.22,3.85-1.87a43.48,43.48,0,0,0,9.23-5.86c.72-.63,1.4-1.35,2.13-2.1a20.52,20.52,0,0,1,4.33-3.76,21.26,21.26,0,0,1,4.36-1.77,19,19,0,0,0,4.39-1.82,35.21,35.21,0,0,1,8-3.65,18.84,18.84,0,0,0,4.11-2.24,15.44,15.44,0,0,1,6-2.8l.18,1.24a14.27,14.27,0,0,0-5.53,2.61,20.14,20.14,0,0,1-4.39,2.38,34.21,34.21,0,0,0-7.78,3.53,20.29,20.29,0,0,1-4.66,1.94,20.11,20.11,0,0,0-4.12,1.66,19.59,19.59,0,0,0-4.06,3.54c-.71.74-1.44,1.5-2.2,2.17a44.6,44.6,0,0,1-9.49,6c-1.3.66-2.6,1.27-3.87,1.88a68.89,68.89,0,0,0-11,6.14,46.11,46.11,0,0,1-6.78,3.83,50.51,50.51,0,0,0-5.86,3.21c-2.28,1.52-4.52,3.34-6.68,5.1-.84.68-1.67,1.36-2.51,2s-1.82,1.59-2.69,2.42c-2.16,2.07-4.4,4.22-7.48,4.93l-2.57.58C141.56,147.35,133.28,149.21,127.72,154.6Z"/></g><path class="cls-9" d="M229.38,140.5s-1.52-1.2-.84-4.39a48.48,48.48,0,0,0,.84-6.85l-6-2.2s-1.31,0-1.44.26a13.07,13.07,0,0,0,1.18,3.35c.52,1.2-.94,2.67-1.18,1.94s.34-1.73-.24-2.67-1-.73-1.1,1.41-.52,4.13,1.33,5.85,2.17,6.06,2.17,6.06Z"/><path class="cls-10" d="M263.39,188.33s-22.29-20.59-24.66-27.24-8.33-21.68-8.33-21.68-7,1.3-8.48,3.61c3.16,11.85,10.07,30.5,10.67,30.93s-2.56-3.76.6.43,15,19.95,16.23,20.38S263.39,188.33,263.39,188.33Z"/><polygon class="cls-8" points="221.28 126.28 229.9 134.91 227.6 136.84 219.71 127.7 218.92 125.24 221.28 126.28"/><path class="cls-11" d="M204.29,353c10.83,6.25,28.37,6.25,39.2,0s10.83-16.38,0-22.63-28.37-6.25-39.2,0S193.46,346.74,204.29,353Z"/><path class="cls-3" d="M220.79,342.37s.64,4.89.2,6-3.07.89-4,.61c-3.22-.91-11-4.76-10.78-7.94.08-1.3,2-1.17,5.2.3s4.95,1.22,5.35.31S220.79,342.37,220.79,342.37Z"/><path class="cls-3" d="M243.42,340.07s.64,4.89.19,6-3.06.88-4,.6c-3.22-.91-11-4.75-10.78-7.94.08-1.3,2-1.17,5.2.3s4.95,1.23,5.36.31S243.42,340.07,243.42,340.07Z"/><path class="cls-12" d="M244.58,340.2c.3-4.32,2.6-46.9,2.75-48.23,1.32-12.4,12.7-23.09,13.37-25.72,2.45-9.59,0-22.51,0-22.51l-22.4.94a222.08,222.08,0,0,0-5.45,45.09c0,4.49,4.66,45.86,4.7,50.24Z"/><path class="cls-13" d="M230.19,294.84c1.91-4.47,11.07-18.8,13-23,9-17,6.87-27,6.87-27l-28-1.11s-4.91,34.51-7.09,43.31c-.35,1.4.74,54.42.44,55.58l5.71.54Z"/><rect class="cls-14" x="201.87" y="178.06" width="28.97" height="38.07" transform="translate(-68.95 131.87) rotate(-29.46)"/><polygon class="cls-15" points="195.01 187.78 213.22 220.01 237.66 206.21 219.45 173.98 195.01 187.78"/><path class="cls-9" d="M244.94,161.71s-4.17-1.64-7.6,2.56a3.71,3.71,0,0,0-.87,2.08c-.1,1.47-1.34,3.32-2.4,4.63-2,2.44-1.7,8-.66,10.94a4.2,4.2,0,0,0,4.29.48l-.9,7.5,14.48-1.73s-1.62-3.66,1.89-9.4,4.08-9,.75-12.48-9-4.59-9-4.59"/><path class="cls-16" d="M243.34,152.69s2.27,3,11.15,6.83,7,10.22,4.65,13c2.34,1.95-6.9,9.79-8.22,13.63a12,12,0,0,1-8.95-3.73,8.78,8.78,0,0,1,1.53-6.68c2.34-3,1.35-7-.32-6.6-.36.1-2.65,5.35-2.9,5.32a2.89,2.89,0,0,1-.67-.23c-.38-.23.62-1.43,1-3.91.18-1.18-.47-4-.18-4.62a24.7,24.7,0,0,1,2.19-2.93l-1.84-1s-2.23-.53-1.5-2.58a20.45,20.45,0,0,1,4.06-6.49"/><path class="cls-17" d="M221.15,199.77s5.29-6.24,16.33-10.35a53.51,53.51,0,0,1,11-2.61s9.94-1,14.86,1c2.79,1.12,4.83,14.76,1.23,23.72s-6,19.49-3.24,24.54,4.43,19.74,4.43,19.74-4.15,2.67-12.18,4.23c0,0-2.54-13.19-2.87-13.19-.17,0-1.32,14-1.32,14a53.54,53.54,0,0,1-31.16-5.64c1.18-6.64,6-19.49,7.23-25.69s-4.36-29.73-4.36-29.73"/><path class="cls-9" d="M209.62,215.93a23.74,23.74,0,0,0,0-5.49,4.86,4.86,0,0,1,1-4c.53-.75-.37-2.77-2-1a7.54,7.54,0,0,0-1.87,3.92l-4.19-7.41s-3.5,7.54,2.44,17.45C208.83,221.38,209.62,215.93,209.62,215.93Z"/><path class="cls-10" d="M218.71,211.34a11.39,11.39,0,0,1,2.79-11.92,9.15,9.15,0,0,1,2.29-1.61c5.18-2.55,8.75,1.82,8.95,11.23s-.78,23.15-6.2,31.89c-3.32,5-16.57,2.81-23.4-21.33,1.73-2.45,7.88-4.1,7.88-4.1s6.09,15.49,8.43,13.44c3-2.67,1.2-11.93-.74-17.61"/><polygon class="cls-11" points="361.71 495.16 203.84 404.01 187.19 394.48 415.63 281.73 597.14 359.04 361.71 495.16"/><polygon class="cls-2" points="382.12 480.11 224.24 388.95 224.24 353.57 436.04 266.67 593.92 357.82 382.12 480.11"/><polygon class="cls-18" points="436.04 255.3 232.09 349.93 232.09 382.12 382.12 468.74 593.92 346.45 436.04 255.3"/><polygon class="cls-19" points="436.04 247.07 402.23 262.76 402.23 364.1 232.09 364.1 232.09 373.89 382.12 460.51 593.92 338.22 436.04 247.07"/><polygon class="cls-8" points="436.04 239.53 402.23 255.22 402.23 364.1 232.09 364.1 232.09 366.35 382.12 452.97 593.92 330.69 436.04 239.53"/><polygon class="cls-20" points="382.12 444.72 224.24 353.57 436.04 231.29 593.92 322.44 382.12 444.72"/><polygon class="cls-21" points="376.98 421.25 249.17 347.46 249.17 318.81 420.63 248.47 548.44 322.26 376.98 421.25"/><polygon class="cls-18" points="420.63 239.26 255.52 315.87 255.52 341.92 376.98 412.04 548.44 313.05 420.63 239.26"/><polygon class="cls-19" points="420.63 232.6 393.25 245.3 393.25 327.33 255.52 327.33 255.52 335.26 376.98 405.38 548.44 306.39 420.63 232.6"/><polygon class="cls-8" points="420.63 226.5 393.25 239.2 393.25 327.33 255.52 327.33 255.52 329.16 376.98 399.28 548.44 300.29 420.63 226.5"/><polygon class="cls-22" points="376.98 392.61 249.17 318.81 420.63 219.82 548.44 293.61 376.98 392.61"/><polygon class="cls-2" points="380.21 378.86 271.31 315.99 271.31 291.58 417.4 231.65 526.29 294.51 380.21 378.86"/><polygon class="cls-18" points="417.4 223.8 276.73 289.06 276.73 311.27 380.21 371.01 526.29 286.67 417.4 223.8"/><polygon class="cls-19" points="417.4 218.13 394.08 228.95 394.08 298.84 276.73 298.84 276.73 305.59 380.21 365.34 526.29 281 417.4 218.13"/><polygon class="cls-8" points="417.4 212.93 394.08 223.75 394.08 298.84 276.73 298.84 276.73 300.39 380.21 360.14 526.29 275.8 417.4 212.93"/><polygon class="cls-4" points="380.21 354.45 271.31 291.58 417.4 207.24 526.29 270.11 380.21 354.45"/><polygon class="cls-2" points="306.05 271.53 405.43 328.9 516.78 264.62 417.4 207.24 306.05 271.53"/><path class="cls-11" d="M309.16,491.53l0,0c.36-6.78-3.93-13.63-12.9-18.81L175.34,403l-12.57,7.26-35.43-20.46L89.11,411.83,69.72,423.57,111.35,450,97.1,459.13l135.14,78.43c17.24,10,45.2,10,62.45,0l1.54-.89c8.92-5.15,13.22-12,12.91-18.7h0Z"/><polygon class="cls-23" points="146.97 453.19 88.14 419.23 88.14 403.48 193.47 426.34 146.97 453.19"/><polygon class="cls-24" points="146.97 437.44 88.14 403.48 134.65 376.63 193.47 410.6 146.97 437.44"/><polygon class="cls-25" points="109.21 409.19 100.29 404.04 113.32 396.52 122.24 401.67 109.21 409.19"/><polygon class="cls-26" points="113.32 397.88 121.05 402.35 122.24 401.67 113.32 396.52 100.29 404.04 101.47 404.72 113.32 397.88"/><polygon class="cls-25" points="131.76 396.17 122.85 391.02 135.87 383.5 144.79 388.64 131.76 396.17"/><polygon class="cls-26" points="135.87 384.86 143.61 389.33 144.79 388.64 135.87 383.5 122.85 391.02 124.03 391.7 135.87 384.86"/><path class="cls-27" d="M316.47,478.4l-11,10.3c-.63-.41-1.27-.82-2-1.21L118.66,426.78v27.86l120.89,69.79c17.24,10,45.2,10,62.45,0l1.54-.89c8.92-5.15,13.21-12,12.9-18.7h0Z"/><path class="cls-21" d="M303.54,459.62,182.66,389.83l-64,36.94,120.89,69.79c17.24,10,45.2,10,62.45,0l1.54-.89C320.78,485.72,320.78,469.58,303.54,459.62Z"/><path class="cls-13" d="M292.23,487.69c-10.57,6.1-27.69,6.1-38.26,0s-10.56-16,0-22.09,27.69-6.1,38.26,0S302.79,481.59,292.23,487.69Z"/><path class="cls-28" d="M216.21,421.09c0-2.82-6.59-23.72-12.79-27.24h0a34.59,34.59,0,0,0-9.78-9.73,10.45,10.45,0,0,0-.06-1.95c.9-.19,2.55-3,2.29-5.86h0c2.46-14.43-5-17.06-9-15.54-1.27-1.88-5.58-3.92-7.61-2.78a4.71,4.71,0,0,1,4.37,1.73c-5.1-.86-8.19,0-12,3.43s-3.7,8.32-4.76,8.46c2.59,2.26,3.92.93,3.92.93s.23,1-1.28,1.64a5.26,5.26,0,0,0,2.42.31c0,.23.06.46.09.7h0a41,41,0,0,0,.87,4.29c.42,1.64.78,3.14,1.11,4.51-.16.16-.33.31-.48.48-.06,0-.06.07-.06.07s-.18.23-.28.35-.4.48-.59.75c-6.79,8.77-4.57,19.07-8.75,22.54a33.52,33.52,0,0,1-8.52,5.31l-5.49,1.28L142.1,400l.15,4.59-.15-.21.46,11.88h0c-2,.19-3.51,6.43-.24,8.32a3.14,3.14,0,0,0,.58.26l.28,7.08,7.27,8.85c-4.29,3.88-8,8.24-9,12.34-2.73,11.18-1.75,37.08-1.75,37.08l.11.19c-1.35,1-6.19,4.81-7.36,6.5a1.9,1.9,0,0,0-.25.52h0a1.43,1.43,0,0,0,.72,1.71h0l.26.13.14.06.25.08.22.06.25,0,.29,0,.26,0h.61l.39,0,.29,0,.43-.09.3-.07.49-.15.31-.1.56-.22.28-.11c.29-.13.59-.27.89-.43,5.08-2.68,6.17-3.39,7.15-4a1.71,1.71,0,0,0,.4-.32l.07-.08a1.22,1.22,0,0,0,.21-.38v0a1.77,1.77,0,0,0,.07-.45s0-.06,0-.1a5.43,5.43,0,0,0,0-.64l.22-.1L158.5,480s-.08-14.35,5-16.39c-3.23,4-2.49-1.09-3.08,3.14-1.58,11.4-1.61,36.2-1.61,36.2l.17.17c-1.65,1.28-6,4.69-7.07,6.28a1.9,1.9,0,0,0-.25.52h0a1.43,1.43,0,0,0,.72,1.71h0l.26.13.14.06.25.08.22.06.25,0,.29,0,.26,0h.61l.39,0,.29,0,.43-.09.3-.07.49-.15.31-.1.56-.22.28-.11c.29-.13.59-.27.89-.43,5.08-2.68,6.17-3.39,7.15-4a1.71,1.71,0,0,0,.4-.32l.07-.08a1.22,1.22,0,0,0,.21-.38v0a1.77,1.77,0,0,0,.07-.45s0-.06,0-.1a12,12,0,0,0-.15-1.49.66.66,0,0,0-.26-.4c.25-.19,16-10,16-10l1.45-27s9.51-9.35,12.51-10.37c7.79-2.63,10.93-15,11.11-19.11-1.74-7.68,2.62-5.71,3.08-11.5C213.83,423.64,216.21,421.91,216.21,421.09Z"/><path class="cls-29" d="M173.48,384.56s.11-1.08,3,5.41-4.1,27.25-5.77,29.53-22.59,8.69-27.19,1.58c2.87-1.48.1-3.6.66-6.92,8.55,3,17-3.81,19.64-6C168.22,404.59,165.6,393.55,173.48,384.56Z"/><path class="cls-8" d="M140.19,490.1s-6.35,4.8-7.72,6.78,1.6,4.1,6.68,1.41,6.17-3.39,7.15-4,.8-1.37.61-2.82S140.19,490.1,140.19,490.1Z"/><path class="cls-30" d="M146.3,493.43c-1,.56-2.07,1.27-7.15,4-3.82,2-6.44,1.32-6.93,0-.57,1.79,2.29,3.35,6.93.9,5.08-2.68,6.17-3.39,7.15-4,.76-.43.82-1,.73-1.9A1.32,1.32,0,0,1,146.3,493.43Z"/><path class="cls-30" d="M194.58,429.06s-.23,14.36-12.92,17.48-26.09,9.58-26.09,9.58l-8.33,36.14a6.54,6.54,0,0,1-3.58.57,5.46,5.46,0,0,1-4-2.64s-1-25.9,1.75-37.08S167,428.76,167,428.76Z"/><path class="cls-8" d="M159.6,502.61s-6.35,4.8-7.72,6.78,1.6,4.1,6.68,1.41,6.17-3.39,7.15-4,.8-1.37.61-2.82S159.6,502.61,159.6,502.61Z"/><path class="cls-30" d="M165.72,505.93c-1,.56-2.07,1.27-7.15,4-3.82,2-6.44,1.32-6.93,0-.57,1.79,2.29,3.35,6.93.9,5.08-2.68,6.17-3.39,7.15-4,.76-.43.82-1,.73-1.9A1.32,1.32,0,0,1,165.72,505.93Z"/><path class="cls-31" d="M207.14,437.54s1.22,14.31-11.08,18.7-25,12.18-25,12.18l-4.62,34.86a5.14,5.14,0,0,1-3.7,1.37,5.54,5.54,0,0,1-4-1.71s-2.86-26.39-1.28-37.78,18.87-24.81,18.87-24.81Z"/><path class="cls-32" d="M165.23,430s-1.37-42.9,11.72-47.91S202,389,207.14,400.51s3.77,31.65,0,39.12C189.19,452,164.72,435.88,165.23,430Z"/><path class="cls-8" d="M207.14,400.51C202,389,190,377,176.95,382a7.69,7.69,0,0,0-1.24.62c9.64,1.22,17.83,10.48,21.83,19.5,5.11,11.55,3.77,31.65,0,39.12a25.37,25.37,0,0,1-5.54,2.88,26.09,26.09,0,0,0,15.14-4.53C210.9,432.16,212.25,412.06,207.14,400.51Z"/><path class="cls-9" d="M173.26,362.92s-3.27,5.23-.34,16.58c2.38,9.19,2.73,14.28,6.57,14.67s15.33-2.42,14.07-12c1.14-.25,3.48-4.62,1.64-8.11s-3.14.32-3.14.32.07-7.59-5.29-10.35S173.26,362.92,173.26,362.92Z"/><path class="cls-16" d="M185.87,372c0-.44-4.09,5.37-10.64,3.5a4,4,0,0,0,2.77-2.27,5.79,5.79,0,0,1-6,1.94,8.65,8.65,0,0,0,2.38-1.38,6.48,6.48,0,0,1-4.89.36c1.51-.65,1.28-1.64,1.28-1.64s-1.33,1.33-3.92-.93c1.05-.14.95-5,4.76-8.46s6.9-4.29,12-3.43a4.71,4.71,0,0,0-4.37-1.73c2-1.14,6.34.9,7.61,2.78,4-1.52,11.42,1.11,9,15.54,0-.36-.38-2.71-1.78-3.15s-2.58,2.31-2.26,3a31.17,31.17,0,0,1,.47,4.81l-1.81.95s.56-3.58-.73-4.66S186.12,377.54,185.87,372Z"/><polygon class="cls-8" points="142.09 404.38 149.85 414.79 174.9 408.95 173.46 441.33 150.68 441.05 143.17 431.92 142.09 404.38"/><polygon class="cls-33" points="142.09 400.01 149.85 414.79 150.68 441.05 143.17 431.92 142.09 400.01"/><path class="cls-9" d="M180,426.49s-.77,1.19-2.4,0-2.25-3.2-3.26-4c-.12,2.58,0,4.39-3.21,4.33s-5.27-.5-7.09-.37.35,8.17,9.71,8.35c5.16-.32,7.36-3.21,7.36-3.21Z"/><path class="cls-9" d="M142.56,416.26s1.72,3.52,2.79,3.93.24,6.27-3,4.39S140.59,416.45,142.56,416.26Z"/><path class="cls-29" d="M196.66,399.16s.55-8.82,6.75-5.31,12.79,24.41,12.79,27.24-28.74,16.82-36.65,13.81a11.1,11.1,0,0,0-.06-9.67c8.66-2.64,19.77-6,21.65-8.85S195.61,411.08,196.66,399.16Z"/><polygon class="cls-11" points="113.78 439.21 113.05 446.25 81.4 443.29 29.02 414.5 29.02 287.37 45.28 287.37 45.28 405.11 113.78 439.21"/><polygon class="cls-34" points="29.02 414.5 29.02 287.37 45.28 287.37 45.28 405.11 29.02 414.5"/><path class="cls-2" d="M112.43,421.55c.87,1.85,2.32,23,.62,24.7-1.45,1.43-17.68-14.48-18.54-16.32L29.37,290.48a3.69,3.69,0,0,1,1.78-4.91l11.23-5.25a3.69,3.69,0,0,1,4.91,1.78Z"/><path class="cls-22" d="M42.38,280.33l-7.59,3.54L110,444.78c1.58,1.18,2.74,1.81,3.08,1.47,1-1,.91-8.51.5-15L43,280.12A3.41,3.41,0,0,0,42.38,280.33Z"/><path class="cls-35" d="M104.77,440.42c3.92,3.55,7.62,6.47,8.28,5.82s.88-5.28.73-10.27a4.11,4.11,0,0,0-1.12-.09C109.44,436.26,105.65,437.36,104.77,440.42Z"/><path class="cls-36" d="M111.06,425.83c-2-2.19-3.73-3.8-5.24-3.34-1.7.51-2.07,4.4-1.62,7.43-1-1.8-3.87-4.37-6.95-3.4-1.77.56-3,2.89-2.77,3.37l0,0c.47,1,5.54,6.22,10.27,10.5.88-3.07,4.66-4.17,7.89-4.54a4.11,4.11,0,0,1,1.12.09c-.2-6.33-.87-13.39-1.35-14.42l-.2-.43C110.54,421.5,110.68,423.69,111.06,425.83Z"/><path class="cls-9" d="M98.47,426.31a4.43,4.43,0,0,0-1.21.2c-1.77.56-3,2.89-2.77,3.37l0,0c.47,1,5.54,6.22,10.27,10.5a4.85,4.85,0,0,1,1.93-2.61Z"/><path class="cls-17" d="M55.87,300.49l-8.58-18.38a3.69,3.69,0,0,0-4.91-1.78l-11.23,5.25a3.69,3.69,0,0,0-1.78,4.91L38,308.86Z"/><rect class="cls-19" x="35.39" y="297.34" width="19.78" height="7.7" transform="translate(-123.3 47.53) rotate(-25.06)"/><path class="cls-10" d="M518.24,449.57l-8.33-2.44h0l-.72-.41c-6.13-3.54-16.12-3.54-22.25,0L453.44,464c-6.13,3.54-5.15,10.79,1,14.33l2.23,1.29c6.13,3.54,16.12,3.54,22.25,0l19.34-11.16v-3.39l-24.91,11.34a12.28,12.28,0,0,1-11.1,0L460,475.11c-3.06-1.77-3.06-4.64,0-6.41l32.51-18.77a12.29,12.29,0,0,1,11.1,0l1.06.61,7.55,4.36c3.06,1.77,3.06,4.64,0,6.41l-31.19,18h0L452.18,496c-6.16,3.56-16.18,3.56-22.34,0l-3.74-2.16c-6.16-3.56-6.16-9.34,0-12.9L472.67,454v-3.39L419.39,477c-9.23,5.33-8.09,14.69,1.14,20l3.74,2.16c9.23,5.33,24.26,5.33,33.49,0l48.36-27.92h0l11.68-6.74C523.94,461,524.37,453.11,518.24,449.57Z"/><path class="cls-17" d="M517.8,448.3l-7.89-4.55h0l-.72-.41c-6.13-3.54-16.12-3.54-22.25,0L454.43,462.1c-6.13,3.54-6.14,9.31,0,12.85l2.23,1.29c6.13,3.54,16.12,3.54,22.25,0l19.34-11.16-5.58-3.22L473.34,473a12.28,12.28,0,0,1-11.1,0L460,471.73c-3.06-1.77-3.06-4.64,0-6.41l32.51-18.77a12.29,12.29,0,0,1,11.1,0l1.06.61,7.55,4.36c3.06,1.77,3.06,4.64,0,6.41l-31.19,18h0l-28.85,16.65c-6.16,3.56-16.18,3.56-22.34,0l-3.74-2.16c-6.16-3.56-6.16-9.34,0-12.9l46.57-26.89-5.57-3.22-46.57,26.89c-9.23,5.33-9.23,14,0,19.34l3.74,2.16c9.23,5.33,24.26,5.33,33.49,0l48.36-27.92h0l11.68-6.74C523.94,457.6,523.94,451.84,517.8,448.3Z"/></g></g></g></svg>