<svg xmlns="http://www.w3.org/2000/svg" viewBox="0 0 31.56 31.56"><defs><style>.cls-1{fill:#009aff;}</style></defs><title>Asset 67</title><g id="Layer_2" data-name="Layer 2"><g id="Layer_1-2" data-name="Layer 1"><path class="cls-1" d="M15.69,0h.18a15.69,15.69,0,0,1,9,2.82A17.93,17.93,0,0,1,26.63,4.3a14.69,14.69,0,0,1,1.46,1.57,16.81,16.81,0,0,1,1.32,1.91,15.64,15.64,0,0,1,2.15,7.91v.18a15.69,15.69,0,0,1-2.82,9,17.93,17.93,0,0,1-1.48,1.79,14.69,14.69,0,0,1-1.57,1.46,16.81,16.81,0,0,1-1.91,1.32,15.64,15.64,0,0,1-7.91,2.15h-.18a15.69,15.69,0,0,1-9-2.82,17.93,17.93,0,0,1-1.79-1.48,14.69,14.69,0,0,1-1.46-1.57,16.81,16.81,0,0,1-1.32-1.91A15.64,15.64,0,0,1,0,15.87v-.18a15.69,15.69,0,0,1,2.82-9A17.93,17.93,0,0,1,4.3,4.93,14.69,14.69,0,0,1,5.87,3.47,16.81,16.81,0,0,1,7.78,2.15,15.64,15.64,0,0,1,15.69,0Zm1.66,5.22-.94.36A4.25,4.25,0,0,0,14.26,7.4a5.56,5.56,0,0,0-.72,2.85v2.94H10.2V17h3.34v9.91h4V17h3.34q0-.16.49-3.86H17.53V11a4.06,4.06,0,0,1,.09-1.12,1.14,1.14,0,0,1,.16-.38A1.22,1.22,0,0,1,18.49,9a3.79,3.79,0,0,1,1.23-.13H21.5V5.38a25.78,25.78,0,0,0-2.89-.16H17.35Z"/></g></g></svg>