<svg xmlns="http://www.w3.org/2000/svg" viewBox="0 0 35.16 24.68"><title>Asset 68</title><g id="Layer_2" data-name="Layer 2"><g id="Layer_1-2" data-name="Layer 1"><path d="M33.06,0H2.1A2.1,2.1,0,0,0,0,2.1V22.58a2.1,2.1,0,0,0,2.1,2.1h31a2.1,2.1,0,0,0,2.1-2.1V2.1A2.1,2.1,0,0,0,33.06,0ZM32,1.24a1,1,0,0,1,.29.06L17.58,14.73,2.86,1.3a1,1,0,0,1,.29-.06ZM34.2,22.58a1.14,1.14,0,0,1-1.14,1.14H2.1A1.14,1.14,0,0,1,1,22.58V2.1a1.13,1.13,0,0,1,.09-.44l16.2,14.79a.48.48,0,0,0,.65,0L34.11,1.65a1.13,1.13,0,0,1,.09.44Z"/></g></g></svg>