<svg xmlns="http://www.w3.org/2000/svg" viewBox="0 0 493.29 515.47"><defs><style>.cls-1{fill:#b2d3ea;}.cls-2{fill:#173d7a;}.cls-3{fill:#396caa;}.cls-4{fill:#274f89;}.cls-5{fill:#d4ecff;}.cls-6{fill:#fff;}.cls-7{fill:#97dfff;}.cls-8{fill:#5793ce;}.cls-9{fill:#f0fbff;}.cls-10{fill:#112f5b;}.cls-11{fill:#369;}.cls-12{fill:#164072;}.cls-13{fill:#ffc2b0;}.cls-14{fill:#3498db;}.cls-15{fill:#55c3fe;}.cls-16{fill:#ea9c92;}.cls-17{fill:#ea4266;}.cls-18{fill:#fe7386;}.cls-19{fill:#e6f7ff;}.cls-20{fill:#c7ebf9;}</style></defs><title>Asset 55</title><g id="Layer_2" data-name="Layer 2"><g id="Layer_1-2" data-name="Layer 1"><path class="cls-1" d="M94.18,227.7,62.24,209.12c-2.7-1.56-2.36-4.27.76-6.07l30.44-17.74c3.11-1.8,7.82-2,10.52-.44l31.94,18.58c2.7,1.56,2.36,4.27-.76,6.07l-30.44,17.74C101.58,229.06,96.87,229.26,94.18,227.7Z"/><path class="cls-2" d="M148.16,168.14h0V160L105,160h.3c-3.43-2-9.41-1.73-13.36.55l1.28-.53L50,160v8.68a3.87,3.87,0,0,0,2.29,3.58l40.59,23.61c3.43,2,9.41,1.73,13.36-.55l38.68-22.54C147.18,171.43,148.28,169.73,148.16,168.14Z"/><path class="cls-3" d="M99.07,158.65a15.41,15.41,0,0,0-7.16,1.88l1.28-.53L50,160v8.68a3.87,3.87,0,0,0,2.29,3.58l40.59,23.61a12.1,12.1,0,0,0,6.2,1.32Z"/><path class="cls-1" d="M54.86,160H50v8.68a3.87,3.87,0,0,0,2.29,3.58l2.6,1.5Z"/><path class="cls-4" d="M93.71,196.26a15.23,15.23,0,0,0,10.68-.12V184.78H93.71Z"/><path class="cls-5" d="M92.85,187.23,52.27,163.62c-3.43-2-3-5.43,1-7.72l38.68-22.54c4-2.28,9.94-2.53,13.36-.55l40.59,23.61c3.43,2,3,5.43-1,7.72l-38.68,22.54C102.26,189,96.28,189.21,92.85,187.23Z"/><path class="cls-6" d="M100.72,155.54,88.79,148.6c-1.59-.92-1.59-2.41,0-3.33a6.39,6.39,0,0,1,5.78,0l11.94,6.94c1.59.92,1.59,2.41,0,3.33A6.39,6.39,0,0,1,100.72,155.54Z"/><path class="cls-6" d="M118.07,165.68l-7.25-4.28c-1.59-.92-1.59-2.41,0-3.33a6.39,6.39,0,0,1,5.78,0l7.25,4.28c1.59.92,1.59,2.41,0,3.33A6.39,6.39,0,0,1,118.07,165.68Z"/><path class="cls-6" d="M84,159.8l-7.25-4.28c-1.59-.92-1.59-2.41,0-3.33a6.39,6.39,0,0,1,5.78,0l7.25,4.28c1.59.92,1.59,2.41,0,3.33A6.39,6.39,0,0,1,84,159.8Z"/><path class="cls-5" d="M440,406.55,209.44,273.42c-6.52-3.77-17.92-3.29-25.45,1.06L27,365.1c-7.53,4.35-8.35,10.93-1.83,14.69l73.56,42.47C34.29,423.75,143,518,192.29,486.53a23.86,23.86,0,0,0,7-6.18l56.42,32.58c6.52,3.77,17.92,3.29,25.45-1.05l157-90.62C445.74,416.9,446.56,410.32,440,406.55Z"/><path class="cls-2" d="M484.19,137.66,248.29,1.46a9.52,9.52,0,0,0-8-1v0l-.43.16-.1,0-8.53,3.26,7.65,3.75c0,.14-.08.27-.11.42L200.37,183c-1.92,8.75,1.93,19,8.6,22.83L439.2,338.73l-.82,9.76,9.32-3.61c3.13-1.46,5.64-4.77,6.67-9.49l38.42-174.91C494.72,151.73,490.87,141.51,484.19,137.66Z"/><path class="cls-3" d="M484.19,137.66,248.29,1.46a9.52,9.52,0,0,0-8-1v0l-.43.16-.1,0-8.53,3.26,7.65,3.75c0,.14-.08.27-.11.42L213.47,123.35,328.9,213.28l162.75-66.22A18.31,18.31,0,0,0,484.19,137.66Z"/><path class="cls-4" d="M475.3,164.54l18-7.65c.33-7-2.55-14.14-7.28-18l-28.43,12Z"/><path class="cls-7" d="M430.19,347.56l-235.9-136.2c-6.67-3.85-10.52-14.07-8.6-22.83L224.11,13.63C226,4.88,233,.91,239.67,4.76L475.57,141c6.67,3.85,10.52,14.07,8.6,22.83L445.75,338.69C443.83,347.44,436.86,351.42,430.19,347.56Z"/><path class="cls-6" d="M425.07,334.55l-221.86-128c-6.11-3.53-9.63-12.88-7.87-20.89L230.5,25.58c1.76-8,8.14-11.65,14.24-8.12l221.86,128c6.11,3.53,9.63,12.88,7.87,20.89L439.31,326.43C437.55,334.44,431.18,338.08,425.07,334.55Z"/><path class="cls-6" d="M425.07,334.55l-221.86-128c-6.11-3.53-9.63-12.88-7.87-20.89L230.5,25.58c1.76-8,8.14-11.65,14.24-8.12l221.86,128c6.11,3.53,9.63,12.88,7.87,20.89L439.31,326.43C437.55,334.44,431.18,338.08,425.07,334.55Z"/><path class="cls-2" d="M433.44,353.49l-32.25-4.26L193,229.06c-6.67-3.85-18.33-3.37-26,1.08L19.51,315.26,0,312.69v11.06H0c-.13,2.56,1.33,5,4.48,6.83l235.9,136.2c6.67,3.85,18.33,3.37,26-1.08L427.07,373c4.33-2.5,6.5-5.73,6.37-8.76h0Z"/><path class="cls-3" d="M277,277.56,262.25,269H99.66L19.51,315.26,0,312.69v11.06H0c-.13,2.56,1.33,5,4.48,6.83l235.9,136.2c3.53,2,8.45,2.85,13.44,2.52Z"/><path class="cls-8" d="M8.66,313.83,0,312.69v11.06H0c-.13,2.56,1.33,5,4.48,6.83L8.66,333Z"/><path class="cls-4" d="M242.78,467.89c6.33,2.4,15.37,1.88,22.12-1.37V441.84H242.78Z"/><path class="cls-7" d="M240.41,455.74,4.51,319.54c-6.67-3.85-5.84-10.58,1.87-15L167,211.8c7.71-4.45,19.36-4.93,26-1.08l235.9,136.2c6.67,3.85,5.84,10.58-1.87,15L266.44,454.66C258.74,459.11,247.08,459.59,240.41,455.74Z"/><path class="cls-2" d="M104.84,274.45l-10.67-6.16c-.86-.49-.75-1.36.24-1.93l12.6-7.27a3.72,3.72,0,0,1,3.34-.14L121,265.11c.86.49.75,1.36-.24,1.93l-12.6,7.27A3.72,3.72,0,0,1,104.84,274.45Z"/><path class="cls-2" d="M121.32,284l-10.67-6.16c-.86-.49-.75-1.36.24-1.93l12.6-7.27a3.72,3.72,0,0,1,3.34-.14l10.67,6.16c.86.49.75,1.36-.24,1.93l-12.6,7.27A3.72,3.72,0,0,1,121.32,284Z"/><path class="cls-2" d="M137.8,293.48l-10.67-6.16c-.86-.49-.75-1.36.24-1.93l12.6-7.27a3.72,3.72,0,0,1,3.34-.14L154,284.14c.86.49.75,1.36-.24,1.93l-12.6,7.27A3.72,3.72,0,0,1,137.8,293.48Z"/><path class="cls-2" d="M160.6,285.62l-10.67-6.16c-.86-.49-.75-1.36.24-1.93l10.58-6.11a3.72,3.72,0,0,1,3.34-.14l10.67,6.16c.86.49.75,1.36-.24,1.93l-10.58,6.11A3.72,3.72,0,0,1,160.6,285.62Z"/><path class="cls-2" d="M177.08,295.14,166.41,289c-.86-.49-.75-1.36.24-1.93l10.58-6.11a3.72,3.72,0,0,1,3.34-.14L191.24,287c.86.49.75,1.36-.24,1.93L180.43,295A3.72,3.72,0,0,1,177.08,295.14Z"/><path class="cls-2" d="M193.57,304.66l-10.67-6.16c-.86-.49-.75-1.36.24-1.93l10.58-6.11a3.72,3.72,0,0,1,3.34-.14l10.67,6.16c.86.49.75,1.36-.24,1.93l-10.58,6.11A3.72,3.72,0,0,1,193.57,304.66Z"/><path class="cls-2" d="M210.05,314.17,199.38,308c-.86-.49-.75-1.36.24-1.93L210.19,300a3.72,3.72,0,0,1,3.34-.14L224.21,306c.86.49.75,1.36-.24,1.93L213.39,314A3.72,3.72,0,0,1,210.05,314.17Z"/><path class="cls-2" d="M226.53,323.69l-10.67-6.16c-.86-.49-.75-1.36.24-1.93l10.58-6.11a3.72,3.72,0,0,1,3.34-.14l10.67,6.16c.86.49.75,1.36-.24,1.93l-10.58,6.11A3.72,3.72,0,0,1,226.53,323.69Z"/><path class="cls-2" d="M243,333.21,232.34,327c-.86-.49-.75-1.36.24-1.93L243.16,319a3.72,3.72,0,0,1,3.34-.14L257.18,325c.86.49.75,1.36-.24,1.93l-10.58,6.11A3.72,3.72,0,0,1,243,333.21Z"/><path class="cls-2" d="M259.5,342.72l-10.67-6.16c-.86-.49-.75-1.36.24-1.93l10.58-6.11a3.72,3.72,0,0,1,3.34-.14l10.67,6.16c.86.49.75,1.36-.24,1.93l-10.58,6.11A3.72,3.72,0,0,1,259.5,342.72Z"/><path class="cls-2" d="M276,352.24l-10.67-6.16c-.86-.49-.75-1.36.24-1.93L276.13,338a3.72,3.72,0,0,1,3.34-.14l10.67,6.16c.86.49.75,1.36-.24,1.93l-10.58,6.11A3.72,3.72,0,0,1,276,352.24Z"/><path class="cls-2" d="M292.47,361.76l-10.67-6.16c-.86-.49-.75-1.36.24-1.93l10.58-6.11a3.72,3.72,0,0,1,3.34-.14l10.67,6.16c.86.49.75,1.36-.24,1.93l-10.58,6.11A3.72,3.72,0,0,1,292.47,361.76Z"/><path class="cls-2" d="M308.95,371.27l-10.67-6.16c-.86-.49-.75-1.36.24-1.93l10.58-6.11a3.72,3.72,0,0,1,3.34-.14l10.67,6.16c.86.49.75,1.36-.24,1.93l-10.58,6.11A3.72,3.72,0,0,1,308.95,371.27Z"/><path class="cls-3" d="M184.89,281.12,174.21,275c-.86-.49-.75-1.36.24-1.93L185,266.92a3.72,3.72,0,0,1,3.34-.14L199,272.94c.86.49.75,1.36-.24,1.93L188.23,281A3.72,3.72,0,0,1,184.89,281.12Z"/><path class="cls-3" d="M168.16,271.46l-10.67-6.16c-.86-.49-.75-1.36.24-1.93l10.58-6.11a3.72,3.72,0,0,1,3.34-.14l10.67,6.16c.86.49.75,1.36-.24,1.93l-10.58,6.11A3.72,3.72,0,0,1,168.16,271.46Z"/><path class="cls-2" d="M151.4,261.78l-23-13.27c-.86-.49-.75-1.36.24-1.93l10.58-6.11a3.72,3.72,0,0,1,3.34-.14l23,13.27c.86.49.75,1.36-.24,1.93l-10.58,6.11A3.72,3.72,0,0,1,151.4,261.78Z"/><path class="cls-2" d="M163.11,250l-18.66-10.77c-.86-.49-.75-1.36.24-1.93l10.58-6.11a3.72,3.72,0,0,1,3.34-.14l18.66,10.77c.86.49.75,1.36-.24,1.93l-10.58,6.11A3.72,3.72,0,0,1,163.11,250Z"/><path class="cls-3" d="M201.37,290.63l-10.67-6.16c-.86-.49-.75-1.36.24-1.93l10.58-6.11a3.72,3.72,0,0,1,3.34-.14l10.67,6.16c.86.49.75,1.36-.24,1.93l-10.58,6.11A3.72,3.72,0,0,1,201.37,290.63Z"/><path class="cls-2" d="M217.85,300.15,207.18,294c-.86-.49-.75-1.36.24-1.93L218,286a3.72,3.72,0,0,1,3.34-.14L232,292c.86.49.75,1.36-.24,1.93L221.2,300A3.72,3.72,0,0,1,217.85,300.15Z"/><path class="cls-2" d="M234.34,309.67l-10.67-6.16c-.86-.49-.75-1.36.24-1.93l10.58-6.11a3.72,3.72,0,0,1,3.34-.14l10.67,6.16c.86.49.75,1.36-.24,1.93l-10.58,6.11A3.72,3.72,0,0,1,234.34,309.67Z"/><path class="cls-2" d="M250.82,319.18,240.15,313c-.86-.49-.75-1.36.24-1.93L251,305a3.72,3.72,0,0,1,3.34-.14L265,311c.86.49.75,1.36-.24,1.93L254.16,319A3.72,3.72,0,0,1,250.82,319.18Z"/><path class="cls-2" d="M267.3,328.7l-10.67-6.16c-.86-.49-.75-1.36.24-1.93l10.58-6.11a3.72,3.72,0,0,1,3.34-.14l10.67,6.16c.86.49.75,1.36-.24,1.93l-10.58,6.11A3.72,3.72,0,0,1,267.3,328.7Z"/><path class="cls-2" d="M283.79,338.22l-10.67-6.16c-.86-.49-.75-1.36.24-1.93L283.93,324a3.72,3.72,0,0,1,3.34-.14L297.95,330c.86.49.75,1.36-.24,1.93l-10.58,6.11A3.72,3.72,0,0,1,283.79,338.22Z"/><path class="cls-2" d="M300.27,347.73l-10.67-6.16c-.86-.49-.75-1.36.24-1.93l10.58-6.11a3.72,3.72,0,0,1,3.34-.14l10.67,6.16c.86.49.75,1.36-.24,1.93l-10.58,6.11A3.72,3.72,0,0,1,300.27,347.73Z"/><path class="cls-2" d="M316.75,357.25l-10.67-6.16c-.86-.49-.75-1.36.24-1.93l10.58-6.11a3.72,3.72,0,0,1,3.34-.14l10.67,6.16c.86.49.75,1.36-.24,1.93l-10.58,6.11A3.72,3.72,0,0,1,316.75,357.25Z"/><path class="cls-2" d="M333.24,366.77l-10.67-6.16c-.86-.49-.75-1.36.24-1.93l10.58-6.11a3.72,3.72,0,0,1,3.34-.14l10.67,6.16c.86.49.75,1.36-.24,1.93l-10.58,6.11A3.72,3.72,0,0,1,333.24,366.77Z"/><path class="cls-2" d="M362.54,383.69l-23.29-13.45c-.86-.49-.75-1.36.24-1.93l10.58-6.11a3.72,3.72,0,0,1,3.34-.14l23.29,13.45c.86.49.75,1.36-.24,1.93l-10.58,6.11A3.72,3.72,0,0,1,362.54,383.69Z"/><path class="cls-2" d="M394.63,365.16,375,353.81c-.86-.49-.75-1.36.24-1.93l10.58-6.11a3.72,3.72,0,0,1,3.34-.14L408.79,357c.86.49.75,1.36-.24,1.93L398,365A3.72,3.72,0,0,1,394.63,365.16Z"/><path class="cls-2" d="M230.24,288.77l-10.67-6.16c-.86-.49-.75-1.36.24-1.93l10.58-6.11a3.72,3.72,0,0,1,3.34-.14l10.67,6.16c.86.49.75,1.36-.24,1.93l-10.58,6.11A3.72,3.72,0,0,1,230.24,288.77Z"/><path class="cls-2" d="M213.34,279l-10.67-6.16c-.86-.49-.75-1.36.24-1.93l10.58-6.11a3.72,3.72,0,0,1,3.34-.14l10.67,6.16c.86.49.75,1.36-.24,1.93l-10.58,6.11A3.72,3.72,0,0,1,213.34,279Z"/><path class="cls-3" d="M196.45,269.27l-10.67-6.16c-.86-.49-.75-1.36.24-1.93l10.58-6.11a3.72,3.72,0,0,1,3.34-.14l10.67,6.16c.86.49.75,1.36-.24,1.93l-10.58,6.11A3.72,3.72,0,0,1,196.45,269.27Z"/><path class="cls-2" d="M179.56,259.51l-10.67-6.16c-.86-.49-.75-1.36.24-1.93l10.58-6.11a3.72,3.72,0,0,1,3.34-.14l10.67,6.16c.86.49.75,1.36-.24,1.93l-10.58,6.11A3.72,3.72,0,0,1,179.56,259.51Z"/><path class="cls-2" d="M246.72,298.29,236,292.13c-.86-.49-.75-1.36.24-1.93l10.58-6.11a3.72,3.72,0,0,1,3.34-.14l10.67,6.16c.86.49.75,1.36-.24,1.93l-10.58,6.11A3.72,3.72,0,0,1,246.72,298.29Z"/><path class="cls-2" d="M263.2,307.81l-10.67-6.16c-.86-.49-.75-1.36.24-1.93l10.58-6.11a3.72,3.72,0,0,1,3.34-.14l10.67,6.16c.86.49.75,1.36-.24,1.93l-10.58,6.11A3.72,3.72,0,0,1,263.2,307.81Z"/><path class="cls-2" d="M279.69,317.32,269,311.16c-.86-.49-.75-1.36.24-1.93l10.58-6.11a3.72,3.72,0,0,1,3.34-.14l10.67,6.16c.86.49.75,1.36-.24,1.93L283,317.18A3.72,3.72,0,0,1,279.69,317.32Z"/><path class="cls-2" d="M296.17,326.84l-10.67-6.16c-.86-.49-.75-1.36.24-1.93l10.58-6.11a3.72,3.72,0,0,1,3.34-.14l10.67,6.16c.86.49.75,1.36-.24,1.93l-10.58,6.11A3.72,3.72,0,0,1,296.17,326.84Z"/><path class="cls-2" d="M312.65,336.36,302,330.19c-.86-.49-.75-1.36.24-1.93l10.58-6.11a3.72,3.72,0,0,1,3.34-.14l10.67,6.16c.86.49.75,1.36-.24,1.93L316,336.22A3.72,3.72,0,0,1,312.65,336.36Z"/><path class="cls-2" d="M329.14,345.87l-10.67-6.16c-.86-.49-.75-1.36.24-1.93l10.58-6.11a3.72,3.72,0,0,1,3.34-.14l10.67,6.16c.86.49.75,1.36-.24,1.93l-10.58,6.11A3.72,3.72,0,0,1,329.14,345.87Z"/><path class="cls-2" d="M345.62,355.39l-10.67-6.16c-.86-.49-.75-1.36.24-1.93l10.58-6.11a3.72,3.72,0,0,1,3.34-.14l10.67,6.16c.86.49.75,1.36-.24,1.93L349,355.25A3.72,3.72,0,0,1,345.62,355.39Z"/><path class="cls-2" d="M362.1,364.9l-10.67-6.16c-.86-.49-.75-1.36.24-1.93l10.58-6.11a3.72,3.72,0,0,1,3.34-.14l10.67,6.16c.86.49.75,1.36-.24,1.93l-10.58,6.11A3.72,3.72,0,0,1,362.1,364.9Z"/><path class="cls-2" d="M378.59,374.42l-10.67-6.16c-.86-.49-.75-1.36.24-1.93l10.58-6.11a3.72,3.72,0,0,1,3.34-.14l10.67,6.16c.86.49.75,1.36-.24,1.93l-10.58,6.11A3.72,3.72,0,0,1,378.59,374.42Z"/><path class="cls-2" d="M221.56,265.23l-10.67-6.16c-.86-.49-.75-1.36.24-1.93L221.7,251a3.72,3.72,0,0,1,3.34-.14l10.67,6.16c.86.49.75,1.36-.24,1.93l-10.58,6.11A3.72,3.72,0,0,1,221.56,265.23Z"/><path class="cls-2" d="M205.16,255.76l-10.67-6.16c-.86-.49-.75-1.36.24-1.93l10.58-6.11a3.72,3.72,0,0,1,3.34-.14l10.67,6.16c.86.49.75,1.36-.24,1.93l-10.58,6.11A3.72,3.72,0,0,1,205.16,255.76Z"/><path class="cls-2" d="M188.75,246.29l-10.67-6.16c-.86-.49-.75-1.36.24-1.93l10.58-6.11a3.72,3.72,0,0,1,3.34-.14l10.67,6.16c.86.49.75,1.36-.24,1.93l-10.58,6.11A3.72,3.72,0,0,1,188.75,246.29Z"/><path class="cls-2" d="M172.35,236.83l-10.67-6.16c-.86-.49-.75-1.36.24-1.93l10.58-6.11a3.72,3.72,0,0,1,3.34-.14l10.67,6.16c.86.49.75,1.36-.24,1.93l-10.58,6.11A3.72,3.72,0,0,1,172.35,236.83Z"/><path class="cls-2" d="M189.22,227.09l-10.67-6.16c-.86-.49-.75-1.36.24-1.93l3.5-2a3.72,3.72,0,0,1,3.34-.14L196.3,223c.86.49.75,1.36-.24,1.93l-3.5,2A3.72,3.72,0,0,1,189.22,227.09Z"/><path class="cls-2" d="M210.62,239.45l-10.67-6.16c-.86-.49-.75-1.36.24-1.93l3.5-2a3.72,3.72,0,0,1,3.34-.14l10.67,6.16c.86.49.75,1.36-.24,1.93l-3.5,2A3.72,3.72,0,0,1,210.62,239.45Z"/><path class="cls-2" d="M227,248.88l-10.67-6.16c-.86-.49-.75-1.36.24-1.93l3.5-2a3.72,3.72,0,0,1,3.34-.14L234,244.79c.86.49.75,1.36-.24,1.93l-3.5,2A3.72,3.72,0,0,1,227,248.88Z"/><path class="cls-2" d="M243.29,258.31l-10.67-6.16c-.86-.49-.75-1.36.24-1.93l3.5-2a3.72,3.72,0,0,1,3.34-.14l10.67,6.16c.86.49.75,1.36-.24,1.93l-3.5,2A3.72,3.72,0,0,1,243.29,258.31Z"/><path class="cls-2" d="M259.62,267.74l-10.67-6.16c-.86-.49-.75-1.36.24-1.93l3.5-2a3.72,3.72,0,0,1,3.34-.14l10.67,6.16c.86.49.75,1.36-.24,1.93l-3.5,2A3.72,3.72,0,0,1,259.62,267.74Z"/><path class="cls-2" d="M350.8,320.38l-10.67-6.16c-.86-.49-.75-1.36.24-1.93l3.5-2a3.72,3.72,0,0,1,3.34-.14l10.67,6.16c.86.49.75,1.36-.24,1.93l-3.5,2A3.72,3.72,0,0,1,350.8,320.38Z"/><path class="cls-2" d="M367.14,329.81l-10.67-6.16c-.86-.49-.75-1.36.24-1.93l3.5-2a3.72,3.72,0,0,1,3.34-.14l10.67,6.16c.86.49.75,1.36-.24,1.93l-3.5,2A3.72,3.72,0,0,1,367.14,329.81Z"/><path class="cls-2" d="M383.47,339.24l-10.67-6.16c-.86-.49-.75-1.36.24-1.93l3.5-2a3.72,3.72,0,0,1,3.34-.14l10.67,6.16c.86.49.75,1.36-.24,1.93l-3.5,2A3.72,3.72,0,0,1,383.47,339.24Z"/><path class="cls-2" d="M399.8,348.67l-10.67-6.16c-.86-.49-.75-1.36.24-1.93l3.5-2a3.72,3.72,0,0,1,3.34-.14l10.67,6.16c.86.49.75,1.36-.24,1.93l-3.5,2A3.72,3.72,0,0,1,399.8,348.67Z"/><path class="cls-2" d="M238,274.75l-10.67-6.16c-.86-.49-.75-1.36.24-1.93l10.58-6.11a3.72,3.72,0,0,1,3.34-.14l10.67,6.16c.86.49.75,1.36-.24,1.93l-10.58,6.11A3.72,3.72,0,0,1,238,274.75Z"/><path class="cls-2" d="M254.52,284.27l-10.67-6.16c-.86-.49-.75-1.36.24-1.93l10.58-6.11a3.72,3.72,0,0,1,3.34-.14l10.67,6.16c.86.49.75,1.36-.24,1.93l-10.58,6.11A3.72,3.72,0,0,1,254.52,284.27Z"/><path class="cls-2" d="M271,293.78l-10.67-6.16c-.86-.49-.75-1.36.24-1.93l10.58-6.11a3.72,3.72,0,0,1,3.34-.14l10.67,6.16c.86.49.75,1.36-.24,1.93l-10.58,6.11A3.72,3.72,0,0,1,271,293.78Z"/><path class="cls-2" d="M287.49,303.3l-10.67-6.16c-.86-.49-.75-1.36.24-1.93l10.58-6.11A3.72,3.72,0,0,1,291,289l10.67,6.16c.86.49.75,1.36-.24,1.93l-10.58,6.11A3.72,3.72,0,0,1,287.49,303.3Z"/><path class="cls-2" d="M304,312.82l-10.67-6.16c-.86-.49-.75-1.36.24-1.93l10.58-6.11a3.72,3.72,0,0,1,3.34-.14l10.67,6.16c.86.49.75,1.36-.24,1.93l-10.58,6.11A3.72,3.72,0,0,1,304,312.82Z"/><path class="cls-2" d="M320.46,322.33l-10.67-6.16c-.86-.49-.75-1.36.24-1.93l10.58-6.11a3.72,3.72,0,0,1,3.34-.14l10.67,6.16c.86.49.75,1.36-.24,1.93l-10.58,6.11A3.72,3.72,0,0,1,320.46,322.33Z"/><path class="cls-2" d="M336.94,331.85l-10.67-6.16c-.86-.49-.75-1.36.24-1.93l10.58-6.11a3.72,3.72,0,0,1,3.34-.14l10.67,6.16c.86.49.75,1.36-.24,1.93l-10.58,6.11A3.72,3.72,0,0,1,336.94,331.85Z"/><path class="cls-2" d="M353.42,341.37l-10.67-6.16c-.86-.49-.75-1.36.24-1.93l10.58-6.11a3.72,3.72,0,0,1,3.34-.14l10.67,6.16c.86.49.75,1.36-.24,1.93l-10.58,6.11A3.72,3.72,0,0,1,353.42,341.37Z"/><path class="cls-2" d="M369.91,350.88l-10.67-6.16c-.86-.49-.75-1.36.24-1.93L370,336.68a3.72,3.72,0,0,1,3.34-.14l10.67,6.16c.86.49.75,1.36-.24,1.93l-10.58,6.11A3.72,3.72,0,0,1,369.91,350.88Z"/><path class="cls-2" d="M143.8,275.92l-31.43-18.15c-.86-.49-.75-1.36.24-1.93l10.58-6.11a3.72,3.72,0,0,1,3.34-.14L158,267.75c.86.49.75,1.36-.24,1.93l-10.58,6.11A3.72,3.72,0,0,1,143.8,275.92Z"/><path class="cls-2" d="M346.3,392.84l-31.43-18.15c-.86-.49-.75-1.36.24-1.93l10.58-6.11a3.72,3.72,0,0,1,3.34-.14l31.43,18.15c.86.49.75,1.36-.24,1.93l-10.58,6.11A3.72,3.72,0,0,1,346.3,392.84Z"/><path class="cls-2" d="M280.38,375.8l-10.67-6.16c-.86-.49-.75-1.36.24-1.93l12.6-7.27a3.72,3.72,0,0,1,3.34-.14l10.67,6.16c.86.49.75,1.36-.24,1.93l-12.6,7.27A3.72,3.72,0,0,1,280.38,375.8Z"/><path class="cls-2" d="M160.68,306.69l-17.07-9.86c-.86-.49-.75-1.36.24-1.93l12.6-7.27a3.72,3.72,0,0,1,3.34-.14l17.07,9.86c.86.49.75,1.36-.24,1.93L164,306.55A3.72,3.72,0,0,1,160.68,306.69Z"/><path class="cls-2" d="M264.5,366.63l-17.07-9.86c-.86-.49-.75-1.36.24-1.93l12.6-7.27a3.72,3.72,0,0,1,3.34-.14l17.07,9.86c.86.49.75,1.36-.24,1.93l-12.6,7.27A3.72,3.72,0,0,1,264.5,366.63Z"/><path class="cls-2" d="M184.46,320.42l-17.07-9.86c-.86-.49-.75-1.36.24-1.93l12.6-7.27a3.72,3.72,0,0,1,3.34-.14l17.07,9.86c.86.49.75,1.36-.24,1.93l-12.6,7.27A3.72,3.72,0,0,1,184.46,320.42Z"/><path class="cls-2" d="M183.69,301.29l74.22,42.85a1,1,0,0,1,0,1.93l-12.85,7.42a3.69,3.69,0,0,1-3.33,0l-74.22-42.85Z"/><path class="cls-2" d="M326.45,393.06l11.89,6.86c.7.41.61,1.11-.2,1.58l-5.15,3a3,3,0,0,1-2.74.11l-11.89-6.86c-.7-.41-.61-1.11.2-1.58l5.15-3A3,3,0,0,1,326.45,393.06Z"/><path class="cls-2" d="M309.83,383.46l11.89,6.86c.7.41.61,1.11-.2,1.58l-5.15,3a3,3,0,0,1-2.74.11l-11.89-6.86c-.7-.41-.61-1.11.2-1.58l5.15-3A3,3,0,0,1,309.83,383.46Z"/><path class="cls-2" d="M293.35,373.94l11.89,6.86c.7.41.61,1.11-.2,1.58l-5.15,3a3,3,0,0,1-2.74.11l-11.89-6.86c-.7-.41-.61-1.11.2-1.58l5.15-3A3,3,0,0,1,293.35,373.94Z"/><path class="cls-2" d="M318.94,378.21l11.89,6.86c.7.41.61,1.11-.2,1.58l-5.15,3a3,3,0,0,1-2.74.11l-11.89-6.86c-.7-.41-.61-1.11.2-1.58l5.15-3A3,3,0,0,1,318.94,378.21Z"/><polygon class="cls-9" points="204.42 164.54 472.2 160.49 457.56 226.46 201.23 179.1 204.42 164.54"/><path class="cls-10" d="M103.81,221.47s.79,16.34,2,27.32,27.69-8.43,27.69-8.43v-12.5Z"/><path class="cls-11" d="M117.89,424.75c.4,1,7.25,9.33,14.1,11.42a15.76,15.76,0,0,0,6.29.87,2.07,2.07,0,0,0,1.69-2.76,26,26,0,0,0-13.14-14.49C115.21,414,117.89,424.75,117.89,424.75Z"/><path class="cls-11" d="M115.61,427.95A56.71,56.71,0,0,1,119,439.07c.48,3.09-1.21,7.1-2.61,9.76a2.85,2.85,0,0,1-4.44.77A16.48,16.48,0,0,1,106.37,439c-.79-8.54,0-10,0-10Z"/><path class="cls-12" d="M99.1,324.74a162.38,162.38,0,0,0,0,22.69c.89,11.92,4.09,67.64,4.69,81,0,0-.3,4.06,7.56,3.17s7.22-5.4,7.22-5.4,11-.15,11.38-6.65,11.3-77.67,11.3-103.25Z"/><path class="cls-13" d="M145.34,269l5.41,8.37,18.58,22.45a4.17,4.17,0,0,1-3,2.63c-1.81.43-17.44-14.49-24.19-21a5.18,5.18,0,0,1-.71-6.59Z"/><path class="cls-14" d="M134.79,234.67s8.59-.22,11.58,12.19,5.33,28,2.73,29.24c-7.81,3.88-12.74-.66-12.74-.66Z"/><path class="cls-15" d="M137.36,235.2a7,7,0,0,0-4.64-.26c-7.32,2.1-34.83,10.17-39.36,14-5.24,4.48,7.86,29.64,7.67,37.89s-1.12,18-1.85,26.94-1.72,13.88,5.62,17.7,19.86,4,29.23-3.15,7.67-12,7.28-17.22-3.58-27.61-3.31-34a24.09,24.09,0,0,0,5.75-6.61c2.45-4.17-1.87-11.84-3.67-16.83s1-10.69.46-14.76A4.62,4.62,0,0,0,137.36,235.2Z"/><ellipse class="cls-6" cx="118.23" cy="245.1" rx="10.42" ry="8.27" transform="translate(-30.18 17.01) rotate(-7.3)"/><ellipse class="cls-13" cx="118.23" cy="245.1" rx="7.45" ry="5.91" transform="translate(-30.18 17.01) rotate(-7.3)"/><path class="cls-13" d="M121.57,233.52s-5-4.08-5.94-2-1.78,10.95-1.78,10.95l9.86,2.65-1.5-9S124.19,234.43,121.57,233.52Z"/><circle class="cls-13" cx="122.28" cy="222.92" r="14.72" transform="translate(-107.46 331.85) rotate(-86.62)"/><path class="cls-16" d="M114.94,234.08c-.09.46-.17,1-.25,1.47,1,5.12,8.66,7.37,8.66,7.37l-1.13-6.81s.93-.79.67-1.58C119.85,233.57,116,232.72,114.94,234.08Z"/><circle class="cls-13" cx="122.28" cy="222.92" r="14.72" transform="translate(-107.46 331.85) rotate(-86.62)"/><polygon class="cls-13" points="86 285.25 87.65 324.65 93.41 325.25 97.16 289.78 86 285.25"/><path class="cls-14" d="M104.93,282c-1.91-8.41-5.67-27-5.67-27l-1.61,18.49c1.86,5.48,3.45,10.52,3.39,13.43-.11,4.84-.48,10.19-.91,15.6v0S106.84,290.37,104.93,282Z"/><path class="cls-14" d="M94.47,248.18s-4.61,1.76-7.21,15.91-4.56,28.32.09,30.15,8.53,3.2,9.9-.58,2.21-22,2.38-28.58S100.05,249.48,94.47,248.18Z"/><path class="cls-13" d="M168,298.22a12.37,12.37,0,0,1,4.3,2.88,28,28,0,0,1,2.94,3.94c1.43,2.14,2.64,6.77,1.77,7.34s-5.88-7.75-6.69-5.81,0,3.73-1,3.75-4.63-8.37-7.46-11S168,298.22,168,298.22Z"/><path class="cls-10" d="M118.58,426.23a22.61,22.61,0,0,0,3.15-.33h0l2.16-86.62Z"/><path class="cls-13" d="M87.7,324.32s-1.52,9.2-1.29,12.14,1.81,7.8,3,7.7,0-11.85,2.14-10.68,2.32,3.18,3.27,2.47-1.66-10.75-1-15.1S87.7,324.32,87.7,324.32Z"/><path class="cls-16" d="M127.94,224.21c7.39,2.62,8.82,1,8.9.94.07-.45.12-.9.15-1.35a14.68,14.68,0,0,0-.49-4.7l-19.16-2.59S120.35,221.51,127.94,224.21Z"/><path class="cls-10" d="M137.51,209.12c-1.74-1.49-8-8.87-19.28-7.13-7,1.09-13,5.89-14.28,16.83a25.16,25.16,0,0,0,6.81,20,6,6,0,0,0,.8-.4c2.82-1.85,3.12-2.87,3.12-2.88l.62-5.58a1.56,1.56,0,0,0-1.4-1.55,2.81,2.81,0,0,1-2.06-1.26c-1.62-2.11-.87-5.41,2.36-5.53a2.48,2.48,0,0,0,2.58-1.84,1.32,1.32,0,0,1,1.72-.9c3.68,1.33,12.74,4.2,18.57,2.55C144.55,219.32,139.25,210.61,137.51,209.12Z"/><path class="cls-6" d="M129.12,230.86l4.5-1.24s-2.15,3.38-5.29,4.25-3.63-1.8-3.63-1.8Z"/><path class="cls-2" d="M176.44,461.54s-4.84-2.44-7.82,1.19-7.22,12.22-7.36,18,4.59,5.41,7.4,4,11-13.26,11.5-15.59-.59-5.48-1.37-6.1S176.44,461.54,176.44,461.54Z"/><path class="cls-17" d="M177.5,460.37l.22,5A2.84,2.84,0,0,1,176.3,468a5.58,5.58,0,0,1-3.73.58c-3.65-.59-4-1.63-4.23-6.64S177.5,460.37,177.5,460.37Z"/><path class="cls-2" d="M158.72,451.9s-4.84-2.44-7.82,1.19-7.22,12.22-7.36,18,4.59,5.41,7.4,4,11-13.26,11.5-15.59-.59-5.48-1.37-6.1S158.72,451.9,158.72,451.9Z"/><path class="cls-17" d="M159.77,450.73l.22,5a2.84,2.84,0,0,1-1.42,2.61,5.58,5.58,0,0,1-3.73.58c-3.65-.59-4-1.63-4.23-6.64S159.77,450.73,159.77,450.73Z"/><path class="cls-18" d="M203,358.64c-1.43-23.32-25.25,3.43-25.25,3.43l-16.3,16-14.68,16.13a14.47,14.47,0,0,0-3.65,11.62L149,451a4.44,4.44,0,0,0,4.46,3.86,15.13,15.13,0,0,0,2.2-.19,5.52,5.52,0,0,0,4.91-5.86l-1.09-42.29,30.83-18.58S204.41,382,203,358.64Z"/><path class="cls-18" d="M220.7,367.52c-1.43-23.32-25.25,3.43-25.25,3.43l-16.3,16-14.68,16.13a14.47,14.47,0,0,0-3.65,11.62l5.94,45.22a4.44,4.44,0,0,0,4.46,3.86,15.1,15.1,0,0,0,2.2-.19,5.52,5.52,0,0,0,4.91-5.86l-1.09-42.29,30.83-18.58S222.13,390.84,220.7,367.52Z"/><path class="cls-19" d="M206.61,292.68c18.06,7.49,17.7,18.16,17.7,18.16S220.77,350,222,376.1c.5,10.93-58,11.76-49.31-17.39,10.3-34.37,6.44-62.19,11.26-66.38S201.94,290.74,206.61,292.68Z"/><ellipse class="cls-13" cx="203.4" cy="299.82" rx="6.86" ry="9.31" transform="translate(-137.68 422) rotate(-75.56)"/><path class="cls-6" d="M204.73,307.71a13.11,13.11,0,0,1-3.26-.42c-5.43-1.4-9-5.89-7.93-10a6.9,6.9,0,0,1,4.36-4.6,12,12,0,0,1,7.42-.34c5.43,1.4,9,5.89,7.93,10h0C212.41,305.64,208.88,307.71,204.73,307.71ZM202,293.64a9.31,9.31,0,0,0-3.47.64,5.23,5.23,0,0,0-3.34,3.43c-.82,3.2,2.18,6.75,6.69,7.91s8.85-.49,9.68-3.7-2.18-6.75-6.69-7.91A11.5,11.5,0,0,0,202,293.64Z"/><path class="cls-13" d="M199.37,291.86a44.51,44.51,0,0,1-.16,6.45c-.1,1.8,6.2,3.48,7.83,1.85s1-3.32,1.37-9.44S199.37,291.86,199.37,291.86Z"/><path class="cls-16" d="M208.41,290.72s-1.55,5.68-9.2,7.85l.12-5.16Z"/><circle class="cls-13" cx="199.79" cy="279.77" r="13.9" transform="translate(-63.67 58.92) rotate(-14.5)"/><path class="cls-16" d="M203,280.28s-7.65,3.28-13,3.32-4.13-4.4-4.13-4.4l15.73-2.27Z"/><path class="cls-10" d="M188.45,281.15s6.67-2.83,12.51-1.65a6.13,6.13,0,0,1,3.53,2.1,2.09,2.09,0,0,0,1.07.77c1,.23,2.73-4.07,4.75-4.17s3.36,1.33,1.71,4-1.09,5.61-.33,6,8.83-5.75,1.71-19.85-25.19-6.5-28-3.65c0,0-3,2.58-5.37.28C180,265,177.34,285.22,188.45,281.15Z"/><path class="cls-13" d="M214.17,339.43V350a4.31,4.31,0,0,1-1.41,3.18L191,373l2.47,3.77,28.56-19.62a5.83,5.83,0,0,0,2.38-4.11l2.06-19.62Z"/><path class="cls-20" d="M222.77,305.55s6.59,9.91,9,36c0,0-11.26,3.64-17.65,1.57S222.77,305.55,222.77,305.55Z"/><path class="cls-20" d="M213,318.08s-2.58,13.81-2.73,20.3a4.14,4.14,0,0,0,2.73,4h0Z"/><path class="cls-2" d="M207.33,386.74l-4.8-.63-31-17.89a4.31,4.31,0,0,0-3.88.16l-22,12.67-2.9-.38v2.89h0a1.13,1.13,0,0,0,.67,1l35.12,20.28a4.31,4.31,0,0,0,3.88-.16l23.92-13.8a1.56,1.56,0,0,0,.95-1.3h0Z"/><path class="cls-3" d="M184,375.43l-2.2-1.27H157.64L145.71,381l-2.9-.38v2.89h0a1.13,1.13,0,0,0,.67,1l35.12,20.28a3.63,3.63,0,0,0,2,.37Z"/><path class="cls-8" d="M144.09,380.83l-1.29-.17v2.89h0a1.13,1.13,0,0,0,.67,1l.62.36Z"/><path class="cls-4" d="M178.95,405a4.5,4.5,0,0,0,3.29-.2v-4.92h-3.29Z"/><path class="cls-6" d="M178.59,402l-35.12-20.28c-1-.57-.87-1.58.28-2.24l23.92-13.8a4.31,4.31,0,0,1,3.88-.16l35.12,20.28c1,.57.87,1.58-.28,2.24l-23.92,13.8A4.31,4.31,0,0,1,178.59,402Z"/><path class="cls-5" d="M178,398.89,148.8,382c-.83-.48-.72-1.31.23-1.86L161.84,373a3.58,3.58,0,0,1,3.22-.13l29.2,16.86c.83.48.72,1.31-.23,1.86l-12.82,7.21A3.58,3.58,0,0,1,178,398.89Z"/><path class="cls-13" d="M169,365l-.36,2.42a17.92,17.92,0,0,0,.16,6.21l.43,2.14a3,3,0,0,0,2.41,2.36h0a1.66,1.66,0,0,0,1.94-1.45l.58-5.18s1.33,1.74,2,1.74-.72-5.19-2.16-8.12S169,365,169,365Z"/><path class="cls-13" d="M180.93,326.46l-3.77,7.46a14.63,14.63,0,0,0-1.54,5.66L174,365.09l-5-.12-2.25-28.65a10.48,10.48,0,0,1,.13-2.65l2.57-14.53Z"/><path class="cls-2" d="M177.4,403.91l-2.94-3.84-31-17.93a4.31,4.31,0,0,1-1.79-3.44l0-25.35L139.94,351l1.67-1h0a1.13,1.13,0,0,1,1.21.07l35.1,20.32a4.31,4.31,0,0,1,1.79,3.44l0,27.61A1.56,1.56,0,0,1,179,403h0Z"/><path class="cls-3" d="M156,389.37l-2.2-1.27-12.08-21V353.34L139.94,351l1.67-1h0a1.13,1.13,0,0,1,1.21.07l35.1,20.32a3.63,3.63,0,0,1,1.32,1.55Z"/><path class="cls-8" d="M140.73,352l-.79-1,1.67-1h0a1.13,1.13,0,0,1,1.21.07l.62.36Z"/><path class="cls-4" d="M178.25,370.66a4.5,4.5,0,0,1,1.47,3l-3.43,2-1.64-2.85Z"/><path class="cls-6" d="M176.26,371.4l-35.1-20.32c-1-.57-1.8,0-1.8,1.36l0,27.61a4.31,4.31,0,0,0,1.79,3.44l35.1,20.32c1,.57,1.8,0,1.8-1.36l0-27.61A4.31,4.31,0,0,0,176.26,371.4Z"/><path class="cls-13" d="M193.51,376.76l-.56,1.17a7.81,7.81,0,0,1-2.93,3.25l-3.49,2.15a3.47,3.47,0,0,1-3.56.08l-.12-.07a2.1,2.1,0,0,1-.3-3.22l3.64-3.75s-2,1.57-2.62.94c-.42-.46,2-2.72,3.83-2.8A7.29,7.29,0,0,0,191,373Z"/><path class="cls-19" d="M184.28,292.28s-13.36,14.53-18.74,27.86a27.26,27.26,0,0,0,15.75,11.46C192.46,334.82,184.28,292.28,184.28,292.28Z"/><path class="cls-20" d="M178.76,330.73l2.16-20.91-5.1,19.59A29.19,29.19,0,0,0,178.76,330.73Z"/><path class="cls-6" d="M194.28,289.34l-3.59-1a8.66,8.66,0,0,0,4.21,3.38c2.5.69,2.89-1.43,2.89-1.43Z"/></g></g></svg>