<svg xmlns="http://www.w3.org/2000/svg" xmlns:xlink="http://www.w3.org/1999/xlink" viewBox="0 0 758.81 532.08"><defs><style>.cls-1{fill:none;}.cls-2{fill:#cbe9f4;}.cls-3{fill:#d4ecff;}.cls-4{fill:#35afe5;}.cls-5{fill:#97dfff;}.cls-6{fill:#55c3fe;}.cls-7{fill:#e6e7e8;}.cls-8{fill:#f0fbff;}.cls-9{opacity:0.3;}.cls-10{fill:#bcbec0;}.cls-11{fill:#231f20;opacity:0.1;}.cls-12{fill:#fff;}.cls-13{fill:#ff7b97;}.cls-14{clip-path:url(#clip-path);}.cls-15{fill:#32475c;}.cls-16{fill:#f1f2f2;}.cls-17{fill:#eac3a7;}.cls-18{fill:#f0d0b4;}.cls-19{clip-path:url(#clip-path-2);}.cls-20{clip-path:url(#clip-path-3);}.cls-21{fill:#10abd9;}.cls-22{fill:#f15a29;}.cls-23{clip-path:url(#clip-path-4);}.cls-24{fill:#1d6baa;}.cls-25{fill:#696969;}</style><clipPath id="clip-path"><path class="cls-1" d="M374.48,48.13c25.79.11,50.28,21.73,54.69,48.3s-12.93,48-38.72,47.91S340.17,122.6,335.76,96,348.68,48,374.48,48.13Z"/></clipPath><clipPath id="clip-path-2"><path class="cls-1" d="M235.91,157.75c22.06.09,43,18.59,46.79,41.31s-11.06,41.08-33.12,41-43-18.59-46.79-41.32S213.84,157.66,235.91,157.75Z"/></clipPath><clipPath id="clip-path-3"><path class="cls-1" d="M559.17,147.48c20.84.09,40.63,17.56,44.2,39s-10.45,38.81-31.29,38.72-40.64-17.57-44.2-39S538.32,147.39,559.17,147.48Z"/></clipPath><clipPath id="clip-path-4"><path class="cls-2" d="M416.05,249c16.63.07,32.43,14,35.28,31.16s-8.34,31-25,30.91-32.43-14-35.28-31.16S399.41,249,416.05,249Z"/></clipPath></defs><title>Asset 63</title><g id="Layer_2" data-name="Layer 2"><g id="Layer_1-2" data-name="Layer 1"><polygon class="cls-3" points="503.52 294.43 0 481.58 281.77 532.08 758.81 360.99 503.52 294.43"/><polygon class="cls-4" points="40.77 445.89 40.77 466.81 306.11 517.3 306.11 496.39 40.77 445.89"/><polygon class="cls-5" points="306.11 496.39 306.11 517.3 758.81 360.99 758.81 340.07 306.11 496.39"/><polygon class="cls-6" points="493.48 289.6 40.77 445.89 306.11 496.39 758.81 340.07 493.48 289.6"/><polygon class="cls-7" points="472.36 309.17 127.53 428.21 347.07 469.98 691.8 350.94 472.36 309.17"/><path class="cls-8" d="M458.36,314l-59,137.92L347.07,470l-27.41-5.22,51.65-120.71Zm90,9.64L494,313.29,440.81,437.61l69-23.83ZM190.27,440.15,286,458.37l42.61-99.58-121.5,41.95Z"/><g class="cls-9"><ellipse class="cls-10" cx="565.92" cy="315.56" rx="8.12" ry="4.06"/><ellipse class="cls-10" cx="587.68" cy="319.62" rx="8.12" ry="4.06"/><ellipse class="cls-10" cx="609.43" cy="323.68" rx="8.12" ry="4.06"/></g><polygon class="cls-11" points="307.27 0 307.27 300.37 484.01 334 484.01 33.64 307.27 0"/><polygon class="cls-12" points="296.25 5.85 296.25 306.22 473 339.85 473 39.49 296.25 5.85"/><polygon class="cls-10" points="317.03 154.87 317.03 164.31 445.67 188.62 445.67 179.19 317.03 154.87"/><polygon class="cls-7" points="317.03 174.15 317.03 183.59 445.67 207.9 445.67 198.47 317.03 174.15"/><polygon class="cls-7" points="317.03 193.43 317.03 202.87 445.67 227.19 445.67 217.75 317.03 193.43"/><polygon class="cls-7" points="317.03 212.72 317.03 222.16 445.67 246.47 445.67 237.04 317.03 212.72"/><polygon class="cls-7" points="317.03 232.01 317.03 241.44 445.67 265.75 445.67 256.32 317.03 232.01"/><path class="cls-2" d="M374.48,48.13c25.79.11,50.28,21.73,54.69,48.3s-12.93,48-38.72,47.91S340.17,122.6,335.76,96,348.68,48,374.48,48.13Z"/><polygon class="cls-13" points="326.01 265.59 322.85 269.92 317.03 269.99 320.9 275.48 320.46 281.35 326.01 280.39 331.56 283.97 331.12 277.89 334.99 274.23 329.17 271.42 326.01 265.59"/><polygon class="cls-13" points="353.64 270.5 350.48 274.84 344.66 274.9 348.52 280.39 348.08 286.26 353.64 285.31 359.18 288.88 358.75 282.81 362.61 279.14 356.79 276.33 353.64 270.5"/><polygon class="cls-13" points="381.26 275.4 378.1 279.75 372.28 279.81 376.14 285.3 375.71 291.17 381.26 290.22 386.81 293.79 386.37 287.71 390.23 284.05 384.42 281.24 381.26 275.4"/><polygon class="cls-13" points="408.88 280.32 405.72 284.66 399.9 284.71 403.76 290.21 403.33 296.08 408.88 295.13 414.43 298.7 413.99 292.62 417.86 288.96 412.04 286.15 408.88 280.32"/><polygon class="cls-10" points="436.5 285.23 433.34 289.57 427.52 289.63 431.39 295.12 430.95 300.99 436.5 300.04 442.05 303.61 441.62 297.53 445.48 293.87 439.66 291.07 436.5 285.23"/><g class="cls-14"><path class="cls-15" d="M403.56,81c-.77,14.47-12,25.64-25,24.94s-23-13-22.2-27.45,11.66-20,24.68-19.31S404.33,66.57,403.56,81Z"/><path class="cls-16" d="M361.23,132.51l-12,28.76-8.06-6.92s10.87-42.14,21.51-41.78l.73,22.84Z"/><path class="cls-15" d="M385.47,111.15,402,117.2,400.85,137l.81,11.45,3.23,38.69s-40.41,6.53-53-5.89c0,0,1-39.29,3.44-47.41s7.14-21.3,7.14-21.3Z"/><path class="cls-16" d="M397.28,148.48l8.59,21.84,9.41-2.4s-4.09-45.41-13.32-50.74l-3,5.54A30.39,30.39,0,0,0,397.28,148.48Z"/><path class="cls-17" d="M378.42,119.52h0a6.61,6.61,0,0,0,6.93-6.23l1-19.62a6.61,6.61,0,0,0-6.23-6.93h0A6.61,6.61,0,0,0,373.24,93l-1,19.62A6.6,6.6,0,0,0,378.42,119.52Z"/><path class="cls-18" d="M359.54,74.36c-3.21,12.14-.92,30.36,8.13,32.76s21.49-2.23,24.7-14.37-3.73-22.64-12.79-25S362.75,62.22,359.54,74.36Z"/><ellipse class="cls-18" cx="393.18" cy="92.88" rx="5.65" ry="3.59" transform="translate(189.28 441.65) rotate(-72.98)"/><path class="cls-15" d="M390.23,80.21s1.7,7.18-.47,12.51l1.68.38s4.16-9.06,3.81-12.63"/><polygon class="cls-15" points="377.01 119.04 382.24 122.76 378.95 129.8 374.73 129.58 372.3 121.94 377.01 119.04"/><polygon class="cls-15" points="374.68 128.52 379.15 129.14 383.6 171.63 376.22 184.26 369.22 169.79 374.68 128.52"/><polygon class="cls-12" points="372.26 109.58 367.69 112.73 372.19 123.97 377.16 119.1 372.26 109.58"/><polygon class="cls-12" points="385.51 109.63 392.05 113.31 382.56 125.11 376.84 119.19 385.51 109.63"/><path class="cls-15" d="M394.93,79.45a47.62,47.62,0,0,1-42.31-.08s1.82-21.06,23-15.75S395.31,79.1,395.31,79.1"/></g><polygon class="cls-11" points="183.09 113.33 183.09 370.28 334.29 399.06 334.29 142.11 183.09 113.33"/><polygon class="cls-12" points="168.99 121.58 168.99 378.53 320.19 407.31 320.19 150.36 168.99 121.58"/><polygon class="cls-10" points="186.77 249.06 186.77 257.13 296.82 277.93 296.82 269.87 186.77 249.06"/><polygon class="cls-7" points="186.77 265.56 186.77 273.63 296.82 294.43 296.82 286.36 186.77 265.56"/><polygon class="cls-7" points="186.77 282.05 186.77 290.13 296.82 310.93 296.82 302.86 186.77 282.05"/><polygon class="cls-7" points="186.77 298.55 186.77 306.63 296.82 327.43 296.82 319.35 186.77 298.55"/><polygon class="cls-7" points="186.77 315.05 186.77 323.12 296.82 343.92 296.82 335.85 186.77 315.05"/><path class="cls-2" d="M235.91,157.75c22.06.09,43,18.59,46.79,41.31s-11.06,41.08-33.12,41-43-18.59-46.79-41.32S213.84,157.66,235.91,157.75Z"/><polygon class="cls-13" points="194.45 343.77 191.75 347.49 186.77 347.54 190.08 352.24 189.71 357.26 194.45 356.45 199.2 359.5 198.83 354.31 202.13 351.17 197.15 348.77 194.45 343.77"/><polygon class="cls-13" points="218.08 347.98 215.38 351.69 210.4 351.74 213.71 356.44 213.34 361.46 218.08 360.65 222.83 363.7 222.46 358.51 225.76 355.37 220.78 352.97 218.08 347.98"/><polygon class="cls-13" points="241.71 352.18 239.01 355.89 234.03 355.94 237.34 360.64 236.96 365.66 241.71 364.85 246.46 367.9 246.09 362.71 249.39 359.57 244.41 357.17 241.71 352.18"/><polygon class="cls-13" points="265.34 356.38 262.64 360.09 257.66 360.14 260.97 364.84 260.6 369.86 265.34 369.05 270.09 372.1 269.71 366.9 273.02 363.77 268.04 361.38 265.34 356.38"/><polygon class="cls-10" points="288.97 360.58 286.27 364.29 281.29 364.34 284.6 369.04 284.22 374.07 288.97 373.25 293.72 376.3 293.35 371.11 296.65 367.97 291.67 365.57 288.97 360.58"/><g class="cls-19"><path class="cls-15" d="M262.07,192.94c-1,12.76-9.17,19.2-20.66,18.26s-20-12-18.91-24.79S233.29,169,244.77,170,263.11,180.19,262.07,192.94Z"/><path class="cls-16" d="M225.42,234.19l-11.31,25.1L207.17,253s10.65-36.94,20-36.35l.07,20.18Z"/><path class="cls-7" d="M247.36,215.93l14.45,5.76-1.52,17.46.43,10.13,1.89,34.24S226.76,288.27,216,277c0,0,1.91-34.66,4.22-41.77S227,216.6,227,216.6Z"/><path class="cls-16" d="M256.85,249.19l7,19.49,8.37-1.88s-2.48-40.2-10.49-45.13l-2.82,4.82A26.86,26.86,0,0,0,256.85,249.19Z"/><path class="cls-17" d="M240.93,223.15h0a5.83,5.83,0,0,0,6.27-5.32l1.41-17.3a5.84,5.84,0,0,0-5.32-6.27h0a5.84,5.84,0,0,0-6.27,5.33l-1.41,17.3A5.83,5.83,0,0,0,240.93,223.15Z"/><path class="cls-18" d="M225.39,182.8c-3.14,10.64-1.57,26.79,6.36,29.13s19-1.44,22.17-12.07-2.73-20.08-10.67-22.42S228.52,172.17,225.39,182.8Z"/><ellipse class="cls-18" cx="254.62" cy="200" rx="4.99" ry="3.18" transform="translate(-16.23 377.4) rotate(-71.37)"/><path class="cls-15" d="M252.34,188.74s1.33,6.39-.73,11l1.47.38s3.89-7.9,3.68-11.06"/><polygon class="cls-7" points="239.69 222.69 244.22 226.1 241.14 232.24 237.42 231.94 235.46 225.13 239.69 222.69"/><polygon class="cls-7" points="237.4 231 241.33 231.66 244.2 269.28 237.37 280.25 231.55 267.31 237.4 231"/><polygon class="cls-12" points="235.74 214.22 231.62 216.88 235.32 226.93 239.82 222.75 235.74 214.22"/><polygon class="cls-12" points="247.44 214.59 253.12 218.01 244.44 228.19 239.54 222.82 247.44 214.59"/><path class="cls-15" d="M252.6,190.57s-14.73-13-29.55-3.76c0,0,1.4-18.31,16.78-13.1,18.24,6.19,17,14.17,17,14.17"/></g><polygon class="cls-11" points="508.29 106.63 508.29 349.4 651.14 376.58 651.14 133.82 508.29 106.63"/><polygon class="cls-12" points="495.94 113.31 495.94 356.07 638.79 383.25 638.79 140.49 495.94 113.31"/><polygon class="cls-10" points="512.74 233.75 512.74 241.37 616.71 261.02 616.71 253.4 512.74 233.75"/><polygon class="cls-7" points="512.74 249.33 512.74 256.96 616.71 276.61 616.71 268.98 512.74 249.33"/><polygon class="cls-7" points="512.74 264.92 512.74 272.54 616.71 292.2 616.71 284.57 512.74 264.92"/><polygon class="cls-7" points="512.74 280.5 512.74 288.13 616.71 307.79 616.71 300.16 512.74 280.5"/><polygon class="cls-7" points="512.74 296.09 512.74 303.71 616.71 323.37 616.71 315.74 512.74 296.09"/><path class="cls-2" d="M559.17,147.48c20.84.09,40.63,17.56,44.2,39s-10.45,38.81-31.29,38.72-40.64-17.57-44.2-39S538.32,147.39,559.17,147.48Z"/><polygon class="cls-13" points="520 323.23 517.45 326.74 512.74 326.79 515.87 331.23 515.51 335.97 520 335.2 524.48 338.09 524.13 333.18 527.25 330.21 522.55 327.95 520 323.23"/><polygon class="cls-13" points="542.33 327.2 539.77 330.71 535.07 330.75 538.19 335.19 537.84 339.94 542.33 339.18 546.81 342.06 546.46 337.15 549.58 334.19 544.88 331.92 542.33 327.2"/><polygon class="cls-13" points="564.65 331.17 562.09 334.67 557.39 334.72 560.52 339.17 560.16 343.91 564.65 343.14 569.13 346.02 568.78 341.12 571.9 338.16 567.2 335.89 564.65 331.17"/><polygon class="cls-13" points="586.97 335.14 584.42 338.64 579.71 338.7 582.84 343.13 582.49 347.88 586.97 347.11 591.46 350 591.11 345.08 594.23 342.13 589.53 339.85 586.97 335.14"/><polygon class="cls-10" points="609.3 339.11 606.74 342.62 602.04 342.66 605.16 347.11 604.81 351.85 609.3 351.08 613.78 353.96 613.43 349.05 616.55 346.09 611.85 343.82 609.3 339.11"/><g class="cls-20"><path class="cls-15" d="M587.64,178.37c-.69,13.09-10.81,23.18-22.59,22.56S544.28,189.19,545,176.1,555.52,158,567.3,158.64,588.34,165.29,587.64,178.37Z"/><path class="cls-21" d="M549.36,224.91l-10.84,26-7.29-6.26s9.83-38.11,19.45-37.78l.66,20.65Z"/><path class="cls-21" d="M571.29,205.59l15,5.48L585.19,229l.73,10.35,2.92,35s-36.54,5.9-47.92-5.32c0,0,.94-35.53,3.11-42.87s6.46-19.26,6.46-19.26Z"/><path class="cls-21" d="M582,239.35l7.77,19.75,8.51-2.17s-3.7-41.07-12-45.88l-2.75,5A27.51,27.51,0,0,0,582,239.35Z"/><path class="cls-17" d="M564.91,213.16h0a6,6,0,0,0,6.26-5.63l.94-17.74a6,6,0,0,0-5.63-6.26h0a6,6,0,0,0-6.26,5.64l-.94,17.74A6,6,0,0,0,564.91,213.16Z"/><path class="cls-18" d="M547.84,172.33c-2.9,11-.83,27.46,7.35,29.62s19.44-2,22.34-13-3.38-20.47-11.57-22.64S550.74,161.35,547.84,172.33Z"/><ellipse class="cls-18" cx="578.25" cy="189.07" rx="5.11" ry="3.25" transform="translate(228.18 686.65) rotate(-72.98)"/><path class="cls-15" d="M575.59,177.62s1.54,6.5-.43,11.32l1.52.34s3.76-8.19,3.44-11.42"/><polygon class="cls-21" points="563.63 212.73 568.36 216.09 565.39 222.46 561.58 222.26 559.37 215.35 563.63 212.73"/><polygon class="cls-21" points="561.53 221.3 565.57 221.86 569.6 260.28 562.92 271.7 556.59 258.62 561.53 221.3"/><polygon class="cls-12" points="559.34 204.18 555.2 207.02 559.28 217.19 563.77 212.78 559.34 204.18"/><polygon class="cls-12" points="571.32 204.22 577.23 207.55 568.64 218.22 563.48 212.87 571.32 204.22"/><path class="cls-15" d="M579.83,176.93S565.49,187,545,176.85c0,0-1.73-19,17.4-14.24s17.83,14,17.83,14"/></g><polygon class="cls-11" points="375.44 216.42 375.44 410.19 489.46 431.89 489.46 238.12 375.44 216.42"/><polygon class="cls-12" points="365.58 221.75 365.58 415.52 479.61 437.22 479.61 243.45 365.58 221.75"/><polygon class="cls-10" points="378.99 317.88 378.99 323.97 461.98 339.66 461.98 333.57 378.99 317.88"/><polygon class="cls-7" points="378.99 330.33 378.99 336.41 461.98 352.1 461.98 346.01 378.99 330.33"/><polygon class="cls-7" points="378.99 342.76 378.99 348.85 461.98 364.54 461.98 358.45 378.99 342.76"/><polygon class="cls-7" points="378.99 355.2 378.99 361.29 461.98 376.98 461.98 370.89 378.99 355.2"/><polygon class="cls-7" points="378.99 367.64 378.99 373.74 461.98 389.42 461.98 383.33 378.99 367.64"/><path class="cls-22" d="M416.05,249c16.63.07,32.43,14,35.28,31.16s-8.34,31-25,30.91-32.43-14-35.28-31.16S399.41,249,416.05,249Z"/><polygon class="cls-13" points="384.78 389.31 382.75 392.11 378.99 392.15 381.49 395.69 381.2 399.48 384.78 398.86 388.37 401.17 388.08 397.25 390.58 394.89 386.82 393.08 384.78 389.31"/><polygon class="cls-13" points="402.61 392.48 400.57 395.28 396.81 395.31 399.31 398.86 399.02 402.65 402.61 402.04 406.18 404.34 405.9 400.42 408.4 398.05 404.64 396.24 402.61 392.48"/><polygon class="cls-13" points="420.42 395.64 418.38 398.44 414.63 398.48 417.13 402.03 416.84 405.81 420.42 405.2 424 407.5 423.72 403.59 426.21 401.22 422.46 399.41 420.42 395.64"/><polygon class="cls-10" points="438.24 398.82 436.2 401.62 432.45 401.65 434.94 405.2 434.66 408.98 438.24 408.38 441.82 410.67 441.54 406.75 444.03 404.39 440.28 402.58 438.24 398.82"/><polygon class="cls-10" points="456.06 401.99 454.02 404.78 450.27 404.82 452.76 408.37 452.48 412.15 456.06 411.54 459.64 413.84 459.36 409.92 461.86 407.56 458.1 405.75 456.06 401.99"/><path class="cls-2" d="M416.05,249c16.63.07,32.43,14,35.28,31.16s-8.34,31-25,30.91-32.43-14-35.28-31.16S399.41,249,416.05,249Z"/><g class="cls-23"><path class="cls-15" d="M423.5,291.54a42.66,42.66,0,0,1,.65-34.63s15.62,1.71,11.73,18.81-12.09,16.12-12.09,16.12"/><path class="cls-15" d="M416.47,291.19a42.66,42.66,0,0,0-.65-34.63s-15.62,1.71-11.73,18.81,12.09,16.12,12.09,16.12"/><path class="cls-15" d="M437.16,270.43c-.61,9.51-8.06,16.77-16.62,16.22s-15-8.72-14.4-18.23,7.82-13.07,16.39-12.52S437.78,260.92,437.16,270.43Z"/><path class="cls-24" d="M408.92,304l-8.11,18.84-5.26-4.62S403,290.54,410,290.86l.31,15Z"/><path class="cls-6" d="M425,290.1l10.84,4.11-.91,13,.44,7.54,1.83,25.49s-26.64,4-34.83-4.28c0,0,1-25.84,2.62-31.16s4.86-14,4.86-14Z"/><path class="cls-24" d="M432.52,314.75,438,329.18l6.21-1.51s-2.35-29.91-8.37-33.48l-2,3.62A20,20,0,0,0,432.52,314.75Z"/><path class="cls-17" d="M420.33,295.56h0a4.35,4.35,0,0,0,4.6-4.05l.84-12.9a4.35,4.35,0,0,0-4-4.61h0a4.34,4.34,0,0,0-4.6,4l-.84,12.9A4.35,4.35,0,0,0,420.33,295.56Z"/><path class="cls-18" d="M408.25,265.7c-2.2,8-.83,20,5.1,21.62S427.51,286,429.71,278s-2.28-14.92-8.23-16.57S410.45,257.74,408.25,265.7Z"/><path class="cls-18" d="M428,277.42c-.62,2-.12,3.86,1.13,4.26s2.76-.87,3.38-2.82.12-3.86-1.13-4.26S428.61,275.47,428,277.42Z"/><path class="cls-15" d="M428.4,269.79s1.07,4.74-.4,8.23l1.1.26s2.8-5.93,2.6-8.27"/><polygon class="cls-6" points="419.4 295.23 422.82 297.72 420.6 302.33 417.83 302.14 416.28 297.1 419.4 295.23"/><polygon class="cls-6" points="417.8 301.45 420.74 301.89 423.34 329.87 418.39 338.13 413.89 328.56 417.8 301.45"/><polygon class="cls-12" points="416.35 288.97 413.93 289.83 415.17 299.34 419.5 295.27 416.35 288.97"/><polygon class="cls-12" points="425.06 289.11 427.19 290.33 424.07 300.47 419.29 295.33 425.06 289.11"/><path class="cls-15" d="M431.49,269.32a31.32,31.32,0,0,1-27.83-.38s1.36-13.84,15.24-10.19,12.86,10.34,12.86,10.34"/><path class="cls-15" d="M424.21,267a24.34,24.34,0,0,1-18.68,6.43s-2.14-8.7,7.78-10,11,3.32,11,3.32"/><path class="cls-15" d="M427.12,267.18a24.33,24.33,0,0,1-18.22,7.63s-2.71-8.55,7.11-10.45,11.2,2.6,11.2,2.6"/><path class="cls-15" d="M431.76,265.88a24.33,24.33,0,0,1-17.28,9.57s-3.62-8.2,5.94-11.16,11.41,1.37,11.41,1.37"/><polygon class="cls-6" points="417.89 320.12 427.19 290.33 434.26 295.97 427.87 303.69 430.31 308.44 417.89 320.12"/><polygon class="cls-6" points="417.89 320.12 413.93 289.83 408.77 295.6 412.99 301.3 409.71 306.39 417.89 320.12"/></g><g class="cls-9"><circle class="cls-21" cx="263.31" cy="260.84" r="75.2"/></g><g class="cls-9"><circle class="cls-12" cx="256.47" cy="251.85" r="42.45"/></g><rect class="cls-25" x="324.61" y="302.93" width="26.62" height="66.22" transform="translate(-138.64 337.39) rotate(-45)"/><rect class="cls-15" x="355.91" y="321.15" width="35.87" height="101.62" transform="translate(-153.52 373.28) rotate(-45)"/><rect class="cls-12" x="373.89" y="325.09" width="10.45" height="85.45" transform="translate(-149.04 375.89) rotate(-45.01)"/><path class="cls-15" d="M201.87,200A85.63,85.63,0,1,0,323,200,85.63,85.63,0,0,0,201.87,200ZM303.51,301.62a58.1,58.1,0,1,1,0-82.16A58.1,58.1,0,0,1,303.51,301.62Z"/><path class="cls-12" d="M326.93,225.8a3.75,3.75,0,0,1-3.21-1.81,73.69,73.69,0,0,0-4.35-6.41,3.75,3.75,0,0,1,6-4.54,80.91,80.91,0,0,1,4.79,7.07,3.75,3.75,0,0,1-3.21,5.69Z"/><path class="cls-12" d="M314.91,210.6a3.74,3.74,0,0,1-2.63-1.07,73.5,73.5,0,0,0-6.79-5.88,3.75,3.75,0,1,1,4.55-6,81.43,81.43,0,0,1,7.49,6.48,3.75,3.75,0,0,1-2.62,6.43Z"/><path class="cls-12" d="M297.74,197.94a3.76,3.76,0,0,1-1.78-.45,72.84,72.84,0,0,0-34.57-8.73,72,72,0,0,0-30.93,6.89,3.75,3.75,0,0,1-3.2-6.79,79.53,79.53,0,0,1,34.13-7.6,80.34,80.34,0,0,1,38.14,9.63,3.75,3.75,0,0,1-1.79,7Z"/></g></g></svg>