<svg xmlns="http://www.w3.org/2000/svg" viewBox="0 0 659.19 551.35"><defs><style>.cls-1{fill:#3498db;}.cls-2{fill:#97dfff;}.cls-3{fill:#55c3fe;}.cls-4{fill:#fff;}.cls-5{fill:#e9eeff;}.cls-6{fill:#fe7386;}.cls-7{fill:#227cc6;}.cls-8{fill:#009aff;}.cls-9{fill:#1f1f8c;}.cls-10{fill:#fdc5b6;}.cls-11{fill:#155a93;}.cls-12{fill:#112f5b;}.cls-13{fill:#ff7382;}</style></defs><title>Asset 52</title><g id="Layer_2" data-name="Layer 2"><g id="Layer_1-2" data-name="Layer 1"><polygon class="cls-1" points="625.07 375.79 648.37 358.83 646.85 314.86 280.72 176.92 12.89 331.55 357.24 530.35 625.07 375.79"/><polygon class="cls-2" points="357.73 551.35 13.38 352.56 13.38 330.47 357.73 529.26 357.73 551.35"/><polygon class="cls-2" points="13.37 241.55 357.73 440.33 625.57 285.78 281.21 86.91 13.37 241.55"/><path class="cls-3" d="M631.61,288l-6-2.21v22h0c19.68,7.37,26.59,44.16,7.67,61l-7.67,5.9v22s5.24-2.65,16.26-11.56C669.65,362.67,662.44,299.28,631.61,288Z"/><path class="cls-4" d="M105.73,232.87l267.86,155L551.34,285.52,282.4,129.09Z"/><polygon class="cls-4" points="623.74 297.87 575.65 330.22 354.93 456.08 43.71 276.41 43.71 336.82 354.93 516.48 623.74 361.87 623.74 297.87"/><polygon class="cls-5" points="357.97 514.73 623.74 361.87 623.74 297.87 575.65 330.22 358.99 453.76 357.97 514.73"/><polygon class="cls-3" points="625.56 396.72 357.73 551.35 357.73 529.26 625.56 374.7 625.56 396.72"/><polygon class="cls-1" points="625.56 307.79 357.73 462.43 357.73 440.34 625.56 285.78 625.56 307.79"/><polygon class="cls-5" points="357.73 462.43 13.38 263.63 13.38 241.54 357.73 440.34 357.73 462.43"/><polygon class="cls-6" points="412.96 448.12 412.96 517.23 430.98 487.39 445.79 497.27 443.97 430.79 412.96 448.12"/><polygon class="cls-1" points="30.42 257.57 9.65 242.44 11.01 203.24 337.45 80.25 576.24 218.12 269.22 395.37 30.42 257.57"/><polygon class="cls-7" points="268.78 414.09 575.81 236.85 575.81 217.16 268.78 394.4 268.78 414.09"/><polygon class="cls-8" points="575.81 137.88 268.78 315.11 29.98 177.31 337.01 0 575.81 137.88"/><path class="cls-3" d="M24.59,179.28l5.39-2v19.63h0c-17.55,6.57-23.71,39.37-6.84,54.4L30,256.6v19.63s-4.67-2.37-14.5-10.31C-9.32,245.87-2.89,189.35,24.59,179.28Z"/><polygon class="cls-4" points="31.61 188.09 74.49 216.94 271.28 329.15 548.76 168.96 548.76 222.82 271.28 383 31.61 245.15 31.61 188.09"/><polygon class="cls-5" points="268.57 381.44 31.61 245.15 31.61 188.09 74.49 216.94 267.66 327.08 268.57 381.44"/><polygon class="cls-3" points="29.98 276.22 268.78 414.09 268.78 394.4 29.98 256.6 29.98 276.22"/><polygon class="cls-3" points="29.98 196.94 268.78 334.81 268.78 315.12 29.98 177.31 29.98 196.94"/><polygon class="cls-7" points="268.78 334.81 575.81 157.56 575.81 137.87 268.78 315.12 268.78 334.81"/><path class="cls-9" d="M531.07,501.28a5,5,0,0,1-3.56-4.36L481.38,165.35c-.35-2.52,1-4.62,3-4.69s3.9,1.89,4.25,4.42l46.13,331.56c.35,2.52-1,4.62-3,4.7A3,3,0,0,1,531.07,501.28Z"/><path class="cls-9" d="M614.13,467.69a5,5,0,0,1-3.56-4.36L564.45,131.77c-.35-2.52,1-4.62,3-4.69s3.9,1.9,4.25,4.42L617.8,463.05c.35,2.52-1,4.62-3,4.69A3,3,0,0,1,614.13,467.69Z"/><path class="cls-9" d="M495.29,234.89a4.51,4.51,0,0,1-3.07-2.67c-1.07-2.31-.54-5,1.18-6l79.53-46.68c1.72-1,4,0,5.05,2.34s.54,5-1.18,6l-79.53,46.68A2.79,2.79,0,0,1,495.29,234.89Z"/><path class="cls-9" d="M502.94,293.91a4.51,4.51,0,0,1-3.07-2.67c-1.07-2.31-.54-5,1.18-6l79.53-46.68c1.71-1,4,0,5.05,2.34s.54,5-1.18,6l-79.53,46.68A2.8,2.8,0,0,1,502.94,293.91Z"/><path class="cls-9" d="M510.58,352.92a4.51,4.51,0,0,1-3.07-2.67c-1.07-2.31-.54-5,1.18-6l79.53-46.68c1.71-1,4,0,5.05,2.34s.54,5-1.18,6l-79.53,46.68A2.79,2.79,0,0,1,510.58,352.92Z"/><path class="cls-9" d="M518.23,411.93a4.51,4.51,0,0,1-3.07-2.67c-1.07-2.31-.54-5,1.18-6l79.53-46.68c1.72-1,4,0,5.05,2.34s.54,5-1.18,6L520.22,411.6A2.8,2.8,0,0,1,518.23,411.93Z"/><path class="cls-9" d="M525.88,470.94a4.51,4.51,0,0,1-3.07-2.67c-1.07-2.3-.54-5,1.18-6l79.53-46.68c1.72-1,4,0,5.05,2.34s.54,5-1.18,6l-79.53,46.68A2.8,2.8,0,0,1,525.88,470.94Z"/><circle class="cls-10" cx="571.25" cy="185.46" r="6.92" transform="translate(-29.16 200.58) rotate(-19.43)"/><path class="cls-10" d="M574.71,188.5s19,39.33,20.74,46.28c1.35,5.35-8.56,12.92-12.49,8.77s-14.25-53.34-14.25-53.34Z"/><path class="cls-11" d="M611.63,257.36c-7.78-9.42-12.6-20.86-18.2-31.72-.69-1.33-1.55-2.79-3-3.16a5.46,5.46,0,0,0-3.39.64c-4.32,1.84-9.36,4.74-9.26,9.43a11.74,11.74,0,0,0,1.16,4.21,476.13,476.13,0,0,0,30.13,59.75c1.79,3,4.11,6.32,7.6,6.66,3.7.35,6.72-2.86,8.72-6,3.36-5.27,9.32-15.81,6.2-22.26C628.33,268.19,616.67,263.46,611.63,257.36Z"/><circle class="cls-10" cx="523.37" cy="209.7" r="6.92" transform="translate(-39.95 186.02) rotate(-19.43)"/><path class="cls-6" d="M640.64,507.6a12,12,0,0,1-11.48-8.5l-19.33-63.38a11.81,11.81,0,0,1-.44-2.13l-9.67-83.78a12,12,0,1,1,23.85-2.75l9.55,82.7,19,62.33a12,12,0,0,1-11.48,15.51Z"/><circle class="cls-10" cx="609.26" cy="257.29" r="21" transform="translate(54.48 617.32) rotate(-55.88)"/><path class="cls-6" d="M557.92,450.67a12,12,0,0,1-11.65-9.15l-12.89-52.64a12,12,0,0,1,5.91-13.39l47.26-25.78a12,12,0,0,1,11.49,21.07L558.9,392.14l10.69,43.67a12,12,0,0,1-11.67,14.86Z"/><path class="cls-12" d="M565.37,446s-.4,8.61-.5,9.38-3.75,2.62-9.09,1.55-20.34-6.06-23-8.64,5.67-2,10.75-1.56,14.92-.73,14.92-.73Z"/><path class="cls-11" d="M623.1,324.71c2.8-6.3,7-23.09,7-23.09,4.72-14.19,3.26-22.06,1.15-26.21-7.45-3.72-20.2,2.32-20.2,2.32s-18.36,6.53-29.23,15.49c-3.83,3.15-1.32,19.52-.5,36.66.54,11.41-5.07,27-5.07,27s19.57,8.4,30.07,7.7S629.4,359,628,354.1,620.31,331,623.1,324.71Z"/><path class="cls-10" d="M526.83,212.75s19,39.33,20.74,46.28c1.35,5.35-8.56,12.92-12.49,8.77s-14.25-53.34-14.25-53.34Z"/><path class="cls-10" d="M610.68,259.09l3.14,22.53h0A13.46,13.46,0,0,1,601,289.68l-2.59-.09-5-23.69Z"/><path class="cls-12" d="M594.39,254.6c1.66-2.63,6.44-2.05,7.42.9.7,2.1.17,5.3-1.54,6.71a14,14,0,0,1-5.42,2.71c3,7.41,8.84,13.06,13.55,19.52,5.14-2,7.14-3.48,12.28-5.48a22.1,22.1,0,0,0,6.58-3.46c4.29-3.7,7.89-12.92,7.3-18.56-.82-7.94-5.08-14.08-11.3-19.07-4.81-3.86-13.37-4.53-19.35-2.79C596,237.37,596.16,247.6,594.39,254.6Z"/><circle class="cls-13" cx="631.31" cy="252.3" r="15.8" transform="matrix(0.56, -0.83, 0.83, 0.56, 68.29, 633.38)"/><circle class="cls-12" cx="635.04" cy="251.59" r="16.97" transform="matrix(0.56, -0.83, 0.83, 0.56, 70.52, 636.15)"/><path class="cls-11" d="M585.34,291.88l6.21,4.31a23.48,23.48,0,0,1,5.86,5.12c1.54,2.11,2.33,4.94,1.38,7.37-1.29,3.31-5.17,4.71-8.64,5.47a73.52,73.52,0,0,1-15.27,1.68,73.48,73.48,0,0,1-14.6-7c-9.37-6.14-15.41-16.17-20.29-26.26q-3.75-7.76-6.84-15.82c3.3.32,6-.72,9.15-1.81s5.9-4,5.72-7.31c3.71,7.32,7.25,14.34,11,21.66a40,40,0,0,0,4.47,7.43C567.88,292.09,578.47,293,585.34,291.88Z"/><path class="cls-12" d="M641.39,500.39s1.79,5.38,3.29,9.56,0,13.44,2.39,17.32,9,.6,8.66-2.69-2.09-15.83-3-17.92-7-8.72-7-8.72Z"/></g></g></svg>