<svg xmlns="http://www.w3.org/2000/svg" viewBox="0 0 207.63 45"><defs><style>.cls-1{fill:#202020;}.cls-2{fill:#8f8f8f;}.cls-3{fill:#fff;}.cls-4{fill:#ccc;}</style></defs><title>Asset 33</title><g id="Layer_2" data-name="Layer 2"><g id="Layer_1-2" data-name="Layer 1"><path class="cls-1" d="M5.75,1.1H6q5.75,0,5.75,9.85v4.39h.28a61.7,61.7,0,0,1,8.47-.54h.56q1.9,0,6,.26L26,7.13V6q.8-4.92,4.92-4.93h.82q6,0,6,12.59-.35,25.49-1.95,27.52a5.25,5.25,0,0,1-4.36,2h-.54q-5.21-1.1-5.21-4.64,0-4.27.82-12.31-1.17-.56-7.39-.82a50.16,50.16,0,0,0-7.67.82q-.26,8.47-.26,11.75-.73,6.31-5.75,6.31Q0,43.31,0,39.14q.82-20,.82-25.72A47.6,47.6,0,0,0,.28,6.85Q1.29,1.1,5.75,1.1Z"/><path class="cls-1" d="M82.08,14.52C77.29,5.36,71.32.71,64.35.71a27.18,27.18,0,0,0-18,6.74c-5.33,4.54-8,10.88-8,19a26,26,0,0,0,1.57,7.23C43.69,41.18,50.1,45,58.91,45h1.92A24,24,0,0,0,73.9,41.1c6.48-4.72,9.77-10.54,9.77-17.27v-1.1A23.26,23.26,0,0,0,82.08,14.52Zm-1.92,9.3c0,5.63-2.73,10.35-8.24,14.37a20.46,20.46,0,0,1-11.09,3.29H58.91c-7.48,0-12.69-3.09-15.85-9.24a22.6,22.6,0,0,1-1.28-6c0-7,2.23-12.27,6.81-16.17a23.74,23.74,0,0,1,15.76-5.9c5.56,0,10.48,4,14.53,11.72a19.73,19.73,0,0,1,1.28,6.78Z"/><path class="cls-2" d="M62.14,15.55a8,8,0,0,0-5.3,2.12A10.32,10.32,0,0,0,53,26v.82c0,.74,0,3,5.85,3.72h2.25c7.23-.94,8.09-4.75,8.09-7.53,0-4.95-2.4-6.33-4.2-6.94h0A8.69,8.69,0,0,0,62.14,15.55Z"/><path class="cls-2" d="M66.14,12.74A11.34,11.34,0,0,0,54.59,15a13.83,13.83,0,0,0-5.08,11v.82c0,2.78,1.55,6.29,9.14,7.22h2.68c9.41-1.21,11.38-6.66,11.38-11C72.72,16.37,69.14,13.76,66.14,12.74Zm-5,17.8H58.87C53,29.82,53,27.57,53,26.83V26a10.32,10.32,0,0,1,3.83-8.34,8,8,0,0,1,5.3-2.12,8.69,8.69,0,0,1,2.85.51h0c1.81.61,4.2,2,4.2,6.94C69.21,25.79,68.35,29.59,61.11,30.54Z"/><path class="cls-3" d="M78.88,15.94c-4-7.71-9-11.72-14.53-11.72a23.74,23.74,0,0,0-15.76,5.9C44,14,41.79,19.31,41.79,26.29a22.6,22.6,0,0,0,1.28,6c3.16,6.16,8.37,9.24,15.85,9.24h1.92A20.46,20.46,0,0,0,71.92,38.2c5.51-4,8.24-8.74,8.24-14.37v-1.1A19.73,19.73,0,0,0,78.88,15.94ZM61.34,34H58.65c-7.59-.93-9.14-4.44-9.14-7.22V26a13.83,13.83,0,0,1,5.08-11,11.34,11.34,0,0,1,11.55-2.24c3,1,6.58,3.63,6.58,10.27C72.72,27.37,70.74,32.82,61.34,34Z"/><path class="cls-1" d="M189.84,0q12.36,0,17.23,12.05a14.54,14.54,0,0,1,.56,3.82q0,10.9-13.41,15.34a25.62,25.62,0,0,1-4.92.54h-3.57q.28,5,.28,6.28a8.23,8.23,0,0,1-2.74,5.74,7.38,7.38,0,0,1-3.28,1.1q-4.62,0-5.46-5.46a14.27,14.27,0,0,1,.28-2.74q-.82-8.53-1.38-20,0-12.41,7.39-15.06A28.78,28.78,0,0,1,189.84,0Zm-5.09,16a.69.69,0,0,0,0,.16q0,4.62,4.6,4.62t5.86-4.24a4.93,4.93,0,0,0,.21-1.36q0-3-4.78-3.43c-.41,0-.79,0-1.15,0Q184.82,11.72,184.75,16Z"/><path class="cls-1" d="M126.54,14.52C121.75,5.36,115.78.71,108.81.71a27.18,27.18,0,0,0-18,6.74c-5.33,4.54-8,10.88-8,19a26,26,0,0,0,1.57,7.23C88.15,41.18,94.56,45,103.37,45h1.92a24,24,0,0,0,13.06-3.9c6.48-4.72,9.77-10.54,9.77-17.27v-1.1A23.26,23.26,0,0,0,126.54,14.52Zm-1.92,9.3c0,5.63-2.73,10.35-8.24,14.37a20.46,20.46,0,0,1-11.09,3.29h-1.92c-7.48,0-12.69-3.09-15.85-9.24a22.6,22.6,0,0,1-1.28-6c0-7,2.23-12.27,6.81-16.17a23.74,23.74,0,0,1,15.76-5.9c5.56,0,10.48,4,14.53,11.72a19.73,19.73,0,0,1,1.28,6.78Z"/><path class="cls-4" d="M106.6,15.55a8,8,0,0,0-5.3,2.12A10.32,10.32,0,0,0,97.48,26v.82c0,.74,0,3,5.85,3.72h2.25c7.23-.94,8.09-4.75,8.09-7.53,0-4.95-2.4-6.33-4.2-6.94h0A8.69,8.69,0,0,0,106.6,15.55Z"/><path class="cls-4" d="M110.6,12.74A11.34,11.34,0,0,0,99,15,13.83,13.83,0,0,0,94,26v.82c0,2.78,1.55,6.29,9.14,7.22h2.68c9.41-1.21,11.38-6.66,11.38-11C117.18,16.37,113.6,13.76,110.6,12.74Zm-5,17.8h-2.25c-5.85-.73-5.85-3-5.85-3.72V26a10.32,10.32,0,0,1,3.83-8.34,8,8,0,0,1,5.3-2.12,8.69,8.69,0,0,1,2.85.51h0c1.81.61,4.2,2,4.2,6.94C113.67,25.79,112.8,29.59,105.57,30.54Z"/><path class="cls-3" d="M123.34,15.94c-4-7.71-9-11.72-14.53-11.72A23.74,23.74,0,0,0,93,10.12c-4.58,3.9-6.81,9.19-6.81,16.17a22.6,22.6,0,0,0,1.28,6c3.16,6.16,8.37,9.24,15.85,9.24h1.92a20.46,20.46,0,0,0,11.09-3.29c5.51-4,8.24-8.74,8.24-14.37v-1.1A19.73,19.73,0,0,0,123.34,15.94ZM105.79,34h-2.68C95.52,33.12,94,29.61,94,26.83V26A13.83,13.83,0,0,1,99,15a11.34,11.34,0,0,1,11.55-2.24c3,1,6.58,3.63,6.58,10.27C117.18,27.37,115.2,32.82,105.79,34Z"/><path class="cls-1" d="M171,14.52C166.21,5.36,160.24.71,153.27.71a27.18,27.18,0,0,0-18,6.74c-5.33,4.54-8,10.88-8,19a26,26,0,0,0,1.57,7.23C132.61,41.18,139,45,147.83,45h1.92a24,24,0,0,0,13.06-3.9c6.48-4.72,9.77-10.54,9.77-17.27v-1.1A23.26,23.26,0,0,0,171,14.52Zm-1.92,9.3c0,5.63-2.73,10.35-8.24,14.37a20.46,20.46,0,0,1-11.09,3.29h-1.92c-7.48,0-12.69-3.09-15.85-9.24a22.6,22.6,0,0,1-1.28-6c0-7,2.23-12.27,6.81-16.17a23.74,23.74,0,0,1,15.76-5.9c5.56,0,10.48,4,14.53,11.72a19.73,19.73,0,0,1,1.28,6.78Z"/><path class="cls-2" d="M151.06,15.55a8,8,0,0,0-5.3,2.12A10.32,10.32,0,0,0,141.94,26v.82c0,.74,0,3,5.85,3.72H150c7.23-.94,8.09-4.75,8.09-7.53,0-4.95-2.4-6.33-4.2-6.94h0A8.69,8.69,0,0,0,151.06,15.55Z"/><path class="cls-2" d="M155.06,12.74A11.34,11.34,0,0,0,143.51,15a13.83,13.83,0,0,0-5.08,11v.82c0,2.78,1.55,6.29,9.14,7.22h2.68c9.41-1.21,11.38-6.66,11.38-11C161.64,16.37,158.06,13.76,155.06,12.74Zm-5,17.8h-2.25c-5.85-.73-5.85-3-5.85-3.72V26a10.32,10.32,0,0,1,3.83-8.34,8,8,0,0,1,5.3-2.12,8.69,8.69,0,0,1,2.85.51h0c1.81.61,4.2,2,4.2,6.94C158.13,25.79,157.26,29.59,150,30.54Z"/><path class="cls-3" d="M167.8,15.94c-4-7.71-9-11.72-14.53-11.72a23.74,23.74,0,0,0-15.76,5.9c-4.58,3.9-6.81,9.19-6.81,16.17a22.6,22.6,0,0,0,1.28,6c3.16,6.16,8.37,9.24,15.85,9.24h1.92a20.46,20.46,0,0,0,11.09-3.29c5.51-4,8.24-8.74,8.24-14.37v-1.1A19.73,19.73,0,0,0,167.8,15.94ZM150.25,34h-2.68c-7.59-.93-9.14-4.44-9.14-7.22V26a13.83,13.83,0,0,1,5.08-11,11.34,11.34,0,0,1,11.55-2.24c3,1,6.58,3.63,6.58,10.27C161.64,27.37,159.66,32.82,150.25,34Z"/></g></g></svg>