<svg xmlns="http://www.w3.org/2000/svg" viewBox="0 0 257.47 60"><defs><style>.cls-1{fill:#353535;}.cls-2{fill:#9f9f9f;}</style></defs><title>Asset 31</title><g id="Layer_2" data-name="Layer 2"><g id="Layer_1-2" data-name="Layer 1"><path class="cls-1" d="M26.25,48.76a24.07,24.07,0,0,1-5.7,3,17.23,17.23,0,0,1-5.73,1A14,14,0,0,1,4.06,48.3Q0,43.9,0,36.62q0-6.8,3.83-10.93a13.13,13.13,0,0,1,10.08-4.13,12.05,12.05,0,0,1,9.36,3.92q3.56,3.91,3.56,10.39V36H3.5v.36a14,14,0,0,0,3.14,9.49,10.25,10.25,0,0,0,8.12,3.62,15.91,15.91,0,0,0,5.73-1.05,24,24,0,0,0,5.76-3.32ZM3.92,33.16h19a10.19,10.19,0,0,0-3.08-6.35,8.72,8.72,0,0,0-6.18-2.39,9.35,9.35,0,0,0-6.44,2.43A10.18,10.18,0,0,0,3.92,33.16Z"/><path class="cls-1" d="M109.35,49.14a19.15,19.15,0,0,1-4.65,2.73,12.48,12.48,0,0,1-4.51.83,8.44,8.44,0,0,1-6-2.14A7.2,7.2,0,0,1,91.91,45a8.81,8.81,0,0,1,4.48-7.8q4.48-2.85,12.9-3.21V30.86q0-3.36-1.6-4.9t-5.1-1.53a11.77,11.77,0,0,0-4.37.87,21.84,21.84,0,0,0-4.79,2.78V24.8a21.76,21.76,0,0,1,4.84-2.49,13.78,13.78,0,0,1,4.58-.81q5.14,0,7.44,2.38t2.3,7.75V47.3a3.06,3.06,0,0,0,.26,1.44.85.85,0,0,0,.81.47q.78,0,2.69-1.68l.68-.61,0,3a14.19,14.19,0,0,1-2.69,2,4.64,4.64,0,0,1-2.17.68,2.51,2.51,0,0,1-2.09-.83A4.65,4.65,0,0,1,109.35,49.14ZM109.29,46V36.68q-6.47.1-10.23,2.33T95.3,44.9a4.52,4.52,0,0,0,1.55,3.62,6.38,6.38,0,0,0,4.27,1.33,9,9,0,0,0,3.82-.92A20.65,20.65,0,0,0,109.29,46Z"/><path class="cls-1" d="M148.6,48.76a24.07,24.07,0,0,1-5.7,3,17.23,17.23,0,0,1-5.73,1,14,14,0,0,1-10.76-4.4q-4.06-4.4-4.06-11.68,0-6.8,3.83-10.93a13.13,13.13,0,0,1,10.08-4.13,12.05,12.05,0,0,1,9.36,3.92q3.56,3.91,3.56,10.39V36H125.85v.36A14,14,0,0,0,129,45.84a10.25,10.25,0,0,0,8.12,3.62,15.91,15.91,0,0,0,5.73-1.05,24,24,0,0,0,5.76-3.32Zm-22.33-15.6h19a10.19,10.19,0,0,0-3.08-6.35A8.72,8.72,0,0,0,136,24.42a9.35,9.35,0,0,0-6.44,2.43A10.18,10.18,0,0,0,126.27,33.16Z"/><path class="cls-1" d="M156.63,46.62a18.4,18.4,0,0,0,4.47,2.25,14.13,14.13,0,0,0,4.47.73,6.91,6.91,0,0,0,4.53-1.36,4.57,4.57,0,0,0,1.65-3.72q0-3.46-6-5.66l-2.42-.91a11.61,11.61,0,0,1-5-3.35,7.56,7.56,0,0,1-1.65-4.87,7.49,7.49,0,0,1,2.64-5.92,10,10,0,0,1,6.84-2.3,13.57,13.57,0,0,1,3.93.61A19.17,19.17,0,0,1,174.3,24v3.43A21,21,0,0,0,170,25.28a12,12,0,0,0-4-.73A6.56,6.56,0,0,0,161.58,26a4.58,4.58,0,0,0-1.72,3.67A4.2,4.2,0,0,0,161.43,33a19.51,19.51,0,0,0,5.84,2.83q4.53,1.59,6.21,3.45a7,7,0,0,1,1.68,4.9,7.85,7.85,0,0,1-2.64,6.26,10.67,10.67,0,0,1-7.23,2.28,15.13,15.13,0,0,1-4.45-.65,17.52,17.52,0,0,1-4.22-2Z"/><path class="cls-1" d="M188.77,44.71q0,3,.83,4a3.72,3.72,0,0,0,3,1,7.74,7.74,0,0,0,2.3-.37,16.26,16.26,0,0,0,2.69-1.15v3.27a15,15,0,0,1-2.73.92,12,12,0,0,1-2.7.31q-3.73,0-5.24-1.78t-1.52-6.22V24.93H179V22.15h6.51V15.32L188,12.41h.78v9.74h8v2.78h-8Z"/><path class="cls-1" d="M228.77,48.76a24.07,24.07,0,0,1-5.7,3,17.23,17.23,0,0,1-5.73,1,14,14,0,0,1-10.76-4.4q-4.06-4.4-4.06-11.68,0-6.8,3.83-10.93a13.13,13.13,0,0,1,10.08-4.13,12.05,12.05,0,0,1,9.36,3.92q3.56,3.91,3.56,10.39V36H206v.36a14,14,0,0,0,3.14,9.49,10.25,10.25,0,0,0,8.12,3.62A15.91,15.91,0,0,0,223,48.41a24,24,0,0,0,5.76-3.32Zm-22.33-15.6h19a10.19,10.19,0,0,0-3.08-6.35,8.72,8.72,0,0,0-6.18-2.39,9.35,9.35,0,0,0-6.44,2.43A10.18,10.18,0,0,0,206.44,33.16Z"/><path class="cls-1" d="M239,52.06V22.15h3.33v7.38a25.8,25.8,0,0,1,5.08-6.09,7.65,7.65,0,0,1,4.79-1.81,6.64,6.64,0,0,1,2.64.55,11.1,11.1,0,0,1,2.67,1.71l-1.81,3.17a12.13,12.13,0,0,0-2.47-1.62,5.12,5.12,0,0,0-2.15-.52A6.07,6.07,0,0,0,247,26.88a29.6,29.6,0,0,0-4.66,6.28v18.9Z"/><polygon class="cls-2" points="59.23 32.15 37.08 5.82 37.08 52.29 39.73 52.29 43.44 52.29 55.6 52.29 61.78 52.29 74.44 52.29 77.66 52.29 81.18 52.29 81.18 5.82 59.23 32.15"/><rect class="cls-1" x="37.08" y="57.08" width="44.11" height="2.92"/><circle class="cls-1" cx="37.08" cy="2.19" r="2.19"/><circle class="cls-1" cx="81.18" cy="2.19" r="2.19"/></g></g></svg>