<svg xmlns="http://www.w3.org/2000/svg" viewBox="0 0 251.81 60"><defs><style>.cls-1{fill:#4d4d4d;}.cls-2{fill:#767676;}</style></defs><title>Asset 32</title><g id="Layer_2" data-name="Layer 2"><g id="Layer_1-2" data-name="Layer 1"><path class="cls-1" d="M0,46V0H11.59a36.49,36.49,0,0,1,7.34.53,10.68,10.68,0,0,1,4,1.76,10.45,10.45,0,0,1,3.31,4.12A13.22,13.22,0,0,1,27.46,12a10.58,10.58,0,0,1-1.7,6.14,8.84,8.84,0,0,1-4.93,3.44,9.46,9.46,0,0,1,6.33,3.66,12.26,12.26,0,0,1,2.31,7.65,14.56,14.56,0,0,1-1,5.31,12,12,0,0,1-2.76,4.27A10.35,10.35,0,0,1,21,45.2a39,39,0,0,1-9.39.79ZM7.32,19.41h2.86q5.34,0,7.55-1.46T19.95,13q0-3.77-2-5.29T10.18,6.22H7.32Zm0,20.32H9.9a40.17,40.17,0,0,0,5.87-.31,7.46,7.46,0,0,0,3.08-1.1A6.07,6.07,0,0,0,21,35.87a7.61,7.61,0,0,0,.75-3.39,7.74,7.74,0,0,0-.91-3.83,6.36,6.36,0,0,0-2.61-2.54,9.1,9.1,0,0,0-2.43-.79,20.89,20.89,0,0,0-3.63-.25H7.32Z"/><path class="cls-1" d="M65.18,32.1H41.37a10,10,0,0,0,2.48,6.52A7.82,7.82,0,0,0,49.79,41a10.15,10.15,0,0,0,5.5-1.38,11.4,11.4,0,0,0,3.83-4.46l5.75,3.2A17.4,17.4,0,0,1,58.65,45a16.74,16.74,0,0,1-8.7,2.2q-7.16,0-11.4-4.37T34.3,31.19a15.83,15.83,0,0,1,4.38-11.51,15,15,0,0,1,11.26-4.51q7.19,0,11.21,4.12t4,11.53Zm-7.07-4.59a7.21,7.21,0,0,0-2.45-4.88A8.54,8.54,0,0,0,50.07,21a8.39,8.39,0,0,0-5.4,1.63,8.77,8.77,0,0,0-2.86,4.93Z"/><path class="cls-1" d="M74.52,10.35,71.44,7.27a2,2,0,0,1,0-2.88l.25-.25a6,6,0,0,1,8.55,0l.25.25a2,2,0,0,1,0,2.88L77.4,10.35A2,2,0,0,1,74.52,10.35Z"/><path class="cls-1" d="M79.17,16.42c0-.69-.63-1.63-1.4-1.63H74.21c-.77,0-1.4.94-1.4,1.63L70.47,43.36a1.86,1.86,0,0,0,.58,1.08l3.58,3.2a2,2,0,0,0,2.65,0l3.58-3.2a1.87,1.87,0,0,0,.58-1.08Z"/><path class="cls-1" d="M89.15,46V16.21h6.41v4.87a12.84,12.84,0,0,1,4.81-4.49,14.63,14.63,0,0,1,6.72-1.41,13.77,13.77,0,0,1,5.67,1.05,8.23,8.23,0,0,1,3.66,3.13,8.51,8.51,0,0,1,1.13,2.86,31.87,31.87,0,0,1,.35,5.72V46H111V30.69q0-5.87-1.43-7.81T104.51,21a9.88,9.88,0,0,0-4.26.88,7,7,0,0,0-2.94,2.48,6.77,6.77,0,0,0-1.05,2.75,34,34,0,0,0-.3,5.36V46Z"/><path class="cls-1" d="M155,44.14q0,8.73-3.49,12.3T139.76,60q-6.16,0-9.83-2.59a8.2,8.2,0,0,1-3.74-6.9l7.32,0a3.6,3.6,0,0,0,1.79,2.92,8.77,8.77,0,0,0,4.59,1q4.37,0,6.28-1.92t1.95-6.41l.06-4a11.31,11.31,0,0,1-9.83,5.09,12.29,12.29,0,0,1-9.94-4.32q-3.63-4.32-3.63-11.83,0-7.13,3.71-11.51a13.1,13.1,0,0,1,15.91-2.86,8.93,8.93,0,0,1,3.79,4.38V16.21H155ZM148.37,31q0-4.62-2.15-7.19a7.41,7.41,0,0,0-6-2.58,7.49,7.49,0,0,0-6.08,2.65q-2.21,2.65-2.21,7.37T134,38.58a8.06,8.06,0,0,0,12-.22A11.17,11.17,0,0,0,148.37,31Z"/><path class="cls-2" d="M172,25.35V46h-7V0h11.31a35.9,35.9,0,0,1,7.4.55,11.48,11.48,0,0,1,4.13,1.81,10.72,10.72,0,0,1,3.39,4.32,14.39,14.39,0,0,1,1.23,6,14.72,14.72,0,0,1-1.23,6A10.43,10.43,0,0,1,187.82,23a11.28,11.28,0,0,1-4.13,1.79,36.93,36.93,0,0,1-7.4.53H172Zm.47-6.13h1.92q6.22,0,8.29-1.35t2.07-4.77q0-3.68-2.21-5.18t-8.15-1.51h-1.92Z"/><path class="cls-2" d="M204.35,21a9.66,9.66,0,0,1,2.91-4.37,7,7,0,0,1,4.48-1.41,11.8,11.8,0,0,1,2.84.35,13.8,13.8,0,0,1,2.75,1l-2.45,5.78a6.28,6.28,0,0,0-1.9-.93,8.11,8.11,0,0,0-2.28-.3,5.11,5.11,0,0,0-4.87,2.72q-1.48,2.72-1.48,9.13V46h-6.82V16.15h6.82Z"/><path class="cls-2" d="M219,31.13A15.55,15.55,0,0,1,220.26,25a15.83,15.83,0,0,1,3.57-5.17,16,16,0,0,1,5.28-3.42,17.17,17.17,0,0,1,12.58,0A16.05,16.05,0,0,1,247,19.88a15.79,15.79,0,0,1,3.58,5.18,15.38,15.38,0,0,1,1.23,6.06,15.87,15.87,0,0,1-1.21,6.19,15.13,15.13,0,0,1-3.53,5.12A17,17,0,0,1,241.63,46a16.76,16.76,0,0,1-12.5,0,16.54,16.54,0,0,1-8.89-8.72A15.61,15.61,0,0,1,219,31.13Zm25.6.06a9.94,9.94,0,0,0-2.67-7,8.85,8.85,0,0,0-13.05,0,9.9,9.9,0,0,0-2.69,7,9.9,9.9,0,0,0,2.69,7,8.83,8.83,0,0,0,13,0A9.9,9.9,0,0,0,244.62,31.19Z"/></g></g></svg>