<svg xmlns="http://www.w3.org/2000/svg" viewBox="0 0 311.17 41.48"><defs><style>.cls-1{fill:#202020;}.cls-2{fill:#636363;}</style></defs><title>Asset 30</title><g id="Layer_2" data-name="Layer 2"><g id="Layer_1-2" data-name="Layer 1"><polygon class="cls-1" points="248.07 20.02 252.81 22.08 250.61 24.34 248.07 20.02"/><polygon class="cls-1" points="261.64 20.11 255.39 21.91 257.5 24.79 261.64 20.11"/><path class="cls-1" d="M279.43,12.34V5.85h-8.19a.29.29,0,0,0-.17.54Z"/><path class="cls-1" d="M275.37,0h-4.85V5.87a.3.3,0,0,0,.55.17Z"/><path class="cls-1" d="M246.73,5.85V16.38L263.85,14l.06,5.6s0,1.1,0,1.54a8.86,8.86,0,0,1-17.27,2.8c0,2.16.09,8.7.09,8.7v0a8.52,8.52,0,0,0,3.21,6q3.46,2.85,9.4,2.85a11.67,11.67,0,0,0,8.47-3.2,11.38,11.38,0,0,0,3.3-8.58V6.26a.41.41,0,0,0-.41-.41Z"/><path class="cls-2" d="M154.77,40.46V5.9h5.89l18.73,30.84V5.9h3.81V40.46H177.3L158.57,9.57V40.46Z"/><path class="cls-2" d="M195.16,40.46V5.9H199V40.46Z"/><path class="cls-2" d="M210.93,40.46V5.9h5.89l18.73,30.84V5.9h3.81V40.46h-5.89L214.74,9.57V40.46Z"/><path class="cls-2" d="M279.28,40.46,292,5.9h6.29l12.83,34.56h-3.94l-3.3-8.84H286.45l-3.23,8.84Zm8.45-12.25h15L295.8,9.57h-1.23Z"/><path class="cls-2" d="M0,40.46V5.9H9.35V40.46Z"/><path class="cls-2" d="M17.83,40.46V5.9h26v7.7H27.09v6H43.31v6.66H27.09v6.5H44.17v7.7Z"/><path class="cls-2" d="M51.76,40.46V5.9h9.35V32.43H76.57v8Z"/><path class="cls-2" d="M82.58,40.46V13.61H73.7V5.9H100.8v7.7H92V40.46Z"/><path class="cls-2" d="M105.4,29.76h8.89v.35a3.07,3.07,0,0,0,1,2.62,6.15,6.15,0,0,0,3.53.74h2.32a5.6,5.6,0,0,0,3-.57,2.24,2.24,0,0,0,.85-2V29.39a2.12,2.12,0,0,0-.67-1.76,6.89,6.89,0,0,0-3-.81L113.71,26q-4.2-.46-6.14-2.63t-1.94-6.44V14.79a11.4,11.4,0,0,1,.77-4.31,7.66,7.66,0,0,1,2.23-3.1,7.34,7.34,0,0,1,3-1.47A24.61,24.61,0,0,1,117,5.49h5.55q5.17,0,7.91,2.09a7.13,7.13,0,0,1,2.74,6V16h-8.89V15.6a2.68,2.68,0,0,0-.73-2.16,4.26,4.26,0,0,0-2.63-.6h-2.13a6.13,6.13,0,0,0-3,.52,2,2,0,0,0-.82,1.8V16.6q0,1.9,3.74,2.32l6.85.77q4.43.51,6.61,2.59a7.68,7.68,0,0,1,2.18,5.84v3.32a9.11,9.11,0,0,1-2.67,6.87,9.89,9.89,0,0,1-7.17,2.58H117q-6.06,0-8.81-2.09t-2.75-6.64Z"/></g></g></svg>