<svg xmlns="http://www.w3.org/2000/svg" viewBox="0 0 299.8 45"><defs><style>.cls-1{fill:#575757;}</style></defs><title>Asset 28</title><g id="Layer_2" data-name="Layer 2"><g id="Layer_1-2" data-name="Layer 1"><path class="cls-1" d="M25.22,22.25H41.94q0,.43,0,1.21.09,2,.09,2.77,0,8.91-5.1,13.84T22.57,45a26.17,26.17,0,0,1-9.25-1.53A19.63,19.63,0,0,1,6.2,38.86a21,21,0,0,1-4.6-7.18A24.17,24.17,0,0,1,0,22.86,23.36,23.36,0,0,1,1.63,14,20.4,20.4,0,0,1,6.46,6.92a20.8,20.8,0,0,1,7.24-4.61A24.67,24.67,0,0,1,22.57.72a21.06,21.06,0,0,1,8.92,1.82,19.88,19.88,0,0,1,7,5.56l-5,3.78a13.89,13.89,0,0,0-4.81-3.69,14.41,14.41,0,0,0-6-1.21,15,15,0,0,0-11.2,4.4A15.57,15.57,0,0,0,7.15,22.8a15.92,15.92,0,0,0,4.34,11.6,15,15,0,0,0,11.26,4.45q5.88,0,9.25-2.74a9.1,9.1,0,0,0,3.37-7.47V28H25.22Z"/><path class="cls-1" d="M77.14,43.88,72.36,33H55.64l-4.9,10.87H43.53L64,0,84.38,43.88Zm-19-16.58H69.94l-4.32-9.63q-.37-.92-.78-2.12T64,12.89q-.35,1.38-.74,2.58t-.79,2.21Z"/><path class="cls-1" d="M98.76,7.5V43.88H91.9V7.5H80.69V1.67h29.23V7.5Z"/><path class="cls-1" d="M115.17,43.88V1.67h23.55V7.5H122V18.07h16.69v6H122V37.74h16.69v6.14Z"/><path class="cls-1" d="M163.18,29.42A8.72,8.72,0,0,1,167,32.27a7,7,0,0,1,1.27,4.2A7.57,7.57,0,0,1,166,42.19a9.24,9.24,0,0,1-11.08.62,7.67,7.67,0,0,1-2.78-4.42L154.9,37a6.92,6.92,0,0,0,1.85,3.54,4.57,4.57,0,0,0,3.24,1.2,5.24,5.24,0,0,0,3.73-1.33A4.5,4.5,0,0,0,165.15,37a4.73,4.73,0,0,0-1-3,7.54,7.54,0,0,0-3-2.15L158,30.49a8.89,8.89,0,0,1-3.82-2.76,6.58,6.58,0,0,1-1.26-4,5.78,5.78,0,0,1,2-4.53,7.59,7.59,0,0,1,5.2-1.79,7.86,7.86,0,0,1,4,1,6.67,6.67,0,0,1,2.64,2.9l-2.53,1.62a6.61,6.61,0,0,0-1.93-2.22,4.21,4.21,0,0,0-2.42-.73A3.9,3.9,0,0,0,157.14,21a3.8,3.8,0,0,0-.25,5.06,7,7,0,0,0,2.62,1.77Z"/><path class="cls-1" d="M193.19,24.13a12.43,12.43,0,0,0-3.94-3,11,11,0,0,0-4.62-1,10.36,10.36,0,0,0-7.35,3.13,10.27,10.27,0,0,0-2.21,3.42,11.38,11.38,0,0,0-.74,4.17,11.8,11.8,0,0,0,.44,3.3A9.46,9.46,0,0,0,176.09,37a10.7,10.7,0,0,0,3.8,3.38,10.68,10.68,0,0,0,9.45.17,12,12,0,0,0,3.85-3v4.06a14.66,14.66,0,0,1-8.68,2.81,13.19,13.19,0,0,1-4-.61A13.47,13.47,0,0,1,176.92,42,13.07,13.07,0,0,1,171.14,31a14.18,14.18,0,0,1,1-5.4,13,13,0,0,1,3-4.42,13.22,13.22,0,0,1,4.36-2.84,14.13,14.13,0,0,1,5.22-.94,14,14,0,0,1,4.32.68,15.63,15.63,0,0,1,4.13,2.1Z"/><path class="cls-1" d="M198.41,43.71V18h3.06v9.89h13.67V18h3.11V43.71h-3.11V30.79H201.47V43.71Z"/><path class="cls-1" d="M250.72,30.9a13.37,13.37,0,0,1-1,5.2,13,13,0,0,1-3,4.34,14,14,0,0,1-19.48,0,13.08,13.08,0,0,1-4-9.54,13.33,13.33,0,0,1,1-5.21,13.15,13.15,0,0,1,3-4.37,13.66,13.66,0,0,1,4.47-2.9,14.14,14.14,0,0,1,10.54,0,13.64,13.64,0,0,1,4.48,2.9,13,13,0,0,1,3,4.35A13.48,13.48,0,0,1,250.72,30.9ZM237,41.51a10.29,10.29,0,0,0,4-.8,10.67,10.67,0,0,0,3.44-2.33,10.41,10.41,0,0,0,3.1-7.49,10.74,10.74,0,0,0-.8-4.11A10.48,10.48,0,0,0,237,20.25a10.55,10.55,0,0,0-4.06.79,10.05,10.05,0,0,0-3.39,2.3,10.6,10.6,0,0,0-2.3,3.46,10.71,10.71,0,0,0-.79,4.09,10.5,10.5,0,0,0,.78,4A10.93,10.93,0,0,0,233,40.72,10.31,10.31,0,0,0,237,41.51Z"/><path class="cls-1" d="M282,30.9a13.37,13.37,0,0,1-1,5.2,13,13,0,0,1-3,4.34,14,14,0,0,1-19.48,0,13.08,13.08,0,0,1-4-9.54,13.33,13.33,0,0,1,1-5.21,13.15,13.15,0,0,1,3-4.37,13.66,13.66,0,0,1,4.47-2.9,14.14,14.14,0,0,1,10.54,0,13.64,13.64,0,0,1,4.48,2.9,13,13,0,0,1,3,4.35A13.48,13.48,0,0,1,282,30.9ZM268.29,41.51a10.29,10.29,0,0,0,4-.8,10.67,10.67,0,0,0,3.44-2.33,10.41,10.41,0,0,0,3.1-7.49,10.74,10.74,0,0,0-.8-4.11,10.48,10.48,0,0,0-9.75-6.54,10.55,10.55,0,0,0-4.06.79,10.05,10.05,0,0,0-3.39,2.3,10.6,10.6,0,0,0-2.3,3.46,10.71,10.71,0,0,0-.79,4.09,10.5,10.5,0,0,0,.78,4,10.93,10.93,0,0,0,5.75,5.78A10.31,10.31,0,0,0,268.29,41.51Z"/><path class="cls-1" d="M287,43.71V18h3.06V40.79h9.72v2.92Z"/><rect class="cls-1" x="152.13" y="2.8" width="147.68" height="2.25"/></g></g></svg>