<svg xmlns="http://www.w3.org/2000/svg" viewBox="0 0 306.28 31.96"><defs><style>.cls-1{fill:#4d4d4d;}.cls-2{fill:#767676;}</style></defs><title>Asset 34</title><g id="Layer_2" data-name="Layer 2"><g id="Layer_1-2" data-name="Layer 1"><path class="cls-1" d="M8.39,20.24v11.3H0V.49H10.17q12.66,0,12.66,9.17,0,5.4-5.27,8.35l9,13.53H17.1l-6.58-11.3Zm0-6.31H10q4.4,0,4.4-3.89,0-3.21-4.31-3.21H8.39Z"/><path class="cls-1" d="M49,31.54H30.52V.49H49V7.22h-10v4.88h9.3v6.73h-9.3V24.7H49Z"/><path class="cls-1" d="M74.53,31.54,73,25.72H62.91l-1.57,5.82H52.12L62.25.36H73.45L83.7,31.54Zm-3.27-12.7-1.34-5.1q-.47-1.7-1.14-4.4T67.9,5.48Q67.71,6.56,67.15,9t-2.5,9.79Z"/><path class="cls-1" d="M88.15,31.54V.49h8.39V24.76h12v6.77Z"/><path class="cls-2" d="M145.81,22.92a8,8,0,0,1-3,6.63q-3,2.42-8.42,2.42a19.77,19.77,0,0,1-8.79-1.87V24a36.16,36.16,0,0,0,5.32,2,15.74,15.74,0,0,0,4,.57,5.66,5.66,0,0,0,3.32-.83,2.83,2.83,0,0,0,1.16-2.46,2.72,2.72,0,0,0-.51-1.62,5.72,5.72,0,0,0-1.5-1.37,38.79,38.79,0,0,0-4-2.1,19.07,19.07,0,0,1-4.27-2.57,9.64,9.64,0,0,1-2.27-2.87,8.18,8.18,0,0,1-.85-3.82,8,8,0,0,1,2.79-6.48Q131.52,0,136.45,0a18.24,18.24,0,0,1,4.62.57,31.77,31.77,0,0,1,4.6,1.61l-2.12,5.12a31.13,31.13,0,0,0-4.11-1.42,13.27,13.27,0,0,0-3.2-.4,4.23,4.23,0,0,0-2.87.87,2.87,2.87,0,0,0-1,2.27,2.81,2.81,0,0,0,.4,1.52,4.44,4.44,0,0,0,1.28,1.25,39.82,39.82,0,0,0,4.17,2.18q4.35,2.08,6,4.17A8.15,8.15,0,0,1,145.81,22.92Z"/><path class="cls-2" d="M165.72,5.52A6.71,6.71,0,0,0,160,8.31q-2,2.79-2,7.78,0,10.39,7.79,10.38a24.62,24.62,0,0,0,7.92-1.64v5.52A22,22,0,0,1,165.1,32q-6.78,0-10.36-4.11t-3.59-11.8a19.26,19.26,0,0,1,1.76-8.48A12.73,12.73,0,0,1,158,2,15,15,0,0,1,165.72,0a20.89,20.89,0,0,1,9.09,2.19l-2.12,5.35a35.23,35.23,0,0,0-3.5-1.44A10.46,10.46,0,0,0,165.72,5.52Z"/><path class="cls-2" d="M206.77,31.54h-6.56V18.14h-12.3v13.4h-6.58V.49h6.58V12.66h12.3V.49h6.56Z"/><path class="cls-2" d="M243.88,16q0,7.71-3.82,11.85T229.1,32q-7.14,0-11-4.14t-3.82-11.89q0-7.75,3.83-11.84t11-4.09q7.16,0,10.95,4.12T243.88,16Zm-22.66,0q0,5.2,2,7.84a6.91,6.91,0,0,0,5.9,2.63Q237,26.44,237,16T229.14,5.48a7,7,0,0,0-5.93,2.64Q221.22,10.77,221.22,16Z"/><path class="cls-2" d="M279.58,16q0,7.71-3.82,11.85T264.8,32q-7.14,0-11-4.14T250,15.93q0-7.75,3.83-11.84t11-4.09Q272,0,275.79,4.12T279.58,16Zm-22.66,0q0,5.2,2,7.84a6.91,6.91,0,0,0,5.9,2.63q7.88,0,7.88-10.47T264.84,5.48a7,7,0,0,0-5.93,2.64Q256.92,10.77,256.92,16Z"/><path class="cls-2" d="M287.11,31.54V.49h6.58V26.1h12.59v5.44Z"/></g></g></svg>