<svg xmlns="http://www.w3.org/2000/svg" xmlns:xlink="http://www.w3.org/1999/xlink" viewBox="0 0 495.42 45"><defs><style>.cls-1{fill:url(#linear-gradient);}.cls-2{fill:#fff;}.cls-3{fill:none;stroke-miterlimit:10;stroke-width:0.1px;stroke:url(#linear-gradient-2);}</style><linearGradient id="linear-gradient" x1="-2.4" y1="3" x2="52.6" y2="46.08" gradientUnits="userSpaceOnUse"><stop offset="0" stop-color="#4e4e4e"/><stop offset="0.28" stop-color="#555"/><stop offset="1" stop-color="#515151"/></linearGradient><linearGradient id="linear-gradient-2" x1="13.32" y1="23.6" x2="15.66" y2="23.6" xlink:href="#linear-gradient"/></defs><title>Asset 27</title><g id="Layer_2" data-name="Layer 2"><g id="Layer_1-2" data-name="Layer 1"><path d="M88.26,26a9.33,9.33,0,0,1-1.3,4.8,9.79,9.79,0,0,1-3.51,3.51,9.57,9.57,0,0,1-9.6,0,9.79,9.79,0,0,1-3.52-3.51A9.33,9.33,0,0,1,69,26V7.21H66.16V26a12.14,12.14,0,0,0,1.69,6.25,12.72,12.72,0,0,0,4.55,4.55,12.39,12.39,0,0,0,12.5,0,12.73,12.73,0,0,0,4.55-4.55A12.15,12.15,0,0,0,91.13,26V7.21H88.26Z"/><path d="M118.66,8.55a12.66,12.66,0,0,0-5.75-1.33H100.47V37.83h2.87V28.95h9.57a12.37,12.37,0,0,0,5.64-1.21,10.81,10.81,0,0,0,5.92-9.68,10.44,10.44,0,0,0-1.58-5.7A10.62,10.62,0,0,0,118.66,8.55Zm-5.75,17.53h-9.57v-16h9.57a9.38,9.38,0,0,1,4.1.78,8,8,0,0,1,3.34,11.51A7.88,7.88,0,0,1,117,25.3,9.5,9.5,0,0,1,112.91,26.07Z"/><path d="M149.06,7.85a12.56,12.56,0,0,0-5.71-1.31,14.21,14.21,0,0,0-5.67,1.06,9,9,0,0,0-3.9,3.09,8,8,0,0,0-1.4,4.67,6.35,6.35,0,0,0,1.44,4.28,9.29,9.29,0,0,0,3.8,2.54,37.64,37.64,0,0,0,5.94,1.61c2.18.44,3.83.84,4.92,1.18A5.57,5.57,0,0,1,151,26.5a4.17,4.17,0,0,1,.92,2.92,5.25,5.25,0,0,1-2.27,4.52,10,10,0,0,1-6,1.73,11.51,11.51,0,0,1-5.1-1,7.41,7.41,0,0,1-3.2-2.88,8.46,8.46,0,0,1-1.11-4.38V26.7h-2.87v.66a11.17,11.17,0,0,0,1.5,5.79,10.11,10.11,0,0,0,4.34,3.94,14.47,14.47,0,0,0,6.44,1.37,15.11,15.11,0,0,0,5.46-1,9.42,9.42,0,0,0,4.14-3,8,8,0,0,0,1.59-5,6.91,6.91,0,0,0-1.49-4.69,8.1,8.1,0,0,0-3.53-2.36A48.59,48.59,0,0,0,144.29,21a50.21,50.21,0,0,1-5.23-1.33A7,7,0,0,1,136.24,18a3.74,3.74,0,0,1-1-2.76A4.88,4.88,0,0,1,136.34,12a6.79,6.79,0,0,1,2.94-2,11.3,11.3,0,0,1,8.41.29A7.54,7.54,0,0,1,150.75,13a7.29,7.29,0,0,1,1.12,4v.66h2.87V17a9.93,9.93,0,0,0-1.54-5.45A10.43,10.43,0,0,0,149.06,7.85Z"/><path d="M185.09,26.75v.65a7.76,7.76,0,0,1-1.26,4.2,8.41,8.41,0,0,1-3.38,2.93,10.6,10.6,0,0,1-9.71-.23,9.9,9.9,0,0,1-3.55-3.52h0a9.2,9.2,0,0,1-1.32-4.8V19.07a9.34,9.34,0,0,1,1.3-4.8,9.82,9.82,0,0,1,3.51-3.51,10.5,10.5,0,0,1,9.67-.23,8.56,8.56,0,0,1,3.39,2.93A7.65,7.65,0,0,1,185,17.65v.65h2.82v-.66A10.13,10.13,0,0,0,186.17,12a11.58,11.58,0,0,0-4.48-4,13.24,13.24,0,0,0-12.46.25,12.54,12.54,0,0,0-4.53,4.55A12.28,12.28,0,0,0,163,19.07V26a12.16,12.16,0,0,0,1.69,6.25,12.68,12.68,0,0,0,4.57,4.55,12.27,12.27,0,0,0,6.27,1.69A13.6,13.6,0,0,0,181.81,37a11.41,11.41,0,0,0,4.46-4,10.23,10.23,0,0,0,1.64-5.64v-.66Z"/><path d="M204.75,37.8h-1.62V7.24h12.29a12.46,12.46,0,0,1,5.69,1.32,10.36,10.36,0,0,1,4.15,3.73,10.17,10.17,0,0,1,1.54,5.58,10.57,10.57,0,0,1-5.8,9.49,12.16,12.16,0,0,1-5.58,1.18H204.75Zm0-10.89h10.67A10.53,10.53,0,0,0,220,26a9,9,0,0,0,5.14-8.17A8.92,8.92,0,0,0,220,9.74a10.4,10.4,0,0,0-4.57-.88H204.75Z"/><path d="M246,7.24h1.71L260.3,37.8h-1.76l-4.13-10.1H239.35l-4.17,10.1h-1.71Zm-6,18.88h13.74L246.86,9.35Z"/><path d="M292.79,7.24V8.87H281.24V37.8h-1.58V8.87H268.11V7.24Z"/><path d="M302.27,37.8V7.24h1.62V21.69h20.29V7.24h1.62V37.8h-1.62V23.31H303.9V37.8Z"/><path d="M342.2,21.53a9,9,0,0,1-3.69-2.46,5.94,5.94,0,0,1-1.34-4,7.67,7.67,0,0,1,1.34-4.48,8.61,8.61,0,0,1,3.78-3,14.09,14.09,0,0,1,5.64-1.05,12.35,12.35,0,0,1,5.64,1.3,10.14,10.14,0,0,1,4.06,3.62,9.64,9.64,0,0,1,1.49,5.31h-1.62a8.25,8.25,0,0,0-1.27-4.57,8.47,8.47,0,0,0-3.47-3.05,10.94,10.94,0,0,0-4.87-1.08,12.92,12.92,0,0,0-4.43.75,7.71,7.71,0,0,0-3.36,2.28A5.78,5.78,0,0,0,338.8,15,4.59,4.59,0,0,0,340,18.33a7.91,7.91,0,0,0,3.21,1.91,52.72,52.72,0,0,0,5.53,1.4,49.55,49.55,0,0,1,5.6,1.43,7.74,7.74,0,0,1,3.38,2.26,6.52,6.52,0,0,1,1.38,4.44,7.6,7.6,0,0,1-1.52,4.81,9.09,9.09,0,0,1-4,2.92,15,15,0,0,1-5.45,1,14.37,14.37,0,0,1-6.41-1.36,9.82,9.82,0,0,1-4.24-3.84A10.91,10.91,0,0,1,336,27.57h1.63a9.45,9.45,0,0,0,1.25,4.92,8.38,8.38,0,0,0,3.62,3.27,12.6,12.6,0,0,0,5.62,1.16,11.09,11.09,0,0,0,6.7-1.93,6.17,6.17,0,0,0,2.66-5.27,5,5,0,0,0-1.14-3.51,6.53,6.53,0,0,0-2.88-1.78q-1.73-.55-5.2-1.25A38.48,38.48,0,0,1,342.2,21.53Z"/><path d="M369.45,37.8V7.24h1.62V21.69h20.29V7.24H393V37.8h-1.62V23.31H371.07V37.8Z"/><path d="M414,7.24h1.71L428.24,37.8h-1.76l-4.13-10.1H407.3l-4.17,10.1h-1.71Zm-6,18.88H421.7L414.81,9.35Z"/><path d="M439,37.8V7.24h1.62V36.18h21.3V37.8Z"/><path d="M481.15,7.24h1.71L495.42,37.8h-1.76l-4.13-10.1H474.47L470.3,37.8h-1.71Zm-6,18.88h13.74L482,9.35Z"/><circle class="cls-1" cx="22.5" cy="22.5" r="22.5"/><polyline class="cls-2" points="10.9 14.34 13.38 21.28 13.38 25.86 8.69 28.99 19.95 28.99 21.31 27.64 30.77 30.66 32.16 27.73 35.24 27.73 36.31 25.65 11.12 14.34"/><path class="cls-3" d="M13.37,21.38v4.45a2.23,2.23,0,1,0,0-4.45Z"/></g></g></svg>