<svg xmlns="http://www.w3.org/2000/svg" viewBox="0 0 289.49 50"><defs><style>.cls-1{fill:#4d4d4d;}</style></defs><title>Asset 29</title><g id="Layer_2" data-name="Layer 2"><g id="Layer_1-2" data-name="Layer 1"><path class="cls-1" d="M26.15,0V11.31H10.22v2.84H26.15V25.83H10.22L0,50,0,0Z"/><path class="cls-1" d="M31.58,34.51V.13h4.87v30H52.82v4.42Z"/><path class="cls-1" d="M55.74.13h4.89V19.87A21.06,21.06,0,0,0,61,24.53a6,6,0,0,0,1.19,2.38,9.6,9.6,0,0,0,3.61,2.68,12.06,12.06,0,0,0,4.74.88,10.77,10.77,0,0,0,7.2-2.31,7.6,7.6,0,0,0,2.73-6.09V.13h4.89V22.23a11.78,11.78,0,0,1-4.1,9.33q-4.1,3.57-10.72,3.58a17.29,17.29,0,0,1-7.05-1.39,14,14,0,0,1-5.31-4.07,9.57,9.57,0,0,1-1.88-3.56,24.23,24.23,0,0,1-.55-6Z"/><path class="cls-1" d="M92.56,34.51V.13h20.67V4.51H97.42V14.93h15.36v4.45H97.42V30.09h16.32v4.42Z"/><path class="cls-1" d="M119.93,34.51V.13h4.28l22.64,26.69V.13h4.89V34.51h-4.37L124.8,7.8V34.51Z"/><path class="cls-1" d="M168.38,34.51V4.6H155.74V.13H185.9V4.6H173.27V34.51Z"/><path class="cls-1" d="M201.37,34.51V.13h4.87v30H222.6v4.42Z"/><path class="cls-1" d="M228,34.51V.13H233V34.51Z"/><path class="cls-1" d="M241.73,34.51V.13h19.56V4.51h-14.7V14.68h14.25V19.1H246.59V34.51Z"/><path class="cls-1" d="M268.3,34.51V.13H289V4.51h-15.8V14.93h15.36v4.45H273.17V30.09h16.32v4.42Z"/></g></g></svg>