<svg xmlns="http://www.w3.org/2000/svg" viewBox="0 0 126 126"><defs><style>.cls-1{fill:#009aff;}.cls-2,.cls-3{fill:#fff;stroke-linecap:round;stroke-linejoin:round;}.cls-2{stroke:#000;}.cls-3{stroke:#3498db;}</style></defs><title>Asset 16</title><g id="Layer_2" data-name="Layer 2"><g id="Layer_1-2" data-name="Layer 1"><circle class="cls-1" cx="63" cy="63" r="63"/><path class="cls-2" d="M95.92,87.85H24.12a3.61,3.61,0,0,1-3.6-3.6V40.33a3.61,3.61,0,0,1,3.6-3.6H95.92a3.61,3.61,0,0,1,3.6,3.6V84.26A3.61,3.61,0,0,1,95.92,87.85Z"/><path class="cls-1" d="M93.33,84.73H26.71a3.26,3.26,0,0,1-3.34-3.16V43a3.26,3.26,0,0,1,3.34-3.16H93.33A3.26,3.26,0,0,1,96.67,43V81.57A3.26,3.26,0,0,1,93.33,84.73Z"/><rect class="cls-2" x="14.27" y="91.06" width="91.5" height="7.32" rx="3.66" ry="3.66"/><rect class="cls-1" x="54.56" y="93.63" width="10.92" height="2.18"/><rect class="cls-2" x="59.31" y="59.86" width="33.05" height="21.91" rx="2" ry="2"/><path class="cls-1" d="M79.17,71.1l-5,3A.15.15,0,0,1,74,74V68a.15.15,0,0,1,.23-.11l5,3A.12.12,0,0,1,79.17,71.1Z"/><polygon class="cls-2" points="51.2 44.06 47.98 47.28 47.98 70.81 67.49 70.81 67.49 44.06 51.2 44.06"/><polygon class="cls-2" points="28.47 44.06 28.47 70.81 47.98 70.81 47.98 47.28 44.76 44.06 28.47 44.06"/><line class="cls-3" x1="30.56" y1="48.55" x2="42.98" y2="48.55"/><line class="cls-3" x1="30.56" y1="52.04" x2="42.98" y2="52.04"/><line class="cls-3" x1="30.56" y1="55.53" x2="42.98" y2="55.53"/><line class="cls-3" x1="30.56" y1="59.01" x2="42.98" y2="59.01"/><line class="cls-3" x1="30.56" y1="62.5" x2="42.98" y2="62.5"/><line class="cls-3" x1="51.25" y1="62.5" x2="57.1" y2="62.5"/><line class="cls-3" x1="51.25" y1="52.04" x2="63.66" y2="52.04"/><line class="cls-3" x1="51.25" y1="55.53" x2="63.66" y2="55.53"/><line class="cls-3" x1="51.25" y1="59.01" x2="63.66" y2="59.01"/><path class="cls-2" d="M86.47,69.75,94.11,84.4c.15.29.52.51.64.39l2.54-2.54,5.44,5.44,1.94-1.94-5.44-5.44,2.54-2.54c.12-.12-.11-.49-.39-.64L86.72,69.51C86.47,69.38,86.34,69.5,86.47,69.75Z"/></g></g></svg>