<svg xmlns="http://www.w3.org/2000/svg" xmlns:xlink="http://www.w3.org/1999/xlink" viewBox="0 0 126 128.5"><defs><style>.cls-1,.cls-4{fill:none;}.cls-2{fill:#009aff;}.cls-3,.cls-7{fill:#fff;}.cls-3,.cls-4,.cls-5,.cls-7{stroke:#000;}.cls-3{stroke-miterlimit:10;}.cls-4,.cls-5,.cls-7{stroke-linecap:round;stroke-linejoin:round;}.cls-4{stroke-width:2px;}.cls-5{fill:#3498db;}.cls-6{clip-path:url(#clip-path);}</style><clipPath id="clip-path"><circle class="cls-1" cx="63" cy="63" r="63"/></clipPath></defs><title>Asset 21</title><g id="Layer_2" data-name="Layer 2"><g id="Layer_1-2" data-name="Layer 1"><circle class="cls-2" cx="63" cy="63" r="63"/><circle class="cls-3" cx="63" cy="40.97" r="14.47"/><path class="cls-3" d="M98.8,74.18a3.69,3.69,0,0,0-.32-.3l-.32-.27a3.53,3.53,0,0,0-.35-.25L80.38,58.89a3.57,3.57,0,0,0-2.73-1.33H48.37a3.56,3.56,0,0,0-2.7,1.29L28.19,73.35a3.54,3.54,0,0,0-.35.25l-.32.27a3.68,3.68,0,0,0-.32.3,4.31,4.31,0,0,0-.71,5.52l.24.36c.34.51,11.44,16.83,11.44,16.83a3.27,3.27,0,0,0,4.92.85l.32-.27a4.31,4.31,0,0,0,.75-5.55L35.1,78l10-8.33,2.11,26.38A4,4,0,0,0,51,100.33H75a4,4,0,0,0,3.76-4.25l2.11-26.37L90.9,78,81.84,91.91a4.31,4.31,0,0,0,.75,5.55l.32.27a3.27,3.27,0,0,0,4.92-.85s11.1-16.31,11.44-16.83l.24-.36A4.31,4.31,0,0,0,98.8,74.18Z"/><polyline class="cls-4" points="51.29 58.3 60.94 83.87 72.73 58.3"/><path class="cls-5" d="M60.36,82.63a3.57,3.57,0,1,0,0,7.14v4.76h3.57V86.2A3.57,3.57,0,0,0,60.36,82.63Z"/><g class="cls-6"><polygon class="cls-7" points="48.74 103.03 45.95 125.26 59.79 127.93 62.43 118.35 65.4 128 80.05 124.86 76.32 102.5 48.82 102.5 48.74 103.03"/></g></g></g></svg>