<svg xmlns="http://www.w3.org/2000/svg" viewBox="0 0 126 126"><defs><style>.cls-1{fill:#009aff;}.cls-2,.cls-3,.cls-4,.cls-5,.cls-7{fill:#fff;}.cls-2,.cls-4,.cls-5,.cls-6{stroke:#000;}.cls-2,.cls-3,.cls-4,.cls-5,.cls-6,.cls-7{stroke-linecap:round;stroke-linejoin:round;}.cls-3,.cls-7{stroke:#3498db;}.cls-4{stroke-width:5px;}.cls-5,.cls-7{stroke-width:2px;}.cls-6{fill:none;}</style></defs><title>Asset 23</title><g id="Layer_2" data-name="Layer 2"><g id="Layer_1-2" data-name="Layer 1"><circle class="cls-1" cx="63" cy="63" r="63"/><polygon class="cls-2" points="31.45 30.83 31.45 103.5 80.03 103.5 80.03 39.58 72.01 30.83 31.45 30.83"/><polygon class="cls-2" points="35.93 27.67 35.93 98.33 87.46 98.33 87.46 36.17 78.95 27.67 35.93 27.67"/><line class="cls-3" x1="41.46" y1="39.53" x2="74.24" y2="39.53"/><line class="cls-3" x1="41.46" y1="48.74" x2="74.24" y2="48.74"/><line class="cls-3" x1="41.46" y1="57.95" x2="74.24" y2="57.95"/><line class="cls-3" x1="41.46" y1="67.16" x2="74.24" y2="67.16"/><line class="cls-3" x1="41.46" y1="76.37" x2="74.24" y2="76.37"/><line class="cls-4" x1="83.09" y1="73.53" x2="97.82" y2="88.27"/><circle class="cls-5" cx="72.7" cy="62.82" r="16.96"/><path class="cls-6" d="M77.13,74.22A10.66,10.66,0,0,1,62.8,69.53"/><line class="cls-7" x1="66.36" y1="52.39" x2="76.74" y2="52.39"/><line class="cls-7" x1="60.38" y1="59.63" x2="69.97" y2="59.63"/><line class="cls-7" x1="64.06" y1="68.5" x2="73.65" y2="68.5"/></g></g></svg>