<svg xmlns="http://www.w3.org/2000/svg" viewBox="0 0 1920 697.74"><defs><style>.cls-1{fill:#e6f7ff;}.cls-2{fill:#fff;}</style></defs><title>Asset 2</title><g id="Layer_2" data-name="Layer 2"><g id="Layer_1-2" data-name="Layer 1"><rect class="cls-1" width="1920" height="697.74"/><path class="cls-2" d="M659.2,237.77l-2.37-4.33q4.33-17.74,14-44.16T691.53,139h24.24a954.18,954.18,0,0,0-20.3,98.75Zm72.73,0L729,233.44q11-42.37,35.08-94.42h24.25q-5.91,22.68-11.73,51.15t-8.38,47.6Z"/><path class="cls-2" d="M1440.73,423.74A953.73,953.73,0,0,0,1420.42,325h24.25q11,23.85,20.69,50.26t14,44.16l-2.37,4.33Zm-72.74,0q-2.55-19.11-8.38-47.6T1347.88,325h24.25q24.06,52,35.09,94.42l-3,4.33Z"/></g></g></svg>