<svg xmlns="http://www.w3.org/2000/svg" xmlns:xlink="http://www.w3.org/1999/xlink" viewBox="0 0 832.28 652.73"><defs><style>.cls-1{isolation:isolate;}.cls-2{fill:#d6eaf2;}.cls-18,.cls-19,.cls-2,.cls-35{mix-blend-mode:multiply;}.cls-3{fill:#55c3fe;}.cls-4{fill:#179ecc;}.cls-5{fill:#97dfff;}.cls-6{fill:#009aff;}.cls-7{fill:#35afe5;}.cls-8{fill:#e6f7ff;}.cls-9{fill:#fff;}.cls-10{fill:#cbe9f4;}.cls-11{fill:#144682;}.cls-12{fill:#2d5ca0;}.cls-13{fill:#ea4266;}.cls-14{fill:#e5e5e5;}.cls-15{fill:#f4f4f4;}.cls-16{fill:#3498db;}.cls-17{fill:#fe7386;}.cls-18{fill:#ef92a9;}.cls-19{fill:#e2e2e2;}.cls-20{fill:#c7ebf9;}.cls-21{fill:#4c4c4c;}.cls-22{fill:#112f5b;}.cls-23{fill:#164072;}.cls-24{fill:#ffc2b0;}.cls-25{fill:#32a5c4;}.cls-26{fill:#adf8ff;}.cls-27{fill:#0a253f;}.cls-28{fill:#0b2d4f;}.cls-29{fill:#1d6baa;}.cls-30{fill:#155a93;}.cls-31{fill:#227cc6;}.cls-32{fill:#1d76b2;}.cls-33{fill:#11385e;}.cls-34{fill:#0f2c49;}.cls-35{fill:#c4dde8;}.cls-36{fill:#aaa;}.cls-37{fill:#fcfcfc;}.cls-38{fill:#4f4f4f;}.cls-39{fill:#ffb6c2;}.cls-40{fill:#0b223d;}.cls-41{fill:url(#linear-gradient);}.cls-42{fill:#ffa9b8;}.cls-43{fill:#ffc0cf;}.cls-44{fill:#fc88a1;}</style><linearGradient id="linear-gradient" x1="168.02" y1="109.09" x2="225.54" y2="109.09" gradientUnits="userSpaceOnUse"><stop offset="0" stop-color="#ffb870"/><stop offset="1" stop-color="#ffe2c4"/></linearGradient></defs><title>Asset 8</title><g class="cls-1"><g id="Layer_2" data-name="Layer 2"><g id="Layer_1-2" data-name="Layer 1"><polyline class="cls-2" points="249.53 269.18 0 418.29 155.02 507.96 352.09 428.95 250.34 276.01"/><path class="cls-3" d="M378,384.9h0V373.16l-8.43,4.24-14.8-8.55c-4.82-2.78-12.64-2.78-17.46,0L188.58,454.75l-8.47-4.13v11.6h0c-.19,2,1,3.95,3.58,5.44L203.33,479c4.82,2.78,12.63,2.78,17.46,0l153.65-88.71C377,388.8,378.18,386.83,378,384.9Z"/><path class="cls-4" d="M188.58,454.75l-8.47-4.13v11.6h0c-.19,2,1,3.95,3.58,5.44L203.33,479a17.79,17.79,0,0,0,8.48,2.07V441.33Z"/><path class="cls-5" d="M203.33,466.6c4.82,2.79,12.63,2.79,17.46,0l153.65-88.71c4.82-2.79,4.82-7.3,0-10.08l-19.63-11.34c-4.82-2.78-12.64-2.78-17.46,0L183.69,445.18c-4.82,2.78-4.82,7.3,0,10.08Z"/><polygon class="cls-6" points="249.87 435.98 239.16 429.92 239.16 375.12 308.25 335.23 249.87 435.98"/><polygon class="cls-7" points="318.96 396.09 249.87 435.98 249.87 381.18 318.96 341.29 318.96 396.09"/><path class="cls-6" d="M432.77,51.89l-10.05-5.74a2.56,2.56,0,0,0-.68-.39h0a4.22,4.22,0,0,0-3.59.58L129.28,213.28a12.41,12.41,0,0,0-5.61,9.72V445.06c0,1.79.63,3.05,1.64,3.63a3,3,0,0,0,.47.21l10,5.75,2.08-10.82-3,1.24L418.44,281.35a12.41,12.41,0,0,0,5.62-9.73V57.94Z"/><path class="cls-5" d="M422.72,46.15a2.56,2.56,0,0,0-.68-.39h0a4.22,4.22,0,0,0-3.59.58L129.28,213.28a11.09,11.09,0,0,0-3.53,3.53L319,338.74l99.39-57.39a12.41,12.41,0,0,0,5.62-9.73V57.94l8.71-6.05Z"/><path class="cls-3" d="M434.45,277.56a12.41,12.41,0,0,1-5.61,9.73L139.67,454.23c-3.1,1.79-5.61.34-5.61-3.24V228.94a12.4,12.4,0,0,1,5.61-9.72L428.84,52.27c3.1-1.79,5.61-.34,5.61,3.24Z"/><polygon class="cls-8" points="428.99 261.3 139.51 428.43 139.51 228.54 428.99 61.41 428.99 261.3"/><polygon class="cls-9" points="426.16 63.05 426.16 259.09 139.51 424.59 139.51 428.43 428.99 261.3 428.99 61.41 426.16 63.05"/><polygon class="cls-10" points="401.91 110.53 286.51 177.15 286.51 170.53 401.91 103.91 401.91 110.53"/><polygon class="cls-10" points="401.91 122.33 221.71 226.37 221.71 219.76 401.91 115.72 401.91 122.33"/><polygon class="cls-10" points="401.91 134.14 221.71 238.18 221.71 231.57 401.91 127.53 401.91 134.14"/><polygon class="cls-10" points="401.91 145.95 221.71 249.99 221.71 243.38 401.91 139.34 401.91 145.95"/><polygon class="cls-10" points="401.91 157.76 221.71 261.8 221.71 255.19 401.91 151.15 401.91 157.76"/><polygon class="cls-10" points="401.91 169.57 221.71 273.61 221.71 267 401.91 162.96 401.91 169.57"/><polygon class="cls-10" points="401.91 193.19 286.51 259.82 286.51 253.2 401.91 186.58 401.91 193.19"/><polygon class="cls-10" points="401.91 205 221.71 309.04 221.71 302.43 401.91 198.39 401.91 205"/><polygon class="cls-10" points="401.91 216.81 221.71 320.85 221.71 314.24 401.91 210.2 401.91 216.81"/><polygon class="cls-10" points="401.91 228.62 221.71 332.66 221.71 326.05 401.91 222.01 401.91 228.62"/><polygon class="cls-10" points="401.91 240.43 221.71 344.47 221.71 337.86 401.91 233.82 401.91 240.43"/><polygon class="cls-10" points="308.12 306.39 221.71 356.28 221.71 349.67 308.12 299.78 308.12 306.39"/><polygon class="cls-11" points="784.77 436.28 629.72 346.76 599.75 135.53 629.72 118.41 784.77 207.92 784.77 436.28"/><polygon class="cls-9" points="777.05 432.3 751.04 445.59 600.42 143.27 629.03 126.92 777.05 212.38 777.05 432.3"/><polygon class="cls-12" points="754.79 453.4 599.75 363.89 599.75 135.53 754.79 225.05 754.79 453.4"/><polygon class="cls-6" points="749.83 456.49 594.78 366.97 564.81 155.75 594.78 138.62 749.83 228.13 749.83 456.49"/><polygon class="cls-9" points="742.11 452.51 716.1 465.8 565.49 163.48 594.1 147.13 742.11 232.59 742.11 452.51"/><polygon class="cls-3" points="719.86 473.62 564.81 384.1 564.81 155.75 719.86 245.26 719.86 473.62"/><polygon class="cls-6" points="564.81 384.1 564.81 155.75 719.86 245.26 564.81 384.1"/><polygon class="cls-13" points="604.38 165.51 591.19 158.06 591.19 130 597.78 139.36 604.38 135.02 604.38 165.51"/><polygon class="cls-2" points="433.67 594.42 310.33 523.21 256.5 494.13 449.04 387.19 668.09 482.31 474.15 594.44 433.67 594.42"/><polygon class="cls-11" points="472.5 592.43 328.89 509.52 328.89 477.33 521.55 398.29 665.15 481.2 472.5 592.43"/><polygon class="cls-14" points="521.55 387.94 336.03 474.02 336.03 503.3 472.5 582.09 665.15 470.86 521.55 387.94"/><polygon class="cls-15" points="521.55 380.46 490.79 394.74 490.79 486.91 336.03 486.91 336.03 495.81 472.5 574.61 665.15 463.37 521.55 380.46"/><polygon class="cls-9" points="521.55 373.61 490.79 387.88 490.79 486.91 336.03 486.91 336.03 488.96 472.5 567.75 665.15 456.52 521.55 373.61"/><polygon class="cls-12" points="472.5 560.25 328.89 477.33 521.55 366.11 665.15 449.01 472.5 560.25"/><polygon class="cls-16" points="472.96 548.75 336.51 469.97 336.51 439.39 519.56 364.3 656 443.07 472.96 548.75"/><polygon class="cls-14" points="519.56 354.47 343.3 436.25 343.3 464.06 472.96 538.92 656 433.24 519.56 354.47"/><polygon class="cls-15" points="519.56 347.36 490.34 360.92 490.34 448.49 343.3 448.49 343.3 456.95 472.96 531.81 656 426.13 519.56 347.36"/><polygon class="cls-9" points="519.56 340.84 490.34 354.4 490.34 448.49 343.3 448.49 343.3 450.44 472.96 525.3 656 419.62 519.56 340.84"/><polygon class="cls-3" points="472.96 518.17 336.51 439.39 519.56 333.72 656 412.49 472.96 518.17"/><polygon class="cls-13" points="473.99 510.31 343.56 435 343.56 405.78 518.53 333.99 648.95 409.29 473.99 510.31"/><polygon class="cls-14" points="518.53 324.6 350.05 402.77 350.05 429.36 473.99 500.91 648.95 399.89 518.53 324.6"/><polygon class="cls-15" points="518.53 317.8 490.6 330.76 490.6 414.47 350.05 414.47 350.05 422.56 473.99 494.12 648.95 393.1 518.53 317.8"/><polygon class="cls-9" points="518.53 311.57 490.6 324.54 490.6 414.47 350.05 414.47 350.05 416.33 473.99 487.89 648.95 386.87 518.53 311.57"/><polygon class="cls-17" points="473.99 481.07 343.56 405.78 518.53 304.76 648.95 380.06 473.99 481.07"/><polygon class="cls-18" points="343.56 405.78 447.12 465.56 533.52 415.68 429.97 355.89 343.56 405.78"/><polygon class="cls-18" points="421.67 360.68 518.53 304.76 589.58 345.78 421.67 360.68"/><path class="cls-19" d="M733.26,172.09c-4.51-6.58.92-52.23-5.57-56.31a17.92,17.92,0,0,0-.11-3.33c1.55-.33-30.93-38.43-37.43-32.49s-1.42,16-1.42,16,.38,1.7-2.19,2.81a9,9,0,0,0,4.14.53c.05.39.1.79.16,1.2h0a69.17,69.17,0,0,0,1.48,7.33c.72,2.8,1.33,5.36,1.89,7.71-.27.27-.56.53-.83.83-.09,0-.11.12-.11.12-.17.2-.31.4-.47.59-.34.41-.69.82-1,1.28-11.6,15-7.81,32.58-14.95,38.5A57.23,57.23,0,0,1,662.28,166l-9.38,2.19L639.65,142.9l.26,7.83-.26-.35.8,20.29h0c-3.37.32-6,11-.41,14.21.35.2,12.28,1,12.6,1.15l1.83,13.48-.55,13c-7.32,6.63-13.64,14.08-15.35,21.08-4.66,19.1-3,63.34-3,63.34l.19.33c-2.31,1.77-10.57,8.21-12.57,11.11a3.27,3.27,0,0,0-.42.88h0A2.45,2.45,0,0,0,624,312.2h0a4.66,4.66,0,0,0,.44.22l.23.11c.13.05.28.1.42.14l.37.1.43.08.48.06.45,0h.58l.47,0,.66-.07.5-.07.74-.15.52-.12c.27-.07.55-.16.83-.25l.52-.17c.31-.11.64-.24,1-.38l.47-.19c.5-.22,1-.46,1.52-.73,8.68-4.58,10.53-5.79,12.22-6.76a2.87,2.87,0,0,0,.68-.54l.12-.14a2.05,2.05,0,0,0,.36-.64v0a3,3,0,0,0,.12-.76c0-.06,0-.11,0-.16a9.64,9.64,0,0,0-.07-1.1l.38-.17,7.31-64.77s11.76,19.32,20.39,15.82c-5.52,6.83-4.25-1.87-5.25,5.36-2.7,19.47-2.75,61.83-2.75,61.83l.29.29c-2.83,2.19-10.2,8-12.07,10.72a3.2,3.2,0,0,0-.43.88h0a2.44,2.44,0,0,0,1.23,2.92h0a3.42,3.42,0,0,0,.44.22l.24.11a3.88,3.88,0,0,0,.42.14l.37.1a3.91,3.91,0,0,0,.43.08l.49.07.45,0h.58l.47,0,.66-.07.5-.07L663,334l.52-.12.83-.25.52-.17c.32-.11.64-.24,1-.38l.47-.19c.5-.22,1-.46,1.53-.74,8.68-4.58,10.53-5.79,12.22-6.76a3,3,0,0,0,.68-.54l.12-.14a2.12,2.12,0,0,0,.36-.65v0a3.2,3.2,0,0,0,.12-.77c0-.05,0-.11,0-.16a20.25,20.25,0,0,0-.25-2.54,1.12,1.12,0,0,0-.45-.69c.43-.32,8.83-83.43,8.83-83.43s34.49-15.44,39.24-18C751.33,206.13,733.26,172.09,733.26,172.09Z"/><path class="cls-20" d="M683.36,95.52s.19-1.85,5.19,9.25-7,46.56-9.86,50.45-38.59,14.84-46.45,2.71c4.91-2.52.17-6.14,1.13-11.82,14.6,5.11,29.09-6.52,33.56-10.22C674.36,129.73,669.88,110.88,683.36,95.52Z"/><path class="cls-9" d="M626.47,275.81s-10.86,8.2-13.19,11.58,2.73,7,11.42,2.41,10.53-5.79,12.22-6.75,1.37-2.33,1-4.83S626.47,275.81,626.47,275.81Z"/><path class="cls-21" d="M636.93,281.5c-1.69,1-3.54,2.17-12.22,6.75-6.53,3.44-11,2.26-11.84,0-1,3.06,3.91,5.71,11.84,1.53,8.68-4.58,10.53-5.79,12.22-6.75,1.29-.74,1.4-1.71,1.24-3.24A2.25,2.25,0,0,1,636.93,281.5Z"/><path class="cls-22" d="M719.4,171.54s-.4,24.53-22.07,29.86-44.57,16.37-44.57,16.37L638.54,279.5a11.19,11.19,0,0,1-6.11,1,9.32,9.32,0,0,1-6.76-4.52s-1.68-44.25,3-63.34S672.32,171,672.32,171Z"/><path class="cls-9" d="M659.65,297.18s-10.86,8.2-13.19,11.58,2.73,7,11.42,2.41,10.53-5.79,12.22-6.75,1.37-2.33,1-4.83S659.65,297.18,659.65,297.18Z"/><path class="cls-21" d="M670.1,302.86c-1.69,1-3.54,2.17-12.22,6.75-6.53,3.44-11,2.26-11.85,0-1,3.06,3.92,5.71,11.85,1.53,8.68-4.58,10.53-5.79,12.22-6.75,1.29-.74,1.4-1.71,1.24-3.24A2.25,2.25,0,0,1,670.1,302.86Z"/><path class="cls-23" d="M740.85,186s2.09,24.44-18.92,31.95-42.67,20.81-42.67,20.81l-7.89,59.55a8.78,8.78,0,0,1-6.31,2.33,9.46,9.46,0,0,1-6.82-2.92s-4.88-45.07-2.18-64.54,32.24-42.38,32.24-42.38Z"/><path class="cls-9" d="M669.26,173.06s-2.34-73.28,20-81.84,42.83,11.81,51.57,31.54,6.43,54.07,0,66.83C710.18,210.69,668.39,183.2,669.26,173.06Z"/><path class="cls-9" d="M740.85,122.76c-8.74-19.73-29.22-40.1-51.57-31.54a13.11,13.11,0,0,0-2.12,1.06c16.46,2.09,30.46,17.9,37.29,33.31,8.73,19.73,6.43,54.07,0,66.83a43.34,43.34,0,0,1-9.47,4.92,44.57,44.57,0,0,0,25.87-7.74C747.28,176.83,749.58,142.49,740.85,122.76Z"/><path class="cls-24" d="M683,58.56s-5.58,8.93-.58,28.32c4.06,15.71,4.66,24.39,11.22,25.06s26.18-4.13,24-20.48c2-.42,5.95-7.9,2.8-13.85s-5.37.55-5.37.55.13-13-9-17.69S683,58.56,683,58.56Z"/><path class="cls-22" d="M704.52,74.13c0-.75-7,9.18-18.18,6,3.84-1.16,4.73-3.87,4.73-3.87a9.89,9.89,0,0,1-10.17,3.31A14.8,14.8,0,0,0,685,77.18s-4.26,2.24-8.35.62c2.57-1.11,2.19-2.81,2.19-2.81s-2.28,2.28-6.7-1.58c1.8-.23,1.62-8.49,8.12-14.44S692,51.63,700.73,53.1c-2.14-2.21-4.39-3.44-7.47-3,3.48-1.94,10.83,1.54,13,4.76,6.76-2.6,19.51,1.9,15.3,26.55-.07-.62-.65-4.63-3-5.39s-4.4,3.94-3.86,5.13.8,8.22.8,8.22L712.39,91s1-6.11-1.24-8S704.94,83.52,704.52,74.13Z"/><polygon class="cls-8" points="629.74 129.38 642.98 147.16 685.77 137.18 683.32 192.49 644.4 192.02 631.58 176.42 629.74 129.38"/><polygon class="cls-10" points="629.74 121.91 642.98 147.16 644.4 192.02 631.58 176.42 629.74 121.91"/><path class="cls-24" d="M694.51,167.14s-1.32,2-4.11,0-3.84-5.47-5.56-6.75c-.21,4.41,0,7.5-5.48,7.4s-9-.85-12.11-.64.6,14,16.59,14.27c8.82-.55,12.57-5.48,12.57-5.48Z"/><path class="cls-24" d="M630.53,149.67s2.94,6,4.76,6.71.41,10.72-5.18,7.5S627.16,150,630.53,149.67Z"/><path class="cls-20" d="M722.95,120.47s.94-15.06,11.54-9.06,21.85,41.7,21.85,46.53-49.1,28.73-62.61,23.59a19,19,0,0,0-.11-16.51c14.79-4.5,33.77-10.29,37-15.12S721.15,140.82,722.95,120.47Z"/><polygon class="cls-3" points="278.63 633.69 57.33 505.92 57.33 497.57 350.64 583.77 350.64 592.12 278.63 633.69"/><polygon class="cls-6" points="278.63 633.69 57.33 505.92 57.33 497.57 278.64 624.51 278.64 632.86 278.63 633.69"/><polygon class="cls-5" points="278.63 625.34 57.33 497.57 129.33 456 350.64 583.77 278.63 625.34"/><polygon class="cls-25" points="135.76 479.39 121.17 470.97 121.17 469.18 145.17 472.17 145.17 473.96 135.76 479.39"/><polygon class="cls-26" points="135.76 477.6 121.17 469.18 130.58 463.75 145.17 472.17 135.76 477.6"/><polygon class="cls-25" points="151.37 488.42 136.78 480 136.78 478.21 160.78 481.2 160.78 482.99 151.37 488.42"/><polygon class="cls-26" points="151.37 486.64 136.78 478.21 146.19 472.78 160.78 481.2 151.37 486.64"/><polygon class="cls-25" points="167 497.45 152.4 489.02 152.4 487.24 176.4 490.23 176.4 492.02 167 497.45"/><polygon class="cls-26" points="167 495.66 152.4 487.24 161.81 481.81 176.4 490.23 167 495.66"/><polygon class="cls-25" points="182.61 506.48 168.01 498.05 168.01 496.27 192.02 499.26 192.02 501.04 182.61 506.48"/><polygon class="cls-26" points="182.61 504.69 168.01 496.27 177.43 490.84 192.02 499.26 182.61 504.69"/><polygon class="cls-25" points="198.22 515.5 183.63 507.08 183.63 505.3 207.63 508.29 207.63 510.07 198.22 515.5"/><polygon class="cls-26" points="198.22 513.72 183.63 505.3 193.04 499.87 207.63 508.29 198.22 513.72"/><polygon class="cls-25" points="213.84 524.53 199.25 516.11 199.25 514.32 223.25 517.32 223.25 519.1 213.84 524.53"/><polygon class="cls-26" points="213.84 522.75 199.25 514.32 208.66 508.89 223.25 517.32 213.84 522.75"/><polygon class="cls-25" points="229.45 533.56 214.87 525.14 214.87 523.35 238.87 526.35 238.87 528.13 229.45 533.56"/><polygon class="cls-26" points="229.45 531.78 214.87 523.35 224.28 517.92 238.87 526.35 229.45 531.78"/><polygon class="cls-25" points="245.07 542.59 230.48 534.17 230.48 532.38 254.48 535.38 254.48 537.16 245.07 542.59"/><polygon class="cls-26" points="245.07 540.8 230.48 532.38 239.89 526.95 254.48 535.38 245.07 540.8"/><polygon class="cls-25" points="260.69 551.62 246.1 543.2 246.1 541.41 270.1 544.4 270.1 546.19 260.69 551.62"/><polygon class="cls-26" points="260.69 549.84 246.1 541.41 255.5 535.98 270.1 544.4 260.69 549.84"/><polygon class="cls-25" points="276.3 560.65 261.71 552.23 261.71 550.44 285.72 553.43 285.72 555.22 276.3 560.65"/><polygon class="cls-26" points="276.3 558.87 261.71 550.44 271.12 545 285.72 553.43 276.3 558.87"/><polygon class="cls-25" points="291.92 569.68 277.33 561.25 277.33 559.47 301.33 562.46 301.33 564.25 291.92 569.68"/><polygon class="cls-26" points="291.92 567.89 277.33 559.47 286.74 554.04 301.33 562.46 291.92 567.89"/><polygon class="cls-25" points="307.54 578.71 292.94 570.29 292.94 568.5 316.95 571.49 316.95 573.28 307.54 578.71"/><polygon class="cls-26" points="307.54 576.92 292.94 568.5 302.36 563.07 316.95 571.49 307.54 576.92"/><polygon class="cls-25" points="323.15 587.74 308.56 579.31 308.56 577.53 332.56 580.52 332.56 582.3 323.15 587.74"/><polygon class="cls-26" points="323.15 585.95 308.56 577.53 317.97 572.1 332.56 580.52 323.15 585.95"/><polygon class="cls-25" points="132.09 491.49 109 477.98 109 476.19 141.5 484.27 141.5 486.06 132.09 491.49"/><polygon class="cls-26" points="132.09 489.71 109 476.19 118.41 470.76 141.5 484.27 132.09 489.71"/><polygon class="cls-25" points="147.7 500.52 133.11 492.1 133.11 490.31 157.11 493.3 157.11 495.09 147.7 500.52"/><polygon class="cls-26" points="147.7 498.73 133.11 490.31 142.52 484.88 157.11 493.3 147.7 498.73"/><polygon class="cls-25" points="163.32 509.55 148.72 501.13 148.72 499.34 172.73 502.33 172.73 504.11 163.32 509.55"/><polygon class="cls-26" points="163.32 507.76 148.72 499.34 158.14 493.91 172.73 502.33 163.32 507.76"/><polygon class="cls-25" points="178.93 518.58 164.34 510.15 164.34 508.37 188.34 511.36 188.34 513.15 178.93 518.58"/><polygon class="cls-26" points="178.93 516.79 164.34 508.37 173.75 502.94 188.34 511.36 178.93 516.79"/><polygon class="cls-25" points="194.55 527.6 179.96 519.18 179.96 517.4 203.96 520.39 203.96 522.18 194.55 527.6"/><polygon class="cls-26" points="194.55 525.82 179.96 517.4 189.37 511.96 203.96 520.39 194.55 525.82"/><polygon class="cls-25" points="210.17 536.63 195.57 528.21 195.57 526.42 219.58 529.42 219.58 531.2 210.17 536.63"/><polygon class="cls-26" points="210.17 534.85 195.57 526.42 204.98 520.99 219.58 529.42 210.17 534.85"/><polygon class="cls-25" points="225.78 545.66 211.19 537.24 211.19 535.45 235.19 538.45 235.19 540.23 225.78 545.66"/><polygon class="cls-26" points="225.78 543.88 211.19 535.45 220.6 530.02 235.19 538.45 225.78 543.88"/><polygon class="cls-25" points="241.4 554.69 226.8 546.27 226.8 544.48 250.81 547.48 250.81 549.26 241.4 554.69"/><polygon class="cls-26" points="241.4 552.9 226.8 544.48 236.22 539.05 250.81 547.48 241.4 552.9"/><polygon class="cls-25" points="257.02 563.72 242.42 555.29 242.42 553.51 266.43 556.5 266.43 558.29 257.02 563.72"/><polygon class="cls-26" points="257.02 561.94 242.42 553.51 251.83 548.08 266.43 556.5 257.02 561.94"/><polygon class="cls-25" points="272.63 572.75 258.04 564.33 258.04 562.54 282.04 565.53 282.04 567.32 272.63 572.75"/><polygon class="cls-26" points="272.63 570.97 258.04 562.54 267.45 557.11 282.04 565.53 272.63 570.97"/><polygon class="cls-25" points="288.25 581.78 273.66 573.35 273.66 571.57 297.66 574.56 297.66 576.35 288.25 581.78"/><polygon class="cls-26" points="288.25 579.99 273.66 571.57 283.06 566.14 297.66 574.56 288.25 579.99"/><polygon class="cls-25" points="310.92 594.96 289.27 582.38 289.27 580.6 320.33 587.74 320.33 589.52 310.92 594.96"/><polygon class="cls-26" points="310.92 593.17 289.27 580.6 298.68 575.16 320.33 587.74 310.92 593.17"/><polygon class="cls-25" points="114.01 495.24 96.65 485.12 96.65 483.34 122.18 487.29 122.18 489.08 114.01 495.24"/><polygon class="cls-26" points="114.55 493.75 96.65 483.34 106.06 477.9 123.96 488.32 114.55 493.75"/><polygon class="cls-25" points="128.38 503.54 113.79 495.11 113.79 493.33 137.8 496.32 137.8 498.11 128.38 503.54"/><polygon class="cls-26" points="128.38 501.75 113.79 493.33 123.2 487.89 137.8 496.32 128.38 501.75"/><polygon class="cls-25" points="144 512.57 129.41 504.14 129.41 502.36 153.41 505.35 153.41 507.13 144 512.57"/><polygon class="cls-26" points="144 510.78 129.41 502.36 138.82 496.92 153.41 505.35 144 510.78"/><polygon class="cls-25" points="159.62 521.59 145.02 513.17 145.02 511.39 169.03 514.38 169.03 516.16 159.62 521.59"/><polygon class="cls-26" points="159.62 519.81 145.02 511.39 154.44 505.95 169.03 514.38 159.62 519.81"/><polygon class="cls-25" points="175.23 530.63 160.64 522.2 160.64 520.41 184.64 523.4 184.64 525.19 175.23 530.63"/><polygon class="cls-26" points="175.23 528.84 160.64 520.41 170.05 514.98 184.64 523.4 175.23 528.84"/><polygon class="cls-25" points="190.85 539.65 176.26 531.23 176.26 529.45 200.26 532.44 200.26 534.22 190.85 539.65"/><polygon class="cls-26" points="190.85 537.87 176.26 529.45 185.67 524.01 200.26 532.44 190.85 537.87"/><polygon class="cls-25" points="206.47 548.68 191.87 540.26 191.87 538.47 215.88 541.46 215.88 543.25 206.47 548.68"/><polygon class="cls-26" points="206.47 546.89 191.87 538.47 201.28 533.04 215.88 541.46 206.47 546.89"/><polygon class="cls-25" points="222.08 557.71 207.49 549.29 207.49 547.5 231.49 550.49 231.49 552.28 222.08 557.71"/><polygon class="cls-26" points="222.08 555.93 207.49 547.5 216.9 542.07 231.49 550.49 222.08 555.93"/><polygon class="cls-25" points="237.7 566.74 223.1 558.32 223.1 556.53 247.11 559.52 247.11 561.31 237.7 566.74"/><polygon class="cls-26" points="237.7 564.95 223.1 556.53 232.51 551.1 247.11 559.52 237.7 564.95"/><polygon class="cls-25" points="253.31 575.77 238.72 567.34 238.72 565.56 262.73 568.55 262.73 570.33 253.31 575.77"/><polygon class="cls-26" points="253.31 573.98 238.72 565.56 248.13 560.13 262.73 568.55 253.31 573.98"/><polygon class="cls-25" points="268.93 584.8 254.34 576.37 254.34 574.59 278.34 577.58 278.34 579.37 268.93 584.8"/><polygon class="cls-26" points="268.93 583.01 254.34 574.59 263.75 569.16 278.34 577.58 268.93 583.01"/><polygon class="cls-25" points="284.55 593.83 269.96 585.4 269.96 583.62 293.96 586.61 293.96 588.39 284.55 593.83"/><polygon class="cls-26" points="284.55 592.04 269.96 583.62 279.37 578.18 293.96 586.61 284.55 592.04"/><polygon class="cls-25" points="298.57 601.93 285.57 594.43 285.57 592.65 307.98 594.71 307.98 596.5 298.57 601.93"/><polygon class="cls-26" points="298.57 600.15 285.57 592.65 294.98 587.21 307.98 594.71 298.57 600.15"/><polygon class="cls-25" points="109.09 506.61 84.22 492.26 84.22 490.47 118.5 499.39 118.5 501.17 109.09 506.61"/><polygon class="cls-26" points="109.09 504.83 84.22 490.47 93.62 485.04 118.5 499.39 109.09 504.83"/><polygon class="cls-25" points="124.71 515.64 110.12 507.21 110.12 505.43 134.12 508.42 134.12 510.2 124.71 515.64"/><polygon class="cls-26" points="124.71 513.85 110.12 505.43 119.53 500 134.12 508.42 124.71 513.85"/><polygon class="cls-25" points="140.33 524.66 125.73 516.24 125.73 514.45 149.74 517.45 149.74 519.23 140.33 524.66"/><polygon class="cls-26" points="140.33 522.88 125.73 514.45 135.15 509.02 149.74 517.45 140.33 522.88"/><polygon class="cls-25" points="155.94 533.7 141.35 525.27 141.35 523.49 165.35 526.48 165.35 528.26 155.94 533.7"/><polygon class="cls-26" points="155.94 531.91 141.35 523.49 150.76 518.05 165.35 526.48 155.94 531.91"/><polygon class="cls-25" points="171.56 542.72 156.97 534.29 156.97 532.51 180.97 535.51 180.97 537.29 171.56 542.72"/><polygon class="cls-26" points="171.56 540.94 156.97 532.51 166.38 527.08 180.97 535.51 171.56 540.94"/><polygon class="cls-25" points="187.18 551.75 172.58 543.33 172.58 541.54 196.59 544.53 196.59 546.32 187.18 551.75"/><polygon class="cls-26" points="187.18 549.97 172.58 541.54 181.99 536.11 196.59 544.53 187.18 549.97"/><polygon class="cls-25" points="202.79 560.78 188.2 552.36 188.2 550.58 212.2 553.57 212.2 555.35 202.79 560.78"/><polygon class="cls-26" points="202.79 559 188.2 550.58 197.61 545.14 212.2 553.57 202.79 559"/><polygon class="cls-25" points="218.41 569.81 203.82 561.38 203.82 559.6 227.82 562.59 227.82 564.38 218.41 569.81"/><polygon class="cls-26" points="218.41 568.02 203.82 559.6 213.23 554.16 227.82 562.59 218.41 568.02"/><polygon class="cls-25" points="234.03 578.84 219.43 570.41 219.43 568.63 243.44 571.62 243.44 573.4 234.03 578.84"/><polygon class="cls-26" points="234.03 577.05 219.43 568.63 228.84 563.2 243.44 571.62 234.03 577.05"/><polygon class="cls-25" points="249.64 587.87 235.05 579.44 235.05 577.66 259.05 580.65 259.05 582.43 249.64 587.87"/><polygon class="cls-26" points="249.64 586.08 235.05 577.66 244.46 572.22 259.05 580.65 249.64 586.08"/><polygon class="cls-25" points="265.26 596.9 250.66 588.47 250.66 586.69 274.67 589.68 274.67 591.46 265.26 596.9"/><polygon class="cls-26" points="265.26 595.11 250.66 586.69 260.08 581.25 274.67 589.68 265.26 595.11"/><polygon class="cls-25" points="286.37 608.94 266.28 597.5 266.28 595.71 295.78 601.73 295.78 603.51 286.37 608.94"/><polygon class="cls-26" points="286.37 607.16 266.28 595.71 275.69 590.28 295.78 601.73 286.37 607.16"/><polygon class="cls-25" points="89.77 509.62 72.09 499.26 72.09 497.47 99.19 502.4 99.19 504.19 89.77 509.62"/><polygon class="cls-26" points="89.77 507.84 72.09 497.47 81.5 492.04 99.19 502.4 89.77 507.84"/><polygon class="cls-25" points="105.39 518.66 90.8 510.23 90.8 508.45 114.81 511.44 114.81 513.22 105.39 518.66"/><polygon class="cls-26" points="105.39 516.87 90.8 508.45 100.21 503.01 114.81 511.44 105.39 516.87"/><polygon class="cls-25" points="121.01 527.68 106.42 519.26 106.42 517.48 130.42 520.46 130.42 522.25 121.01 527.68"/><polygon class="cls-26" points="121.01 525.9 106.42 517.48 115.83 512.04 130.42 520.46 121.01 525.9"/><polygon class="cls-25" points="214.41 581.81 122.03 528.29 122.03 526.5 223.81 574.6 223.81 576.38 214.41 581.81"/><polygon class="cls-26" points="214.41 580.03 122.03 526.5 131.44 521.07 223.81 574.6 214.41 580.03"/><polygon class="cls-25" points="230.32 590.88 215.73 582.46 215.73 580.68 239.73 583.67 239.73 585.45 230.32 590.88"/><polygon class="cls-26" points="230.32 589.1 215.73 580.68 225.14 575.24 239.73 583.67 230.32 589.1"/><polygon class="cls-25" points="245.94 599.92 231.35 591.49 231.35 589.7 255.35 592.7 255.35 594.48 245.94 599.92"/><polygon class="cls-26" points="245.94 598.13 231.35 589.7 240.76 584.27 255.35 592.7 245.94 598.13"/><polygon class="cls-25" points="261.56 608.94 246.96 600.52 246.96 598.73 270.97 601.73 270.97 603.51 261.56 608.94"/><polygon class="cls-26" points="261.56 607.16 246.96 598.73 256.37 593.3 270.97 601.73 261.56 607.16"/><polygon class="cls-25" points="274.13 616.16 262.58 609.54 262.58 607.76 283.54 608.94 283.54 610.73 274.13 616.16"/><polygon class="cls-26" points="274.13 614.37 262.58 607.76 271.99 602.33 283.54 608.94 274.13 614.37"/><polygon class="cls-2" points="469.46 442.85 469.46 553.2 563.21 585.69 586.61 567.75 469.46 442.85"/><polygon class="cls-5" points="540.45 442.85 581.03 419.33 624.1 450.97 583.53 474.48 540.45 442.85"/><polygon class="cls-3" points="583.52 486.19 624.1 462.67 624.1 450.97 583.53 474.48 583.52 486.19"/><polygon class="cls-5" points="583.52 486.18 624.1 462.67 634.24 468.52 593.66 492.04 583.52 486.18"/><polygon class="cls-3" points="593.65 503.75 634.24 480.23 634.24 468.52 593.66 492.04 593.65 503.75"/><polygon class="cls-5" points="593.65 503.77 634.24 480.25 644.37 486.11 603.8 509.62 593.65 503.77"/><polygon class="cls-3" points="603.79 521.33 644.37 497.81 644.37 486.11 603.8 509.62 603.79 521.33"/><polygon class="cls-5" points="603.79 521.35 644.37 497.84 654.51 503.69 613.94 527.21 603.79 521.35"/><polygon class="cls-3" points="613.93 538.91 654.51 515.4 654.51 503.69 613.94 527.21 613.93 538.91"/><polygon class="cls-5" points="613.93 538.93 654.51 515.42 664.65 521.28 624.08 544.8 613.93 538.93"/><polygon class="cls-3" points="624.07 556.5 664.65 532.99 664.65 521.28 624.08 544.8 624.07 556.5"/><polygon class="cls-5" points="624.07 556.52 664.65 533.01 674.79 538.86 634.21 562.38 624.07 556.52"/><polygon class="cls-3" points="634.2 574.08 674.79 550.57 674.79 538.86 634.21 562.38 634.2 574.08"/><polygon class="cls-5" points="634.2 574.1 674.79 550.58 684.92 556.44 644.35 579.95 634.2 574.1"/><polygon class="cls-3" points="644.34 591.66 684.92 568.14 684.92 556.44 644.35 579.95 644.34 591.66"/><polygon class="cls-6" points="624.07 556.42 624.07 544.71 613.93 538.86 613.93 527.06 603.8 521.31 603.8 509.6 593.66 503.75 593.66 492.05 583.53 486.19 583.53 474.48 540.45 442.85 540.45 442.85 634.2 585.69 644.37 591.54 644.37 579.83 634.2 574.08 634.2 562.28 624.07 556.42"/><path class="cls-27" d="M374.65,347.27v49.81c0,10.24,6.77,20.49,20.31,28.31,27.08,15.63,71,15.63,98.06,0,13.54-7.82,20.31-18.07,20.31-28.32v-49.8Z"/><polygon class="cls-28" points="441.31 412.18 322.47 343.56 322.47 340.28 560.15 340.28 560.15 343.56 441.31 412.18"/><polygon class="cls-23" points="441.31 408.89 322.47 340.28 441.31 271.66 560.15 340.28 441.31 408.89"/><polygon class="cls-6" points="507 415.68 502.88 415.68 502.88 373.42 440.39 342.11 442.23 338.44 507 370.88 507 415.68"/><ellipse class="cls-6" cx="443.02" cy="341.02" rx="6.78" ry="4.11"/><path class="cls-6" d="M509.84,434.58V413.67a4.78,4.78,0,1,0-9.55,0v20.91Z"/><path class="cls-2" d="M112,652.35s21-.48,46.8-24.34S205.18,593,205.18,593v-7.27l72.34-42.46,18.17-12.1-.53-112.69-27.82,25.35-2,69.66-87.29,56.87Z"/><path class="cls-29" d="M149.49,627c-4.65,6.62-30.54,30.3-38.19,24.93h0c-7.64-5.37,5.85-37.76,10.51-44.38l143.32-204c4.65-6.62,14.62-7.63,22.26-2.26h0c7.64,5.37,10.07,15.09,5.42,21.71Z"/><path class="cls-30" d="M287.39,401.31a19.25,19.25,0,0,0-4.89-2.48c3.34,5.21,3.7,11.62.33,16.41l-143.32,204c-3.58,5.09-19.71,20.26-30.45,24.56-.24,3.84.35,6.82,2.24,8.15,7.65,5.37,33.54-18.31,38.19-24.93L292.8,423C297.45,416.4,295,406.68,287.39,401.31Z"/><path class="cls-31" d="M126.8,600.45l-5,7.12c-4.65,6.62-18.15,39-10.51,44.38s33.54-18.31,38.19-24.93l5-7.12Z"/><path class="cls-32" d="M146.05,614l-3.61,5.15c-4.65,6.62-25.1,36-32.75,30.66a4.67,4.67,0,0,0,1.61,2.16c7.65,5.37,33.54-18.31,38.19-24.93l5-7.12Z"/><polygon class="cls-23" points="228.1 520.69 206.57 505.57 195.17 497.56 257.71 408.55 290.63 431.68 228.1 520.69"/><polygon class="cls-33" points="276.44 421.71 213.99 510.59 195.26 497.44 195.17 497.56 206.57 505.57 228.1 520.69 290.63 431.68 276.44 421.71"/><rect class="cls-34" x="266.49" y="406.45" width="6.3" height="40.24" transform="translate(-234.4 401.98) rotate(-54.91)"/><path class="cls-31" d="M283.35,426.57s16.05,6.23,4.56,24.57-39.54,47.94-42.31,59.45-13.71,10.29-14,1.93,9.87-17.34,19.23-29.73,38-47.38,27.15-60Z"/><polygon class="cls-9" points="672.76 0 547.06 49.2 601.26 55.65 672.76 0"/><polygon class="cls-5" points="600.38 55.55 608.77 79.01 672.76 0 600.38 55.55"/><polygon class="cls-3" points="618.36 60.95 608.77 79.01 672.76 0 618.36 60.95"/><polygon class="cls-9" points="672.76 0 655.84 82.87 618.36 60.95 672.76 0"/><path class="cls-7" d="M597.06,79.81l-2.79-2.35c3-3.59,4.73-5.57,4.73-5.57l2.77,2.37S600.08,76.23,597.06,79.81Z"/><path class="cls-6" d="M638.8,477.35q-2.8,0-5.64,0l.06-3.65c4.87.08,9.68.06,14.51-.08l.1,3.65C644.83,477.31,641.79,477.35,638.8,477.35Zm-20.29-.61c-4.26-.25-8.64-.58-13-1l-1.59-.15.36-3.63,1.58.15c4.34.41,8.68.74,12.89,1Zm44-.28-.28-3.64c4.87-.37,9.71-.87,14.41-1.47l.47,3.62C672.33,475.59,667.42,476.09,662.49,476.46Zm-73.15-2.61c-4.89-.69-9.76-1.49-14.47-2.38l.68-3.59c4.65.88,9.46,1.67,14.3,2.35ZM691.6,472.7l-.67-3.59c4.77-.89,9.53-1.92,14.15-3.07l.88,3.54C701.27,470.75,696.44,471.8,691.6,472.7Zm-131.07-4.31c-4.82-1.17-9.58-2.49-14.16-3.9l1.08-3.49c4.51,1.39,9.2,2.68,13.95,3.84Zm159.58-2.81L719,462.09c4.65-1.48,9.22-3.13,13.6-4.88l1.35,3.39C729.49,462.39,724.83,464.06,720.1,465.57Zm-187.63-5.88c-4.65-1.79-9.19-3.74-13.52-5.8l1.57-3.29c4.24,2,8.71,3.93,13.27,5.69Zm214.93-5.07-1.61-3.28c4.37-2.15,8.63-4.47,12.67-6.9l1.88,3.13C756.21,450.06,751.86,452.43,747.4,454.62ZM505.93,447c-4.3-2.53-8.45-5.25-12.33-8.09l2.15-2.95c3.79,2.77,7.84,5.42,12,7.89Zm266.69-7.59-2.16-2.94a142,142,0,0,0,11.16-9.09l2.45,2.71A145,145,0,0,1,772.62,439.4Zm-290.48-9.83A127.51,127.51,0,0,1,471.81,419l2.75-2.4a123.5,123.5,0,0,0,10,10.27Zm312.32-10-2.73-2.42a116.89,116.89,0,0,0,8.83-11.31l3,2.06A120.83,120.83,0,0,1,794.46,419.57Zm-331.65-12.3a119.58,119.58,0,0,1-7.49-12.76l3.26-1.65a116.31,116.31,0,0,0,7.26,12.37Zm348.3-12.13-3.27-1.64a96.53,96.53,0,0,0,5.45-13.22l3.47,1.14A100.73,100.73,0,0,1,811.11,395.14ZM449.45,380.92a128.14,128.14,0,0,1-4.21-14.18l3.55-.83a124.67,124.67,0,0,0,4.09,13.77ZM820.25,367l-3.61-.56a84.49,84.49,0,0,0,1-13v-1.2l3.65,0v1.24A88.21,88.21,0,0,1,820.25,367ZM442.66,352.2c-.59-4.81-.95-9.76-1.06-14.73l3.65-.08a143.81,143.81,0,0,0,1,14.36ZM816.21,338a83.06,83.06,0,0,0-3.87-13.72l3.42-1.29a87,87,0,0,1,4,14.32ZM445.62,323l-3.64-.26c.34-4.83.91-9.76,1.7-14.65l3.6.58C446.51,313.44,446,318.27,445.62,323Zm360.59-11.58a95.88,95.88,0,0,0-8.09-11.8l2.85-2.28a99.19,99.19,0,0,1,8.4,12.25ZM450.15,294.52l-3.55-.87c1.17-4.74,2.55-9.5,4.09-14.15l3.46,1.16C452.64,285.2,451.29,289.87,450.15,294.52Zm9.13-27.37-3.36-1.43c1.95-4.56,4.08-9,6.35-13.31l3.22,1.71C463.28,258.3,461.19,262.68,459.28,267.15Zm13.57-25.44-3.07-2c2.51-3.88,5.23-8,8.1-12.2l3,2C478.06,233.77,475.35,237.85,472.86,241.71Zm16.33-24.12-3-2.1q4.14-5.9,8.49-11.91l3,2.14Q493.33,211.7,489.19,217.59ZM506.26,194l-2.93-2.17q4.33-5.86,8.74-11.71l2.92,2.2Q510.59,188.11,506.26,194Zm17.55-23.29-2.89-2.22q4.48-5.83,8.93-11.56l2.88,2.24Q528.29,164.83,523.81,170.66Zm17.92-23-2.87-2.26q4.61-5.84,9.08-11.45l2.85,2.28Q546.35,141.79,541.73,147.64Zm18.2-22.81-2.84-2.29q4.77-5.91,9.21-11.34l2.83,2.31Q564.71,118.91,559.93,124.83Zm18.45-22.62-2.82-2.32c3.41-4.14,6.54-7.91,9.33-11.25L587.7,91C584.91,94.32,581.79,98.09,578.38,102.22Z"/><path class="cls-7" d="M788.2,288.85c-1.72-1.63-3.52-3.23-5.37-4.78l2.35-2.8c1.9,1.59,3.76,3.25,5.53,4.93Z"/><path class="cls-16" d="M122.32,316.4,119,315a97.87,97.87,0,0,1,4.71-9.17v7.44Z"/><path class="cls-6" d="M182.53,436.2c-2.27,0-4.64-.07-7-.21l.21-3.64a111.42,111.42,0,0,0,14.51-.08l.27,3.64C187.93,436.11,185.25,436.2,182.53,436.2Zm-21.89-1.88a97.27,97.27,0,0,1-14.59-3.59l1.16-3.46a93.44,93.44,0,0,0,14,3.45Zm44.72-.72-.87-3.54A70.82,70.82,0,0,0,218,425.28l1.57,3.29A74.18,74.18,0,0,1,205.36,433.6Zm-73.07-9.13a54.36,54.36,0,0,1-11.86-9.53l2.67-2.49a50.64,50.64,0,0,0,11.07,8.89Zm100.15-3.92-2.28-2.85a63.39,63.39,0,0,0,10.09-10.14l2.86,2.27A67,67,0,0,1,232.43,420.56ZM111.85,402.35a59.87,59.87,0,0,1-4.73-14.43l3.58-.71a56.17,56.17,0,0,0,4.43,13.55Zm139.39-5.24L248,395.46a89.46,89.46,0,0,0,5.46-13.38l3.48,1.11A92.81,92.81,0,0,1,251.23,397.12ZM105.7,372.9v-.43a109.66,109.66,0,0,1,1-14.55l3.62.48a106,106,0,0,0-1,14.06v.41Zm154.8-4.27L256.9,368a137.62,137.62,0,0,0,1.78-14.46l3.64.26A141.7,141.7,0,0,1,260.49,368.63ZM113.06,344.09l-3.55-.86c1.14-4.68,2.54-9.51,4.15-14.33l3.46,1.16C115.55,334.79,114.18,339.51,113.06,344.09Zm146-5.16c-.08-4.73-.34-9.65-.79-14.61l3.64-.33c.46,5.05.73,10.06.81,14.88Zm-2.6-29.14c-.74-4.72-1.64-9.57-2.69-14.41l3.57-.77c1.06,4.91,2,9.83,2.73,14.62Zm-6.16-28.66c-1.26-4.65-2.67-9.38-4.19-14.06l3.47-1.13c1.53,4.73,3,9.52,4.24,14.23ZM241.42,253c-1.49-4.69-2.88-9.5-4.12-14.28l3.53-.92c1.23,4.72,2.59,9.47,4.06,14.1ZM234,224.27c-1-4.84-1.85-9.77-2.57-14.65l3.61-.53c.71,4.81,1.56,9.67,2.53,14.45Zm-4.33-29.41c-.45-5-.77-10-.94-14.85l3.65-.12c.16,4.83.47,9.75.92,14.64Zm2.65-29.62-3.65-.1c.13-5,.43-10,.88-14.86l3.63.34C232.7,155.38,232.41,160.3,232.28,165.24ZM235,136.1l-3.6-.6c.84-5,1.87-9.92,3.06-14.6l3.54.9C236.85,126.39,235.84,131.2,235,136.1Zm7.27-28.24-3.43-1.25a125.56,125.56,0,0,1,5.91-13.76L248,94.5A122.2,122.2,0,0,0,242.3,107.86Zm13.18-25.78-3-2.11a80.74,80.74,0,0,1,9.79-11.46l2.53,2.63A77.11,77.11,0,0,0,255.47,82.08Zm89.58-17.5A118,118,0,0,0,331.63,59l1.18-3.46a121.91,121.91,0,0,1,13.84,5.73Zm-68.89-2.17-1.87-3.14a59.9,59.9,0,0,1,13.9-6.07l1,3.5A56.24,56.24,0,0,0,276.16,62.42Zm41.47-7a69.76,69.76,0,0,0-14.33-1l-.14-3.65a73.77,73.77,0,0,1,15.08,1Z"/><path class="cls-29" d="M364.24,75.69c-2-1.36-4.08-2.67-6.09-3.9l1.91-3.11c2,1.26,4.14,2.6,6.21,4Z"/><path class="cls-35" d="M790,466.83l-10.11,5.48-7.05-3.82L705,505.22c-9.67,5.24-9.67,13.73,0,19l.87.47c9.67,5.24,25.35,5.24,35,0L790,498.08Z"/><polygon class="cls-36" points="801.33 485.26 832.28 467.39 832.28 459.11 776.85 471.13 801.33 485.26"/><polygon class="cls-37" points="801.33 476.98 832.28 459.11 807.81 444.97 776.85 462.85 801.33 476.98"/><polygon class="cls-36" points="821.2 462.11 825.89 459.4 819.03 455.44 814.34 458.15 821.2 462.11"/><polygon class="cls-38" points="819.03 456.16 814.96 458.51 814.34 458.15 819.03 455.44 825.89 459.4 825.27 459.76 819.03 456.16"/><polygon class="cls-36" points="809.33 455.25 814.02 452.54 807.17 448.59 802.47 451.3 809.33 455.25"/><polygon class="cls-38" points="807.17 449.31 803.1 451.65 802.47 451.3 807.17 448.59 814.02 452.54 813.4 452.9 807.17 449.31"/><path class="cls-13" d="M712.12,498.53l5.78,5.42c.33-.22.67-.43,1-.64l97.29-31.95V486L752.6,522.75c-9.08,5.24-23.79,5.24-32.86,0l-.81-.47c-4.7-2.71-7-6.29-6.79-9.84h0Z"/><path class="cls-17" d="M718.93,488.65l63.61-36.73,33.68,19.44L752.6,508.09c-9.08,5.24-23.79,5.24-32.86,0l-.81-.47C709.85,502.38,709.85,493.89,718.93,488.65Z"/><path class="cls-39" d="M724.88,503.42c5.56,3.21,14.57,3.21,20.14,0s5.56-8.41,0-11.62-14.58-3.21-20.14,0S719.33,500.21,724.88,503.42Z"/><path class="cls-22" d="M134.09,59.1s-.26,13.1,6.58,16c5.51-1.1-.65-15.21-.65-15.21Z"/><path class="cls-19" d="M217.74,164.51A5.87,5.87,0,0,0,220,162.2l-4.61,2.59A21.78,21.78,0,0,0,217.74,164.51Z"/><path class="cls-19" d="M235,288.91h0a3.26,3.26,0,0,0-.42-.88c-2-2.9-10.26-9.33-12.57-11.11l.19-.33s1.67-44.25-3-63.35c-1.71-7-8-14.44-15.35-21.08l-.55-13,1.12-8.23-60.75,34c11.25,5.15,24.65,11.15,24.65,11.15s8.4,83.11,8.83,83.44a1.13,1.13,0,0,0-.45.69,20.61,20.61,0,0,0-.25,2.54c0,.05,0,.11,0,.16a3.11,3.11,0,0,0,.12.77v0a2.1,2.1,0,0,0,.36.65l.12.14a2.91,2.91,0,0,0,.68.54c1.69,1,3.54,2.17,12.22,6.76.52.27,1,.52,1.52.74l.47.19c.33.14.65.27,1,.38l.52.17.83.25.52.12.74.15.5.07.66.07.47,0h.58l.45,0,.49-.07a4,4,0,0,0,.43-.08l.37-.1a3.78,3.78,0,0,0,.42-.14l.23-.11a3.4,3.4,0,0,0,.44-.22,2.44,2.44,0,0,0,1.23-2.92h0a3.24,3.24,0,0,0-.43-.88c-1.87-2.71-9.24-8.53-12.07-10.72l.29-.29s0-42.36-2.75-61.84c-1-7.23,6.28-.54.76-7.37,8.63,3.49,14.37-13.81,14.37-13.81l7.31,64.77.38.17a9.64,9.64,0,0,0-.07,1.1c0,.06,0,.11,0,.16a3.08,3.08,0,0,0,.12.76v0a2.07,2.07,0,0,0,.36.64l.12.14a2.91,2.91,0,0,0,.68.54c1.69,1,3.54,2.17,12.22,6.76q.78.41,1.52.73l.47.2c.33.13.65.26,1,.37l.52.17c.28.09.56.18.83.25l.52.12.74.15.5.07.66.07.47,0h.58l.45,0,.49-.06.43-.08.37-.1c.15,0,.29-.09.42-.14l.23-.11a4.66,4.66,0,0,0,.44-.22A2.44,2.44,0,0,0,235,288.91Z"/><path class="cls-40" d="M220.79,181s-10.42.84-12.63,9.43c-1.75,7.38-4.71,2.92-4.11,4.28s5.86,11.69,10.88,7.12,12.4-9.28,9.55-18.94A6.58,6.58,0,0,0,220.79,181Z"/><path class="cls-22" d="M192.45,198.9s-10.42.84-12.63,9.43c-1.75,7.38-1.82,7.68-1.22,9.05s3,6.92,8,2.36,15.23-5.94,12.37-15.59C196.95,202.32,192.45,198.9,192.45,198.9Z"/><path class="cls-41" d="M174.41,75.16s-.19-1.85-5.19,9.25,7,46.56,9.86,50.45,38.59,14.84,46.45,2.71c-4.91-2.52-.17-6.14-1.13-11.82-14.6,5.11-35.64-3.69-40.1-7.39C176.87,112.2,187.89,90.52,174.41,75.16Z"/><path class="cls-17" d="M230,255.48s12.19,8.17,14.53,11.55-2.73,7-11.42,2.41-10.53-5.79-12.22-6.75-1.57-5.65,0-8.47C222.08,252,230,255.48,230,255.48Z"/><path class="cls-21" d="M220.84,261.14c1.69,1,3.54,2.17,12.22,6.76,6.53,3.44,11,2.26,11.84,0,1,3.06-3.92,5.71-11.84,1.53-8.69-4.58-10.53-5.79-12.22-6.75-1.29-.74-1.4-1.71-1.24-3.24A2.25,2.25,0,0,0,220.84,261.14Z"/><path class="cls-24" d="M138.38,151.17s.4,24.53,22.07,29.86,50,13.63,50,13.63l10.84,62.07s3.68,3.67,6.58,2.48a3.53,3.53,0,0,0,2.09-3.73s1.5-45.93-2.51-65.17c-3-14.23-53.28-35.68-53.28-35.68Z"/><path class="cls-22" d="M224.49,182.85c-11.6-16.37-39-32.19-39-32.19l-47.08.51s.4,24.53,22.07,29.86c18.34,4.51,41,15.86,46.51,18.4C207.14,189.36,214.81,178.49,224.49,182.85Z"/><path class="cls-17" d="M198.13,276.81S209,285,211.31,288.4s-2.73,7-11.42,2.41-10.53-5.79-12.22-6.75-1.69-6.1.14-9.36C189,272.5,198.13,276.81,198.13,276.81Z"/><path class="cls-21" d="M187.67,282.5c1.69,1,3.54,2.17,12.22,6.76,6.53,3.44,11,2.26,11.84,0,1,3.06-3.92,5.71-11.84,1.53-8.68-4.58-10.53-5.79-12.22-6.75-1.29-.74-1.4-1.71-1.24-3.24A2.25,2.25,0,0,0,187.67,282.5Z"/><path class="cls-24" d="M116.92,165.66s-2.09,24.44,18.92,31.95,47,17,47,17l5.1,61.56a7.19,7.19,0,0,0,6,2.81c4.32,0,4.18-2.21,4.18-2.21s4.59-44.52,1.89-64-30.54-42.36-30.54-42.36Z"/><path class="cls-23" d="M199,204.14c-8-17-29.49-33.69-29.49-33.69l-52.55-4.79s-2.09,24.44,18.92,31.95c18.47,6.6,39.71,19.7,44,22.28C182.7,210.58,187,201.35,199,204.14Z"/><path class="cls-42" d="M188.51,152.7s2.34-73.28-20-81.84-42.83,11.81-51.57,31.54-6.43,54.07,0,66.83C147.59,190.33,189.38,162.83,188.51,152.7Z"/><path class="cls-43" d="M116.92,102.4c8.74-19.73,29.22-40.1,51.57-31.54a13.11,13.11,0,0,1,2.12,1.06c-16.46,2.09-30.46,17.9-37.29,33.31-8.73,19.73-6.43,54.07,0,66.83a43.28,43.28,0,0,0,9.47,4.92,44.58,44.58,0,0,1-25.87-7.74C110.49,156.47,108.19,122.13,116.92,102.4Z"/><path class="cls-24" d="M174.79,38.2s5.58,8.93.58,28.32c-4.06,15.71-4.66,24.4-11.22,25.06s-26.18-4.13-24-20.48c-2-.42-5.95-7.9-2.8-13.85s5.36.55,5.36.55-.13-13,9-17.69S174.79,38.2,174.79,38.2Z"/><path class="cls-22" d="M153.25,53.77c0-.75,7,9.18,18.18,6-3.84-1.16-4.73-3.87-4.73-3.87a9.89,9.89,0,0,0,10.17,3.31,14.77,14.77,0,0,1-4.07-2.35s4.26,2.24,8.35.62c-2.57-1.11-2.19-2.81-2.19-2.81s2.28,2.28,6.7-1.58c-1.8-.23-1.62-8.49-8.12-14.44S165.75,31.27,157,32.74c2.14-2.21,4.39-3.44,7.47-3-3.48-1.94-10.83,1.54-13,4.76-6.76-2.6-19.51,1.9-15.3,26.55.07-.62.65-4.63,3-5.39s4.4,3.94,3.86,5.13-.8,8.22-.8,8.22l3.09,1.62s-1-6.11,1.24-8S152.83,63.16,153.25,53.77Z"/><polygon class="cls-8" points="228.03 109.02 214.79 126.8 172 116.82 174.45 172.13 213.38 171.66 226.19 156.06 228.03 109.02"/><polygon class="cls-10" points="228.03 101.54 214.79 126.8 213.38 171.66 226.19 156.06 228.03 101.54"/><path class="cls-24" d="M227.24,129.31s-2.94,6-4.76,6.71-.41,10.72,5.18,7.5S230.61,129.63,227.24,129.31Z"/><path class="cls-24" d="M190.52,146.79c-3.11-.22-6.65.54-12.11.64s-5.27-3-5.48-7.4c-1.73,1.28-2.78,4.72-5.57,6.75s-4.11,0-4.11,0l-.59.44c-19.8-3.5-33.78-8.41-36.92-13.12s5.61-19.4,6.37-32.56c0,0,1.76-16.5-8.83-10.5s-14.14,48.3-14.14,53.12,35.51,11.52,54.08,13.21a25.57,25.57,0,0,0,10.7,3.68C189.93,160.75,193.64,147,190.52,146.79Z"/><path class="cls-44" d="M134.82,100.1S133.88,85,123.28,91c-5.43,3.08-11,19.3-15.21,29.83A46.9,46.9,0,0,0,128,129.31,49.35,49.35,0,0,0,134.82,100.1Z"/><path class="cls-44" d="M182,44.61s-.71,10.78-46,15.23a13.16,13.16,0,0,1-2.7-6.88c-.84-5.8.25-12.82,1.69-15.6,2.14-4.11,1.62-9.74-.94-12.32s-2-8.21,6.84-4.26S172.51,21.74,182,44.61Z"/><path class="cls-9" d="M133.34,53.19s8.43,2.43,25.43-.65,21.23-9,21.28-11.9c4.84.15,4.2,6.93,3.55,8.14-2.43,4.49-28.34,15.71-47.46,12C132.31,58.7,132.28,54.67,133.34,53.19Z"/><circle class="cls-43" cx="132.11" cy="19.88" r="6.47"/></g></g></g></svg>